<?xml version="1.0" encoding="UTF-8"?>
<svg xmlns="http://www.w3.org/2000/svg" viewBox="0 0 900 700" width="900" height="700" font-family="-apple-system,BlinkMacSystemFont,Segoe UI,Roboto,Helvetica,Arial,sans-serif"><defs><linearGradient id="gbg" x1="0" y1="0" x2="0" y2="1"><stop offset="0" stop-color="#fcfbf8"/><stop offset="1" stop-color="#eef0ec"/></linearGradient><linearGradient id="gnode" x1="0" y1="0" x2="0" y2="1"><stop offset="0" stop-color="#ffffff"/><stop offset="1" stop-color="#eef1f6"/></linearGradient><linearGradient id="gacc" x1="0" y1="0" x2="1" y2="0"><stop offset="0" stop-color="#1d4ed8"/><stop offset="1" stop-color="#0891b2"/></linearGradient><linearGradient id="garea" x1="0" y1="0" x2="0" y2="1"><stop offset="0" stop-color="#1d4ed8" stop-opacity="0.34"/><stop offset="1" stop-color="#1d4ed8" stop-opacity="0"/></linearGradient><filter id="sh" x="-30%" y="-30%" width="160%" height="160%"><feDropShadow dx="0" dy="5" stdDeviation="9" flood-color="#16202e" flood-opacity="0.14"/></filter><filter id="shsoft" x="-40%" y="-40%" width="180%" height="180%"><feDropShadow dx="0" dy="10" stdDeviation="22" flood-color="#16202e" flood-opacity="0.14"/></filter><marker id="arr" markerWidth="9" markerHeight="9" refX="6.5" refY="3" orient="auto"><path d="M0,0 L6.5,3 L0,6 Z" fill="#1d4ed8"/></marker><marker id="arrUp" markerWidth="9" markerHeight="9" refX="3" refY="6.2" orient="auto"><path d="M0,6.2 L3,0 L6,6.2 Z" fill="#0f766e"/></marker><pattern id="grid" width="24" height="24" patternUnits="userSpaceOnUse"><path d="M24 0 H0 V24" fill="none" stroke="#8aa0c2" stroke-width="0.6" opacity="0.35"/></pattern><pattern id="gridFine" width="22" height="22" patternUnits="userSpaceOnUse"><path d="M22 0 H0 V22" fill="none" stroke="#8aa0c2" stroke-width="0.5" opacity="0.28"/></pattern><filter id="glow" x="-60%" y="-60%" width="220%" height="220%"><feGaussianBlur stdDeviation="2.4" result="b"/><feMerge><feMergeNode in="b"/><feMergeNode in="SourceGraphic"/></feMerge></filter></defs><rect x="0" y="0" width="900" height="700" fill="url(#gbg)"/><g filter="url(#shsoft)"><rect x="26" y="26" width="848" height="648" rx="24" fill="url(#gbg)" stroke="#dde2ea" stroke-width="1"/></g><clipPath id="pc"><rect x="26" y="26" width="848" height="648" rx="24"/></clipPath><rect x="26" y="26" width="848" height="648" fill="url(#gridFine)" clip-path="url(#pc)"/><rect x="26" y="26" width="848" height="6" rx="3" fill="url(#gacc)"/><path d="M 39 51 L 39 39 L 51 39" fill="none" stroke="#1d4ed8" stroke-width="1.4" opacity="0.55"/><path d="M 861 51 L 861 39 L 849 39" fill="none" stroke="#1d4ed8" stroke-width="1.4" opacity="0.55"/><path d="M 39 649 L 39 661 L 51 661" fill="none" stroke="#1d4ed8" stroke-width="1.4" opacity="0.55"/><path d="M 861 649 L 861 661 L 849 661" fill="none" stroke="#1d4ed8" stroke-width="1.4" opacity="0.55"/><g transform="translate(73.0,76.0)"><rect x="-15.0" y="-15.0" width="30.0" height="30.0" rx="5.1" fill="none" stroke="#1d4ed8" stroke-width="2.1"/><rect x="-9.0" y="-9.0" width="18.0" height="18.0" rx="3.6" fill="none" stroke="#b45309" stroke-width="1.9"/><rect x="-3.6" y="-3.6" width="7.2" height="7.2" rx="1.8" fill="#0f766e"/></g><text x="98.0" y="58.0" font-size="9.5" font-weight="700" fill="#1d4ed8" letter-spacing="2.4" font-family="ui-monospace,SFMono-Regular,Menlo,Consolas,monospace">OPENWORLD · MODEL CARD</text><text x="98.0" y="84.0" font-size="29" font-weight="700" fill="#16202e" font-family="'Iowan Old Style','Palatino Linotype',Palatino,Georgia,serif">arc3-ls20</text><text x="58.0" y="104.0" font-size="14" font-weight="500" fill="#5b6675">Discovered world model for ARC-AGI-3 game ls20 (Claude Fable source-free solve):</text><text x="58.0" y="123.0" font-size="14" font-weight="500" fill="#5b6675">masked-frame state, learned-table dynamics, reward = levels_completed.</text><rect x="810.2" y="48.0" width="45.8" height="22" rx="11.0" fill="#eaeef6"/><text x="818.2" y="62.0" font-size="12" font-weight="600" fill="#1e3a8a">v0.1</text><line x1="58" y1="154.0" x2="842" y2="154.0" stroke="#dde2ea" stroke-width="1"/><rect x="58" y="192.0" width="784" height="270.0" rx="16" fill="#eef1f6" fill-opacity="0.5" stroke="#dde2ea" stroke-width="1"/><text x="58.0" y="180.0" font-size="11" font-weight="700" fill="#5b6675" letter-spacing="1.6" font-family="ui-monospace,SFMono-Regular,Menlo,Consolas,monospace">STATE-TRANSITION GRAPH</text><path d="M 126.2 335.0 C 143.2 335.0, 143.2 335.0, 157.2 335.0" fill="none" stroke="#1d4ed8" stroke-width="1.7" stroke-opacity="0.85" marker-end="url(#arr)"/><rect x="114.2" y="327.0" width="58.0" height="15" rx="7.5" fill="#fcfbf8" stroke="#dde2ea" stroke-width="0.8"/><text x="143.2" y="338.0" font-size="9.5" font-weight="600" fill="#1d4ed8" text-anchor="middle">13 steps</text><path d="M 228.5 335.0 C 245.5 335.0, 245.5 335.0, 259.5 335.0" fill="none" stroke="#1d4ed8" stroke-width="1.7" stroke-opacity="0.85" marker-end="url(#arr)"/><rect x="216.5" y="327.0" width="58.0" height="15" rx="7.5" fill="#fcfbf8" stroke="#dde2ea" stroke-width="0.8"/><text x="245.5" y="338.0" font-size="9.5" font-weight="600" fill="#1d4ed8" text-anchor="middle">45 steps</text><path d="M 330.8 335.0 C 347.8 335.0, 347.8 335.0, 361.8 335.0" fill="none" stroke="#1d4ed8" stroke-width="1.7" stroke-opacity="0.85" marker-end="url(#arr)"/><rect x="318.8" y="327.0" width="58.0" height="15" rx="7.5" fill="#fcfbf8" stroke="#dde2ea" stroke-width="0.8"/><text x="347.8" y="338.0" font-size="9.5" font-weight="600" fill="#1d4ed8" text-anchor="middle">49 steps</text><path d="M 433.0 335.0 C 450.0 335.0, 450.0 335.0, 464.0 335.0" fill="none" stroke="#1d4ed8" stroke-width="1.7" stroke-opacity="0.85" marker-end="url(#arr)"/><rect x="421.0" y="327.0" width="58.0" height="15" rx="7.5" fill="#fcfbf8" stroke="#dde2ea" stroke-width="0.8"/><text x="450.0" y="338.0" font-size="9.5" font-weight="600" fill="#1d4ed8" text-anchor="middle">57 steps</text><path d="M 535.2 335.0 C 552.2 335.0, 552.2 335.0, 566.2 335.0" fill="none" stroke="#1d4ed8" stroke-width="1.7" stroke-opacity="0.85" marker-end="url(#arr)"/><rect x="523.2" y="327.0" width="58.0" height="15" rx="7.5" fill="#fcfbf8" stroke="#dde2ea" stroke-width="0.8"/><text x="552.2" y="338.0" font-size="9.5" font-weight="600" fill="#1d4ed8" text-anchor="middle">62 steps</text><path d="M 637.5 335.0 C 654.5 335.0, 654.5 335.0, 668.5 335.0" fill="none" stroke="#1d4ed8" stroke-width="1.7" stroke-opacity="0.85" marker-end="url(#arr)"/><rect x="622.5" y="327.0" width="64.0" height="15" rx="7.5" fill="#fcfbf8" stroke="#dde2ea" stroke-width="0.8"/><text x="654.5" y="338.0" font-size="9.5" font-weight="600" fill="#1d4ed8" text-anchor="middle">122 steps</text><path d="M 739.8 335.0 C 756.8 335.0, 756.8 335.0, 770.8 335.0" fill="none" stroke="#1d4ed8" stroke-width="1.7" stroke-opacity="0.85" marker-end="url(#arr)"/><rect x="727.8" y="327.0" width="58.0" height="15" rx="7.5" fill="#fcfbf8" stroke="#dde2ea" stroke-width="0.8"/><text x="756.8" y="338.0" font-size="9.5" font-weight="600" fill="#1d4ed8" text-anchor="middle">73 steps</text><g filter="url(#sh)"><rect x="58.0" y="307.0" width="68.2" height="56.0" rx="13" fill="url(#gnode)" stroke="#1d4ed8" stroke-width="2.2"/></g><text x="60.0" y="300.0" font-size="10" font-weight="700" fill="#1d4ed8">▶ start</text><text x="92.1" y="332.0" font-size="13" font-weight="700" fill="#16202e" text-anchor="middle">start</text><text x="92.1" y="347.0" font-size="11" font-weight="500" fill="#5b6675" text-anchor="middle">level 0</text><g filter="url(#sh)"><rect x="160.2" y="307.0" width="68.2" height="56.0" rx="13" fill="url(#gnode)" stroke="#dde2ea" stroke-width="1.2"/></g><text x="194.4" y="339.5" font-size="13" font-weight="700" fill="#16202e" text-anchor="middle">level 1</text><g filter="url(#sh)"><rect x="262.5" y="307.0" width="68.2" height="56.0" rx="13" fill="url(#gnode)" stroke="#dde2ea" stroke-width="1.2"/></g><text x="296.6" y="339.5" font-size="13" font-weight="700" fill="#16202e" text-anchor="middle">level 2</text><g filter="url(#sh)"><rect x="364.8" y="307.0" width="68.2" height="56.0" rx="13" fill="url(#gnode)" stroke="#dde2ea" stroke-width="1.2"/></g><text x="398.9" y="339.5" font-size="13" font-weight="700" fill="#16202e" text-anchor="middle">level 3</text><g filter="url(#sh)"><rect x="467.0" y="307.0" width="68.2" height="56.0" rx="13" fill="url(#gnode)" stroke="#dde2ea" stroke-width="1.2"/></g><text x="501.1" y="339.5" font-size="13" font-weight="700" fill="#16202e" text-anchor="middle">level 4</text><g filter="url(#sh)"><rect x="569.2" y="307.0" width="68.2" height="56.0" rx="13" fill="url(#gnode)" stroke="#dde2ea" stroke-width="1.2"/></g><text x="603.4" y="339.5" font-size="13" font-weight="700" fill="#16202e" text-anchor="middle">level 5</text><g filter="url(#sh)"><rect x="671.5" y="307.0" width="68.2" height="56.0" rx="13" fill="url(#gnode)" stroke="#dde2ea" stroke-width="1.2"/></g><text x="705.6" y="339.5" font-size="13" font-weight="700" fill="#16202e" text-anchor="middle">level 6</text><g filter="url(#sh)"><rect x="773.8" y="307.0" width="68.2" height="56.0" rx="13" fill="url(#gnode)" stroke="#dde2ea" stroke-width="1.2"/></g><text x="807.9" y="332.0" font-size="13" font-weight="700" fill="#16202e" text-anchor="middle">win</text><text x="807.9" y="347.0" font-size="11" font-weight="500" fill="#5b6675" text-anchor="middle">level 7</text><rect x="58.0" y="478.0" width="3" height="11" rx="1.5" fill="#1d4ed8"/><text x="67.0" y="487.0" font-size="10.5" font-weight="700" fill="#5b6675" letter-spacing="1.8" font-family="ui-monospace,SFMono-Regular,Menlo,Consolas,monospace">STATE SCHEMA</text><rect x="54.0" y="501.0" width="258.0" height="24" rx="6" fill="#1d4ed8" fill-opacity="0.035"/><text x="62.0" y="517.0" font-size="12" font-weight="600" fill="#16202e" font-family="ui-monospace,SFMono-Regular,Menlo,Consolas,monospace">sid</text><rect x="273.9" y="505.0" width="34.1" height="17" rx="5" fill="#eaeef6"/><text x="280.9" y="517.0" font-size="10.5" font-weight="700" fill="#1d4ed8" font-family="ui-monospace,SFMono-Regular,Menlo,Consolas,monospace">str</text><text x="265.9" y="517.0" font-size="10.5" font-weight="600" fill="#5b6675" text-anchor="end" font-family="ui-monospace,SFMono-Regular,Menlo,Consolas,monospace">&quot;2fe2ce4…&quot;</text><text x="62.0" y="543.0" font-size="12" font-weight="600" fill="#16202e" font-family="ui-monospace,SFMono-Regular,Menlo,Consolas,monospace">levels</text><rect x="273.9" y="531.0" width="34.1" height="17" rx="5" fill="#eaeef6"/><text x="280.9" y="543.0" font-size="10.5" font-weight="700" fill="#1d4ed8" font-family="ui-monospace,SFMono-Regular,Menlo,Consolas,monospace">int</text><text x="265.9" y="543.0" font-size="10.5" font-weight="600" fill="#5b6675" text-anchor="end" font-family="ui-monospace,SFMono-Regular,Menlo,Consolas,monospace">0</text><rect x="54.0" y="553.0" width="258.0" height="24" rx="6" fill="#1d4ed8" fill-opacity="0.035"/><text x="62.0" y="569.0" font-size="12" font-weight="600" fill="#16202e" font-family="ui-monospace,SFMono-Regular,Menlo,Consolas,monospace">miss</text><rect x="273.9" y="557.0" width="34.1" height="17" rx="5" fill="#eaeef6"/><text x="280.9" y="569.0" font-size="10.5" font-weight="700" fill="#1d4ed8" font-family="ui-monospace,SFMono-Regular,Menlo,Consolas,monospace">int</text><text x="265.9" y="569.0" font-size="10.5" font-weight="600" fill="#5b6675" text-anchor="end" font-family="ui-monospace,SFMono-Regular,Menlo,Consolas,monospace">0</text><rect x="328.0" y="478.0" width="3" height="11" rx="1.5" fill="#1d4ed8"/><text x="337.0" y="487.0" font-size="10.5" font-weight="700" fill="#5b6675" letter-spacing="1.8" font-family="ui-monospace,SFMono-Regular,Menlo,Consolas,monospace">ACTIONS</text><rect x="328.0" y="502.0" width="24.5" height="20" rx="6" fill="#eaeef6" stroke="#1d4ed8" stroke-width="1" stroke-opacity="0.16"/><text x="337.0" y="516.0" font-size="10.5" font-weight="600" fill="#1e3a8a" font-family="ui-monospace,SFMono-Regular,Menlo,Consolas,monospace">1</text><rect x="359.5" y="502.0" width="24.5" height="20" rx="6" fill="#eaeef6" stroke="#1d4ed8" stroke-width="1" stroke-opacity="0.16"/><text x="368.5" y="516.0" font-size="10.5" font-weight="600" fill="#1e3a8a" font-family="ui-monospace,SFMono-Regular,Menlo,Consolas,monospace">2</text><rect x="391.0" y="502.0" width="24.5" height="20" rx="6" fill="#eaeef6" stroke="#1d4ed8" stroke-width="1" stroke-opacity="0.16"/><text x="400.0" y="516.0" font-size="10.5" font-weight="600" fill="#1e3a8a" font-family="ui-monospace,SFMono-Regular,Menlo,Consolas,monospace">3</text><rect x="422.5" y="502.0" width="24.5" height="20" rx="6" fill="#eaeef6" stroke="#1d4ed8" stroke-width="1" stroke-opacity="0.16"/><text x="431.5" y="516.0" font-size="10.5" font-weight="600" fill="#1e3a8a" font-family="ui-monospace,SFMono-Regular,Menlo,Consolas,monospace">4</text><rect x="328.0" y="546.0" width="3" height="11" rx="1.5" fill="#1d4ed8"/><text x="337.0" y="555.0" font-size="10.5" font-weight="700" fill="#5b6675" letter-spacing="1.8" font-family="ui-monospace,SFMono-Regular,Menlo,Consolas,monospace">DYNAMICS</text><circle cx="337.0" cy="576.0" r="8" fill="#0f766e"/><path d="M333.4,576.0 l2.4,2.4 l4-4.4" fill="none" stroke="#fff" stroke-width="1.8" stroke-linecap="round" stroke-linejoin="round"/><text x="352.0" y="580.0" font-size="12.5" font-weight="700" fill="#16202e">code (from function)</text><rect x="570.0" y="478.0" width="3" height="11" rx="1.5" fill="#1d4ed8"/><text x="579.0" y="487.0" font-size="10.5" font-weight="700" fill="#5b6675" letter-spacing="1.8" font-family="ui-monospace,SFMono-Regular,Menlo,Consolas,monospace">SAMPLE ROLLOUT</text><text x="842.0" y="487.0" font-size="9.5" font-weight="600" fill="#5b6675" text-anchor="end" font-family="ui-monospace,SFMono-Regular,Menlo,Consolas,monospace">421 steps · solve trace</text><rect x="570.0" y="500.0" width="272.0" height="130" rx="12" fill="#eef1f6" stroke="#dde2ea" stroke-width="1"/><text x="578.0" y="514.0" font-size="9" font-weight="600" fill="#5b6675" font-family="ui-monospace,SFMono-Regular,Menlo,Consolas,monospace">7</text><text x="578.0" y="622.0" font-size="9" font-weight="600" fill="#5b6675" font-family="ui-monospace,SFMono-Regular,Menlo,Consolas,monospace">0</text><line x1="586.0" y1="540.5" x2="826.0" y2="540.5" stroke="#dde2ea" stroke-width="0.8" stroke-dasharray="1 5" opacity="0.7"/><line x1="586.0" y1="565.0" x2="826.0" y2="565.0" stroke="#dde2ea" stroke-width="0.8" stroke-dasharray="1 5" opacity="0.7"/><line x1="586.0" y1="589.5" x2="826.0" y2="589.5" stroke="#dde2ea" stroke-width="0.8" stroke-dasharray="1 5" opacity="0.7"/><path class="series" d="M 586.0 614.0 L 586.0 614.0 L 592.2 614.0 L 598.3 600.0 L 604.5 600.0 L 610.6 600.0 L 616.8 600.0 L 622.9 586.0 L 629.1 586.0 L 635.2 586.0 L 641.4 586.0 L 647.5 572.0 L 653.7 572.0 L 659.8 572.0 L 666.0 572.0 L 672.2 572.0 L 678.3 572.0 L 684.5 558.0 L 690.6 558.0 L 696.8 558.0 L 702.9 558.0 L 709.1 558.0 L 715.2 544.0 L 721.4 544.0 L 727.5 544.0 L 733.7 544.0 L 739.8 544.0 L 746.0 544.0 L 752.2 544.0 L 758.3 544.0 L 764.5 544.0 L 770.6 544.0 L 776.8 544.0 L 782.9 544.0 L 789.1 530.0 L 795.2 530.0 L 801.4 530.0 L 807.5 530.0 L 813.7 530.0 L 819.8 530.0 L 826.0 516.0 L 826.0 614.0 Z" fill="url(#garea)"/><polyline class="series" points="586.0,614.0 592.2,614.0 598.3,600.0 604.5,600.0 610.6,600.0 616.8,600.0 622.9,586.0 629.1,586.0 635.2,586.0 641.4,586.0 647.5,572.0 653.7,572.0 659.8,572.0 666.0,572.0 672.2,572.0 678.3,572.0 684.5,558.0 690.6,558.0 696.8,558.0 702.9,558.0 709.1,558.0 715.2,544.0 721.4,544.0 727.5,544.0 733.7,544.0 739.8,544.0 746.0,544.0 752.2,544.0 758.3,544.0 764.5,544.0 770.6,544.0 776.8,544.0 782.9,544.0 789.1,530.0 795.2,530.0 801.4,530.0 807.5,530.0 813.7,530.0 819.8,530.0 826.0,516.0" fill="none" stroke="#1d4ed8" stroke-width="2.4" stroke-linejoin="round"/><circle cx="826.0" cy="516.0" r="3.4" fill="#1d4ed8"/><text x="822.0" y="508.0" font-size="9.5" font-weight="700" fill="#1d4ed8" text-anchor="end" font-family="ui-monospace,SFMono-Regular,Menlo,Consolas,monospace">7</text><rect x="572.0" y="637.0" width="9" height="9" rx="2" fill="#1d4ed8"/><text x="586.0" y="646.0" font-size="10.5" font-weight="600" fill="#5b6675" font-family="ui-monospace,SFMono-Regular,Menlo,Consolas,monospace">levels ↑</text><line x1="58" y1="662.0" x2="842" y2="662.0" stroke="#dde2ea" stroke-width="1"/><text x="58.0" y="682.0" font-size="11" font-weight="500" fill="#5b6675">openworld_spec_version 1.0</text><a href="https://play.reactflow.dev" target="_blank"><text x="450.0" y="682.0" font-size="10.5" font-weight="700" fill="#1d4ed8" text-anchor="middle" font-family="ui-monospace,SFMono-Regular,Menlo,Consolas,monospace">▸ open in React Flow</text></a><text x="842.0" y="682.0" font-size="12" font-weight="800" fill="#1d4ed8" text-anchor="end">OpenWorld</text></svg>