<?xml version="1.0" encoding="UTF-8"?>
<svg xmlns="http://www.w3.org/2000/svg" viewBox="0 0 900 700" width="900" height="700" font-family="-apple-system,BlinkMacSystemFont,Segoe UI,Roboto,Helvetica,Arial,sans-serif"><defs><linearGradient id="gbg" x1="0" y1="0" x2="0" y2="1"><stop offset="0" stop-color="#fcfbf8"/><stop offset="1" stop-color="#eef0ec"/></linearGradient><linearGradient id="gnode" x1="0" y1="0" x2="0" y2="1"><stop offset="0" stop-color="#ffffff"/><stop offset="1" stop-color="#eef1f6"/></linearGradient><linearGradient id="gacc" x1="0" y1="0" x2="1" y2="0"><stop offset="0" stop-color="#1d4ed8"/><stop offset="1" stop-color="#0891b2"/></linearGradient><linearGradient id="garea" x1="0" y1="0" x2="0" y2="1"><stop offset="0" stop-color="#1d4ed8" stop-opacity="0.34"/><stop offset="1" stop-color="#1d4ed8" stop-opacity="0"/></linearGradient><filter id="sh" x="-30%" y="-30%" width="160%" height="160%"><feDropShadow dx="0" dy="5" stdDeviation="9" flood-color="#16202e" flood-opacity="0.14"/></filter><filter id="shsoft" x="-40%" y="-40%" width="180%" height="180%"><feDropShadow dx="0" dy="10" stdDeviation="22" flood-color="#16202e" flood-opacity="0.14"/></filter><marker id="arr" markerWidth="9" markerHeight="9" refX="6.5" refY="3" orient="auto"><path d="M0,0 L6.5,3 L0,6 Z" fill="#1d4ed8"/></marker><marker id="arrUp" markerWidth="9" markerHeight="9" refX="3" refY="6.2" orient="auto"><path d="M0,6.2 L3,0 L6,6.2 Z" fill="#0f766e"/></marker><pattern id="grid" width="24" height="24" patternUnits="userSpaceOnUse"><path d="M24 0 H0 V24" fill="none" stroke="#8aa0c2" stroke-width="0.6" opacity="0.35"/></pattern><pattern id="gridFine" width="22" height="22" patternUnits="userSpaceOnUse"><path d="M22 0 H0 V22" fill="none" stroke="#8aa0c2" stroke-width="0.5" opacity="0.28"/></pattern><filter id="glow" x="-60%" y="-60%" width="220%" height="220%"><feGaussianBlur stdDeviation="2.4" result="b"/><feMerge><feMergeNode in="b"/><feMergeNode in="SourceGraphic"/></feMerge></filter></defs><rect x="0" y="0" width="900" height="700" fill="url(#gbg)"/><g filter="url(#shsoft)"><rect x="26" y="26" width="848" height="648" rx="24" fill="url(#gbg)" stroke="#dde2ea" stroke-width="1"/></g><clipPath id="pc"><rect x="26" y="26" width="848" height="648" rx="24"/></clipPath><rect x="26" y="26" width="848" height="648" fill="url(#gridFine)" clip-path="url(#pc)"/><rect x="26" y="26" width="848" height="6" rx="3" fill="url(#gacc)"/><path d="M 39 51 L 39 39 L 51 39" fill="none" stroke="#1d4ed8" stroke-width="1.4" opacity="0.55"/><path d="M 861 51 L 861 39 L 849 39" fill="none" stroke="#1d4ed8" stroke-width="1.4" opacity="0.55"/><path d="M 39 649 L 39 661 L 51 661" fill="none" stroke="#1d4ed8" stroke-width="1.4" opacity="0.55"/><path d="M 861 649 L 861 661 L 849 661" fill="none" stroke="#1d4ed8" stroke-width="1.4" opacity="0.55"/><g transform="translate(73.0,76.0)"><rect x="-15.0" y="-15.0" width="30.0" height="30.0" rx="5.1" fill="none" stroke="#1d4ed8" stroke-width="2.1"/><rect x="-9.0" y="-9.0" width="18.0" height="18.0" rx="3.6" fill="none" stroke="#b45309" stroke-width="1.9"/><rect x="-3.6" y="-3.6" width="7.2" height="7.2" rx="1.8" fill="#0f766e"/></g><text x="98.0" y="58.0" font-size="9.5" font-weight="700" fill="#1d4ed8" letter-spacing="2.4" font-family="ui-monospace,SFMono-Regular,Menlo,Consolas,monospace">OPENWORLD · MODEL CARD</text><text x="98.0" y="84.0" font-size="29" font-weight="700" fill="#16202e" font-family="'Iowan Old Style','Palatino Linotype',Palatino,Georgia,serif">arc3-map-m0r0</text><text x="58.0" y="104.0" font-size="14" font-weight="500" fill="#5b6675">Discovered multi-modal map of ARC-AGI-3 m0r0 (ConsensusTransition hard-vote over 1</text><text x="58.0" y="123.0" font-size="14" font-weight="500" fill="#5b6675">modalities)</text><rect x="810.2" y="48.0" width="45.8" height="22" rx="11.0" fill="#eaeef6"/><text x="818.2" y="62.0" font-size="12" font-weight="600" fill="#1e3a8a">v0.1</text><line x1="58" y1="154.0" x2="842" y2="154.0" stroke="#dde2ea" stroke-width="1"/><rect x="58" y="192.0" width="784" height="270.0" rx="16" fill="#eef1f6" fill-opacity="0.5" stroke="#dde2ea" stroke-width="1"/><text x="58.0" y="180.0" font-size="11" font-weight="700" fill="#5b6675" letter-spacing="1.6" font-family="ui-monospace,SFMono-Regular,Menlo,Consolas,monospace">STATE-TRANSITION GRAPH</text><path d="M 203.2 335.0 C 290.3 335.0, 290.3 268.0, 374.4 268.0" fill="none" stroke="#1d4ed8" stroke-width="1.7" stroke-opacity="0.85" marker-end="url(#arr)"/><rect x="279.3" y="293.5" width="22.0" height="15" rx="7.5" fill="#fcfbf8" stroke="#dde2ea" stroke-width="0.8"/><text x="290.3" y="304.5" font-size="9.5" font-weight="600" fill="#1d4ed8" text-anchor="middle">s1</text><path d="M 203.2 335.0 C 290.3 335.0, 290.3 335.0, 374.4 335.0" fill="none" stroke="#1d4ed8" stroke-width="1.7" stroke-opacity="0.85" marker-end="url(#arr)"/><rect x="279.3" y="327.0" width="22.0" height="15" rx="7.5" fill="#fcfbf8" stroke="#dde2ea" stroke-width="0.8"/><text x="290.3" y="338.0" font-size="9.5" font-weight="600" fill="#1d4ed8" text-anchor="middle">s2</text><path d="M 203.2 335.0 C 290.3 335.0, 290.3 402.0, 374.4 402.0" fill="none" stroke="#1d4ed8" stroke-width="1.7" stroke-opacity="0.85" marker-end="url(#arr)"/><rect x="279.3" y="360.5" width="22.0" height="15" rx="7.5" fill="#fcfbf8" stroke="#dde2ea" stroke-width="0.8"/><text x="290.3" y="371.5" font-size="9.5" font-weight="600" fill="#1d4ed8" text-anchor="middle">s4</text><path d="M 117.6 314.5 C 106.6 288.5, 154.6 288.5, 143.6 314.5" fill="none" stroke="#1d4ed8" stroke-width="1.5" marker-end="url(#arr)"/><rect x="107.6" y="282.5" width="46.0" height="15" rx="7.5" fill="#fcfbf8" stroke="#dde2ea" stroke-width="0.8"/><text x="130.6" y="293.5" font-size="9.5" font-weight="600" fill="#1d4ed8" text-anchor="middle">s3, s5</text><path d="M 522.6 268.0 C 609.7 268.0, 609.7 301.5, 693.8 301.5" fill="none" stroke="#1d4ed8" stroke-width="1.7" stroke-opacity="0.85" marker-end="url(#arr)"/><rect x="598.7" y="276.8" width="22.0" height="15" rx="7.5" fill="#fcfbf8" stroke="#dde2ea" stroke-width="0.8"/><text x="609.7" y="287.8" font-size="9.5" font-weight="600" fill="#1d4ed8" text-anchor="middle">s5</text><path d="M 437.0 247.5 C 426.0 221.5, 474.0 221.5, 463.0 247.5" fill="none" stroke="#1d4ed8" stroke-width="1.5" marker-end="url(#arr)"/><rect x="415.0" y="215.5" width="70.0" height="15" rx="7.5" fill="#fcfbf8" stroke="#dde2ea" stroke-width="0.8"/><text x="450.0" y="226.5" font-size="9.5" font-weight="600" fill="#1d4ed8" text-anchor="middle">s1, s2, s3</text><path d="M 522.6 335.0 C 609.7 335.0, 609.7 368.5, 693.8 368.5" fill="none" stroke="#1d4ed8" stroke-width="1.7" stroke-opacity="0.85" marker-end="url(#arr)"/><rect x="598.7" y="343.8" width="22.0" height="15" rx="7.5" fill="#fcfbf8" stroke="#dde2ea" stroke-width="0.8"/><text x="609.7" y="354.8" font-size="9.5" font-weight="600" fill="#1d4ed8" text-anchor="middle">s4</text><path d="M 437.0 314.5 C 426.0 288.5, 474.0 288.5, 463.0 314.5" fill="none" stroke="#1d4ed8" stroke-width="1.5" marker-end="url(#arr)"/><rect x="415.0" y="282.5" width="70.0" height="15" rx="7.5" fill="#fcfbf8" stroke="#dde2ea" stroke-width="0.8"/><text x="450.0" y="293.5" font-size="9.5" font-weight="600" fill="#1d4ed8" text-anchor="middle">s1, s2, s3</text><g filter="url(#sh)"><rect x="58.0" y="314.5" width="145.2" height="41.0" rx="13" fill="url(#gnode)" stroke="#1d4ed8" stroke-width="2.2"/></g><text x="60.0" y="307.5" font-size="10" font-weight="700" fill="#1d4ed8">▶ start</text><text x="130.6" y="339.5" font-size="13" font-weight="700" fill="#16202e" text-anchor="middle">sig -1.5327e+18</text><g filter="url(#sh)"><rect x="377.4" y="247.5" width="145.2" height="41.0" rx="13" fill="url(#gnode)" stroke="#dde2ea" stroke-width="1.2"/></g><text x="450.0" y="272.5" font-size="13" font-weight="700" fill="#16202e" text-anchor="middle">sig 6.18485e+17</text><g filter="url(#sh)"><rect x="377.4" y="314.5" width="145.2" height="41.0" rx="13" fill="url(#gnode)" stroke="#dde2ea" stroke-width="1.2"/></g><text x="450.0" y="339.5" font-size="13" font-weight="700" fill="#16202e" text-anchor="middle">sig -7.33365e+18</text><g filter="url(#sh)"><rect x="377.4" y="381.5" width="145.2" height="41.0" rx="13" fill="url(#gnode)" stroke="#dde2ea" stroke-width="1.2"/></g><text x="450.0" y="406.5" font-size="13" font-weight="700" fill="#16202e" text-anchor="middle">sig 5.06574e+18</text><g filter="url(#sh)"><rect x="696.8" y="281.0" width="145.2" height="41.0" rx="13" fill="url(#gnode)" stroke="#dde2ea" stroke-width="1.2"/></g><text x="769.4" y="306.0" font-size="13" font-weight="700" fill="#16202e" text-anchor="middle">sig -4.08245e+18</text><g filter="url(#sh)"><rect x="696.8" y="348.0" width="145.2" height="41.0" rx="13" fill="url(#gnode)" stroke="#dde2ea" stroke-width="1.2"/></g><text x="769.4" y="373.0" font-size="13" font-weight="700" fill="#16202e" text-anchor="middle">sig 2.47872e+18</text><rect x="58.0" y="478.0" width="3" height="11" rx="1.5" fill="#1d4ed8"/><text x="67.0" y="487.0" font-size="10.5" font-weight="700" fill="#5b6675" letter-spacing="1.8" font-family="ui-monospace,SFMono-Regular,Menlo,Consolas,monospace">STATE SCHEMA</text><rect x="54.0" y="501.0" width="258.0" height="24" rx="6" fill="#1d4ed8" fill-opacity="0.035"/><text x="62.0" y="517.0" font-size="12" font-weight="600" fill="#16202e" font-family="ui-monospace,SFMono-Regular,Menlo,Consolas,monospace">sig</text><rect x="273.9" y="505.0" width="34.1" height="17" rx="5" fill="#eaeef6"/><text x="280.9" y="517.0" font-size="10.5" font-weight="700" fill="#1d4ed8" font-family="ui-monospace,SFMono-Regular,Menlo,Consolas,monospace">int</text><text x="265.9" y="517.0" font-size="10.5" font-weight="600" fill="#5b6675" text-anchor="end" font-family="ui-monospace,SFMono-Regular,Menlo,Consolas,monospace">-1.5327e+18</text><rect x="328.0" y="478.0" width="3" height="11" rx="1.5" fill="#1d4ed8"/><text x="337.0" y="487.0" font-size="10.5" font-weight="700" fill="#5b6675" letter-spacing="1.8" font-family="ui-monospace,SFMono-Regular,Menlo,Consolas,monospace">ACTIONS</text><rect x="328.0" y="502.0" width="31.0" height="20" rx="6" fill="#eaeef6" stroke="#1d4ed8" stroke-width="1" stroke-opacity="0.16"/><text x="337.0" y="516.0" font-size="10.5" font-weight="600" fill="#1e3a8a" font-family="ui-monospace,SFMono-Regular,Menlo,Consolas,monospace">s1</text><rect x="366.0" y="502.0" width="31.0" height="20" rx="6" fill="#eaeef6" stroke="#1d4ed8" stroke-width="1" stroke-opacity="0.16"/><text x="375.0" y="516.0" font-size="10.5" font-weight="600" fill="#1e3a8a" font-family="ui-monospace,SFMono-Regular,Menlo,Consolas,monospace">s2</text><rect x="404.0" y="502.0" width="31.0" height="20" rx="6" fill="#eaeef6" stroke="#1d4ed8" stroke-width="1" stroke-opacity="0.16"/><text x="413.0" y="516.0" font-size="10.5" font-weight="600" fill="#1e3a8a" font-family="ui-monospace,SFMono-Regular,Menlo,Consolas,monospace">s3</text><rect x="442.0" y="502.0" width="31.0" height="20" rx="6" fill="#eaeef6" stroke="#1d4ed8" stroke-width="1" stroke-opacity="0.16"/><text x="451.0" y="516.0" font-size="10.5" font-weight="600" fill="#1e3a8a" font-family="ui-monospace,SFMono-Regular,Menlo,Consolas,monospace">s4</text><rect x="480.0" y="502.0" width="31.0" height="20" rx="6" fill="#eaeef6" stroke="#1d4ed8" stroke-width="1" stroke-opacity="0.16"/><text x="489.0" y="516.0" font-size="10.5" font-weight="600" fill="#1e3a8a" font-family="ui-monospace,SFMono-Regular,Menlo,Consolas,monospace">s5</text><rect x="328.0" y="546.0" width="3" height="11" rx="1.5" fill="#1d4ed8"/><text x="337.0" y="555.0" font-size="10.5" font-weight="700" fill="#5b6675" letter-spacing="1.8" font-family="ui-monospace,SFMono-Regular,Menlo,Consolas,monospace">DYNAMICS</text><circle cx="337.0" cy="576.0" r="8" fill="none" stroke="#5b6675" stroke-width="1.6"/><text x="352.0" y="580.0" font-size="12.5" font-weight="700" fill="#16202e">function (lossy)</text><rect x="570.0" y="478.0" width="3" height="11" rx="1.5" fill="#1d4ed8"/><text x="579.0" y="487.0" font-size="10.5" font-weight="700" fill="#5b6675" letter-spacing="1.8" font-family="ui-monospace,SFMono-Regular,Menlo,Consolas,monospace">SAMPLE ROLLOUT</text><text x="842.0" y="487.0" font-size="9.5" font-weight="600" fill="#5b6675" text-anchor="end" font-family="ui-monospace,SFMono-Regular,Menlo,Consolas,monospace">12 steps · s4</text><rect x="570.0" y="500.0" width="272.0" height="130" rx="12" fill="#eef1f6" stroke="#dde2ea" stroke-width="1"/><text x="578.0" y="514.0" font-size="9" font-weight="600" fill="#5b6675" font-family="ui-monospace,SFMono-Regular,Menlo,Consolas,monospace">5.8287e+18</text><text x="578.0" y="622.0" font-size="9" font-weight="600" fill="#5b6675" font-family="ui-monospace,SFMono-Regular,Menlo,Consolas,monospace">-1.5327e+18</text><line x1="586.0" y1="540.5" x2="826.0" y2="540.5" stroke="#dde2ea" stroke-width="0.8" stroke-dasharray="1 5" opacity="0.7"/><line x1="586.0" y1="565.0" x2="826.0" y2="565.0" stroke="#dde2ea" stroke-width="0.8" stroke-dasharray="1 5" opacity="0.7"/><line x1="586.0" y1="589.5" x2="826.0" y2="589.5" stroke="#dde2ea" stroke-width="0.8" stroke-dasharray="1 5" opacity="0.7"/><path class="series" d="M 586.0 614.0 L 586.0 614.0 L 606.0 526.2 L 626.0 516.0 L 646.0 516.0 L 666.0 516.0 L 686.0 516.0 L 706.0 516.0 L 726.0 516.0 L 746.0 516.0 L 766.0 516.0 L 786.0 516.0 L 806.0 516.0 L 826.0 516.0 L 826.0 614.0 Z" fill="url(#garea)"/><polyline class="series" points="586.0,614.0 606.0,526.2 626.0,516.0 646.0,516.0 666.0,516.0 686.0,516.0 706.0,516.0 726.0,516.0 746.0,516.0 766.0,516.0 786.0,516.0 806.0,516.0 826.0,516.0" fill="none" stroke="#1d4ed8" stroke-width="2.4" stroke-linejoin="round"/><circle cx="826.0" cy="516.0" r="3.4" fill="#1d4ed8"/><text x="822.0" y="508.0" font-size="9.5" font-weight="700" fill="#1d4ed8" text-anchor="end" font-family="ui-monospace,SFMono-Regular,Menlo,Consolas,monospace">5.8287e+18</text><rect x="572.0" y="637.0" width="9" height="9" rx="2" fill="#1d4ed8"/><text x="586.0" y="646.0" font-size="10.5" font-weight="600" fill="#5b6675" font-family="ui-monospace,SFMono-Regular,Menlo,Consolas,monospace">sig ↑</text><line x1="58" y1="662.0" x2="842" y2="662.0" stroke="#dde2ea" stroke-width="1"/><text x="58.0" y="682.0" font-size="11" font-weight="500" fill="#5b6675">openworld_spec_version 1.0</text><a href="https://play.reactflow.dev" target="_blank"><text x="450.0" y="682.0" font-size="10.5" font-weight="700" fill="#1d4ed8" text-anchor="middle" font-family="ui-monospace,SFMono-Regular,Menlo,Consolas,monospace">▸ open in React Flow</text></a><text x="842.0" y="682.0" font-size="12" font-weight="800" fill="#1d4ed8" text-anchor="end">OpenWorld</text></svg>