<?xml version="1.0" encoding="UTF-8"?>
<svg xmlns="http://www.w3.org/2000/svg" viewBox="0 0 900 714" width="900" height="714" font-family="-apple-system,BlinkMacSystemFont,Segoe UI,Roboto,Helvetica,Arial,sans-serif"><defs><linearGradient id="gbg" x1="0" y1="0" x2="0" y2="1"><stop offset="0" stop-color="#fcfbf8"/><stop offset="1" stop-color="#eef0ec"/></linearGradient><linearGradient id="gnode" x1="0" y1="0" x2="0" y2="1"><stop offset="0" stop-color="#ffffff"/><stop offset="1" stop-color="#eef1f6"/></linearGradient><linearGradient id="gacc" x1="0" y1="0" x2="1" y2="0"><stop offset="0" stop-color="#1d4ed8"/><stop offset="1" stop-color="#0891b2"/></linearGradient><linearGradient id="garea" x1="0" y1="0" x2="0" y2="1"><stop offset="0" stop-color="#1d4ed8" stop-opacity="0.34"/><stop offset="1" stop-color="#1d4ed8" stop-opacity="0"/></linearGradient><filter id="sh" x="-30%" y="-30%" width="160%" height="160%"><feDropShadow dx="0" dy="5" stdDeviation="9" flood-color="#16202e" flood-opacity="0.14"/></filter><filter id="shsoft" x="-40%" y="-40%" width="180%" height="180%"><feDropShadow dx="0" dy="10" stdDeviation="22" flood-color="#16202e" flood-opacity="0.14"/></filter><marker id="arr" markerWidth="9" markerHeight="9" refX="6.5" refY="3" orient="auto"><path d="M0,0 L6.5,3 L0,6 Z" fill="#1d4ed8"/></marker><marker id="arrUp" markerWidth="9" markerHeight="9" refX="3" refY="6.2" orient="auto"><path d="M0,6.2 L3,0 L6,6.2 Z" fill="#0f766e"/></marker><pattern id="grid" width="24" height="24" patternUnits="userSpaceOnUse"><path d="M24 0 H0 V24" fill="none" stroke="#8aa0c2" stroke-width="0.6" opacity="0.35"/></pattern><pattern id="gridFine" width="22" height="22" patternUnits="userSpaceOnUse"><path d="M22 0 H0 V22" fill="none" stroke="#8aa0c2" stroke-width="0.5" opacity="0.28"/></pattern><filter id="glow" x="-60%" y="-60%" width="220%" height="220%"><feGaussianBlur stdDeviation="2.4" result="b"/><feMerge><feMergeNode in="b"/><feMergeNode in="SourceGraphic"/></feMerge></filter></defs><rect x="0" y="0" width="900" height="714" fill="url(#gbg)"/><g filter="url(#shsoft)"><rect x="26" y="26" width="848" height="662" rx="24" fill="url(#gbg)" stroke="#dde2ea" stroke-width="1"/></g><clipPath id="pc"><rect x="26" y="26" width="848" height="662" rx="24"/></clipPath><rect x="26" y="26" width="848" height="662" fill="url(#gridFine)" clip-path="url(#pc)"/><rect x="26" y="26" width="848" height="6" rx="3" fill="url(#gacc)"/><path d="M 39 51 L 39 39 L 51 39" fill="none" stroke="#1d4ed8" stroke-width="1.4" opacity="0.55"/><path d="M 861 51 L 861 39 L 849 39" fill="none" stroke="#1d4ed8" stroke-width="1.4" opacity="0.55"/><path d="M 39 663 L 39 675 L 51 675" fill="none" stroke="#1d4ed8" stroke-width="1.4" opacity="0.55"/><path d="M 861 663 L 861 675 L 849 675" fill="none" stroke="#1d4ed8" stroke-width="1.4" opacity="0.55"/><g transform="translate(73.0,76.0)"><rect x="-15.0" y="-15.0" width="30.0" height="30.0" rx="5.1" fill="none" stroke="#1d4ed8" stroke-width="2.1"/><rect x="-9.0" y="-9.0" width="18.0" height="18.0" rx="3.6" fill="none" stroke="#b45309" stroke-width="1.9"/><rect x="-3.6" y="-3.6" width="7.2" height="7.2" rx="1.8" fill="#0f766e"/></g><text x="98.0" y="58.0" font-size="9.5" font-weight="700" fill="#1d4ed8" letter-spacing="2.4" font-family="ui-monospace,SFMono-Regular,Menlo,Consolas,monospace">OPENWORLD · MODEL CARD</text><text x="98.0" y="84.0" font-size="29" font-weight="700" fill="#16202e" font-family="'Iowan Old Style','Palatino Linotype',Palatino,Georgia,serif">arc3-map-sb26</text><text x="58.0" y="104.0" font-size="14" font-weight="500" fill="#5b6675">Discovered multi-modal map of ARC-AGI-3 sb26 (ConsensusTransition hard-vote over 2</text><text x="58.0" y="123.0" font-size="14" font-weight="500" fill="#5b6675">modalities)</text><rect x="810.2" y="48.0" width="45.8" height="22" rx="11.0" fill="#eaeef6"/><text x="818.2" y="62.0" font-size="12" font-weight="600" fill="#1e3a8a">v0.1</text><line x1="58" y1="154.0" x2="842" y2="154.0" stroke="#dde2ea" stroke-width="1"/><rect x="58" y="192.0" width="784" height="270.0" rx="16" fill="#eef1f6" fill-opacity="0.5" stroke="#dde2ea" stroke-width="1"/><text x="58.0" y="180.0" font-size="11" font-weight="700" fill="#5b6675" letter-spacing="1.6" font-family="ui-monospace,SFMono-Regular,Menlo,Consolas,monospace">STATE-TRANSITION GRAPH</text><path d="M 160.3 335.0 C 177.3 335.0, 177.3 335.0, 191.3 335.0" fill="none" stroke="#1d4ed8" stroke-width="1.7" stroke-opacity="0.85" marker-end="url(#arr)"/><rect x="166.3" y="327.0" width="22.0" height="15" rx="7.5" fill="#fcfbf8" stroke="#dde2ea" stroke-width="0.8"/><text x="177.3" y="338.0" font-size="9.5" font-weight="600" fill="#1d4ed8" text-anchor="middle">s5</text><path d="M 96.2 314.5 C 85.2 288.5, 133.2 288.5, 122.2 314.5" fill="none" stroke="#1d4ed8" stroke-width="1.5" marker-end="url(#arr)"/><rect x="38.2" y="282.5" width="142.0" height="15" rx="7.5" fill="#fcfbf8" stroke="#dde2ea" stroke-width="0.8"/><text x="109.2" y="293.5" font-size="9.5" font-weight="600" fill="#1d4ed8" text-anchor="middle">c17_24, c17_25, c17_26</text><path d="M 296.7 335.0 C 313.7 335.0, 313.7 335.0, 327.7 335.0" fill="none" stroke="#1d4ed8" stroke-width="1.7" stroke-opacity="0.85" marker-end="url(#arr)"/><rect x="302.7" y="327.0" width="22.0" height="15" rx="7.5" fill="#fcfbf8" stroke="#dde2ea" stroke-width="0.8"/><text x="313.7" y="338.0" font-size="9.5" font-weight="600" fill="#1d4ed8" text-anchor="middle">s5</text><path d="M 232.5 314.5 C 221.5 288.5, 269.5 288.5, 258.5 314.5" fill="none" stroke="#1d4ed8" stroke-width="1.5" marker-end="url(#arr)"/><rect x="174.5" y="282.5" width="142.0" height="15" rx="7.5" fill="#fcfbf8" stroke="#dde2ea" stroke-width="0.8"/><text x="245.5" y="293.5" font-size="9.5" font-weight="600" fill="#1d4ed8" text-anchor="middle">c17_24, c17_25, c17_26</text><path d="M 433.0 335.0 C 450.0 335.0, 450.0 335.0, 464.0 335.0" fill="none" stroke="#1d4ed8" stroke-width="1.7" stroke-opacity="0.85" marker-end="url(#arr)"/><rect x="439.0" y="327.0" width="22.0" height="15" rx="7.5" fill="#fcfbf8" stroke="#dde2ea" stroke-width="0.8"/><text x="450.0" y="338.0" font-size="9.5" font-weight="600" fill="#1d4ed8" text-anchor="middle">s5</text><path d="M 368.8 314.5 C 357.8 288.5, 405.8 288.5, 394.8 314.5" fill="none" stroke="#1d4ed8" stroke-width="1.5" marker-end="url(#arr)"/><rect x="310.8" y="282.5" width="142.0" height="15" rx="7.5" fill="#fcfbf8" stroke="#dde2ea" stroke-width="0.8"/><text x="381.8" y="293.5" font-size="9.5" font-weight="600" fill="#1d4ed8" text-anchor="middle">c17_24, c17_25, c17_26</text><path d="M 569.3 335.0 C 586.3 335.0, 586.3 335.0, 600.3 335.0" fill="none" stroke="#1d4ed8" stroke-width="1.7" stroke-opacity="0.85" marker-end="url(#arr)"/><rect x="575.3" y="327.0" width="22.0" height="15" rx="7.5" fill="#fcfbf8" stroke="#dde2ea" stroke-width="0.8"/><text x="586.3" y="338.0" font-size="9.5" font-weight="600" fill="#1d4ed8" text-anchor="middle">s5</text><path d="M 505.2 314.5 C 494.2 288.5, 542.2 288.5, 531.2 314.5" fill="none" stroke="#1d4ed8" stroke-width="1.5" marker-end="url(#arr)"/><rect x="447.2" y="282.5" width="142.0" height="15" rx="7.5" fill="#fcfbf8" stroke="#dde2ea" stroke-width="0.8"/><text x="518.2" y="293.5" font-size="9.5" font-weight="600" fill="#1d4ed8" text-anchor="middle">c17_24, c17_25, c17_26</text><path d="M 705.7 335.0 C 722.7 335.0, 722.7 335.0, 736.7 335.0" fill="none" stroke="#1d4ed8" stroke-width="1.7" stroke-opacity="0.85" marker-end="url(#arr)"/><rect x="711.7" y="327.0" width="22.0" height="15" rx="7.5" fill="#fcfbf8" stroke="#dde2ea" stroke-width="0.8"/><text x="722.7" y="338.0" font-size="9.5" font-weight="600" fill="#1d4ed8" text-anchor="middle">s5</text><path d="M 641.5 314.5 C 630.5 288.5, 678.5 288.5, 667.5 314.5" fill="none" stroke="#1d4ed8" stroke-width="1.5" marker-end="url(#arr)"/><rect x="583.5" y="282.5" width="142.0" height="15" rx="7.5" fill="#fcfbf8" stroke="#dde2ea" stroke-width="0.8"/><text x="654.5" y="293.5" font-size="9.5" font-weight="600" fill="#1d4ed8" text-anchor="middle">c17_24, c17_25, c17_26</text><g filter="url(#sh)"><rect x="58.0" y="314.5" width="102.3" height="41.0" rx="13" fill="url(#gnode)" stroke="#1d4ed8" stroke-width="2.2"/></g><text x="60.0" y="307.5" font-size="10" font-weight="700" fill="#1d4ed8">▶ start</text><text x="109.2" y="339.5" font-size="13" font-weight="700" fill="#16202e" text-anchor="middle">sig -6.17341e+18</text><g filter="url(#sh)"><rect x="194.3" y="314.5" width="102.3" height="41.0" rx="13" fill="url(#gnode)" stroke="#dde2ea" stroke-width="1.2"/></g><text x="245.5" y="339.5" font-size="13" font-weight="700" fill="#16202e" text-anchor="middle">sig 4.55374e+18</text><g filter="url(#sh)"><rect x="330.7" y="314.5" width="102.3" height="41.0" rx="13" fill="url(#gnode)" stroke="#dde2ea" stroke-width="1.2"/></g><text x="381.8" y="339.5" font-size="13" font-weight="700" fill="#16202e" text-anchor="middle">sig -4.41666e+18</text><g filter="url(#sh)"><rect x="467.0" y="314.5" width="102.3" height="41.0" rx="13" fill="url(#gnode)" stroke="#dde2ea" stroke-width="1.2"/></g><text x="518.2" y="339.5" font-size="13" font-weight="700" fill="#16202e" text-anchor="middle">sig -3.55218e+18</text><g filter="url(#sh)"><rect x="603.3" y="314.5" width="102.3" height="41.0" rx="13" fill="url(#gnode)" stroke="#dde2ea" stroke-width="1.2"/></g><text x="654.5" y="339.5" font-size="13" font-weight="700" fill="#16202e" text-anchor="middle">sig 2.08665e+18</text><g filter="url(#sh)"><rect x="739.7" y="314.5" width="102.3" height="41.0" rx="13" fill="url(#gnode)" stroke="#dde2ea" stroke-width="1.2"/></g><text x="790.8" y="339.5" font-size="13" font-weight="700" fill="#16202e" text-anchor="middle">sig -5.44638e+18</text><rect x="58.0" y="478.0" width="3" height="11" rx="1.5" fill="#1d4ed8"/><text x="67.0" y="487.0" font-size="10.5" font-weight="700" fill="#5b6675" letter-spacing="1.8" font-family="ui-monospace,SFMono-Regular,Menlo,Consolas,monospace">STATE SCHEMA</text><rect x="54.0" y="501.0" width="258.0" height="24" rx="6" fill="#1d4ed8" fill-opacity="0.035"/><text x="62.0" y="517.0" font-size="12" font-weight="600" fill="#16202e" font-family="ui-monospace,SFMono-Regular,Menlo,Consolas,monospace">sig</text><rect x="273.9" y="505.0" width="34.1" height="17" rx="5" fill="#eaeef6"/><text x="280.9" y="517.0" font-size="10.5" font-weight="700" fill="#1d4ed8" font-family="ui-monospace,SFMono-Regular,Menlo,Consolas,monospace">int</text><text x="265.9" y="517.0" font-size="10.5" font-weight="600" fill="#5b6675" text-anchor="end" font-family="ui-monospace,SFMono-Regular,Menlo,Consolas,monospace">-6.17341e+18</text><rect x="328.0" y="478.0" width="3" height="11" rx="1.5" fill="#1d4ed8"/><text x="337.0" y="487.0" font-size="10.5" font-weight="700" fill="#5b6675" letter-spacing="1.8" font-family="ui-monospace,SFMono-Regular,Menlo,Consolas,monospace">ACTIONS</text><rect x="328.0" y="502.0" width="57.0" height="20" rx="6" fill="#eaeef6" stroke="#1d4ed8" stroke-width="1" stroke-opacity="0.16"/><text x="337.0" y="516.0" font-size="10.5" font-weight="600" fill="#1e3a8a" font-family="ui-monospace,SFMono-Regular,Menlo,Consolas,monospace">c17_24</text><rect x="392.0" y="502.0" width="57.0" height="20" rx="6" fill="#eaeef6" stroke="#1d4ed8" stroke-width="1" stroke-opacity="0.16"/><text x="401.0" y="516.0" font-size="10.5" font-weight="600" fill="#1e3a8a" font-family="ui-monospace,SFMono-Regular,Menlo,Consolas,monospace">c17_25</text><rect x="456.0" y="502.0" width="57.0" height="20" rx="6" fill="#eaeef6" stroke="#1d4ed8" stroke-width="1" stroke-opacity="0.16"/><text x="465.0" y="516.0" font-size="10.5" font-weight="600" fill="#1e3a8a" font-family="ui-monospace,SFMono-Regular,Menlo,Consolas,monospace">c17_26</text><rect x="328.0" y="528.0" width="57.0" height="20" rx="6" fill="#eaeef6" stroke="#1d4ed8" stroke-width="1" stroke-opacity="0.16"/><text x="337.0" y="542.0" font-size="10.5" font-weight="600" fill="#1e3a8a" font-family="ui-monospace,SFMono-Regular,Menlo,Consolas,monospace">c17_33</text><rect x="392.0" y="528.0" width="57.0" height="20" rx="6" fill="#eaeef6" stroke="#1d4ed8" stroke-width="1" stroke-opacity="0.16"/><text x="401.0" y="542.0" font-size="10.5" font-weight="600" fill="#1e3a8a" font-family="ui-monospace,SFMono-Regular,Menlo,Consolas,monospace">c17_34</text><rect x="456.0" y="528.0" width="57.0" height="20" rx="6" fill="#eaeef6" stroke="#1d4ed8" stroke-width="1" stroke-opacity="0.16"/><text x="465.0" y="542.0" font-size="10.5" font-weight="600" fill="#1e3a8a" font-family="ui-monospace,SFMono-Regular,Menlo,Consolas,monospace">c17_35</text><rect x="328.0" y="554.0" width="57.0" height="20" rx="6" fill="#eaeef6" stroke="#1d4ed8" stroke-width="1" stroke-opacity="0.16"/><text x="337.0" y="568.0" font-size="10.5" font-weight="600" fill="#1e3a8a" font-family="ui-monospace,SFMono-Regular,Menlo,Consolas,monospace">c18_24</text><rect x="392.0" y="554.0" width="57.0" height="20" rx="6" fill="#eaeef6" stroke="#1d4ed8" stroke-width="1" stroke-opacity="0.16"/><text x="401.0" y="568.0" font-size="10.5" font-weight="600" fill="#1e3a8a" font-family="ui-monospace,SFMono-Regular,Menlo,Consolas,monospace">c18_25</text><rect x="456.0" y="554.0" width="57.0" height="20" rx="6" fill="#eaeef6" stroke="#1d4ed8" stroke-width="1" stroke-opacity="0.16"/><text x="465.0" y="568.0" font-size="10.5" font-weight="600" fill="#1e3a8a" font-family="ui-monospace,SFMono-Regular,Menlo,Consolas,monospace">c18_26</text><rect x="328.0" y="580.0" width="57.0" height="20" rx="6" fill="#eaeef6" stroke="#1d4ed8" stroke-width="1" stroke-opacity="0.16"/><text x="337.0" y="594.0" font-size="10.5" font-weight="600" fill="#1e3a8a" font-family="ui-monospace,SFMono-Regular,Menlo,Consolas,monospace">c18_33</text><rect x="392.0" y="580.0" width="46" height="20" rx="6" fill="#eaeef6"/><text x="401.0" y="594.0" font-size="10.5" font-weight="700" fill="#5b6675" font-family="ui-monospace,SFMono-Regular,Menlo,Consolas,monospace">+62</text><rect x="328.0" y="624.0" width="3" height="11" rx="1.5" fill="#1d4ed8"/><text x="337.0" y="633.0" font-size="10.5" font-weight="700" fill="#5b6675" letter-spacing="1.8" font-family="ui-monospace,SFMono-Regular,Menlo,Consolas,monospace">DYNAMICS</text><circle cx="337.0" cy="654.0" r="8" fill="none" stroke="#5b6675" stroke-width="1.6"/><text x="352.0" y="658.0" font-size="12.5" font-weight="700" fill="#16202e">function (lossy)</text><rect x="570.0" y="478.0" width="3" height="11" rx="1.5" fill="#1d4ed8"/><text x="579.0" y="487.0" font-size="10.5" font-weight="700" fill="#5b6675" letter-spacing="1.8" font-family="ui-monospace,SFMono-Regular,Menlo,Consolas,monospace">SAMPLE ROLLOUT</text><text x="842.0" y="487.0" font-size="9.5" font-weight="600" fill="#5b6675" text-anchor="end" font-family="ui-monospace,SFMono-Regular,Menlo,Consolas,monospace">12 steps · s5</text><rect x="570.0" y="500.0" width="272.0" height="130" rx="12" fill="#eef1f6" stroke="#dde2ea" stroke-width="1"/><text x="578.0" y="514.0" font-size="9" font-weight="600" fill="#5b6675" font-family="ui-monospace,SFMono-Regular,Menlo,Consolas,monospace">5.52943e+18</text><text x="578.0" y="622.0" font-size="9" font-weight="600" fill="#5b6675" font-family="ui-monospace,SFMono-Regular,Menlo,Consolas,monospace">-6.41218e+18</text><line x1="586.0" y1="540.5" x2="826.0" y2="540.5" stroke="#dde2ea" stroke-width="0.8" stroke-dasharray="1 5" opacity="0.7"/><line x1="586.0" y1="565.0" x2="826.0" y2="565.0" stroke="#dde2ea" stroke-width="0.8" stroke-dasharray="1 5" opacity="0.7"/><line x1="586.0" y1="589.5" x2="826.0" y2="589.5" stroke="#dde2ea" stroke-width="0.8" stroke-dasharray="1 5" opacity="0.7"/><path class="series" d="M 586.0 614.0 L 586.0 612.0 L 606.0 524.0 L 626.0 597.6 L 646.0 590.5 L 666.0 544.3 L 686.0 606.1 L 706.0 572.1 L 726.0 535.5 L 746.0 614.0 L 766.0 605.7 L 786.0 557.9 L 806.0 523.5 L 826.0 516.0 L 826.0 614.0 Z" fill="url(#garea)"/><polyline class="series" points="586.0,612.0 606.0,524.0 626.0,597.6 646.0,590.5 666.0,544.3 686.0,606.1 706.0,572.1 726.0,535.5 746.0,614.0 766.0,605.7 786.0,557.9 806.0,523.5 826.0,516.0" fill="none" stroke="#1d4ed8" stroke-width="2.4" stroke-linejoin="round"/><circle cx="826.0" cy="516.0" r="3.4" fill="#1d4ed8"/><text x="822.0" y="508.0" font-size="9.5" font-weight="700" fill="#1d4ed8" text-anchor="end" font-family="ui-monospace,SFMono-Regular,Menlo,Consolas,monospace">5.52943e+18</text><rect x="572.0" y="637.0" width="9" height="9" rx="2" fill="#1d4ed8"/><text x="586.0" y="646.0" font-size="10.5" font-weight="600" fill="#5b6675" font-family="ui-monospace,SFMono-Regular,Menlo,Consolas,monospace">sig ↑</text><line x1="58" y1="676.0" x2="842" y2="676.0" stroke="#dde2ea" stroke-width="1"/><text x="58.0" y="696.0" font-size="11" font-weight="500" fill="#5b6675">openworld_spec_version 1.0</text><a href="https://play.reactflow.dev" target="_blank"><text x="450.0" y="696.0" font-size="10.5" font-weight="700" fill="#1d4ed8" text-anchor="middle" font-family="ui-monospace,SFMono-Regular,Menlo,Consolas,monospace">▸ open in React Flow</text></a><text x="842.0" y="696.0" font-size="12" font-weight="800" fill="#1d4ed8" text-anchor="end">OpenWorld</text></svg>