<?xml version="1.0" encoding="UTF-8"?>
<svg xmlns="http://www.w3.org/2000/svg" viewBox="0 0 900 710" width="900" height="710" font-family="-apple-system,BlinkMacSystemFont,Segoe UI,Roboto,Helvetica,Arial,sans-serif"><defs><linearGradient id="gbg" x1="0" y1="0" x2="0" y2="1"><stop offset="0" stop-color="#fcfbf8"/><stop offset="1" stop-color="#eef0ec"/></linearGradient><linearGradient id="gnode" x1="0" y1="0" x2="0" y2="1"><stop offset="0" stop-color="#ffffff"/><stop offset="1" stop-color="#eef1f6"/></linearGradient><linearGradient id="gacc" x1="0" y1="0" x2="1" y2="0"><stop offset="0" stop-color="#1d4ed8"/><stop offset="1" stop-color="#0891b2"/></linearGradient><linearGradient id="garea" x1="0" y1="0" x2="0" y2="1"><stop offset="0" stop-color="#1d4ed8" stop-opacity="0.34"/><stop offset="1" stop-color="#1d4ed8" stop-opacity="0"/></linearGradient><filter id="sh" x="-30%" y="-30%" width="160%" height="160%"><feDropShadow dx="0" dy="5" stdDeviation="9" flood-color="#16202e" flood-opacity="0.14"/></filter><filter id="shsoft" x="-40%" y="-40%" width="180%" height="180%"><feDropShadow dx="0" dy="10" stdDeviation="22" flood-color="#16202e" flood-opacity="0.14"/></filter><marker id="arr" markerWidth="9" markerHeight="9" refX="6.5" refY="3" orient="auto"><path d="M0,0 L6.5,3 L0,6 Z" fill="#1d4ed8"/></marker><marker id="arrUp" markerWidth="9" markerHeight="9" refX="3" refY="6.2" orient="auto"><path d="M0,6.2 L3,0 L6,6.2 Z" fill="#0f766e"/></marker><pattern id="grid" width="24" height="24" patternUnits="userSpaceOnUse"><path d="M24 0 H0 V24" fill="none" stroke="#8aa0c2" stroke-width="0.6" opacity="0.35"/></pattern><pattern id="gridFine" width="22" height="22" patternUnits="userSpaceOnUse"><path d="M22 0 H0 V22" fill="none" stroke="#8aa0c2" stroke-width="0.5" opacity="0.28"/></pattern><filter id="glow" x="-60%" y="-60%" width="220%" height="220%"><feGaussianBlur stdDeviation="2.4" result="b"/><feMerge><feMergeNode in="b"/><feMergeNode in="SourceGraphic"/></feMerge></filter></defs><rect x="0" y="0" width="900" height="710" fill="url(#gbg)"/><g filter="url(#shsoft)"><rect x="26" y="26" width="848" height="658" rx="24" fill="url(#gbg)" stroke="#dde2ea" stroke-width="1"/></g><clipPath id="pc"><rect x="26" y="26" width="848" height="658" rx="24"/></clipPath><rect x="26" y="26" width="848" height="658" fill="url(#gridFine)" clip-path="url(#pc)"/><rect x="26" y="26" width="848" height="6" rx="3" fill="url(#gacc)"/><path d="M 39 51 L 39 39 L 51 39" fill="none" stroke="#1d4ed8" stroke-width="1.4" opacity="0.55"/><path d="M 861 51 L 861 39 L 849 39" fill="none" stroke="#1d4ed8" stroke-width="1.4" opacity="0.55"/><path d="M 39 659 L 39 671 L 51 671" fill="none" stroke="#1d4ed8" stroke-width="1.4" opacity="0.55"/><path d="M 861 659 L 861 671 L 849 671" fill="none" stroke="#1d4ed8" stroke-width="1.4" opacity="0.55"/><g transform="translate(73.0,76.0)"><rect x="-15.0" y="-15.0" width="30.0" height="30.0" rx="5.1" fill="none" stroke="#1d4ed8" stroke-width="2.1"/><rect x="-9.0" y="-9.0" width="18.0" height="18.0" rx="3.6" fill="none" stroke="#b45309" stroke-width="1.9"/><rect x="-3.6" y="-3.6" width="7.2" height="7.2" rx="1.8" fill="#0f766e"/></g><text x="98.0" y="58.0" font-size="9.5" font-weight="700" fill="#1d4ed8" letter-spacing="2.4" font-family="ui-monospace,SFMono-Regular,Menlo,Consolas,monospace">OPENWORLD · MODEL CARD</text><text x="98.0" y="84.0" font-size="29" font-weight="700" fill="#16202e" font-family="'Iowan Old Style','Palatino Linotype',Palatino,Georgia,serif">arc3-regimes-sp80</text><text x="58.0" y="104.0" font-size="14" font-weight="500" fill="#5b6675">Self-rebuilding world model of ARC-AGI-3 sp80: openworld.PhasedTransition over 4</text><text x="58.0" y="123.0" font-size="14" font-weight="500" fill="#5b6675">SURPRISE-detected regimes (rule changes at steps [0, 3, 19, 30]); dynamics advance…</text><rect x="810.2" y="48.0" width="45.8" height="22" rx="11.0" fill="#eaeef6"/><text x="818.2" y="62.0" font-size="12" font-weight="600" fill="#1e3a8a">v0.1</text><line x1="58" y1="154.0" x2="842" y2="154.0" stroke="#dde2ea" stroke-width="1"/><rect x="58" y="192.0" width="784" height="280.0" rx="16" fill="#eef1f6" fill-opacity="0.5" stroke="#dde2ea" stroke-width="1"/><text x="58.0" y="180.0" font-size="11" font-weight="700" fill="#5b6675" letter-spacing="1.6" font-family="ui-monospace,SFMono-Regular,Menlo,Consolas,monospace">STATE-TRANSITION GRAPH</text><path d="M 188.8 340.0 C 286.7 340.0, 286.7 299.0, 381.6 299.0" fill="none" stroke="#1d4ed8" stroke-width="1.7" stroke-opacity="0.85" marker-end="url(#arr)"/><rect x="263.7" y="311.5" width="46.0" height="15" rx="7.5" fill="#fcfbf8" stroke="#dde2ea" stroke-width="0.8"/><text x="286.7" y="322.5" font-size="9.5" font-weight="600" fill="#1d4ed8" text-anchor="middle">c10_21</text><path d="M 188.8 340.0 C 286.7 340.0, 286.7 299.0, 381.6 299.0" fill="none" stroke="#1d4ed8" stroke-width="1.7" stroke-opacity="0.85" marker-end="url(#arr)"/><rect x="263.7" y="311.5" width="46.0" height="15" rx="7.5" fill="#fcfbf8" stroke="#dde2ea" stroke-width="0.8"/><text x="286.7" y="322.5" font-size="9.5" font-weight="600" fill="#1d4ed8" text-anchor="middle">c10_33</text><path d="M 188.8 340.0 C 286.7 340.0, 286.7 299.0, 381.6 299.0" fill="none" stroke="#1d4ed8" stroke-width="1.7" stroke-opacity="0.85" marker-end="url(#arr)"/><rect x="263.7" y="311.5" width="46.0" height="15" rx="7.5" fill="#fcfbf8" stroke="#dde2ea" stroke-width="0.8"/><text x="286.7" y="322.5" font-size="9.5" font-weight="600" fill="#1d4ed8" text-anchor="middle">c13_17</text><path d="M 188.8 340.0 C 286.7 340.0, 286.7 299.0, 381.6 299.0" fill="none" stroke="#1d4ed8" stroke-width="1.7" stroke-opacity="0.85" marker-end="url(#arr)"/><rect x="263.7" y="311.5" width="46.0" height="15" rx="7.5" fill="#fcfbf8" stroke="#dde2ea" stroke-width="0.8"/><text x="286.7" y="322.5" font-size="9.5" font-weight="600" fill="#1d4ed8" text-anchor="middle">c29_37</text><path d="M 188.8 340.0 C 286.7 340.0, 286.7 299.0, 381.6 299.0" fill="none" stroke="#1d4ed8" stroke-width="1.7" stroke-opacity="0.85" marker-end="url(#arr)"/><rect x="263.7" y="311.5" width="46.0" height="15" rx="7.5" fill="#fcfbf8" stroke="#dde2ea" stroke-width="0.8"/><text x="286.7" y="322.5" font-size="9.5" font-weight="600" fill="#1d4ed8" text-anchor="middle">c33_25</text><path d="M 188.8 340.0 C 286.7 340.0, 286.7 299.0, 381.6 299.0" fill="none" stroke="#1d4ed8" stroke-width="1.7" stroke-opacity="0.85" marker-end="url(#arr)"/><rect x="263.7" y="311.5" width="46.0" height="15" rx="7.5" fill="#fcfbf8" stroke="#dde2ea" stroke-width="0.8"/><text x="286.7" y="322.5" font-size="9.5" font-weight="600" fill="#1d4ed8" text-anchor="middle">c38_41</text><path d="M 188.8 340.0 C 286.7 340.0, 286.7 299.0, 381.6 299.0" fill="none" stroke="#1d4ed8" stroke-width="1.7" stroke-opacity="0.85" marker-end="url(#arr)"/><rect x="263.7" y="311.5" width="46.0" height="15" rx="7.5" fill="#fcfbf8" stroke="#dde2ea" stroke-width="0.8"/><text x="286.7" y="322.5" font-size="9.5" font-weight="600" fill="#1d4ed8" text-anchor="middle">c42_29</text><path d="M 188.8 340.0 C 286.7 340.0, 286.7 299.0, 381.6 299.0" fill="none" stroke="#1d4ed8" stroke-width="1.7" stroke-opacity="0.85" marker-end="url(#arr)"/><rect x="275.7" y="311.5" width="22.0" height="15" rx="7.5" fill="#fcfbf8" stroke="#dde2ea" stroke-width="0.8"/><text x="286.7" y="322.5" font-size="9.5" font-weight="600" fill="#1d4ed8" text-anchor="middle">s3</text><path d="M 188.8 340.0 C 286.7 340.0, 286.7 381.0, 381.6 381.0" fill="none" stroke="#1d4ed8" stroke-width="1.7" stroke-opacity="0.85" marker-end="url(#arr)"/><rect x="275.7" y="352.5" width="22.0" height="15" rx="7.5" fill="#fcfbf8" stroke="#dde2ea" stroke-width="0.8"/><text x="286.7" y="363.5" font-size="9.5" font-weight="600" fill="#1d4ed8" text-anchor="middle">s4</text><path d="M 188.8 340.0 C 286.7 340.0, 286.7 299.0, 381.6 299.0" fill="none" stroke="#1d4ed8" stroke-width="1.7" stroke-opacity="0.85" marker-end="url(#arr)"/><rect x="275.7" y="311.5" width="22.0" height="15" rx="7.5" fill="#fcfbf8" stroke="#dde2ea" stroke-width="0.8"/><text x="286.7" y="322.5" font-size="9.5" font-weight="600" fill="#1d4ed8" text-anchor="middle">s5</text><path d="M 515.4 299.0 C 613.3 299.0, 613.3 258.0, 708.2 258.0" fill="none" stroke="#1d4ed8" stroke-width="1.7" stroke-opacity="0.85" marker-end="url(#arr)"/><rect x="590.3" y="270.5" width="46.0" height="15" rx="7.5" fill="#fcfbf8" stroke="#dde2ea" stroke-width="0.8"/><text x="613.3" y="281.5" font-size="9.5" font-weight="600" fill="#1d4ed8" text-anchor="middle">c10_21</text><path d="M 515.4 299.0 C 613.3 299.0, 613.3 258.0, 708.2 258.0" fill="none" stroke="#1d4ed8" stroke-width="1.7" stroke-opacity="0.85" marker-end="url(#arr)"/><rect x="590.3" y="270.5" width="46.0" height="15" rx="7.5" fill="#fcfbf8" stroke="#dde2ea" stroke-width="0.8"/><text x="613.3" y="281.5" font-size="9.5" font-weight="600" fill="#1d4ed8" text-anchor="middle">c10_33</text><path d="M 515.4 299.0 C 613.3 299.0, 613.3 258.0, 708.2 258.0" fill="none" stroke="#1d4ed8" stroke-width="1.7" stroke-opacity="0.85" marker-end="url(#arr)"/><rect x="590.3" y="270.5" width="46.0" height="15" rx="7.5" fill="#fcfbf8" stroke="#dde2ea" stroke-width="0.8"/><text x="613.3" y="281.5" font-size="9.5" font-weight="600" fill="#1d4ed8" text-anchor="middle">c13_17</text><path d="M 515.4 299.0 C 613.3 299.0, 613.3 258.0, 708.2 258.0" fill="none" stroke="#1d4ed8" stroke-width="1.7" stroke-opacity="0.85" marker-end="url(#arr)"/><rect x="590.3" y="270.5" width="46.0" height="15" rx="7.5" fill="#fcfbf8" stroke="#dde2ea" stroke-width="0.8"/><text x="613.3" y="281.5" font-size="9.5" font-weight="600" fill="#1d4ed8" text-anchor="middle">c29_37</text><path d="M 515.4 299.0 C 613.3 299.0, 613.3 258.0, 708.2 258.0" fill="none" stroke="#1d4ed8" stroke-width="1.7" stroke-opacity="0.85" marker-end="url(#arr)"/><rect x="590.3" y="270.5" width="46.0" height="15" rx="7.5" fill="#fcfbf8" stroke="#dde2ea" stroke-width="0.8"/><text x="613.3" y="281.5" font-size="9.5" font-weight="600" fill="#1d4ed8" text-anchor="middle">c33_25</text><path d="M 515.4 299.0 C 613.3 299.0, 613.3 258.0, 708.2 258.0" fill="none" stroke="#1d4ed8" stroke-width="1.7" stroke-opacity="0.85" marker-end="url(#arr)"/><rect x="590.3" y="270.5" width="46.0" height="15" rx="7.5" fill="#fcfbf8" stroke="#dde2ea" stroke-width="0.8"/><text x="613.3" y="281.5" font-size="9.5" font-weight="600" fill="#1d4ed8" text-anchor="middle">c38_41</text><path d="M 515.4 299.0 C 613.3 299.0, 613.3 258.0, 708.2 258.0" fill="none" stroke="#1d4ed8" stroke-width="1.7" stroke-opacity="0.85" marker-end="url(#arr)"/><rect x="590.3" y="270.5" width="46.0" height="15" rx="7.5" fill="#fcfbf8" stroke="#dde2ea" stroke-width="0.8"/><text x="613.3" y="281.5" font-size="9.5" font-weight="600" fill="#1d4ed8" text-anchor="middle">c42_29</text><path d="M 515.4 299.0 C 613.3 299.0, 613.3 258.0, 708.2 258.0" fill="none" stroke="#1d4ed8" stroke-width="1.7" stroke-opacity="0.85" marker-end="url(#arr)"/><rect x="602.3" y="270.5" width="22.0" height="15" rx="7.5" fill="#fcfbf8" stroke="#dde2ea" stroke-width="0.8"/><text x="613.3" y="281.5" font-size="9.5" font-weight="600" fill="#1d4ed8" text-anchor="middle">s3</text><path d="M 515.4 299.0 C 613.3 299.0, 613.3 340.0, 708.2 340.0" fill="none" stroke="#1d4ed8" stroke-width="1.7" stroke-opacity="0.85" marker-end="url(#arr)"/><rect x="602.3" y="311.5" width="22.0" height="15" rx="7.5" fill="#fcfbf8" stroke="#dde2ea" stroke-width="0.8"/><text x="613.3" y="322.5" font-size="9.5" font-weight="600" fill="#1d4ed8" text-anchor="middle">s4</text><path d="M 515.4 299.0 C 613.3 299.0, 613.3 258.0, 708.2 258.0" fill="none" stroke="#1d4ed8" stroke-width="1.7" stroke-opacity="0.85" marker-end="url(#arr)"/><rect x="602.3" y="270.5" width="22.0" height="15" rx="7.5" fill="#fcfbf8" stroke="#dde2ea" stroke-width="0.8"/><text x="613.3" y="281.5" font-size="9.5" font-weight="600" fill="#1d4ed8" text-anchor="middle">s5</text><path d="M 515.4 381.0 C 613.3 381.0, 613.3 340.0, 708.2 340.0" fill="none" stroke="#1d4ed8" stroke-width="1.7" stroke-opacity="0.85" marker-end="url(#arr)"/><rect x="590.3" y="352.5" width="46.0" height="15" rx="7.5" fill="#fcfbf8" stroke="#dde2ea" stroke-width="0.8"/><text x="613.3" y="363.5" font-size="9.5" font-weight="600" fill="#1d4ed8" text-anchor="middle">c10_21</text><path d="M 515.4 381.0 C 613.3 381.0, 613.3 340.0, 708.2 340.0" fill="none" stroke="#1d4ed8" stroke-width="1.7" stroke-opacity="0.85" marker-end="url(#arr)"/><rect x="590.3" y="352.5" width="46.0" height="15" rx="7.5" fill="#fcfbf8" stroke="#dde2ea" stroke-width="0.8"/><text x="613.3" y="363.5" font-size="9.5" font-weight="600" fill="#1d4ed8" text-anchor="middle">c10_33</text><path d="M 515.4 381.0 C 613.3 381.0, 613.3 340.0, 708.2 340.0" fill="none" stroke="#1d4ed8" stroke-width="1.7" stroke-opacity="0.85" marker-end="url(#arr)"/><rect x="590.3" y="352.5" width="46.0" height="15" rx="7.5" fill="#fcfbf8" stroke="#dde2ea" stroke-width="0.8"/><text x="613.3" y="363.5" font-size="9.5" font-weight="600" fill="#1d4ed8" text-anchor="middle">c13_17</text><path d="M 515.4 381.0 C 613.3 381.0, 613.3 340.0, 708.2 340.0" fill="none" stroke="#1d4ed8" stroke-width="1.7" stroke-opacity="0.85" marker-end="url(#arr)"/><rect x="590.3" y="352.5" width="46.0" height="15" rx="7.5" fill="#fcfbf8" stroke="#dde2ea" stroke-width="0.8"/><text x="613.3" y="363.5" font-size="9.5" font-weight="600" fill="#1d4ed8" text-anchor="middle">c29_37</text><path d="M 515.4 381.0 C 613.3 381.0, 613.3 340.0, 708.2 340.0" fill="none" stroke="#1d4ed8" stroke-width="1.7" stroke-opacity="0.85" marker-end="url(#arr)"/><rect x="590.3" y="352.5" width="46.0" height="15" rx="7.5" fill="#fcfbf8" stroke="#dde2ea" stroke-width="0.8"/><text x="613.3" y="363.5" font-size="9.5" font-weight="600" fill="#1d4ed8" text-anchor="middle">c33_25</text><path d="M 515.4 381.0 C 613.3 381.0, 613.3 340.0, 708.2 340.0" fill="none" stroke="#1d4ed8" stroke-width="1.7" stroke-opacity="0.85" marker-end="url(#arr)"/><rect x="590.3" y="352.5" width="46.0" height="15" rx="7.5" fill="#fcfbf8" stroke="#dde2ea" stroke-width="0.8"/><text x="613.3" y="363.5" font-size="9.5" font-weight="600" fill="#1d4ed8" text-anchor="middle">c38_41</text><path d="M 515.4 381.0 C 613.3 381.0, 613.3 340.0, 708.2 340.0" fill="none" stroke="#1d4ed8" stroke-width="1.7" stroke-opacity="0.85" marker-end="url(#arr)"/><rect x="590.3" y="352.5" width="46.0" height="15" rx="7.5" fill="#fcfbf8" stroke="#dde2ea" stroke-width="0.8"/><text x="613.3" y="363.5" font-size="9.5" font-weight="600" fill="#1d4ed8" text-anchor="middle">c42_29</text><path d="M 515.4 381.0 C 613.3 381.0, 613.3 340.0, 708.2 340.0" fill="none" stroke="#1d4ed8" stroke-width="1.7" stroke-opacity="0.85" marker-end="url(#arr)"/><rect x="602.3" y="352.5" width="22.0" height="15" rx="7.5" fill="#fcfbf8" stroke="#dde2ea" stroke-width="0.8"/><text x="613.3" y="363.5" font-size="9.5" font-weight="600" fill="#1d4ed8" text-anchor="middle">s3</text><path d="M 515.4 381.0 C 613.3 381.0, 613.3 422.0, 708.2 422.0" fill="none" stroke="#1d4ed8" stroke-width="1.7" stroke-opacity="0.85" marker-end="url(#arr)"/><rect x="602.3" y="393.5" width="22.0" height="15" rx="7.5" fill="#fcfbf8" stroke="#dde2ea" stroke-width="0.8"/><text x="613.3" y="404.5" font-size="9.5" font-weight="600" fill="#1d4ed8" text-anchor="middle">s4</text><path d="M 515.4 381.0 C 613.3 381.0, 613.3 340.0, 708.2 340.0" fill="none" stroke="#1d4ed8" stroke-width="1.7" stroke-opacity="0.85" marker-end="url(#arr)"/><rect x="602.3" y="352.5" width="22.0" height="15" rx="7.5" fill="#fcfbf8" stroke="#dde2ea" stroke-width="0.8"/><text x="613.3" y="363.5" font-size="9.5" font-weight="600" fill="#1d4ed8" text-anchor="middle">s5</text><g filter="url(#sh)"><rect x="58.0" y="312.0" width="130.8" height="56.0" rx="13" fill="url(#gnode)" stroke="#1d4ed8" stroke-width="2.2"/></g><text x="60.0" y="305.0" font-size="10" font-weight="700" fill="#1d4ed8">▶ start</text><text x="123.4" y="344.5" font-size="13" font-weight="700" fill="#16202e" text-anchor="middle">s0</text><g filter="url(#sh)"><rect x="384.6" y="271.0" width="130.8" height="56.0" rx="13" fill="url(#gnode)" stroke="#dde2ea" stroke-width="1.2"/></g><text x="450.0" y="296.0" font-size="13" font-weight="700" fill="#16202e" text-anchor="middle">_phase 0</text><text x="450.0" y="311.0" font-size="11" font-weight="500" fill="#5b6675" text-anchor="middle">_phase_steps 1</text><g filter="url(#sh)"><rect x="384.6" y="353.0" width="130.8" height="56.0" rx="13" fill="url(#gnode)" stroke="#dde2ea" stroke-width="1.2"/></g><text x="450.0" y="378.0" font-size="13" font-weight="700" fill="#16202e" text-anchor="middle">_phase 0</text><text x="450.0" y="393.0" font-size="11" font-weight="500" fill="#5b6675" text-anchor="middle">_phase_steps 1</text><g filter="url(#sh)"><rect x="711.2" y="230.0" width="130.8" height="56.0" rx="13" fill="url(#gnode)" stroke="#dde2ea" stroke-width="1.2"/></g><text x="776.6" y="255.0" font-size="13" font-weight="700" fill="#16202e" text-anchor="middle">_phase 0</text><text x="776.6" y="270.0" font-size="11" font-weight="500" fill="#5b6675" text-anchor="middle">_phase_steps 2</text><g filter="url(#sh)"><rect x="711.2" y="312.0" width="130.8" height="56.0" rx="13" fill="url(#gnode)" stroke="#dde2ea" stroke-width="1.2"/></g><text x="776.6" y="337.0" font-size="13" font-weight="700" fill="#16202e" text-anchor="middle">_phase 0</text><text x="776.6" y="352.0" font-size="11" font-weight="500" fill="#5b6675" text-anchor="middle">_phase_steps 2</text><g filter="url(#sh)"><rect x="711.2" y="394.0" width="130.8" height="56.0" rx="13" fill="url(#gnode)" stroke="#dde2ea" stroke-width="1.2"/></g><text x="776.6" y="419.0" font-size="13" font-weight="700" fill="#16202e" text-anchor="middle">_phase 0</text><text x="776.6" y="434.0" font-size="11" font-weight="500" fill="#5b6675" text-anchor="middle">_phase_steps 2</text><rect x="58.0" y="488.0" width="3" height="11" rx="1.5" fill="#1d4ed8"/><text x="67.0" y="497.0" font-size="10.5" font-weight="700" fill="#5b6675" letter-spacing="1.8" font-family="ui-monospace,SFMono-Regular,Menlo,Consolas,monospace">STATE SCHEMA</text><rect x="54.0" y="511.0" width="258.0" height="24" rx="6" fill="#1d4ed8" fill-opacity="0.035"/><text x="62.0" y="527.0" font-size="12" font-weight="600" fill="#16202e" font-family="ui-monospace,SFMono-Regular,Menlo,Consolas,monospace">sig</text><rect x="273.9" y="515.0" width="34.1" height="17" rx="5" fill="#eaeef6"/><text x="280.9" y="527.0" font-size="10.5" font-weight="700" fill="#1d4ed8" font-family="ui-monospace,SFMono-Regular,Menlo,Consolas,monospace">str</text><text x="265.9" y="527.0" font-size="10.5" font-weight="600" fill="#5b6675" text-anchor="end" font-family="ui-monospace,SFMono-Regular,Menlo,Consolas,monospace">&quot;q0&quot;</text><rect x="328.0" y="488.0" width="3" height="11" rx="1.5" fill="#1d4ed8"/><text x="337.0" y="497.0" font-size="10.5" font-weight="700" fill="#5b6675" letter-spacing="1.8" font-family="ui-monospace,SFMono-Regular,Menlo,Consolas,monospace">ACTIONS</text><rect x="328.0" y="512.0" width="57.0" height="20" rx="6" fill="#eaeef6" stroke="#1d4ed8" stroke-width="1" stroke-opacity="0.16"/><text x="337.0" y="526.0" font-size="10.5" font-weight="600" fill="#1e3a8a" font-family="ui-monospace,SFMono-Regular,Menlo,Consolas,monospace">c10_21</text><rect x="392.0" y="512.0" width="57.0" height="20" rx="6" fill="#eaeef6" stroke="#1d4ed8" stroke-width="1" stroke-opacity="0.16"/><text x="401.0" y="526.0" font-size="10.5" font-weight="600" fill="#1e3a8a" font-family="ui-monospace,SFMono-Regular,Menlo,Consolas,monospace">c10_33</text><rect x="456.0" y="512.0" width="57.0" height="20" rx="6" fill="#eaeef6" stroke="#1d4ed8" stroke-width="1" stroke-opacity="0.16"/><text x="465.0" y="526.0" font-size="10.5" font-weight="600" fill="#1e3a8a" font-family="ui-monospace,SFMono-Regular,Menlo,Consolas,monospace">c13_17</text><rect x="328.0" y="538.0" width="57.0" height="20" rx="6" fill="#eaeef6" stroke="#1d4ed8" stroke-width="1" stroke-opacity="0.16"/><text x="337.0" y="552.0" font-size="10.5" font-weight="600" fill="#1e3a8a" font-family="ui-monospace,SFMono-Regular,Menlo,Consolas,monospace">c29_37</text><rect x="392.0" y="538.0" width="57.0" height="20" rx="6" fill="#eaeef6" stroke="#1d4ed8" stroke-width="1" stroke-opacity="0.16"/><text x="401.0" y="552.0" font-size="10.5" font-weight="600" fill="#1e3a8a" font-family="ui-monospace,SFMono-Regular,Menlo,Consolas,monospace">c33_25</text><rect x="456.0" y="538.0" width="57.0" height="20" rx="6" fill="#eaeef6" stroke="#1d4ed8" stroke-width="1" stroke-opacity="0.16"/><text x="465.0" y="552.0" font-size="10.5" font-weight="600" fill="#1e3a8a" font-family="ui-monospace,SFMono-Regular,Menlo,Consolas,monospace">c38_41</text><rect x="328.0" y="564.0" width="57.0" height="20" rx="6" fill="#eaeef6" stroke="#1d4ed8" stroke-width="1" stroke-opacity="0.16"/><text x="337.0" y="578.0" font-size="10.5" font-weight="600" fill="#1e3a8a" font-family="ui-monospace,SFMono-Regular,Menlo,Consolas,monospace">c42_29</text><rect x="392.0" y="564.0" width="31.0" height="20" rx="6" fill="#eaeef6" stroke="#1d4ed8" stroke-width="1" stroke-opacity="0.16"/><text x="401.0" y="578.0" font-size="10.5" font-weight="600" fill="#1e3a8a" font-family="ui-monospace,SFMono-Regular,Menlo,Consolas,monospace">s3</text><rect x="430.0" y="564.0" width="31.0" height="20" rx="6" fill="#eaeef6" stroke="#1d4ed8" stroke-width="1" stroke-opacity="0.16"/><text x="439.0" y="578.0" font-size="10.5" font-weight="600" fill="#1e3a8a" font-family="ui-monospace,SFMono-Regular,Menlo,Consolas,monospace">s4</text><rect x="468.0" y="564.0" width="31.0" height="20" rx="6" fill="#eaeef6" stroke="#1d4ed8" stroke-width="1" stroke-opacity="0.16"/><text x="477.0" y="578.0" font-size="10.5" font-weight="600" fill="#1e3a8a" font-family="ui-monospace,SFMono-Regular,Menlo,Consolas,monospace">s5</text><rect x="328.0" y="608.0" width="3" height="11" rx="1.5" fill="#1d4ed8"/><text x="337.0" y="617.0" font-size="10.5" font-weight="700" fill="#5b6675" letter-spacing="1.8" font-family="ui-monospace,SFMono-Regular,Menlo,Consolas,monospace">DYNAMICS</text><circle cx="337.0" cy="638.0" r="8" fill="none" stroke="#5b6675" stroke-width="1.6"/><text x="352.0" y="642.0" font-size="12.5" font-weight="700" fill="#16202e">phased dynamics</text><rect x="570.0" y="488.0" width="3" height="11" rx="1.5" fill="#1d4ed8"/><text x="579.0" y="497.0" font-size="10.5" font-weight="700" fill="#5b6675" letter-spacing="1.8" font-family="ui-monospace,SFMono-Regular,Menlo,Consolas,monospace">SAMPLE ROLLOUT</text><text x="842.0" y="497.0" font-size="9.5" font-weight="600" fill="#5b6675" text-anchor="end" font-family="ui-monospace,SFMono-Regular,Menlo,Consolas,monospace">12 steps · c10_21</text><rect x="570.0" y="510.0" width="272.0" height="130" rx="12" fill="#eef1f6" stroke="#dde2ea" stroke-width="1"/><text x="578.0" y="524.0" font-size="9" font-weight="600" fill="#5b6675" font-family="ui-monospace,SFMono-Regular,Menlo,Consolas,monospace">12</text><text x="578.0" y="632.0" font-size="9" font-weight="600" fill="#5b6675" font-family="ui-monospace,SFMono-Regular,Menlo,Consolas,monospace">0</text><line x1="586.0" y1="550.5" x2="826.0" y2="550.5" stroke="#dde2ea" stroke-width="0.8" stroke-dasharray="1 5" opacity="0.7"/><line x1="586.0" y1="575.0" x2="826.0" y2="575.0" stroke="#dde2ea" stroke-width="0.8" stroke-dasharray="1 5" opacity="0.7"/><line x1="586.0" y1="599.5" x2="826.0" y2="599.5" stroke="#dde2ea" stroke-width="0.8" stroke-dasharray="1 5" opacity="0.7"/><path class="series" d="M 586.0 624.0 L 586.0 624.0 L 607.8 615.1 L 629.6 606.2 L 651.5 597.3 L 673.3 588.4 L 695.1 579.5 L 716.9 570.5 L 738.7 561.6 L 760.5 552.7 L 782.4 543.8 L 804.2 534.9 L 826.0 526.0 L 826.0 624.0 Z" fill="url(#garea)"/><polyline class="series" points="586.0,624.0 607.8,615.1 629.6,606.2 651.5,597.3 673.3,588.4 695.1,579.5 716.9,570.5 738.7,561.6 760.5,552.7 782.4,543.8 804.2,534.9 826.0,526.0" fill="none" stroke="#1d4ed8" stroke-width="2.4" stroke-linejoin="round"/><circle cx="826.0" cy="526.0" r="3.4" fill="#1d4ed8"/><text x="822.0" y="518.0" font-size="9.5" font-weight="700" fill="#1d4ed8" text-anchor="end" font-family="ui-monospace,SFMono-Regular,Menlo,Consolas,monospace">12</text><polyline class="series" points="586.0,624.0 607.8,624.0 629.6,624.0 651.5,526.0 673.3,526.0 695.1,526.0 716.9,526.0 738.7,526.0 760.5,526.0 782.4,526.0 804.2,526.0 826.0,526.0" fill="none" stroke="#0f766e" stroke-width="1.8" stroke-opacity="0.9" stroke-linejoin="round"/><rect x="572.0" y="647.0" width="9" height="9" rx="2" fill="#1d4ed8"/><text x="586.0" y="656.0" font-size="10.5" font-weight="600" fill="#5b6675" font-family="ui-monospace,SFMono-Regular,Menlo,Consolas,monospace">_phase_steps ↑</text><rect x="688.2" y="647.0" width="9" height="9" rx="2" fill="#0f766e"/><text x="702.2" y="656.0" font-size="10.5" font-weight="600" fill="#5b6675" font-family="ui-monospace,SFMono-Regular,Menlo,Consolas,monospace">_phase ↑</text><line x1="58" y1="672.0" x2="842" y2="672.0" stroke="#dde2ea" stroke-width="1"/><text x="58.0" y="692.0" font-size="11" font-weight="500" fill="#5b6675">openworld_spec_version 1.0</text><a href="https://play.reactflow.dev" target="_blank"><text x="450.0" y="692.0" font-size="10.5" font-weight="700" fill="#1d4ed8" text-anchor="middle" font-family="ui-monospace,SFMono-Regular,Menlo,Consolas,monospace">▸ open in React Flow</text></a><text x="842.0" y="692.0" font-size="12" font-weight="800" fill="#1d4ed8" text-anchor="end">OpenWorld</text></svg>