<svg xmlns="http://www.w3.org/2000/svg" width="1010" height="546" viewBox="0 0 1010 546" font-family="Helvetica,Arial,sans-serif"><rect width="1010" height="546" fill="#fafbfc"/><g transform="translate(30,0)"><text x="230.0" y="26" text-anchor="middle" font-family="Helvetica,Arial,sans-serif" font-size="18" font-weight="bold" fill="#b3760f">World model FORMING</text><text x="230.0" y="48" text-anchor="middle" font-family="Helvetica,Arial,sans-serif" font-size="12.5" fill="#555">composite search on g50t (unsolved) · 94 states · no verified win</text><rect x="6" y="60" width="448" height="448" rx="8" fill="#fff" stroke="#e3e6ec"/><g transform="translate(6,60)"><line x1="237" y1="94" x2="237" y2="146" stroke="#c9cfd9" stroke-width="1"/><line x1="197" y1="109" x2="213" y2="158" stroke="#c9cfd9" stroke-width="1"/><line x1="370" y1="108" x2="370" y2="108" stroke="#c9cfd9" stroke-width="1"/><line x1="136" y1="242" x2="53" y2="247" stroke="#c9cfd9" stroke-width="1"/><line x1="250" y1="333" x2="250" y2="333" stroke="#c9cfd9" stroke-width="1"/><line x1="388" y1="321" x2="339" y2="303" stroke="#c9cfd9" stroke-width="1"/><line x1="81" y1="296" x2="124" y2="267" stroke="#c9cfd9" stroke-width="1"/><line x1="124" y1="267" x2="42" y2="287" stroke="#c9cfd9" stroke-width="1"/><line x1="253" y1="299" x2="272" y2="380" stroke="#c9cfd9" stroke-width="1"/><line x1="237" y1="146" x2="262" y2="66" stroke="#c9cfd9" stroke-width="1"/><line x1="366" y1="185" x2="366" y2="185" stroke="#c9cfd9" stroke-width="1"/><line x1="314" y1="346" x2="278" y2="308" stroke="#c9cfd9" stroke-width="1"/><line x1="339" y1="303" x2="293" y2="278" stroke="#c9cfd9" stroke-width="1"/><line x1="262" y1="66" x2="257" y2="118" stroke="#c9cfd9" stroke-width="1"/><line x1="133" y1="58" x2="133" y2="58" stroke="#c9cfd9" stroke-width="1"/><line x1="278" y1="308" x2="312" y2="384" stroke="#c9cfd9" stroke-width="1"/><line x1="154" y1="224" x2="71" y2="214" stroke="#c9cfd9" stroke-width="1"/><line x1="166" y1="99" x2="166" y2="99" stroke="#c9cfd9" stroke-width="1"/><line x1="42" y1="287" x2="88" y2="261" stroke="#c9cfd9" stroke-width="1"/><line x1="137" y1="134" x2="137" y2="134" stroke="#c9cfd9" stroke-width="1"/><line x1="118" y1="297" x2="158" y2="263" stroke="#c9cfd9" stroke-width="1"/><line x1="224" y1="224" x2="224" y2="224" stroke="#c9cfd9" stroke-width="1"/><line x1="71" y1="214" x2="123" y2="210" stroke="#c9cfd9" stroke-width="1"/><line x1="297" y1="125" x2="270" y2="169" stroke="#c9cfd9" stroke-width="1"/><line x1="257" y1="118" x2="294" y2="43" stroke="#c9cfd9" stroke-width="1"/><line x1="335" y1="148" x2="296" y2="181" stroke="#c9cfd9" stroke-width="1"/><line x1="312" y1="384" x2="279" y2="343" stroke="#c9cfd9" stroke-width="1"/><line x1="155" y1="318" x2="155" y2="318" stroke="#c9cfd9" stroke-width="1"/><line x1="230" y1="42" x2="237" y2="94" stroke="#c9cfd9" stroke-width="1"/><line x1="270" y1="169" x2="332" y2="113" stroke="#c9cfd9" stroke-width="1"/><line x1="221" y1="125" x2="221" y2="125" stroke="#c9cfd9" stroke-width="1"/><line x1="307" y1="310" x2="268" y2="276" stroke="#c9cfd9" stroke-width="1"/><line x1="157" y1="399" x2="157" y2="399" stroke="#c9cfd9" stroke-width="1"/><line x1="238" y1="367" x2="227" y2="316" stroke="#c9cfd9" stroke-width="1"/><line x1="158" y1="263" x2="158" y2="263" stroke="#c9cfd9" stroke-width="1"/><line x1="284" y1="95" x2="268" y2="144" stroke="#c9cfd9" stroke-width="1"/><line x1="123" y1="210" x2="43" y2="187" stroke="#c9cfd9" stroke-width="1"/><line x1="268" y1="276" x2="314" y2="346" stroke="#c9cfd9" stroke-width="1"/><line x1="53" y1="247" x2="103" y2="232" stroke="#c9cfd9" stroke-width="1"/><line x1="55" y1="124" x2="104" y2="142" stroke="#c9cfd9" stroke-width="1"/><line x1="43" y1="187" x2="95" y2="189" stroke="#c9cfd9" stroke-width="1"/><line x1="332" y1="113" x2="301" y2="155" stroke="#c9cfd9" stroke-width="1"/><line x1="136" y1="242" x2="136" y2="242" stroke="#c9cfd9" stroke-width="1"/><line x1="95" y1="189" x2="147" y2="197" stroke="#c9cfd9" stroke-width="1"/><line x1="103" y1="232" x2="154" y2="224" stroke="#c9cfd9" stroke-width="1"/><line x1="227" y1="316" x2="218" y2="399" stroke="#c9cfd9" stroke-width="1"/><line x1="81" y1="296" x2="81" y2="296" stroke="#c9cfd9" stroke-width="1"/><line x1="268" y1="144" x2="318" y2="77" stroke="#c9cfd9" stroke-width="1"/><line x1="301" y1="155" x2="370" y2="108" stroke="#c9cfd9" stroke-width="1"/><line x1="272" y1="380" x2="250" y2="333" stroke="#c9cfd9" stroke-width="1"/><line x1="218" y1="399" x2="212" y2="347" stroke="#c9cfd9" stroke-width="1"/><line x1="318" y1="77" x2="297" y2="125" stroke="#c9cfd9" stroke-width="1"/><line x1="104" y1="142" x2="150" y2="166" stroke="#c9cfd9" stroke-width="1"/><line x1="237" y1="146" x2="237" y2="146" stroke="#c9cfd9" stroke-width="1"/><line x1="250" y1="333" x2="256" y2="416" stroke="#c9cfd9" stroke-width="1"/><line x1="346" y1="258" x2="346" y2="258" stroke="#c9cfd9" stroke-width="1"/><line x1="147" y1="197" x2="72" y2="160" stroke="#c9cfd9" stroke-width="1"/><line x1="314" y1="346" x2="314" y2="346" stroke="#c9cfd9" stroke-width="1"/><line x1="209" y1="75" x2="209" y2="75" stroke="#c9cfd9" stroke-width="1"/><line x1="339" y1="303" x2="339" y2="303" stroke="#c9cfd9" stroke-width="1"/><line x1="150" y1="166" x2="93" y2="105" stroke="#c9cfd9" stroke-width="1"/><line x1="284" y1="203" x2="366" y2="185" stroke="#c9cfd9" stroke-width="1"/><line x1="293" y1="278" x2="293" y2="278" stroke="#c9cfd9" stroke-width="1"/><line x1="72" y1="160" x2="123" y2="173" stroke="#c9cfd9" stroke-width="1"/><line x1="167" y1="348" x2="183" y2="298" stroke="#c9cfd9" stroke-width="1"/><line x1="212" y1="347" x2="212" y2="296" stroke="#c9cfd9" stroke-width="1"/><line x1="366" y1="185" x2="318" y2="205" stroke="#c9cfd9" stroke-width="1"/><line x1="212" y1="296" x2="188" y2="376" stroke="#c9cfd9" stroke-width="1"/><line x1="88" y1="261" x2="88" y2="261" stroke="#c9cfd9" stroke-width="1"/><line x1="256" y1="416" x2="238" y2="367" stroke="#c9cfd9" stroke-width="1"/><line x1="183" y1="298" x2="134" y2="366" stroke="#c9cfd9" stroke-width="1"/><line x1="296" y1="181" x2="373" y2="149" stroke="#c9cfd9" stroke-width="1"/><line x1="297" y1="125" x2="297" y2="125" stroke="#c9cfd9" stroke-width="1"/><line x1="279" y1="343" x2="253" y2="299" stroke="#c9cfd9" stroke-width="1"/><line x1="182" y1="274" x2="182" y2="274" stroke="#c9cfd9" stroke-width="1"/><line x1="188" y1="376" x2="193" y2="324" stroke="#c9cfd9" stroke-width="1"/><line x1="123" y1="173" x2="55" y2="124" stroke="#c9cfd9" stroke-width="1"/><line x1="166" y1="99" x2="193" y2="143" stroke="#c9cfd9" stroke-width="1"/><line x1="295" y1="249" x2="370" y2="286" stroke="#c9cfd9" stroke-width="1"/><line x1="176" y1="167" x2="131" y2="97" stroke="#c9cfd9" stroke-width="1"/><line x1="373" y1="149" x2="330" y2="179" stroke="#c9cfd9" stroke-width="1"/><line x1="123" y1="210" x2="123" y2="210" stroke="#c9cfd9" stroke-width="1"/><line x1="370" y1="234" x2="318" y2="237" stroke="#c9cfd9" stroke-width="1"/><line x1="193" y1="324" x2="157" y2="399" stroke="#c9cfd9" stroke-width="1"/><line x1="330" y1="179" x2="284" y2="203" stroke="#c9cfd9" stroke-width="1"/><line x1="157" y1="399" x2="167" y2="348" stroke="#c9cfd9" stroke-width="1"/><line x1="370" y1="108" x2="335" y2="148" stroke="#c9cfd9" stroke-width="1"/><line x1="131" y1="97" x2="167" y2="135" stroke="#c9cfd9" stroke-width="1"/><line x1="227" y1="316" x2="227" y2="316" stroke="#c9cfd9" stroke-width="1"/><line x1="318" y1="237" x2="399" y2="260" stroke="#c9cfd9" stroke-width="1"/><line x1="272" y1="380" x2="272" y2="380" stroke="#c9cfd9" stroke-width="1"/><line x1="262" y1="66" x2="262" y2="66" stroke="#c9cfd9" stroke-width="1"/><line x1="167" y1="135" x2="133" y2="58" stroke="#c9cfd9" stroke-width="1"/><line x1="318" y1="77" x2="318" y2="77" stroke="#c9cfd9" stroke-width="1"/><line x1="399" y1="260" x2="346" y2="258" stroke="#c9cfd9" stroke-width="1"/><line x1="93" y1="105" x2="137" y2="134" stroke="#c9cfd9" stroke-width="1"/><line x1="121" y1="331" x2="152" y2="289" stroke="#c9cfd9" stroke-width="1"/><line x1="284" y1="203" x2="284" y2="203" stroke="#c9cfd9" stroke-width="1"/><line x1="152" y1="289" x2="83" y2="336" stroke="#c9cfd9" stroke-width="1"/><line x1="72" y1="160" x2="72" y2="160" stroke="#c9cfd9" stroke-width="1"/><line x1="318" y1="205" x2="401" y2="200" stroke="#c9cfd9" stroke-width="1"/><line x1="213" y1="158" x2="209" y2="75" stroke="#c9cfd9" stroke-width="1"/><line x1="167" y1="348" x2="167" y2="348" stroke="#c9cfd9" stroke-width="1"/><line x1="133" y1="58" x2="166" y2="99" stroke="#c9cfd9" stroke-width="1"/><line x1="134" y1="366" x2="155" y2="318" stroke="#c9cfd9" stroke-width="1"/><line x1="346" y1="258" x2="295" y2="249" stroke="#c9cfd9" stroke-width="1"/><line x1="137" y1="134" x2="176" y2="167" stroke="#c9cfd9" stroke-width="1"/><line x1="209" y1="75" x2="221" y2="125" stroke="#c9cfd9" stroke-width="1"/><line x1="224" y1="224" x2="370" y2="234" stroke="#c9cfd9" stroke-width="1"/><line x1="293" y1="278" x2="351" y2="339" stroke="#c9cfd9" stroke-width="1"/><line x1="193" y1="143" x2="174" y2="62" stroke="#c9cfd9" stroke-width="1"/><line x1="83" y1="336" x2="118" y2="297" stroke="#c9cfd9" stroke-width="1"/><line x1="123" y1="173" x2="123" y2="173" stroke="#c9cfd9" stroke-width="1"/><line x1="401" y1="200" x2="351" y2="215" stroke="#c9cfd9" stroke-width="1"/><line x1="268" y1="276" x2="268" y2="276" stroke="#c9cfd9" stroke-width="1"/><line x1="370" y1="286" x2="320" y2="272" stroke="#c9cfd9" stroke-width="1"/><line x1="155" y1="318" x2="182" y2="274" stroke="#c9cfd9" stroke-width="1"/><line x1="43" y1="187" x2="43" y2="187" stroke="#c9cfd9" stroke-width="1"/><line x1="88" y1="261" x2="136" y2="242" stroke="#c9cfd9" stroke-width="1"/><line x1="176" y1="167" x2="176" y2="167" stroke="#c9cfd9" stroke-width="1"/><line x1="221" y1="125" x2="230" y2="42" stroke="#c9cfd9" stroke-width="1"/><line x1="158" y1="263" x2="81" y2="296" stroke="#c9cfd9" stroke-width="1"/><line x1="370" y1="234" x2="370" y2="234" stroke="#c9cfd9" stroke-width="1"/><line x1="182" y1="274" x2="121" y2="331" stroke="#c9cfd9" stroke-width="1"/><line x1="351" y1="339" x2="307" y2="310" stroke="#c9cfd9" stroke-width="1"/><line x1="174" y1="62" x2="197" y2="109" stroke="#c9cfd9" stroke-width="1"/><line x1="301" y1="155" x2="301" y2="155" stroke="#c9cfd9" stroke-width="1"/><line x1="294" y1="43" x2="284" y2="95" stroke="#c9cfd9" stroke-width="1"/><line x1="320" y1="272" x2="388" y2="321" stroke="#c9cfd9" stroke-width="1"/><line x1="218" y1="399" x2="218" y2="399" stroke="#c9cfd9" stroke-width="1"/><circle cx="224" cy="224" r="7" fill="#d98a23" stroke="#fff" stroke-width="1"/><circle cx="370" cy="234" r="4" fill="#3b6fb0" stroke="#fff" stroke-width="1"/><circle cx="318" cy="237" r="4" fill="#3b6fb0" stroke="#fff" stroke-width="1"/><circle cx="399" cy="260" r="4" fill="#3b6fb0" stroke="#fff" stroke-width="1"/><circle cx="346" cy="258" r="4" fill="#3b6fb0" stroke="#fff" stroke-width="1"/><circle cx="295" cy="249" r="4" fill="#3b6fb0" stroke="#fff" stroke-width="1"/><circle cx="370" cy="286" r="4" fill="#3b6fb0" stroke="#fff" stroke-width="1"/><circle cx="320" cy="272" r="4" fill="#3b6fb0" stroke="#fff" stroke-width="1"/><circle cx="388" cy="321" r="4" fill="#3b6fb0" stroke="#fff" stroke-width="1"/><circle cx="339" cy="303" r="4" fill="#3b6fb0" stroke="#fff" stroke-width="1"/><circle cx="293" cy="278" r="4" fill="#3b6fb0" stroke="#fff" stroke-width="1"/><circle cx="351" cy="339" r="4" fill="#3b6fb0" stroke="#fff" stroke-width="1"/><circle cx="307" cy="310" r="4" fill="#3b6fb0" stroke="#fff" stroke-width="1"/><circle cx="268" cy="276" r="4" fill="#3b6fb0" stroke="#fff" stroke-width="1"/><circle cx="314" cy="346" r="4" fill="#3b6fb0" stroke="#fff" stroke-width="1"/><circle cx="278" cy="308" r="4" fill="#3b6fb0" stroke="#fff" stroke-width="1"/><circle cx="312" cy="384" r="4" fill="#3b6fb0" stroke="#fff" stroke-width="1"/><circle cx="279" cy="343" r="4" fill="#3b6fb0" stroke="#fff" stroke-width="1"/><circle cx="253" cy="299" r="4" fill="#3b6fb0" stroke="#fff" stroke-width="1"/><circle cx="272" cy="380" r="4" fill="#3b6fb0" stroke="#fff" stroke-width="1"/><circle cx="250" cy="333" r="4" fill="#3b6fb0" stroke="#fff" stroke-width="1"/><circle cx="256" cy="416" r="4" fill="#3b6fb0" stroke="#fff" stroke-width="1"/><circle cx="238" cy="367" r="4" fill="#3b6fb0" stroke="#fff" stroke-width="1"/><circle cx="227" cy="316" r="4" fill="#3b6fb0" stroke="#fff" stroke-width="1"/><circle cx="218" cy="399" r="4" fill="#3b6fb0" stroke="#fff" stroke-width="1"/><circle cx="212" cy="347" r="4" fill="#3b6fb0" stroke="#fff" stroke-width="1"/><circle cx="212" cy="296" r="4" fill="#3b6fb0" stroke="#fff" stroke-width="1"/><circle cx="188" cy="376" r="4" fill="#3b6fb0" stroke="#fff" stroke-width="1"/><circle cx="193" cy="324" r="4" fill="#3b6fb0" stroke="#fff" stroke-width="1"/><circle cx="157" cy="399" r="4" fill="#3b6fb0" stroke="#fff" stroke-width="1"/><circle cx="167" cy="348" r="4" fill="#3b6fb0" stroke="#fff" stroke-width="1"/><circle cx="183" cy="298" r="4" fill="#3b6fb0" stroke="#fff" stroke-width="1"/><circle cx="134" cy="366" r="4" fill="#3b6fb0" stroke="#fff" stroke-width="1"/><circle cx="155" cy="318" r="4" fill="#3b6fb0" stroke="#fff" stroke-width="1"/><circle cx="182" cy="274" r="4" fill="#3b6fb0" stroke="#fff" stroke-width="1"/><circle cx="121" cy="331" r="4" fill="#3b6fb0" stroke="#fff" stroke-width="1"/><circle cx="152" cy="289" r="4" fill="#3b6fb0" stroke="#fff" stroke-width="1"/><circle cx="83" cy="336" r="4" fill="#3b6fb0" stroke="#fff" stroke-width="1"/><circle cx="118" cy="297" r="4" fill="#3b6fb0" stroke="#fff" stroke-width="1"/><circle cx="158" cy="263" r="4" fill="#3b6fb0" stroke="#fff" stroke-width="1"/><circle cx="81" cy="296" r="4" fill="#3b6fb0" stroke="#fff" stroke-width="1"/><circle cx="124" cy="267" r="4" fill="#3b6fb0" stroke="#fff" stroke-width="1"/><circle cx="42" cy="287" r="4" fill="#3b6fb0" stroke="#fff" stroke-width="1"/><circle cx="88" cy="261" r="4" fill="#3b6fb0" stroke="#fff" stroke-width="1"/><circle cx="136" cy="242" r="4" fill="#3b6fb0" stroke="#fff" stroke-width="1"/><circle cx="53" cy="247" r="4" fill="#3b6fb0" stroke="#fff" stroke-width="1"/><circle cx="103" cy="232" r="4" fill="#3b6fb0" stroke="#fff" stroke-width="1"/><circle cx="154" cy="224" r="4" fill="#3b6fb0" stroke="#fff" stroke-width="1"/><circle cx="71" cy="214" r="4" fill="#3b6fb0" stroke="#fff" stroke-width="1"/><circle cx="123" cy="210" r="4" fill="#3b6fb0" stroke="#fff" stroke-width="1"/><circle cx="43" cy="187" r="4" fill="#3b6fb0" stroke="#fff" stroke-width="1"/><circle cx="95" cy="189" r="4" fill="#3b6fb0" stroke="#fff" stroke-width="1"/><circle cx="147" cy="197" r="4" fill="#3b6fb0" stroke="#fff" stroke-width="1"/><circle cx="72" cy="160" r="4" fill="#3b6fb0" stroke="#fff" stroke-width="1"/><circle cx="123" cy="173" r="4" fill="#3b6fb0" stroke="#fff" stroke-width="1"/><circle cx="55" cy="124" r="4" fill="#3b6fb0" stroke="#fff" stroke-width="1"/><circle cx="104" cy="142" r="4" fill="#3b6fb0" stroke="#fff" stroke-width="1"/><circle cx="150" cy="166" r="4" fill="#3b6fb0" stroke="#fff" stroke-width="1"/><circle cx="93" cy="105" r="4" fill="#3b6fb0" stroke="#fff" stroke-width="1"/><circle cx="137" cy="134" r="4" fill="#3b6fb0" stroke="#fff" stroke-width="1"/><circle cx="176" cy="167" r="4" fill="#3b6fb0" stroke="#fff" stroke-width="1"/><circle cx="131" cy="97" r="4" fill="#3b6fb0" stroke="#fff" stroke-width="1"/><circle cx="167" cy="135" r="4" fill="#3b6fb0" stroke="#fff" stroke-width="1"/><circle cx="133" cy="58" r="4" fill="#3b6fb0" stroke="#fff" stroke-width="1"/><circle cx="166" cy="99" r="4" fill="#3b6fb0" stroke="#fff" stroke-width="1"/><circle cx="193" cy="143" r="4" fill="#3b6fb0" stroke="#fff" stroke-width="1"/><circle cx="174" cy="62" r="4" fill="#3b6fb0" stroke="#fff" stroke-width="1"/><circle cx="197" cy="109" r="4" fill="#3b6fb0" stroke="#fff" stroke-width="1"/><circle cx="213" cy="158" r="4" fill="#3b6fb0" stroke="#fff" stroke-width="1"/><circle cx="209" cy="75" r="4" fill="#3b6fb0" stroke="#fff" stroke-width="1"/><circle cx="221" cy="125" r="4" fill="#3b6fb0" stroke="#fff" stroke-width="1"/><circle cx="230" cy="42" r="4" fill="#3b6fb0" stroke="#fff" stroke-width="1"/><circle cx="237" cy="94" r="4" fill="#3b6fb0" stroke="#fff" stroke-width="1"/><circle cx="237" cy="146" r="4" fill="#3b6fb0" stroke="#fff" stroke-width="1"/><circle cx="262" cy="66" r="4" fill="#3b6fb0" stroke="#fff" stroke-width="1"/><circle cx="257" cy="118" r="4" fill="#3b6fb0" stroke="#fff" stroke-width="1"/><circle cx="294" cy="43" r="4" fill="#3b6fb0" stroke="#fff" stroke-width="1"/><circle cx="284" cy="95" r="4" fill="#3b6fb0" stroke="#fff" stroke-width="1"/><circle cx="268" cy="144" r="4" fill="#3b6fb0" stroke="#fff" stroke-width="1"/><circle cx="318" cy="77" r="4" fill="#3b6fb0" stroke="#fff" stroke-width="1"/><circle cx="297" cy="125" r="4" fill="#3b6fb0" stroke="#fff" stroke-width="1"/><circle cx="270" cy="169" r="4" fill="#3b6fb0" stroke="#fff" stroke-width="1"/><circle cx="332" cy="113" r="4" fill="#3b6fb0" stroke="#fff" stroke-width="1"/><circle cx="301" cy="155" r="4" fill="#3b6fb0" stroke="#fff" stroke-width="1"/><circle cx="370" cy="108" r="4" fill="#3b6fb0" stroke="#fff" stroke-width="1"/><circle cx="335" cy="148" r="4" fill="#3b6fb0" stroke="#fff" stroke-width="1"/><circle cx="296" cy="181" r="4" fill="#3b6fb0" stroke="#fff" stroke-width="1"/><circle cx="373" cy="149" r="4" fill="#3b6fb0" stroke="#fff" stroke-width="1"/><circle cx="330" cy="179" r="4" fill="#3b6fb0" stroke="#fff" stroke-width="1"/><circle cx="284" cy="203" r="4" fill="#3b6fb0" stroke="#fff" stroke-width="1"/><circle cx="366" cy="185" r="4" fill="#3b6fb0" stroke="#fff" stroke-width="1"/><circle cx="318" cy="205" r="4" fill="#3b6fb0" stroke="#fff" stroke-width="1"/><circle cx="401" cy="200" r="4" fill="#3b6fb0" stroke="#fff" stroke-width="1"/><circle cx="351" cy="215" r="4" fill="#3b6fb0" stroke="#fff" stroke-width="1"/></g></g><g transform="translate(520,0)"><text x="230.0" y="26" text-anchor="middle" font-family="Helvetica,Arial,sans-serif" font-size="18" font-weight="bold" fill="#177a45">World model VERIFIABLE</text><text x="230.0" y="48" text-anchor="middle" font-family="Helvetica,Arial,sans-serif" font-size="12.5" fill="#555">tu93 solution trajectory · 70 states · reaches a verified win</text><rect x="6" y="60" width="448" height="448" rx="8" fill="#fff" stroke="#e3e6ec"/><g transform="translate(6,60)"><line x1="30" y1="30" x2="69" y2="30" stroke="#c9cfd9" stroke-width="1"/><line x1="69" y1="30" x2="108" y2="30" stroke="#c9cfd9" stroke-width="1"/><line x1="108" y1="30" x2="146" y2="30" stroke="#c9cfd9" stroke-width="1"/><line x1="146" y1="30" x2="185" y2="30" stroke="#c9cfd9" stroke-width="1"/><line x1="185" y1="30" x2="224" y2="30" stroke="#c9cfd9" stroke-width="1"/><line x1="224" y1="30" x2="263" y2="30" stroke="#c9cfd9" stroke-width="1"/><line x1="263" y1="30" x2="302" y2="30" stroke="#c9cfd9" stroke-width="1"/><line x1="302" y1="30" x2="340" y2="30" stroke="#c9cfd9" stroke-width="1"/><line x1="340" y1="30" x2="379" y2="30" stroke="#c9cfd9" stroke-width="1"/><line x1="379" y1="30" x2="418" y2="30" stroke="#c9cfd9" stroke-width="1"/><line x1="418" y1="30" x2="418" y2="95" stroke="#c9cfd9" stroke-width="1"/><line x1="418" y1="95" x2="379" y2="95" stroke="#c9cfd9" stroke-width="1"/><line x1="379" y1="95" x2="340" y2="95" stroke="#c9cfd9" stroke-width="1"/><line x1="340" y1="95" x2="302" y2="95" stroke="#c9cfd9" stroke-width="1"/><line x1="302" y1="95" x2="263" y2="95" stroke="#c9cfd9" stroke-width="1"/><line x1="263" y1="95" x2="224" y2="95" stroke="#c9cfd9" stroke-width="1"/><line x1="224" y1="95" x2="185" y2="95" stroke="#c9cfd9" stroke-width="1"/><line x1="185" y1="95" x2="146" y2="95" stroke="#c9cfd9" stroke-width="1"/><line x1="146" y1="95" x2="108" y2="95" stroke="#c9cfd9" stroke-width="1"/><line x1="108" y1="95" x2="69" y2="95" stroke="#c9cfd9" stroke-width="1"/><line x1="69" y1="95" x2="30" y2="95" stroke="#c9cfd9" stroke-width="1"/><line x1="30" y1="95" x2="30" y2="159" stroke="#c9cfd9" stroke-width="1"/><line x1="30" y1="159" x2="69" y2="159" stroke="#c9cfd9" stroke-width="1"/><line x1="69" y1="159" x2="108" y2="159" stroke="#c9cfd9" stroke-width="1"/><line x1="108" y1="159" x2="146" y2="159" stroke="#c9cfd9" stroke-width="1"/><line x1="146" y1="159" x2="185" y2="159" stroke="#c9cfd9" stroke-width="1"/><line x1="185" y1="159" x2="224" y2="159" stroke="#c9cfd9" stroke-width="1"/><line x1="224" y1="159" x2="263" y2="159" stroke="#c9cfd9" stroke-width="1"/><line x1="263" y1="159" x2="302" y2="159" stroke="#c9cfd9" stroke-width="1"/><line x1="302" y1="159" x2="340" y2="159" stroke="#c9cfd9" stroke-width="1"/><line x1="340" y1="159" x2="379" y2="159" stroke="#c9cfd9" stroke-width="1"/><line x1="379" y1="159" x2="418" y2="159" stroke="#c9cfd9" stroke-width="1"/><line x1="418" y1="159" x2="418" y2="224" stroke="#c9cfd9" stroke-width="1"/><line x1="418" y1="224" x2="379" y2="224" stroke="#c9cfd9" stroke-width="1"/><line x1="379" y1="224" x2="340" y2="224" stroke="#c9cfd9" stroke-width="1"/><line x1="340" y1="224" x2="302" y2="224" stroke="#c9cfd9" stroke-width="1"/><line x1="302" y1="224" x2="263" y2="224" stroke="#c9cfd9" stroke-width="1"/><line x1="263" y1="224" x2="224" y2="224" stroke="#c9cfd9" stroke-width="1"/><line x1="224" y1="224" x2="185" y2="224" stroke="#c9cfd9" stroke-width="1"/><line x1="185" y1="224" x2="146" y2="224" stroke="#c9cfd9" stroke-width="1"/><line x1="146" y1="224" x2="108" y2="224" stroke="#c9cfd9" stroke-width="1"/><line x1="108" y1="224" x2="69" y2="224" stroke="#c9cfd9" stroke-width="1"/><line x1="69" y1="224" x2="30" y2="224" stroke="#c9cfd9" stroke-width="1"/><line x1="30" y1="224" x2="30" y2="289" stroke="#c9cfd9" stroke-width="1"/><line x1="30" y1="289" x2="69" y2="289" stroke="#c9cfd9" stroke-width="1"/><line x1="69" y1="289" x2="108" y2="289" stroke="#c9cfd9" stroke-width="1"/><line x1="108" y1="289" x2="146" y2="289" stroke="#c9cfd9" stroke-width="1"/><line x1="146" y1="289" x2="185" y2="289" stroke="#c9cfd9" stroke-width="1"/><line x1="185" y1="289" x2="224" y2="289" stroke="#c9cfd9" stroke-width="1"/><line x1="224" y1="289" x2="263" y2="289" stroke="#c9cfd9" stroke-width="1"/><line x1="263" y1="289" x2="302" y2="289" stroke="#c9cfd9" stroke-width="1"/><line x1="302" y1="289" x2="340" y2="289" stroke="#c9cfd9" stroke-width="1"/><line x1="340" y1="289" x2="379" y2="289" stroke="#c9cfd9" stroke-width="1"/><line x1="379" y1="289" x2="418" y2="289" stroke="#c9cfd9" stroke-width="1"/><line x1="418" y1="289" x2="418" y2="353" stroke="#c9cfd9" stroke-width="1"/><line x1="418" y1="353" x2="379" y2="353" stroke="#c9cfd9" stroke-width="1"/><line x1="379" y1="353" x2="340" y2="353" stroke="#c9cfd9" stroke-width="1"/><line x1="340" y1="353" x2="302" y2="353" stroke="#c9cfd9" stroke-width="1"/><line x1="302" y1="353" x2="263" y2="353" stroke="#c9cfd9" stroke-width="1"/><line x1="263" y1="353" x2="224" y2="353" stroke="#c9cfd9" stroke-width="1"/><line x1="224" y1="353" x2="185" y2="353" stroke="#c9cfd9" stroke-width="1"/><line x1="185" y1="353" x2="146" y2="353" stroke="#c9cfd9" stroke-width="1"/><line x1="146" y1="353" x2="108" y2="353" stroke="#c9cfd9" stroke-width="1"/><line x1="108" y1="353" x2="69" y2="353" stroke="#c9cfd9" stroke-width="1"/><line x1="69" y1="353" x2="30" y2="353" stroke="#c9cfd9" stroke-width="1"/><line x1="30" y1="353" x2="30" y2="418" stroke="#c9cfd9" stroke-width="1"/><line x1="30" y1="418" x2="69" y2="418" stroke="#c9cfd9" stroke-width="1"/><line x1="69" y1="418" x2="108" y2="418" stroke="#c9cfd9" stroke-width="1"/><line x1="108" y1="418" x2="146" y2="418" stroke="#c9cfd9" stroke-width="1"/><circle cx="30" cy="30" r="7" fill="#d98a23" stroke="#fff" stroke-width="1"/><circle cx="69" cy="30" r="4" fill="#3b6fb0" stroke="#fff" stroke-width="1"/><circle cx="108" cy="30" r="4" fill="#3b6fb0" stroke="#fff" stroke-width="1"/><circle cx="146" cy="30" r="4" fill="#3b6fb0" stroke="#fff" stroke-width="1"/><circle cx="185" cy="30" r="4" fill="#3b6fb0" stroke="#fff" stroke-width="1"/><circle cx="224" cy="30" r="4" fill="#3b6fb0" stroke="#fff" stroke-width="1"/><circle cx="263" cy="30" r="4" fill="#3b6fb0" stroke="#fff" stroke-width="1"/><circle cx="302" cy="30" r="4" fill="#3b6fb0" stroke="#fff" stroke-width="1"/><circle cx="340" cy="30" r="4" fill="#3b6fb0" stroke="#fff" stroke-width="1"/><circle cx="379" cy="30" r="4" fill="#3b6fb0" stroke="#fff" stroke-width="1"/><circle cx="418" cy="30" r="4" fill="#3b6fb0" stroke="#fff" stroke-width="1"/><circle cx="418" cy="95" r="4" fill="#3b6fb0" stroke="#fff" stroke-width="1"/><circle cx="379" cy="95" r="4" fill="#3b6fb0" stroke="#fff" stroke-width="1"/><circle cx="340" cy="95" r="4" fill="#3b6fb0" stroke="#fff" stroke-width="1"/><circle cx="302" cy="95" r="4" fill="#3b6fb0" stroke="#fff" stroke-width="1"/><circle cx="263" cy="95" r="4" fill="#3b6fb0" stroke="#fff" stroke-width="1"/><circle cx="224" cy="95" r="4" fill="#3b6fb0" stroke="#fff" stroke-width="1"/><circle cx="185" cy="95" r="4" fill="#3b6fb0" stroke="#fff" stroke-width="1"/><circle cx="146" cy="95" r="4" fill="#3b6fb0" stroke="#fff" stroke-width="1"/><circle cx="108" cy="95" r="4" fill="#3b6fb0" stroke="#fff" stroke-width="1"/><circle cx="69" cy="95" r="4" fill="#3b6fb0" stroke="#fff" stroke-width="1"/><circle cx="30" cy="95" r="4" fill="#3b6fb0" stroke="#fff" stroke-width="1"/><circle cx="30" cy="159" r="4" fill="#3b6fb0" stroke="#fff" stroke-width="1"/><circle cx="69" cy="159" r="4" fill="#3b6fb0" stroke="#fff" stroke-width="1"/><circle cx="108" cy="159" r="4" fill="#3b6fb0" stroke="#fff" stroke-width="1"/><circle cx="146" cy="159" r="4" fill="#3b6fb0" stroke="#fff" stroke-width="1"/><circle cx="185" cy="159" r="4" fill="#3b6fb0" stroke="#fff" stroke-width="1"/><circle cx="224" cy="159" r="4" fill="#3b6fb0" stroke="#fff" stroke-width="1"/><circle cx="263" cy="159" r="4" fill="#3b6fb0" stroke="#fff" stroke-width="1"/><circle cx="302" cy="159" r="4" fill="#3b6fb0" stroke="#fff" stroke-width="1"/><circle cx="340" cy="159" r="4" fill="#3b6fb0" stroke="#fff" stroke-width="1"/><circle cx="379" cy="159" r="4" fill="#3b6fb0" stroke="#fff" stroke-width="1"/><circle cx="418" cy="159" r="4" fill="#3b6fb0" stroke="#fff" stroke-width="1"/><circle cx="418" cy="224" r="4" fill="#3b6fb0" stroke="#fff" stroke-width="1"/><circle cx="379" cy="224" r="4" fill="#3b6fb0" stroke="#fff" stroke-width="1"/><circle cx="340" cy="224" r="4" fill="#3b6fb0" stroke="#fff" stroke-width="1"/><circle cx="302" cy="224" r="4" fill="#3b6fb0" stroke="#fff" stroke-width="1"/><circle cx="263" cy="224" r="4" fill="#3b6fb0" stroke="#fff" stroke-width="1"/><circle cx="224" cy="224" r="4" fill="#3b6fb0" stroke="#fff" stroke-width="1"/><circle cx="185" cy="224" r="4" fill="#3b6fb0" stroke="#fff" stroke-width="1"/><circle cx="146" cy="224" r="4" fill="#3b6fb0" stroke="#fff" stroke-width="1"/><circle cx="108" cy="224" r="4" fill="#3b6fb0" stroke="#fff" stroke-width="1"/><circle cx="69" cy="224" r="4" fill="#3b6fb0" stroke="#fff" stroke-width="1"/><circle cx="30" cy="224" r="4" fill="#3b6fb0" stroke="#fff" stroke-width="1"/><circle cx="30" cy="289" r="4" fill="#3b6fb0" stroke="#fff" stroke-width="1"/><circle cx="69" cy="289" r="4" fill="#3b6fb0" stroke="#fff" stroke-width="1"/><circle cx="108" cy="289" r="4" fill="#3b6fb0" stroke="#fff" stroke-width="1"/><circle cx="146" cy="289" r="4" fill="#3b6fb0" stroke="#fff" stroke-width="1"/><circle cx="185" cy="289" r="4" fill="#3b6fb0" stroke="#fff" stroke-width="1"/><circle cx="224" cy="289" r="4" fill="#3b6fb0" stroke="#fff" stroke-width="1"/><circle cx="263" cy="289" r="4" fill="#3b6fb0" stroke="#fff" stroke-width="1"/><circle cx="302" cy="289" r="4" fill="#3b6fb0" stroke="#fff" stroke-width="1"/><circle cx="340" cy="289" r="4" fill="#3b6fb0" stroke="#fff" stroke-width="1"/><circle cx="379" cy="289" r="4" fill="#3b6fb0" stroke="#fff" stroke-width="1"/><circle cx="418" cy="289" r="4" fill="#3b6fb0" stroke="#fff" stroke-width="1"/><circle cx="418" cy="353" r="4" fill="#3b6fb0" stroke="#fff" stroke-width="1"/><circle cx="379" cy="353" r="4" fill="#3b6fb0" stroke="#fff" stroke-width="1"/><circle cx="340" cy="353" r="4" fill="#3b6fb0" stroke="#fff" stroke-width="1"/><circle cx="302" cy="353" r="4" fill="#3b6fb0" stroke="#fff" stroke-width="1"/><circle cx="263" cy="353" r="4" fill="#3b6fb0" stroke="#fff" stroke-width="1"/><circle cx="224" cy="353" r="4" fill="#3b6fb0" stroke="#fff" stroke-width="1"/><circle cx="185" cy="353" r="4" fill="#3b6fb0" stroke="#fff" stroke-width="1"/><circle cx="146" cy="353" r="4" fill="#3b6fb0" stroke="#fff" stroke-width="1"/><circle cx="108" cy="353" r="4" fill="#3b6fb0" stroke="#fff" stroke-width="1"/><circle cx="69" cy="353" r="4" fill="#3b6fb0" stroke="#fff" stroke-width="1"/><circle cx="30" cy="353" r="4" fill="#3b6fb0" stroke="#fff" stroke-width="1"/><circle cx="30" cy="418" r="4" fill="#3b6fb0" stroke="#fff" stroke-width="1"/><circle cx="69" cy="418" r="4" fill="#3b6fb0" stroke="#fff" stroke-width="1"/><circle cx="108" cy="418" r="4" fill="#3b6fb0" stroke="#fff" stroke-width="1"/><circle cx="146" cy="418" r="7" fill="#1f9d57" stroke="#fff" stroke-width="1"/></g></g><text x="505.0" y="536" text-anchor="middle" font-size="11.5" fill="#777">orange = seed/start · blue = discovered state · green = verified win / level-up</text></svg>