<svg xmlns="http://www.w3.org/2000/svg" width="1330" height="2100" viewBox="0 0 1330 2100" font-family="'Iowan Old Style',Georgia,serif">
<rect width="1330" height="2100" fill="#fcfbf8"/>
<rect x="0" y="0" width="1330" height="84" fill="#eef0ec"/>
<rect x="0" y="84" width="1330" height="3" fill="#1d4ed8"/>
<text x="40" y="44" font-size="27" font-weight="700" fill="#16202e">World Cup 2026 — a modelled tournament</text>
<text x="40" y="68" font-size="13" fill="#5b6675">One Elo-driven simulation · group stage → knockout · champion: <tspan font-weight="700" fill="#b45309">France</tspan></text>
<text x="40" y="116" font-size="12" font-weight="700" letter-spacing="1.4" fill="#5b6675">GROUP STAGE — <tspan fill="#1d4ed8">1–2 advance</tspan> · <tspan fill="#0f766e">best-third qualifies</tspan> · <tspan fill="#0f766e">✓</tspan>/<tspan fill="#b91c1c">✗</tspan> = pre-match pick vs actual · grey = not yet played</text>
<text x="852" y="30" font-size="12" font-weight="700" letter-spacing="1.2" fill="#16202e">MODEL vs ACTUAL · matchday 1</text>
<text x="852" y="49" font-size="11.5" fill="#5b6675">overall <tspan font-weight="700" fill="#16202e">33%</tspan> · decisive <tspan font-weight="700" fill="#16202e">62%</tspan> · Brier 0.77</text>
<text x="852" y="71" font-size="13" font-weight="700" fill="#0f766e">✓</text>
<text x="881" y="71" font-size="13" font-weight="700" fill="#0f766e">✓</text>
<text x="910" y="71" font-size="13" font-weight="700" fill="#b91c1c">✗</text>
<text x="939" y="71" font-size="13" font-weight="700" fill="#b91c1c">✗</text>
<text x="968" y="71" font-size="13" font-weight="700" fill="#b91c1c">✗</text>
<text x="997" y="71" font-size="13" font-weight="700" fill="#0f766e">✓</text>
<text x="1026" y="71" font-size="13" font-weight="700" fill="#b91c1c">✗</text>
<text x="1055" y="71" font-size="13" font-weight="700" fill="#b91c1c">✗</text>
<text x="1084" y="71" font-size="13" font-weight="700" fill="#0f766e">✓</text>
<text x="1113" y="71" font-size="13" font-weight="700" fill="#b91c1c">✗</text>
<text x="1142" y="71" font-size="13" font-weight="700" fill="#b91c1c">✗</text>
<text x="1171" y="71" font-size="13" font-weight="700" fill="#0f766e">✓</text>
<text x="1200" y="71" font-size="13" font-weight="700" fill="#b91c1c">✗</text>
<text x="1229" y="71" font-size="13" font-weight="700" fill="#b91c1c">✗</text>
<text x="1258" y="71" font-size="13" font-weight="700" fill="#b91c1c">✗</text>
<rect x="40" y="122" width="300" height="230" rx="10" fill="#ffffff" stroke="#dde2ea" stroke-width="1"/>
<rect x="40" y="122" width="300" height="4" rx="2" fill="#b45309"/>
<text x="54" y="149" font-size="14.5" font-weight="700" fill="#16202e">Group A</text>
<text x="54" y="168" font-size="11.5" font-weight="700" fill="#1e3a8a">1. South Korea</text>
<text x="328" y="168" font-size="11.5" font-weight="700" fill="#1e3a8a" text-anchor="end">9pt +7 ✓</text>
<text x="54" y="186" font-size="11.5" font-weight="700" fill="#1e3a8a">2. Mexico</text>
<text x="328" y="186" font-size="11.5" font-weight="700" fill="#1e3a8a" text-anchor="end">6pt +1 ✓</text>
<text x="54" y="204" font-size="11.5" font-weight="700" fill="#0f766e">3. Czechia</text>
<text x="328" y="204" font-size="11.5" font-weight="700" fill="#0f766e" text-anchor="end">3pt +0 ✓</text>
<text x="54" y="222" font-size="11.5" font-weight="400" fill="#5b6675">4. South Africa</text>
<text x="328" y="222" font-size="11.5" font-weight="400" fill="#5b6675" text-anchor="end">0pt -8  </text>
<line x1="52" y1="246" x2="328" y2="246" stroke="#dde2ea" stroke-width="0.8"/>
<text x="54" y="262" font-size="10" fill="#5b6675" opacity="0.7">Mexico v South Korea</text>
<text x="54" y="277" font-size="10" fill="#16202e">Mexico <tspan font-weight="700">2-0</tspan> South Afr…</text>
<text x="328" y="277" font-size="11" font-weight="700" fill="#0f766e" text-anchor="end">✓</text>
<text x="54" y="292" font-size="10" fill="#5b6675" opacity="0.7">Mexico v Czechia</text>
<text x="54" y="307" font-size="10" fill="#5b6675" opacity="0.7">South Korea v South Afri…</text>
<text x="54" y="322" font-size="10" fill="#16202e">South Kor… <tspan font-weight="700">2-1</tspan> Czechia</text>
<text x="328" y="322" font-size="11" font-weight="700" fill="#0f766e" text-anchor="end">✓</text>
<text x="54" y="337" font-size="10" fill="#5b6675" opacity="0.7">South Afri… v Czechia</text>
<rect x="354" y="122" width="300" height="230" rx="10" fill="#ffffff" stroke="#dde2ea" stroke-width="1"/>
<rect x="354" y="122" width="300" height="4" rx="2" fill="#b45309"/>
<text x="368" y="149" font-size="14.5" font-weight="700" fill="#16202e">Group B</text>
<text x="368" y="168" font-size="11.5" font-weight="700" fill="#1e3a8a">1. Switzerland</text>
<text x="642" y="168" font-size="11.5" font-weight="700" fill="#1e3a8a" text-anchor="end">7pt +5 ✓</text>
<text x="368" y="186" font-size="11.5" font-weight="700" fill="#1e3a8a">2. Canada</text>
<text x="642" y="186" font-size="11.5" font-weight="700" fill="#1e3a8a" text-anchor="end">7pt +3 ✓</text>
<text x="368" y="204" font-size="11.5" font-weight="400" fill="#5b6675">3. Qatar</text>
<text x="642" y="204" font-size="11.5" font-weight="400" fill="#5b6675" text-anchor="end">1pt -4  </text>
<text x="368" y="222" font-size="11.5" font-weight="400" fill="#5b6675">4. Bosnia</text>
<text x="642" y="222" font-size="11.5" font-weight="400" fill="#5b6675" text-anchor="end">1pt -4  </text>
<line x1="366" y1="246" x2="642" y2="246" stroke="#dde2ea" stroke-width="0.8"/>
<text x="368" y="262" font-size="10" fill="#5b6675" opacity="0.7">Canada v Switzerland</text>
<text x="368" y="277" font-size="10" fill="#5b6675" opacity="0.7">Canada v Qatar</text>
<text x="368" y="292" font-size="10" fill="#16202e">Canada <tspan font-weight="700">1-1</tspan> Bosnia</text>
<text x="642" y="292" font-size="11" font-weight="700" fill="#b91c1c" text-anchor="end">✗</text>
<text x="368" y="307" font-size="10" fill="#16202e">Qatar <tspan font-weight="700">1-1</tspan> Switzerla…</text>
<text x="642" y="307" font-size="11" font-weight="700" fill="#b91c1c" text-anchor="end">✗</text>
<text x="368" y="322" font-size="10" fill="#5b6675" opacity="0.7">Switzerland v Bosnia</text>
<text x="368" y="337" font-size="10" fill="#5b6675" opacity="0.7">Qatar v Bosnia</text>
<rect x="668" y="122" width="300" height="230" rx="10" fill="#ffffff" stroke="#dde2ea" stroke-width="1"/>
<rect x="668" y="122" width="300" height="4" rx="2" fill="#b45309"/>
<text x="682" y="149" font-size="14.5" font-weight="700" fill="#16202e">Group C</text>
<text x="682" y="168" font-size="11.5" font-weight="700" fill="#1e3a8a">1. Morocco</text>
<text x="956" y="168" font-size="11.5" font-weight="700" fill="#1e3a8a" text-anchor="end">9pt +6 ✓</text>
<text x="682" y="186" font-size="11.5" font-weight="700" fill="#1e3a8a">2. Brazil</text>
<text x="956" y="186" font-size="11.5" font-weight="700" fill="#1e3a8a" text-anchor="end">6pt +3 ✓</text>
<text x="682" y="204" font-size="11.5" font-weight="700" fill="#0f766e">3. Scotland</text>
<text x="956" y="204" font-size="11.5" font-weight="700" fill="#0f766e" text-anchor="end">3pt -2 ✓</text>
<text x="682" y="222" font-size="11.5" font-weight="400" fill="#5b6675">4. Haiti</text>
<text x="956" y="222" font-size="11.5" font-weight="400" fill="#5b6675" text-anchor="end">0pt -7  </text>
<line x1="680" y1="246" x2="956" y2="246" stroke="#dde2ea" stroke-width="0.8"/>
<text x="682" y="262" font-size="10" fill="#16202e">Brazil <tspan font-weight="700">1-1</tspan> Morocco</text>
<text x="956" y="262" font-size="11" font-weight="700" fill="#b91c1c" text-anchor="end">✗</text>
<text x="682" y="277" font-size="10" fill="#5b6675" opacity="0.7">Brazil v Haiti</text>
<text x="682" y="292" font-size="10" fill="#5b6675" opacity="0.7">Brazil v Scotland</text>
<text x="682" y="307" font-size="10" fill="#5b6675" opacity="0.7">Morocco v Haiti</text>
<text x="682" y="322" font-size="10" fill="#5b6675" opacity="0.7">Morocco v Scotland</text>
<text x="682" y="337" font-size="10" fill="#16202e">Haiti <tspan font-weight="700">0-1</tspan> Scotland</text>
<text x="956" y="337" font-size="11" font-weight="700" fill="#0f766e" text-anchor="end">✓</text>
<rect x="982" y="122" width="300" height="230" rx="10" fill="#ffffff" stroke="#dde2ea" stroke-width="1"/>
<rect x="982" y="122" width="300" height="4" rx="2" fill="#b45309"/>
<text x="996" y="149" font-size="14.5" font-weight="700" fill="#16202e">Group D</text>
<text x="996" y="168" font-size="11.5" font-weight="700" fill="#1e3a8a">1. Turkey</text>
<text x="1270" y="168" font-size="11.5" font-weight="700" fill="#1e3a8a" text-anchor="end">7pt +4 ✓</text>
<text x="996" y="186" font-size="11.5" font-weight="700" fill="#1e3a8a">2. United States</text>
<text x="1270" y="186" font-size="11.5" font-weight="700" fill="#1e3a8a" text-anchor="end">6pt +1 ✓</text>
<text x="996" y="204" font-size="11.5" font-weight="700" fill="#0f766e">3. Paraguay</text>
<text x="1270" y="204" font-size="11.5" font-weight="700" fill="#0f766e" text-anchor="end">4pt -1 ✓</text>
<text x="996" y="222" font-size="11.5" font-weight="400" fill="#5b6675">4. Australia</text>
<text x="1270" y="222" font-size="11.5" font-weight="400" fill="#5b6675" text-anchor="end">0pt -4  </text>
<line x1="994" y1="246" x2="1270" y2="246" stroke="#dde2ea" stroke-width="0.8"/>
<text x="996" y="262" font-size="10" fill="#5b6675" opacity="0.7">United Sta… v Australia</text>
<text x="996" y="277" font-size="10" fill="#16202e">United St… <tspan font-weight="700">4-1</tspan> Paraguay</text>
<text x="1270" y="277" font-size="11" font-weight="700" fill="#b91c1c" text-anchor="end">✗</text>
<text x="996" y="292" font-size="10" fill="#5b6675" opacity="0.7">United Sta… v Turkey</text>
<text x="996" y="307" font-size="10" fill="#5b6675" opacity="0.7">Australia v Paraguay</text>
<text x="996" y="322" font-size="10" fill="#16202e">Australia <tspan font-weight="700">2-0</tspan> Turkey</text>
<text x="1270" y="322" font-size="11" font-weight="700" fill="#b91c1c" text-anchor="end">✗</text>
<text x="996" y="337" font-size="10" fill="#5b6675" opacity="0.7">Paraguay v Turkey</text>
<rect x="40" y="368" width="300" height="230" rx="10" fill="#ffffff" stroke="#dde2ea" stroke-width="1"/>
<rect x="40" y="368" width="300" height="4" rx="2" fill="#b45309"/>
<text x="54" y="395" font-size="14.5" font-weight="700" fill="#16202e">Group E</text>
<text x="54" y="414" font-size="11.5" font-weight="700" fill="#1e3a8a">1. Germany</text>
<text x="328" y="414" font-size="11.5" font-weight="700" fill="#1e3a8a" text-anchor="end">9pt +11 ✓</text>
<text x="54" y="432" font-size="11.5" font-weight="700" fill="#1e3a8a">2. Ecuador</text>
<text x="328" y="432" font-size="11.5" font-weight="700" fill="#1e3a8a" text-anchor="end">6pt +2 ✓</text>
<text x="54" y="450" font-size="11.5" font-weight="400" fill="#5b6675">3. Ivory Coast</text>
<text x="328" y="450" font-size="11.5" font-weight="400" fill="#5b6675" text-anchor="end">3pt -5  </text>
<text x="54" y="468" font-size="11.5" font-weight="400" fill="#5b6675">4. Curacao</text>
<text x="328" y="468" font-size="11.5" font-weight="400" fill="#5b6675" text-anchor="end">0pt -8  </text>
<line x1="52" y1="492" x2="328" y2="492" stroke="#dde2ea" stroke-width="0.8"/>
<text x="54" y="508" font-size="10" fill="#5b6675" opacity="0.7">Germany v Ecuador</text>
<text x="54" y="523" font-size="10" fill="#5b6675" opacity="0.7">Germany v Ivory Coast</text>
<text x="54" y="538" font-size="10" fill="#16202e">Germany <tspan font-weight="700">7-1</tspan> Curacao</text>
<text x="328" y="538" font-size="11" font-weight="700" fill="#0f766e" text-anchor="end">✓</text>
<text x="54" y="553" font-size="10" fill="#16202e">Ivory Coa… <tspan font-weight="700">1-0</tspan> Ecuador</text>
<text x="328" y="553" font-size="11" font-weight="700" fill="#b91c1c" text-anchor="end">✗</text>
<text x="54" y="568" font-size="10" fill="#5b6675" opacity="0.7">Ecuador v Curacao</text>
<text x="54" y="583" font-size="10" fill="#5b6675" opacity="0.7">Ivory Coast v Curacao</text>
<rect x="354" y="368" width="300" height="230" rx="10" fill="#ffffff" stroke="#dde2ea" stroke-width="1"/>
<rect x="354" y="368" width="300" height="4" rx="2" fill="#b45309"/>
<text x="368" y="395" font-size="14.5" font-weight="700" fill="#16202e">Group F</text>
<text x="368" y="414" font-size="11.5" font-weight="700" fill="#1e3a8a">1. Netherlands</text>
<text x="642" y="414" font-size="11.5" font-weight="700" fill="#1e3a8a" text-anchor="end">7pt +2 ✓</text>
<text x="368" y="432" font-size="11.5" font-weight="700" fill="#1e3a8a">2. Tunisia</text>
<text x="642" y="432" font-size="11.5" font-weight="700" fill="#1e3a8a" text-anchor="end">4pt +1 ✓</text>
<text x="368" y="450" font-size="11.5" font-weight="700" fill="#0f766e">3. Sweden</text>
<text x="642" y="450" font-size="11.5" font-weight="700" fill="#0f766e" text-anchor="end">4pt +0 ✓</text>
<text x="368" y="468" font-size="11.5" font-weight="400" fill="#5b6675">4. Japan</text>
<text x="642" y="468" font-size="11.5" font-weight="400" fill="#5b6675" text-anchor="end">1pt -3  </text>
<line x1="366" y1="492" x2="642" y2="492" stroke="#dde2ea" stroke-width="0.8"/>
<text x="368" y="508" font-size="10" fill="#16202e">Netherlan… <tspan font-weight="700">2-2</tspan> Japan</text>
<text x="642" y="508" font-size="11" font-weight="700" fill="#b91c1c" text-anchor="end">✗</text>
<text x="368" y="523" font-size="10" fill="#5b6675" opacity="0.7">Netherlands v Tunisia</text>
<text x="368" y="538" font-size="10" fill="#5b6675" opacity="0.7">Netherlands v Sweden</text>
<text x="368" y="553" font-size="10" fill="#5b6675" opacity="0.7">Japan v Tunisia</text>
<text x="368" y="568" font-size="10" fill="#5b6675" opacity="0.7">Japan v Sweden</text>
<text x="368" y="583" font-size="10" fill="#16202e">Sweden <tspan font-weight="700">5-1</tspan> Tunisia</text>
<text x="642" y="583" font-size="11" font-weight="700" fill="#0f766e" text-anchor="end">✓</text>
<rect x="668" y="368" width="300" height="230" rx="10" fill="#ffffff" stroke="#dde2ea" stroke-width="1"/>
<rect x="668" y="368" width="300" height="4" rx="2" fill="#b45309"/>
<text x="682" y="395" font-size="14.5" font-weight="700" fill="#16202e">Group G</text>
<text x="682" y="414" font-size="11.5" font-weight="700" fill="#1e3a8a">1. Belgium</text>
<text x="956" y="414" font-size="11.5" font-weight="700" fill="#1e3a8a" text-anchor="end">7pt +4 ✓</text>
<text x="682" y="432" font-size="11.5" font-weight="700" fill="#1e3a8a">2. Iran</text>
<text x="956" y="432" font-size="11.5" font-weight="700" fill="#1e3a8a" text-anchor="end">5pt +1 ✓</text>
<text x="682" y="450" font-size="11.5" font-weight="700" fill="#0f766e">3. New Zealand</text>
<text x="956" y="450" font-size="11.5" font-weight="700" fill="#0f766e" text-anchor="end">3pt -1 ✓</text>
<text x="682" y="468" font-size="11.5" font-weight="400" fill="#5b6675">4. Egypt</text>
<text x="956" y="468" font-size="11.5" font-weight="400" fill="#5b6675" text-anchor="end">1pt -4  </text>
<line x1="680" y1="492" x2="956" y2="492" stroke="#dde2ea" stroke-width="0.8"/>
<text x="682" y="508" font-size="10" fill="#5b6675" opacity="0.7">Belgium v Iran</text>
<text x="682" y="523" font-size="10" fill="#16202e">Belgium <tspan font-weight="700">1-1</tspan> Egypt</text>
<text x="956" y="523" font-size="11" font-weight="700" fill="#b91c1c" text-anchor="end">✗</text>
<text x="682" y="538" font-size="10" fill="#5b6675" opacity="0.7">Belgium v New Zealand</text>
<text x="682" y="553" font-size="10" fill="#5b6675" opacity="0.7">Iran v Egypt</text>
<text x="682" y="568" font-size="10" fill="#5b6675" opacity="0.7">Iran v New Zealand</text>
<text x="682" y="583" font-size="10" fill="#5b6675" opacity="0.7">Egypt v New Zealand</text>
<rect x="982" y="368" width="300" height="230" rx="10" fill="#ffffff" stroke="#dde2ea" stroke-width="1"/>
<rect x="982" y="368" width="300" height="4" rx="2" fill="#b45309"/>
<text x="996" y="395" font-size="14.5" font-weight="700" fill="#16202e">Group H</text>
<text x="996" y="414" font-size="11.5" font-weight="700" fill="#1e3a8a">1. Spain</text>
<text x="1270" y="414" font-size="11.5" font-weight="700" fill="#1e3a8a" text-anchor="end">9pt +8 ✓</text>
<text x="996" y="432" font-size="11.5" font-weight="700" fill="#1e3a8a">2. Cabo Verde</text>
<text x="1270" y="432" font-size="11.5" font-weight="700" fill="#1e3a8a" text-anchor="end">6pt +1 ✓</text>
<text x="996" y="450" font-size="11.5" font-weight="400" fill="#5b6675">3. Uruguay</text>
<text x="1270" y="450" font-size="11.5" font-weight="400" fill="#5b6675" text-anchor="end">1pt -2  </text>
<text x="996" y="468" font-size="11.5" font-weight="400" fill="#5b6675">4. Saudi Arabia</text>
<text x="1270" y="468" font-size="11.5" font-weight="400" fill="#5b6675" text-anchor="end">1pt -7  </text>
<line x1="994" y1="492" x2="1270" y2="492" stroke="#dde2ea" stroke-width="0.8"/>
<text x="996" y="508" font-size="10" fill="#16202e">Spain <tspan font-weight="700">0-0</tspan> Cabo Verde</text>
<text x="1270" y="508" font-size="11" font-weight="700" fill="#b91c1c" text-anchor="end">✗</text>
<text x="996" y="523" font-size="10" fill="#5b6675" opacity="0.7">Spain v Uruguay</text>
<text x="996" y="538" font-size="10" fill="#5b6675" opacity="0.7">Spain v Saudi Arab…</text>
<text x="996" y="553" font-size="10" fill="#5b6675" opacity="0.7">Cabo Verde v Uruguay</text>
<text x="996" y="568" font-size="10" fill="#5b6675" opacity="0.7">Cabo Verde v Saudi Arab…</text>
<text x="996" y="583" font-size="10" fill="#16202e">Saudi Ara… <tspan font-weight="700">1-1</tspan> Uruguay</text>
<text x="1270" y="583" font-size="11" font-weight="700" fill="#b91c1c" text-anchor="end">✗</text>
<rect x="40" y="614" width="300" height="230" rx="10" fill="#ffffff" stroke="#dde2ea" stroke-width="1"/>
<rect x="40" y="614" width="300" height="4" rx="2" fill="#b45309"/>
<text x="54" y="641" font-size="14.5" font-weight="700" fill="#16202e">Group I</text>
<text x="54" y="660" font-size="11.5" font-weight="700" fill="#1e3a8a">1. Norway</text>
<text x="328" y="660" font-size="11.5" font-weight="700" fill="#1e3a8a" text-anchor="end">5pt +3 ✓</text>
<text x="54" y="678" font-size="11.5" font-weight="700" fill="#1e3a8a">2. France</text>
<text x="328" y="678" font-size="11.5" font-weight="700" fill="#1e3a8a" text-anchor="end">5pt +2 ✓</text>
<text x="54" y="696" font-size="11.5" font-weight="400" fill="#5b6675">3. Iraq</text>
<text x="328" y="696" font-size="11.5" font-weight="400" fill="#5b6675" text-anchor="end">2pt -2  </text>
<text x="54" y="714" font-size="11.5" font-weight="400" fill="#5b6675">4. Senegal</text>
<text x="328" y="714" font-size="11.5" font-weight="400" fill="#5b6675" text-anchor="end">2pt -3  </text>
<line x1="52" y1="738" x2="328" y2="738" stroke="#dde2ea" stroke-width="0.8"/>
<text x="54" y="754" font-size="10" fill="#5b6675" opacity="0.7">France v Senegal</text>
<text x="54" y="769" font-size="10" fill="#5b6675" opacity="0.7">France v Norway</text>
<text x="54" y="784" font-size="10" fill="#5b6675" opacity="0.7">France v Iraq</text>
<text x="54" y="799" font-size="10" fill="#5b6675" opacity="0.7">Senegal v Norway</text>
<text x="54" y="814" font-size="10" fill="#5b6675" opacity="0.7">Senegal v Iraq</text>
<text x="54" y="829" font-size="10" fill="#5b6675" opacity="0.7">Norway v Iraq</text>
<rect x="354" y="614" width="300" height="230" rx="10" fill="#ffffff" stroke="#dde2ea" stroke-width="1"/>
<rect x="354" y="614" width="300" height="4" rx="2" fill="#b45309"/>
<text x="368" y="641" font-size="14.5" font-weight="700" fill="#16202e">Group J</text>
<text x="368" y="660" font-size="11.5" font-weight="700" fill="#1e3a8a">1. Argentina</text>
<text x="642" y="660" font-size="11.5" font-weight="700" fill="#1e3a8a" text-anchor="end">9pt +13 ✓</text>
<text x="368" y="678" font-size="11.5" font-weight="700" fill="#1e3a8a">2. Austria</text>
<text x="642" y="678" font-size="11.5" font-weight="700" fill="#1e3a8a" text-anchor="end">4pt -2 ✓</text>
<text x="368" y="696" font-size="11.5" font-weight="700" fill="#0f766e">3. Algeria</text>
<text x="642" y="696" font-size="11.5" font-weight="700" fill="#0f766e" text-anchor="end">3pt -3 ✓</text>
<text x="368" y="714" font-size="11.5" font-weight="400" fill="#5b6675">4. Jordan</text>
<text x="642" y="714" font-size="11.5" font-weight="400" fill="#5b6675" text-anchor="end">1pt -8  </text>
<line x1="366" y1="738" x2="642" y2="738" stroke="#dde2ea" stroke-width="0.8"/>
<text x="368" y="754" font-size="10" fill="#5b6675" opacity="0.7">Argentina v Algeria</text>
<text x="368" y="769" font-size="10" fill="#5b6675" opacity="0.7">Argentina v Austria</text>
<text x="368" y="784" font-size="10" fill="#5b6675" opacity="0.7">Argentina v Jordan</text>
<text x="368" y="799" font-size="10" fill="#5b6675" opacity="0.7">Algeria v Austria</text>
<text x="368" y="814" font-size="10" fill="#5b6675" opacity="0.7">Algeria v Jordan</text>
<text x="368" y="829" font-size="10" fill="#5b6675" opacity="0.7">Austria v Jordan</text>
<rect x="668" y="614" width="300" height="230" rx="10" fill="#ffffff" stroke="#dde2ea" stroke-width="1"/>
<rect x="668" y="614" width="300" height="4" rx="2" fill="#b45309"/>
<text x="682" y="641" font-size="14.5" font-weight="700" fill="#16202e">Group K</text>
<text x="682" y="660" font-size="11.5" font-weight="700" fill="#1e3a8a">1. Portugal</text>
<text x="956" y="660" font-size="11.5" font-weight="700" fill="#1e3a8a" text-anchor="end">7pt +3 ✓</text>
<text x="682" y="678" font-size="11.5" font-weight="700" fill="#1e3a8a">2. Colombia</text>
<text x="956" y="678" font-size="11.5" font-weight="700" fill="#1e3a8a" text-anchor="end">7pt +2 ✓</text>
<text x="682" y="696" font-size="11.5" font-weight="700" fill="#0f766e">3. Uzbekistan</text>
<text x="956" y="696" font-size="11.5" font-weight="700" fill="#0f766e" text-anchor="end">3pt +1 ✓</text>
<text x="682" y="714" font-size="11.5" font-weight="400" fill="#5b6675">4. DR Congo</text>
<text x="956" y="714" font-size="11.5" font-weight="400" fill="#5b6675" text-anchor="end">0pt -6  </text>
<line x1="680" y1="738" x2="956" y2="738" stroke="#dde2ea" stroke-width="0.8"/>
<text x="682" y="754" font-size="10" fill="#5b6675" opacity="0.7">Portugal v DR Congo</text>
<text x="682" y="769" font-size="10" fill="#5b6675" opacity="0.7">Portugal v Uzbekistan</text>
<text x="682" y="784" font-size="10" fill="#5b6675" opacity="0.7">Portugal v Colombia</text>
<text x="682" y="799" font-size="10" fill="#5b6675" opacity="0.7">DR Congo v Uzbekistan</text>
<text x="682" y="814" font-size="10" fill="#5b6675" opacity="0.7">DR Congo v Colombia</text>
<text x="682" y="829" font-size="10" fill="#5b6675" opacity="0.7">Uzbekistan v Colombia</text>
<rect x="982" y="614" width="300" height="230" rx="10" fill="#ffffff" stroke="#dde2ea" stroke-width="1"/>
<rect x="982" y="614" width="300" height="4" rx="2" fill="#b45309"/>
<text x="996" y="641" font-size="14.5" font-weight="700" fill="#16202e">Group L</text>
<text x="996" y="660" font-size="11.5" font-weight="700" fill="#1e3a8a">1. Croatia</text>
<text x="1270" y="660" font-size="11.5" font-weight="700" fill="#1e3a8a" text-anchor="end">5pt +7 ✓</text>
<text x="996" y="678" font-size="11.5" font-weight="700" fill="#1e3a8a">2. England</text>
<text x="1270" y="678" font-size="11.5" font-weight="700" fill="#1e3a8a" text-anchor="end">5pt +2 ✓</text>
<text x="996" y="696" font-size="11.5" font-weight="700" fill="#0f766e">3. Panama</text>
<text x="1270" y="696" font-size="11.5" font-weight="700" fill="#0f766e" text-anchor="end">3pt +0 ✓</text>
<text x="996" y="714" font-size="11.5" font-weight="400" fill="#5b6675">4. Ghana</text>
<text x="1270" y="714" font-size="11.5" font-weight="400" fill="#5b6675" text-anchor="end">1pt -9  </text>
<line x1="994" y1="738" x2="1270" y2="738" stroke="#dde2ea" stroke-width="0.8"/>
<text x="996" y="754" font-size="10" fill="#5b6675" opacity="0.7">England v Croatia</text>
<text x="996" y="769" font-size="10" fill="#5b6675" opacity="0.7">England v Ghana</text>
<text x="996" y="784" font-size="10" fill="#5b6675" opacity="0.7">England v Panama</text>
<text x="996" y="799" font-size="10" fill="#5b6675" opacity="0.7">Croatia v Ghana</text>
<text x="996" y="814" font-size="10" fill="#5b6675" opacity="0.7">Croatia v Panama</text>
<text x="996" y="829" font-size="10" fill="#5b6675" opacity="0.7">Ghana v Panama</text>
<text x="40" y="896" font-size="12" font-weight="700" letter-spacing="1.4" fill="#5b6675">KNOCKOUT</text>
<text x="46" y="912" font-size="11.5" font-weight="700" letter-spacing="1.2" fill="#5b6675">ROUND OF 32</text>
<text x="258" y="912" font-size="11.5" font-weight="700" letter-spacing="1.2" fill="#5b6675">ROUND OF 16</text>
<text x="470" y="912" font-size="11.5" font-weight="700" letter-spacing="1.2" fill="#5b6675">QUARTER-FINALS</text>
<text x="682" y="912" font-size="11.5" font-weight="700" letter-spacing="1.2" fill="#5b6675">SEMI-FINALS</text>
<text x="894" y="912" font-size="11.5" font-weight="700" letter-spacing="1.2" fill="#5b6675">FINAL</text>
<text x="1106" y="912" font-size="11.5" font-weight="700" letter-spacing="1.2" fill="#b45309">CHAMPION</text>
<path d="M226 955 H239 V990 H252 M226 1025 H239 V990" fill="none" stroke="#dde2ea" stroke-width="1.4"/>
<path d="M226 1095 H239 V1130 H252 M226 1165 H239 V1130" fill="none" stroke="#dde2ea" stroke-width="1.4"/>
<path d="M226 1235 H239 V1270 H252 M226 1305 H239 V1270" fill="none" stroke="#dde2ea" stroke-width="1.4"/>
<path d="M226 1375 H239 V1410 H252 M226 1445 H239 V1410" fill="none" stroke="#dde2ea" stroke-width="1.4"/>
<path d="M226 1515 H239 V1550 H252 M226 1585 H239 V1550" fill="none" stroke="#dde2ea" stroke-width="1.4"/>
<path d="M226 1655 H239 V1690 H252 M226 1725 H239 V1690" fill="none" stroke="#dde2ea" stroke-width="1.4"/>
<path d="M226 1795 H239 V1830 H252 M226 1865 H239 V1830" fill="none" stroke="#dde2ea" stroke-width="1.4"/>
<path d="M226 1935 H239 V1970 H252 M226 2005 H239 V1970" fill="none" stroke="#dde2ea" stroke-width="1.4"/>
<path d="M438 990 H451 V1060 H464 M438 1130 H451 V1060" fill="none" stroke="#dde2ea" stroke-width="1.4"/>
<path d="M438 1270 H451 V1340 H464 M438 1410 H451 V1340" fill="none" stroke="#dde2ea" stroke-width="1.4"/>
<path d="M438 1550 H451 V1620 H464 M438 1690 H451 V1620" fill="none" stroke="#dde2ea" stroke-width="1.4"/>
<path d="M438 1830 H451 V1900 H464 M438 1970 H451 V1900" fill="none" stroke="#dde2ea" stroke-width="1.4"/>
<path d="M650 1060 H663 V1200 H676 M650 1340 H663 V1200" fill="none" stroke="#dde2ea" stroke-width="1.4"/>
<path d="M650 1620 H663 V1760 H676 M650 1900 H663 V1760" fill="none" stroke="#dde2ea" stroke-width="1.4"/>
<path d="M862 1200 H875 V1480 H888 M862 1760 H875 V1480" fill="none" stroke="#dde2ea" stroke-width="1.4"/>
<rect x="40" y="933" width="186" height="44" rx="7" fill="#ffffff" stroke="#dde2ea" stroke-width="1"/><line x1="40" y1="954" x2="226" y2="954" stroke="#dde2ea" stroke-width="0.7"/><text x="51" y="948" font-size="12.5" font-weight="400" fill="#5b6675">South Korea</text><text x="214" y="948" font-size="12.5" font-weight="400" fill="#5b6675" text-anchor="end">1</text><rect x="40" y="956" width="3.5" height="17" rx="1.5" fill="#1d4ed8"/><text x="51" y="969" font-size="12.5" font-weight="700" fill="#1e3a8a">Sweden</text><text x="214" y="969" font-size="12.5" font-weight="700" fill="#1e3a8a" text-anchor="end">5</text>
<rect x="40" y="1003" width="186" height="44" rx="7" fill="#ffffff" stroke="#dde2ea" stroke-width="1"/><line x1="40" y1="1024" x2="226" y2="1024" stroke="#dde2ea" stroke-width="0.7"/><rect x="40" y="1005" width="3.5" height="17" rx="1.5" fill="#1d4ed8"/><text x="51" y="1018" font-size="12.5" font-weight="700" fill="#1e3a8a">Mexico (p)</text><text x="214" y="1018" font-size="12.5" font-weight="700" fill="#1e3a8a" text-anchor="end">1</text><text x="51" y="1039" font-size="12.5" font-weight="400" fill="#5b6675">Canada</text><text x="214" y="1039" font-size="12.5" font-weight="400" fill="#5b6675" text-anchor="end">1</text>
<rect x="40" y="1073" width="186" height="44" rx="7" fill="#ffffff" stroke="#dde2ea" stroke-width="1"/><line x1="40" y1="1094" x2="226" y2="1094" stroke="#dde2ea" stroke-width="0.7"/><rect x="40" y="1075" width="3.5" height="17" rx="1.5" fill="#1d4ed8"/><text x="51" y="1088" font-size="12.5" font-weight="700" fill="#1e3a8a">Switzerland</text><text x="214" y="1088" font-size="12.5" font-weight="700" fill="#1e3a8a" text-anchor="end">2</text><text x="51" y="1109" font-size="12.5" font-weight="400" fill="#5b6675">New Zealand</text><text x="214" y="1109" font-size="12.5" font-weight="400" fill="#5b6675" text-anchor="end">0</text>
<rect x="40" y="1143" width="186" height="44" rx="7" fill="#ffffff" stroke="#dde2ea" stroke-width="1"/><line x1="40" y1="1164" x2="226" y2="1164" stroke="#dde2ea" stroke-width="0.7"/><rect x="40" y="1145" width="3.5" height="17" rx="1.5" fill="#1d4ed8"/><text x="51" y="1158" font-size="12.5" font-weight="700" fill="#1e3a8a">Morocco</text><text x="214" y="1158" font-size="12.5" font-weight="700" fill="#1e3a8a" text-anchor="end">4</text><text x="51" y="1179" font-size="12.5" font-weight="400" fill="#5b6675">Tunisia</text><text x="214" y="1179" font-size="12.5" font-weight="400" fill="#5b6675" text-anchor="end">2</text>
<rect x="40" y="1213" width="186" height="44" rx="7" fill="#ffffff" stroke="#dde2ea" stroke-width="1"/><line x1="40" y1="1234" x2="226" y2="1234" stroke="#dde2ea" stroke-width="0.7"/><text x="51" y="1228" font-size="12.5" font-weight="400" fill="#5b6675">Brazil</text><text x="214" y="1228" font-size="12.5" font-weight="400" fill="#5b6675" text-anchor="end">0</text><rect x="40" y="1236" width="3.5" height="17" rx="1.5" fill="#1d4ed8"/><text x="51" y="1249" font-size="12.5" font-weight="700" fill="#1e3a8a">Netherlands</text><text x="214" y="1249" font-size="12.5" font-weight="700" fill="#1e3a8a" text-anchor="end">1</text>
<rect x="40" y="1283" width="186" height="44" rx="7" fill="#ffffff" stroke="#dde2ea" stroke-width="1"/><line x1="40" y1="1304" x2="226" y2="1304" stroke="#dde2ea" stroke-width="0.7"/><rect x="40" y="1285" width="3.5" height="17" rx="1.5" fill="#1d4ed8"/><text x="51" y="1298" font-size="12.5" font-weight="700" fill="#1e3a8a">Turkey</text><text x="214" y="1298" font-size="12.5" font-weight="700" fill="#1e3a8a" text-anchor="end">2</text><text x="51" y="1319" font-size="12.5" font-weight="400" fill="#5b6675">Algeria</text><text x="214" y="1319" font-size="12.5" font-weight="400" fill="#5b6675" text-anchor="end">0</text>
<rect x="40" y="1353" width="186" height="44" rx="7" fill="#ffffff" stroke="#dde2ea" stroke-width="1"/><line x1="40" y1="1374" x2="226" y2="1374" stroke="#dde2ea" stroke-width="0.7"/><rect x="40" y="1355" width="3.5" height="17" rx="1.5" fill="#1d4ed8"/><text x="51" y="1368" font-size="12.5" font-weight="700" fill="#1e3a8a">United States</text><text x="214" y="1368" font-size="12.5" font-weight="700" fill="#1e3a8a" text-anchor="end">2</text><text x="51" y="1389" font-size="12.5" font-weight="400" fill="#5b6675">Iran</text><text x="214" y="1389" font-size="12.5" font-weight="400" fill="#5b6675" text-anchor="end">1</text>
<rect x="40" y="1423" width="186" height="44" rx="7" fill="#ffffff" stroke="#dde2ea" stroke-width="1"/><line x1="40" y1="1444" x2="226" y2="1444" stroke="#dde2ea" stroke-width="0.7"/><rect x="40" y="1425" width="3.5" height="17" rx="1.5" fill="#1d4ed8"/><text x="51" y="1438" font-size="12.5" font-weight="700" fill="#1e3a8a">Germany</text><text x="214" y="1438" font-size="12.5" font-weight="700" fill="#1e3a8a" text-anchor="end">2</text><text x="51" y="1459" font-size="12.5" font-weight="400" fill="#5b6675">Paraguay</text><text x="214" y="1459" font-size="12.5" font-weight="400" fill="#5b6675" text-anchor="end">1</text>
<rect x="40" y="1493" width="186" height="44" rx="7" fill="#ffffff" stroke="#dde2ea" stroke-width="1"/><line x1="40" y1="1514" x2="226" y2="1514" stroke="#dde2ea" stroke-width="0.7"/><text x="51" y="1508" font-size="12.5" font-weight="400" fill="#5b6675">Ecuador</text><text x="214" y="1508" font-size="12.5" font-weight="400" fill="#5b6675" text-anchor="end">1</text><rect x="40" y="1516" width="3.5" height="17" rx="1.5" fill="#1d4ed8"/><text x="51" y="1529" font-size="12.5" font-weight="700" fill="#1e3a8a">France</text><text x="214" y="1529" font-size="12.5" font-weight="700" fill="#1e3a8a" text-anchor="end">5</text>
<rect x="40" y="1563" width="186" height="44" rx="7" fill="#ffffff" stroke="#dde2ea" stroke-width="1"/><line x1="40" y1="1584" x2="226" y2="1584" stroke="#dde2ea" stroke-width="0.7"/><text x="51" y="1578" font-size="12.5" font-weight="400" fill="#5b6675">Belgium</text><text x="214" y="1578" font-size="12.5" font-weight="400" fill="#5b6675" text-anchor="end">1</text><rect x="40" y="1586" width="3.5" height="17" rx="1.5" fill="#1d4ed8"/><text x="51" y="1599" font-size="12.5" font-weight="700" fill="#1e3a8a">Czechia (p)</text><text x="214" y="1599" font-size="12.5" font-weight="700" fill="#1e3a8a" text-anchor="end">1</text>
<rect x="40" y="1633" width="186" height="44" rx="7" fill="#ffffff" stroke="#dde2ea" stroke-width="1"/><line x1="40" y1="1654" x2="226" y2="1654" stroke="#dde2ea" stroke-width="0.7"/><rect x="40" y="1635" width="3.5" height="17" rx="1.5" fill="#1d4ed8"/><text x="51" y="1648" font-size="12.5" font-weight="700" fill="#1e3a8a">Spain</text><text x="214" y="1648" font-size="12.5" font-weight="700" fill="#1e3a8a" text-anchor="end">3</text><text x="51" y="1669" font-size="12.5" font-weight="400" fill="#5b6675">Austria</text><text x="214" y="1669" font-size="12.5" font-weight="400" fill="#5b6675" text-anchor="end">0</text>
<rect x="40" y="1703" width="186" height="44" rx="7" fill="#ffffff" stroke="#dde2ea" stroke-width="1"/><line x1="40" y1="1724" x2="226" y2="1724" stroke="#dde2ea" stroke-width="0.7"/><rect x="40" y="1705" width="3.5" height="17" rx="1.5" fill="#1d4ed8"/><text x="51" y="1718" font-size="12.5" font-weight="700" fill="#1e3a8a">Norway</text><text x="214" y="1718" font-size="12.5" font-weight="700" fill="#1e3a8a" text-anchor="end">1</text><text x="51" y="1739" font-size="12.5" font-weight="400" fill="#5b6675">Scotland</text><text x="214" y="1739" font-size="12.5" font-weight="400" fill="#5b6675" text-anchor="end">0</text>
<rect x="40" y="1773" width="186" height="44" rx="7" fill="#ffffff" stroke="#dde2ea" stroke-width="1"/><line x1="40" y1="1794" x2="226" y2="1794" stroke="#dde2ea" stroke-width="0.7"/><rect x="40" y="1775" width="3.5" height="17" rx="1.5" fill="#1d4ed8"/><text x="51" y="1788" font-size="12.5" font-weight="700" fill="#1e3a8a">Argentina (p)</text><text x="214" y="1788" font-size="12.5" font-weight="700" fill="#1e3a8a" text-anchor="end">1</text><text x="51" y="1809" font-size="12.5" font-weight="400" fill="#5b6675">Cabo Verde</text><text x="214" y="1809" font-size="12.5" font-weight="400" fill="#5b6675" text-anchor="end">1</text>
<rect x="40" y="1843" width="186" height="44" rx="7" fill="#ffffff" stroke="#dde2ea" stroke-width="1"/><line x1="40" y1="1864" x2="226" y2="1864" stroke="#dde2ea" stroke-width="0.7"/><rect x="40" y="1845" width="3.5" height="17" rx="1.5" fill="#1d4ed8"/><text x="51" y="1858" font-size="12.5" font-weight="700" fill="#1e3a8a">Portugal</text><text x="214" y="1858" font-size="12.5" font-weight="700" fill="#1e3a8a" text-anchor="end">3</text><text x="51" y="1879" font-size="12.5" font-weight="400" fill="#5b6675">Panama</text><text x="214" y="1879" font-size="12.5" font-weight="400" fill="#5b6675" text-anchor="end">0</text>
<rect x="40" y="1913" width="186" height="44" rx="7" fill="#ffffff" stroke="#dde2ea" stroke-width="1"/><line x1="40" y1="1934" x2="226" y2="1934" stroke="#dde2ea" stroke-width="0.7"/><text x="51" y="1928" font-size="12.5" font-weight="400" fill="#5b6675">Croatia</text><text x="214" y="1928" font-size="12.5" font-weight="400" fill="#5b6675" text-anchor="end">1</text><rect x="40" y="1936" width="3.5" height="17" rx="1.5" fill="#1d4ed8"/><text x="51" y="1949" font-size="12.5" font-weight="700" fill="#1e3a8a">Uzbekistan</text><text x="214" y="1949" font-size="12.5" font-weight="700" fill="#1e3a8a" text-anchor="end">2</text>
<rect x="40" y="1983" width="186" height="44" rx="7" fill="#ffffff" stroke="#dde2ea" stroke-width="1"/><line x1="40" y1="2004" x2="226" y2="2004" stroke="#dde2ea" stroke-width="0.7"/><rect x="40" y="1985" width="3.5" height="17" rx="1.5" fill="#1d4ed8"/><text x="51" y="1998" font-size="12.5" font-weight="700" fill="#1e3a8a">Colombia</text><text x="214" y="1998" font-size="12.5" font-weight="700" fill="#1e3a8a" text-anchor="end">1</text><text x="51" y="2019" font-size="12.5" font-weight="400" fill="#5b6675">England</text><text x="214" y="2019" font-size="12.5" font-weight="400" fill="#5b6675" text-anchor="end">0</text>
<rect x="252" y="968" width="186" height="44" rx="7" fill="#ffffff" stroke="#dde2ea" stroke-width="1"/><line x1="252" y1="989" x2="438" y2="989" stroke="#dde2ea" stroke-width="0.7"/><text x="263" y="983" font-size="12.5" font-weight="400" fill="#5b6675">Sweden</text><text x="426" y="983" font-size="12.5" font-weight="400" fill="#5b6675" text-anchor="end">1</text><rect x="252" y="991" width="3.5" height="17" rx="1.5" fill="#1d4ed8"/><text x="263" y="1004" font-size="12.5" font-weight="700" fill="#1e3a8a">Mexico</text><text x="426" y="1004" font-size="12.5" font-weight="700" fill="#1e3a8a" text-anchor="end">2</text>
<rect x="252" y="1108" width="186" height="44" rx="7" fill="#ffffff" stroke="#dde2ea" stroke-width="1"/><line x1="252" y1="1129" x2="438" y2="1129" stroke="#dde2ea" stroke-width="0.7"/><text x="263" y="1123" font-size="12.5" font-weight="400" fill="#5b6675">Switzerland</text><text x="426" y="1123" font-size="12.5" font-weight="400" fill="#5b6675" text-anchor="end">1</text><rect x="252" y="1131" width="3.5" height="17" rx="1.5" fill="#1d4ed8"/><text x="263" y="1144" font-size="12.5" font-weight="700" fill="#1e3a8a">Morocco (p)</text><text x="426" y="1144" font-size="12.5" font-weight="700" fill="#1e3a8a" text-anchor="end">1</text>
<rect x="252" y="1248" width="186" height="44" rx="7" fill="#ffffff" stroke="#dde2ea" stroke-width="1"/><line x1="252" y1="1269" x2="438" y2="1269" stroke="#dde2ea" stroke-width="0.7"/><rect x="252" y="1250" width="3.5" height="17" rx="1.5" fill="#1d4ed8"/><text x="263" y="1263" font-size="12.5" font-weight="700" fill="#1e3a8a">Netherlands</text><text x="426" y="1263" font-size="12.5" font-weight="700" fill="#1e3a8a" text-anchor="end">3</text><text x="263" y="1284" font-size="12.5" font-weight="400" fill="#5b6675">Turkey</text><text x="426" y="1284" font-size="12.5" font-weight="400" fill="#5b6675" text-anchor="end">1</text>
<rect x="252" y="1388" width="186" height="44" rx="7" fill="#ffffff" stroke="#dde2ea" stroke-width="1"/><line x1="252" y1="1409" x2="438" y2="1409" stroke="#dde2ea" stroke-width="0.7"/><text x="263" y="1403" font-size="12.5" font-weight="400" fill="#5b6675">United States</text><text x="426" y="1403" font-size="12.5" font-weight="400" fill="#5b6675" text-anchor="end">1</text><rect x="252" y="1411" width="3.5" height="17" rx="1.5" fill="#1d4ed8"/><text x="263" y="1424" font-size="12.5" font-weight="700" fill="#1e3a8a">Germany</text><text x="426" y="1424" font-size="12.5" font-weight="700" fill="#1e3a8a" text-anchor="end">3</text>
<rect x="252" y="1528" width="186" height="44" rx="7" fill="#ffffff" stroke="#dde2ea" stroke-width="1"/><line x1="252" y1="1549" x2="438" y2="1549" stroke="#dde2ea" stroke-width="0.7"/><rect x="252" y="1530" width="3.5" height="17" rx="1.5" fill="#1d4ed8"/><text x="263" y="1543" font-size="12.5" font-weight="700" fill="#1e3a8a">France (p)</text><text x="426" y="1543" font-size="12.5" font-weight="700" fill="#1e3a8a" text-anchor="end">1</text><text x="263" y="1564" font-size="12.5" font-weight="400" fill="#5b6675">Czechia</text><text x="426" y="1564" font-size="12.5" font-weight="400" fill="#5b6675" text-anchor="end">1</text>
<rect x="252" y="1668" width="186" height="44" rx="7" fill="#ffffff" stroke="#dde2ea" stroke-width="1"/><line x1="252" y1="1689" x2="438" y2="1689" stroke="#dde2ea" stroke-width="0.7"/><rect x="252" y="1670" width="3.5" height="17" rx="1.5" fill="#1d4ed8"/><text x="263" y="1683" font-size="12.5" font-weight="700" fill="#1e3a8a">Spain</text><text x="426" y="1683" font-size="12.5" font-weight="700" fill="#1e3a8a" text-anchor="end">3</text><text x="263" y="1704" font-size="12.5" font-weight="400" fill="#5b6675">Norway</text><text x="426" y="1704" font-size="12.5" font-weight="400" fill="#5b6675" text-anchor="end">0</text>
<rect x="252" y="1808" width="186" height="44" rx="7" fill="#ffffff" stroke="#dde2ea" stroke-width="1"/><line x1="252" y1="1829" x2="438" y2="1829" stroke="#dde2ea" stroke-width="0.7"/><text x="263" y="1823" font-size="12.5" font-weight="400" fill="#5b6675">Argentina</text><text x="426" y="1823" font-size="12.5" font-weight="400" fill="#5b6675" text-anchor="end">1</text><rect x="252" y="1831" width="3.5" height="17" rx="1.5" fill="#1d4ed8"/><text x="263" y="1844" font-size="12.5" font-weight="700" fill="#1e3a8a">Portugal</text><text x="426" y="1844" font-size="12.5" font-weight="700" fill="#1e3a8a" text-anchor="end">2</text>
<rect x="252" y="1948" width="186" height="44" rx="7" fill="#ffffff" stroke="#dde2ea" stroke-width="1"/><line x1="252" y1="1969" x2="438" y2="1969" stroke="#dde2ea" stroke-width="0.7"/><text x="263" y="1963" font-size="12.5" font-weight="400" fill="#5b6675">Uzbekistan</text><text x="426" y="1963" font-size="12.5" font-weight="400" fill="#5b6675" text-anchor="end">0</text><rect x="252" y="1971" width="3.5" height="17" rx="1.5" fill="#1d4ed8"/><text x="263" y="1984" font-size="12.5" font-weight="700" fill="#1e3a8a">Colombia</text><text x="426" y="1984" font-size="12.5" font-weight="700" fill="#1e3a8a" text-anchor="end">2</text>
<rect x="464" y="1038" width="186" height="44" rx="7" fill="#ffffff" stroke="#dde2ea" stroke-width="1"/><line x1="464" y1="1059" x2="650" y2="1059" stroke="#dde2ea" stroke-width="0.7"/><text x="475" y="1053" font-size="12.5" font-weight="400" fill="#5b6675">Mexico</text><text x="638" y="1053" font-size="12.5" font-weight="400" fill="#5b6675" text-anchor="end">2</text><rect x="464" y="1061" width="3.5" height="17" rx="1.5" fill="#1d4ed8"/><text x="475" y="1074" font-size="12.5" font-weight="700" fill="#1e3a8a">Morocco</text><text x="638" y="1074" font-size="12.5" font-weight="700" fill="#1e3a8a" text-anchor="end">5</text>
<rect x="464" y="1318" width="186" height="44" rx="7" fill="#ffffff" stroke="#dde2ea" stroke-width="1"/><line x1="464" y1="1339" x2="650" y2="1339" stroke="#dde2ea" stroke-width="0.7"/><text x="475" y="1333" font-size="12.5" font-weight="400" fill="#5b6675">Netherlands</text><text x="638" y="1333" font-size="12.5" font-weight="400" fill="#5b6675" text-anchor="end">1</text><rect x="464" y="1341" width="3.5" height="17" rx="1.5" fill="#1d4ed8"/><text x="475" y="1354" font-size="12.5" font-weight="700" fill="#1e3a8a">Germany (p)</text><text x="638" y="1354" font-size="12.5" font-weight="700" fill="#1e3a8a" text-anchor="end">1</text>
<rect x="464" y="1598" width="186" height="44" rx="7" fill="#ffffff" stroke="#dde2ea" stroke-width="1"/><line x1="464" y1="1619" x2="650" y2="1619" stroke="#dde2ea" stroke-width="0.7"/><rect x="464" y="1600" width="3.5" height="17" rx="1.5" fill="#1d4ed8"/><text x="475" y="1613" font-size="12.5" font-weight="700" fill="#1e3a8a">France (p)</text><text x="638" y="1613" font-size="12.5" font-weight="700" fill="#1e3a8a" text-anchor="end">1</text><text x="475" y="1634" font-size="12.5" font-weight="400" fill="#5b6675">Spain</text><text x="638" y="1634" font-size="12.5" font-weight="400" fill="#5b6675" text-anchor="end">1</text>
<rect x="464" y="1878" width="186" height="44" rx="7" fill="#ffffff" stroke="#dde2ea" stroke-width="1"/><line x1="464" y1="1899" x2="650" y2="1899" stroke="#dde2ea" stroke-width="0.7"/><rect x="464" y="1880" width="3.5" height="17" rx="1.5" fill="#1d4ed8"/><text x="475" y="1893" font-size="12.5" font-weight="700" fill="#1e3a8a">Portugal (p)</text><text x="638" y="1893" font-size="12.5" font-weight="700" fill="#1e3a8a" text-anchor="end">2</text><text x="475" y="1914" font-size="12.5" font-weight="400" fill="#5b6675">Colombia</text><text x="638" y="1914" font-size="12.5" font-weight="400" fill="#5b6675" text-anchor="end">2</text>
<rect x="676" y="1178" width="186" height="44" rx="7" fill="#ffffff" stroke="#dde2ea" stroke-width="1"/><line x1="676" y1="1199" x2="862" y2="1199" stroke="#dde2ea" stroke-width="0.7"/><text x="687" y="1193" font-size="12.5" font-weight="400" fill="#5b6675">Morocco</text><text x="850" y="1193" font-size="12.5" font-weight="400" fill="#5b6675" text-anchor="end">0</text><rect x="676" y="1201" width="3.5" height="17" rx="1.5" fill="#1d4ed8"/><text x="687" y="1214" font-size="12.5" font-weight="700" fill="#1e3a8a">Germany (p)</text><text x="850" y="1214" font-size="12.5" font-weight="700" fill="#1e3a8a" text-anchor="end">0</text>
<rect x="676" y="1738" width="186" height="44" rx="7" fill="#ffffff" stroke="#dde2ea" stroke-width="1"/><line x1="676" y1="1759" x2="862" y2="1759" stroke="#dde2ea" stroke-width="0.7"/><rect x="676" y="1740" width="3.5" height="17" rx="1.5" fill="#1d4ed8"/><text x="687" y="1753" font-size="12.5" font-weight="700" fill="#1e3a8a">France</text><text x="850" y="1753" font-size="12.5" font-weight="700" fill="#1e3a8a" text-anchor="end">1</text><text x="687" y="1774" font-size="12.5" font-weight="400" fill="#5b6675">Portugal</text><text x="850" y="1774" font-size="12.5" font-weight="400" fill="#5b6675" text-anchor="end">0</text>
<rect x="888" y="1458" width="186" height="44" rx="7" fill="#ffffff" stroke="#dde2ea" stroke-width="1"/><line x1="888" y1="1479" x2="1074" y2="1479" stroke="#dde2ea" stroke-width="0.7"/><text x="899" y="1473" font-size="12.5" font-weight="400" fill="#5b6675">Germany</text><text x="1062" y="1473" font-size="12.5" font-weight="400" fill="#5b6675" text-anchor="end">1</text><rect x="888" y="1481" width="3.5" height="17" rx="1.5" fill="#1d4ed8"/><text x="899" y="1494" font-size="12.5" font-weight="700" fill="#1e3a8a">France (p)</text><text x="1062" y="1494" font-size="12.5" font-weight="700" fill="#1e3a8a" text-anchor="end">1</text>
<rect x="1100" y="1454" width="216" height="52" rx="9" fill="#b45309"/>
<text x="1208" y="1476" font-size="11" font-weight="700" letter-spacing="1.5" fill="#fff" text-anchor="middle" opacity="0.85">★ WINNERS ★</text>
<text x="1208" y="1496" font-size="16" font-weight="700" fill="#fff" text-anchor="middle">France</text>
</svg>