<?xml version="1.0" encoding="UTF-8" standalone="no"?>
<svg
   id="svg"
   version="1.1"
   width="400"
   height="360.83916083916085"
   viewBox="0, 0, 400,360.83916083916085"
   sodipodi:docname="quome-purple.svg"
   inkscape:version="1.3.2 (091e20e, 2023-11-25)"
   xmlns:inkscape="http://www.inkscape.org/namespaces/inkscape"
   xmlns:sodipodi="http://sodipodi.sourceforge.net/DTD/sodipodi-0.dtd"
   xmlns="http://www.w3.org/2000/svg"
   xmlns:svg="http://www.w3.org/2000/svg">
  <defs
     id="defs1" />
  <sodipodi:namedview
     id="namedview1"
     pagecolor="#ffffff"
     bordercolor="#000000"
     borderopacity="0.25"
     inkscape:showpageshadow="2"
     inkscape:pageopacity="0.0"
     inkscape:pagecheckerboard="0"
     inkscape:deskcolor="#8c7ff2ff"
     inkscape:zoom="0.65403099"
     inkscape:cx="190.35795"
     inkscape:cy="204.11877"
     inkscape:window-width="1440"
     inkscape:window-height="872"
     inkscape:window-x="0"
     inkscape:window-y="28"
     inkscape:window-maximized="0"
     inkscape:current-layer="svgg" />
  <g
     id="svgg">
    <path
       id="path0"
       d="M39.789 106.742 C 39.242 106.961,37.489 110.361,35.392 115.269 C 30.157 127.523,26.405 141.203,24.382 155.415 C 22.738 166.962,22.741 184.992,24.388 196.209 C 26.507 210.638,29.356 221.445,34.285 233.755 C 54.755 284.874,101.994 321.718,156.679 329.215 C 166.224 330.524,164.622 330.505,269.675 330.505 L 372.383 330.505 372.264 327.076 C 371.190 295.941,347.945 268.446,316.968 261.670 C 309.916 260.128,312.499 260.185,237.906 259.937 C 188.077 259.771,166.484 259.583,165.343 259.302 C 164.449 259.083,162.662 258.708,161.372 258.470 C 114.940 249.906,84.692 202.391,95.997 155.776 C 100.451 137.410,113.982 117.189,127.858 108.164 C 130.530 106.426,132.384 106.496,84.736 106.527 C 60.270 106.542,40.044 106.639,39.789 106.742 "
       stroke="none"
       fill="#8c7ff2"
       fill-rule="evenodd"
       style="fill:#8c7ff2;fill-opacity:1" />
    <path
       id="path1"
       d="M166.245 21.535 C 160.900 21.846,149.066 23.718,142.238 25.332 C 112.220 32.427,84.664 48.546,63.964 71.119 C 58.144 77.465,48.375 90.142,48.375 91.348 C 48.375 91.571,72.014 91.697,113.879 91.697 C 185.723 91.697,185.570 91.693,196.029 93.841 C 209.995 96.710,225.908 105.441,236.611 116.106 C 273.130 152.499,268.913 212.802,227.708 243.435 C 226.963 243.988,226.354 244.595,226.354 244.784 C 226.354 244.998,243.120 245.126,271.128 245.126 L 315.902 245.126 316.220 244.314 C 316.394 243.867,317.223 242.040,318.062 240.253 C 356.824 157.635,313.085 57.834,225.451 28.940 C 218.184 26.543,207.938 24.099,200.181 22.911 C 191.504 21.582,176.137 20.959,166.245 21.535 "
       stroke="none"
       fill="#8c7ff2"
       fill-rule="evenodd"
       style="fill:#8c7ff2;fill-opacity:1" />
    <path
       id="path2"
       d="m 188.448,21.671 c 6.329,0.474 10.903,1.025 14.982,1.807 7.349,1.409 9.953,1.984 14.079,3.11 92.365,25.201 140.744,128.002 100.553,213.665 -0.839,1.787 -1.668,3.614 -1.842,4.061 l -0.318,0.812 h -44.774 c -28.008,0 -44.774,-0.128 -44.774,-0.342 0,-0.189 0.609,-0.796 1.354,-1.349 41.205,-30.633 45.422,-90.936 8.903,-127.329 -10.703,-10.665 -26.616,-19.396 -40.582,-22.265 -10.459,-2.148 -10.306,-2.144 -82.15,-2.144 -41.865,0 -65.504,-0.126 -65.504,-0.349 0,-0.541 4.825,-7.326 8.481,-11.926 10.294,-12.95 21.527,-23.184 35.955,-32.757 20.231,-13.422 42.498,-21.427 68.561,-24.646 5.836,-0.721 19.708,-0.899 27.076,-0.348 m -59.428,85.347 c -0.11,0.286 -0.633,0.802 -1.162,1.146 -13.876,9.025 -27.407,29.246 -31.861,47.612 -11.305,46.615 18.943,94.13 65.375,102.694 1.29,0.238 3.077,0.613 3.971,0.832 1.141,0.281 22.734,0.469 72.563,0.635 74.593,0.248 72.01,0.191 79.062,1.733 30.977,6.776 54.222,34.271 55.296,65.406 l 0.119,3.429 H 269.675 c -105.053,0 -103.451,0.019 -112.996,-1.29 -54.685,-7.497 -101.924,-44.341 -122.394,-95.46 -4.929,-12.31 -7.778,-23.117 -9.897,-37.546 -1.647,-11.217 -1.65,-29.247 -0.006,-40.794 2.023,-14.212 5.775,-27.892 11.01,-40.146 2.097,-4.908 3.85,-8.308 4.397,-8.527 1.276,-0.513 89.429,-0.24 89.231,0.276"
       stroke="none"
       fill="#8c7ff2"
       fill-rule="evenodd"
       sodipodi:nodetypes="ccccccsscccsscccccccccccccsccccccc"
       style="fill:#8c7ff2;fill-opacity:0" />
  </g>
</svg>
