<?xml version="1.0" encoding="UTF-8"?>
<svg xmlns="http://www.w3.org/2000/svg" viewBox="0 0 900 822" width="900" height="822" font-family="-apple-system,BlinkMacSystemFont,Segoe UI,Roboto,Helvetica,Arial,sans-serif"><defs><linearGradient id="gbg" x1="0" y1="0" x2="0" y2="1"><stop offset="0" stop-color="#fcfbf8"/><stop offset="1" stop-color="#eef0ec"/></linearGradient><linearGradient id="gnode" x1="0" y1="0" x2="0" y2="1"><stop offset="0" stop-color="#ffffff"/><stop offset="1" stop-color="#eef1f6"/></linearGradient><linearGradient id="gacc" x1="0" y1="0" x2="1" y2="0"><stop offset="0" stop-color="#1d4ed8"/><stop offset="1" stop-color="#0891b2"/></linearGradient><linearGradient id="garea" x1="0" y1="0" x2="0" y2="1"><stop offset="0" stop-color="#1d4ed8" stop-opacity="0.34"/><stop offset="1" stop-color="#1d4ed8" stop-opacity="0"/></linearGradient><filter id="sh" x="-30%" y="-30%" width="160%" height="160%"><feDropShadow dx="0" dy="5" stdDeviation="9" flood-color="#16202e" flood-opacity="0.14"/></filter><filter id="shsoft" x="-40%" y="-40%" width="180%" height="180%"><feDropShadow dx="0" dy="10" stdDeviation="22" flood-color="#16202e" flood-opacity="0.14"/></filter><marker id="arr" markerWidth="9" markerHeight="9" refX="6.5" refY="3" orient="auto"><path d="M0,0 L6.5,3 L0,6 Z" fill="#1d4ed8"/></marker><marker id="arrUp" markerWidth="9" markerHeight="9" refX="3" refY="6.2" orient="auto"><path d="M0,6.2 L3,0 L6,6.2 Z" fill="#0f766e"/></marker><pattern id="grid" width="24" height="24" patternUnits="userSpaceOnUse"><path d="M24 0 H0 V24" fill="none" stroke="#8aa0c2" stroke-width="0.6" opacity="0.35"/></pattern><pattern id="gridFine" width="22" height="22" patternUnits="userSpaceOnUse"><path d="M22 0 H0 V22" fill="none" stroke="#8aa0c2" stroke-width="0.5" opacity="0.28"/></pattern><filter id="glow" x="-60%" y="-60%" width="220%" height="220%"><feGaussianBlur stdDeviation="2.4" result="b"/><feMerge><feMergeNode in="b"/><feMergeNode in="SourceGraphic"/></feMerge></filter></defs><rect x="0" y="0" width="900" height="822.0" fill="url(#gbg)"/><g filter="url(#shsoft)"><rect x="26" y="26" width="848" height="770.0" rx="24" fill="url(#gbg)" stroke="#dde2ea" stroke-width="1"/></g><clipPath id="pc"><rect x="26" y="26" width="848" height="770.0" rx="24"/></clipPath><rect x="26" y="26" width="848" height="770.0" fill="url(#gridFine)" clip-path="url(#pc)"/><rect x="26" y="26" width="848" height="6" rx="3" fill="url(#gacc)"/><path d="M 39 51 L 39 39 L 51 39" fill="none" stroke="#1d4ed8" stroke-width="1.4" opacity="0.55"/><path d="M 861 51 L 861 39 L 849 39" fill="none" stroke="#1d4ed8" stroke-width="1.4" opacity="0.55"/><path d="M 39 771 L 39 783 L 51 783" fill="none" stroke="#1d4ed8" stroke-width="1.4" opacity="0.55"/><path d="M 861 771 L 861 783 L 849 783" fill="none" stroke="#1d4ed8" stroke-width="1.4" opacity="0.55"/><g transform="translate(73.0,76.0)"><rect x="-15.0" y="-15.0" width="30.0" height="30.0" rx="5.1" fill="none" stroke="#1d4ed8" stroke-width="2.1"/><rect x="-9.0" y="-9.0" width="18.0" height="18.0" rx="3.6" fill="none" stroke="#b45309" stroke-width="1.9"/><rect x="-3.6" y="-3.6" width="7.2" height="7.2" rx="1.8" fill="#0f766e"/></g><text x="98.0" y="58.0" font-size="9.5" font-weight="700" fill="#1d4ed8" letter-spacing="2.4" font-family="ui-monospace,SFMono-Regular,Menlo,Consolas,monospace">OPENWORLD · MODEL CARD</text><text x="98.0" y="84.0" font-size="29" font-weight="700" fill="#16202e" font-family="'Iowan Old Style','Palatino Linotype',Palatino,Georgia,serif">brain</text><text x="58.0" y="104.0" font-size="14" font-weight="500" fill="#5b6675">A brain whose architecture (memory / tree width / verify) is optimized for the task</text><text x="58.0" y="123.0" font-size="14" font-weight="500" fill="#5b6675">while the LLM backbone stays constant.</text><rect x="58.0" y="134.0" width="53.2" height="22" rx="11.0" fill="#eaeef6"/><text x="66.0" y="148.0" font-size="12" font-weight="600" fill="#1e3a8a">brain</text><rect x="119.2" y="134.0" width="157.4" height="22" rx="11.0" fill="#eaeef6"/><text x="127.2" y="148.0" font-size="12" font-weight="600" fill="#1e3a8a">architecture-search</text><rect x="284.6" y="134.0" width="38.3" height="22" rx="11.0" fill="#eaeef6"/><text x="292.6" y="148.0" font-size="12" font-weight="600" fill="#1e3a8a">llm</text><rect x="817.7" y="48.0" width="38.3" height="22" rx="11.0" fill="#eaeef6"/><text x="825.7" y="62.0" font-size="12" font-weight="600" fill="#0f766e">MIT</text><rect x="763.9" y="48.0" width="45.8" height="22" rx="11.0" fill="#eaeef6"/><text x="771.9" y="62.0" font-size="12" font-weight="600" fill="#1e3a8a">v0.1</text><line x1="58" y1="182.0" x2="842" y2="182.0" stroke="#dde2ea" stroke-width="1"/><rect x="58" y="220.0" width="784" height="208.0" rx="16" fill="#eef1f6" fill-opacity="0.5" stroke="#dde2ea" stroke-width="1"/><text x="58.0" y="208.0" font-size="11" font-weight="700" fill="#5b6675" letter-spacing="1.6" font-family="ui-monospace,SFMono-Regular,Menlo,Consolas,monospace">WORLD OF WORLDS</text><g transform="translate(136.0,226.0) scale(1.0000)"><g filter="url(#shsoft)"><rect x="0.0" y="0.0" width="628.0" height="192.0" rx="18" fill="#fcfbf8" fill-opacity="0.62" stroke="#1d4ed8" stroke-width="1.7"/></g><rect x="0.0" y="0.0" width="628.0" height="6" rx="3" fill="#1d4ed8"/><text x="20.0" y="31.0" font-size="16" font-weight="700" fill="#16202e" font-family="'Iowan Old Style','Palatino Linotype',Palatino,Georgia,serif">brain</text><text x="20.0" y="46.0" font-size="9.5" font-weight="600" fill="#5b6675" font-family="ui-monospace,SFMono-Regular,Menlo,Consolas,monospace">composite · 3 worlds</text><a href="conscious.svg"><g filter="url(#sh)"><rect x="20.0" y="52.0" width="176" height="104" rx="13" fill="url(#gnode)" stroke="#dde2ea" stroke-width="1.1"/></g><rect x="20.0" y="52.0" width="176" height="5" rx="2.5" fill="#b45309"/><text x="33.0" y="77.0" font-size="13.5" font-weight="700" fill="#16202e" font-family="'Iowan Old Style','Palatino Linotype',Palatino,Georgia,serif">conscious</text><text x="33.0" y="97.0" font-size="10" font-weight="500" fill="#5b6675" font-family="ui-monospace,SFMono-Regular,Menlo,Consolas,monospace">question: str</text><text x="33.0" y="112.0" font-size="10" font-weight="500" fill="#5b6675" font-family="ui-monospace,SFMono-Regular,Menlo,Consolas,monospace">context: list</text><text x="33.0" y="127.0" font-size="10" font-weight="500" fill="#5b6675" font-family="ui-monospace,SFMono-Regular,Menlo,Consolas,monospace">drafts: list</text><text x="33.0" y="145.0" font-size="9.5" font-weight="600" fill="#b45309" font-family="ui-monospace,SFMono-Regular,Menlo,Consolas,monospace">3 actions</text><circle cx="181.0" cy="142.0" r="3" fill="#0f766e"/></a><a href="unconscious.svg"><g filter="url(#sh)"><rect x="226.0" y="52.0" width="176" height="104" rx="13" fill="url(#gnode)" stroke="#dde2ea" stroke-width="1.1"/></g><rect x="226.0" y="52.0" width="176" height="5" rx="2.5" fill="#b45309"/><text x="239.0" y="77.0" font-size="13.5" font-weight="700" fill="#16202e" font-family="'Iowan Old Style','Palatino Linotype',Palatino,Georgia,serif">unconscious</text><text x="239.0" y="97.0" font-size="10" font-weight="500" fill="#5b6675" font-family="ui-monospace,SFMono-Regular,Menlo,Consolas,monospace">memory: dict</text><text x="239.0" y="112.0" font-size="10" font-weight="500" fill="#5b6675" font-family="ui-monospace,SFMono-Regular,Menlo,Consolas,monospace">retrieved: list</text><text x="239.0" y="145.0" font-size="9.5" font-weight="600" fill="#b45309" font-family="ui-monospace,SFMono-Regular,Menlo,Consolas,monospace">2 actions</text><circle cx="387.0" cy="142.0" r="3" fill="#0f766e"/></a><a href="task.svg"><g filter="url(#sh)"><rect x="432.0" y="52.0" width="176" height="104" rx="13" fill="url(#gnode)" stroke="#dde2ea" stroke-width="1.1"/></g><rect x="432.0" y="52.0" width="176" height="5" rx="2.5" fill="#b45309"/><text x="445.0" y="77.0" font-size="13.5" font-weight="700" fill="#16202e" font-family="'Iowan Old Style','Palatino Linotype',Palatino,Georgia,serif">task</text><text x="445.0" y="97.0" font-size="10" font-weight="500" fill="#5b6675" font-family="ui-monospace,SFMono-Regular,Menlo,Consolas,monospace">answer: null</text><text x="445.0" y="112.0" font-size="10" font-weight="500" fill="#5b6675" font-family="ui-monospace,SFMono-Regular,Menlo,Consolas,monospace">solved: bool</text><text x="445.0" y="145.0" font-size="9.5" font-weight="600" fill="#b45309" font-family="ui-monospace,SFMono-Regular,Menlo,Consolas,monospace">1 actions</text><circle cx="593.0" cy="142.0" r="3" fill="#0f766e"/></a><path d="M 402.0 104.0 C 211.0 104.0, 211.0 104.0, 20.0 104.0" fill="none" stroke="#1d4ed8" stroke-width="1.9" marker-end="url(#arr)" marker-start="url(#arr)"/><rect x="182.0" y="85.0" width="58.0" height="15" rx="7.5" fill="#fcfbf8" stroke="#dde2ea" stroke-width="0.8"/><text x="211.0" y="96.0" font-size="9.5" font-weight="600" fill="#1d4ed8" text-anchor="middle">retrieve</text><path d="M 196.0 104.0 C 314.0 104.0, 314.0 104.0, 432.0 104.0" fill="none" stroke="#1d4ed8" stroke-width="1.9" marker-end="url(#arr)" marker-start="url(#arr)"/><rect x="297.0" y="85.0" width="34.0" height="15" rx="7.5" fill="#fcfbf8" stroke="#dde2ea" stroke-width="0.8"/><text x="314.0" y="96.0" font-size="9.5" font-weight="600" fill="#1d4ed8" text-anchor="middle">emit</text><rect x="496.0" y="14.0" width="112.0" height="21" rx="10.5" fill="#eef1f6" stroke="#0f766e" stroke-width="1.1"/><text x="504.0" y="29.0" font-size="10" font-weight="700" fill="#0f766e" font-family="ui-monospace,SFMono-Regular,Menlo,Consolas,monospace">Σ goal_progress</text><path d="M 108.0 52.0 L 552.0 35.0" fill="none" stroke="#0f766e" stroke-width="1" stroke-dasharray="3 3" opacity="0.45" marker-end="url(#arrUp)"/><path d="M 314.0 52.0 L 552.0 35.0" fill="none" stroke="#0f766e" stroke-width="1" stroke-dasharray="3 3" opacity="0.45" marker-end="url(#arrUp)"/><path d="M 520.0 52.0 L 552.0 35.0" fill="none" stroke="#0f766e" stroke-width="1" stroke-dasharray="3 3" opacity="0.45" marker-end="url(#arrUp)"/></g><rect x="58.0" y="444.0" width="3" height="11" rx="1.5" fill="#1d4ed8"/><text x="67.0" y="453.0" font-size="10.5" font-weight="700" fill="#5b6675" letter-spacing="1.8" font-family="ui-monospace,SFMono-Regular,Menlo,Consolas,monospace">SUB-WORLDS</text><rect x="54.0" y="467.0" width="258.0" height="24" rx="6" fill="#1d4ed8" fill-opacity="0.035"/><text x="62.0" y="483.0" font-size="12" font-weight="600" fill="#16202e" font-family="ui-monospace,SFMono-Regular,Menlo,Consolas,monospace">conscious</text><rect x="267.2" y="471.0" width="40.8" height="17" rx="5" fill="#eaeef6"/><text x="274.2" y="483.0" font-size="10.5" font-weight="700" fill="#b45309" font-family="ui-monospace,SFMono-Regular,Menlo,Consolas,monospace">leaf</text><text x="259.2" y="483.0" font-size="10.5" font-weight="600" fill="#5b6675" text-anchor="end" font-family="ui-monospace,SFMono-Regular,Menlo,Consolas,monospace">conscious</text><text x="62.0" y="509.0" font-size="12" font-weight="600" fill="#16202e" font-family="ui-monospace,SFMono-Regular,Menlo,Consolas,monospace">unconscious</text><rect x="267.2" y="497.0" width="40.8" height="17" rx="5" fill="#eaeef6"/><text x="274.2" y="509.0" font-size="10.5" font-weight="700" fill="#b45309" font-family="ui-monospace,SFMono-Regular,Menlo,Consolas,monospace">leaf</text><text x="259.2" y="509.0" font-size="10.5" font-weight="600" fill="#5b6675" text-anchor="end" font-family="ui-monospace,SFMono-Regular,Menlo,Consolas,monospace">unconscious</text><rect x="54.0" y="519.0" width="258.0" height="24" rx="6" fill="#1d4ed8" fill-opacity="0.035"/><text x="62.0" y="535.0" font-size="12" font-weight="600" fill="#16202e" font-family="ui-monospace,SFMono-Regular,Menlo,Consolas,monospace">task</text><rect x="267.2" y="523.0" width="40.8" height="17" rx="5" fill="#eaeef6"/><text x="274.2" y="535.0" font-size="10.5" font-weight="700" fill="#b45309" font-family="ui-monospace,SFMono-Regular,Menlo,Consolas,monospace">leaf</text><text x="259.2" y="535.0" font-size="10.5" font-weight="600" fill="#5b6675" text-anchor="end" font-family="ui-monospace,SFMono-Regular,Menlo,Consolas,monospace">task</text><rect x="58.0" y="570.0" width="3" height="11" rx="1.5" fill="#1d4ed8"/><text x="67.0" y="579.0" font-size="10.5" font-weight="700" fill="#5b6675" letter-spacing="1.8" font-family="ui-monospace,SFMono-Regular,Menlo,Consolas,monospace">PERCEPTION</text><rect x="58.0" y="594.0" width="41.6" height="18" rx="5" fill="#eaeef6" stroke="#b45309" stroke-width="1" stroke-opacity="0.45" stroke-dasharray="3 2"/><text x="66.0" y="607.0" font-size="10" font-weight="700" fill="#b45309" font-family="ui-monospace,SFMono-Regular,Menlo,Consolas,monospace">text</text><text x="107.6" y="607.0" font-size="11" font-weight="600" fill="#16202e" font-family="ui-monospace,SFMono-Regular,Menlo,Consolas,monospace">→ question</text><rect x="58.0" y="640.0" width="3" height="11" rx="1.5" fill="#1d4ed8"/><text x="67.0" y="649.0" font-size="10.5" font-weight="700" fill="#5b6675" letter-spacing="1.8" font-family="ui-monospace,SFMono-Regular,Menlo,Consolas,monospace">EMIT</text><rect x="58.0" y="664.0" width="41.6" height="18" rx="5" fill="#eaeef6" stroke="#0f766e" stroke-width="1" stroke-opacity="0.45" stroke-dasharray="3 2"/><text x="66.0" y="677.0" font-size="10" font-weight="700" fill="#0f766e" font-family="ui-monospace,SFMono-Regular,Menlo,Consolas,monospace">text</text><text x="107.6" y="677.0" font-size="11" font-weight="600" fill="#16202e" font-family="ui-monospace,SFMono-Regular,Menlo,Consolas,monospace">← answer</text><rect x="328.0" y="444.0" width="3" height="11" rx="1.5" fill="#1d4ed8"/><text x="337.0" y="453.0" font-size="10.5" font-weight="700" fill="#5b6675" letter-spacing="1.8" font-family="ui-monospace,SFMono-Regular,Menlo,Consolas,monospace">ACTIONS</text><rect x="328.0" y="468.0" width="102.5" height="20" rx="6" fill="#eaeef6" stroke="#1d4ed8" stroke-width="1" stroke-opacity="0.16"/><text x="337.0" y="482.0" font-size="10.5" font-weight="600" fill="#1e3a8a" font-family="ui-monospace,SFMono-Regular,Menlo,Consolas,monospace">conscious ▸ 3</text><rect x="328.0" y="494.0" width="115.5" height="20" rx="6" fill="#eaeef6" stroke="#1d4ed8" stroke-width="1" stroke-opacity="0.16"/><text x="337.0" y="508.0" font-size="10.5" font-weight="600" fill="#1e3a8a" font-family="ui-monospace,SFMono-Regular,Menlo,Consolas,monospace">unconscious ▸ 2</text><rect x="450.5" y="494.0" width="70.0" height="20" rx="6" fill="#eaeef6" stroke="#1d4ed8" stroke-width="1" stroke-opacity="0.16"/><text x="459.5" y="508.0" font-size="10.5" font-weight="600" fill="#1e3a8a" font-family="ui-monospace,SFMono-Regular,Menlo,Consolas,monospace">task ▸ 1</text><rect x="328.0" y="520.0" width="44.0" height="20" rx="6" fill="#eaeef6" stroke="#1d4ed8" stroke-width="1" stroke-opacity="0.16"/><text x="337.0" y="534.0" font-size="10.5" font-weight="600" fill="#1e3a8a" font-family="ui-monospace,SFMono-Regular,Menlo,Consolas,monospace">tick</text><rect x="328.0" y="564.0" width="3" height="11" rx="1.5" fill="#1d4ed8"/><text x="337.0" y="573.0" font-size="10.5" font-weight="700" fill="#5b6675" letter-spacing="1.8" font-family="ui-monospace,SFMono-Regular,Menlo,Consolas,monospace">DYNAMICS</text><circle cx="337.0" cy="594.0" r="8" fill="none" stroke="#5b6675" stroke-width="1.6"/><text x="352.0" y="598.0" font-size="12.5" font-weight="700" fill="#16202e">composite dynamics</text><rect x="328.0" y="624.0" width="3" height="11" rx="1.5" fill="#1d4ed8"/><text x="337.0" y="633.0" font-size="10.5" font-weight="700" fill="#5b6675" letter-spacing="1.8" font-family="ui-monospace,SFMono-Regular,Menlo,Consolas,monospace">OBJECTIVES</text><circle cx="332.0" cy="652.0" r="2.4" fill="#1d4ed8"/><text x="341.0" y="656.0" font-size="11.5" font-weight="600" fill="#16202e" font-family="ui-monospace,SFMono-Regular,Menlo,Consolas,monospace">answer correctly · max accura…</text><rect x="328.0" y="689.0" width="3" height="11" rx="1.5" fill="#1d4ed8"/><text x="337.0" y="698.0" font-size="10.5" font-weight="700" fill="#5b6675" letter-spacing="1.8" font-family="ui-monospace,SFMono-Regular,Menlo,Consolas,monospace">STRUCTURE</text><circle cx="332.0" cy="709.0" r="2.4" fill="#1d4ed8"/><text x="341.0" y="713.0" font-size="11.5" font-weight="600" fill="#16202e" font-family="ui-monospace,SFMono-Regular,Menlo,Consolas,monospace">3 child worlds</text><circle cx="332.0" cy="728.0" r="2.4" fill="#1d4ed8"/><text x="341.0" y="732.0" font-size="11.5" font-weight="600" fill="#16202e" font-family="ui-monospace,SFMono-Regular,Menlo,Consolas,monospace">2 bridges</text><circle cx="332.0" cy="747.0" r="2.4" fill="#1d4ed8"/><text x="341.0" y="751.0" font-size="11.5" font-weight="600" fill="#16202e" font-family="ui-monospace,SFMono-Regular,Menlo,Consolas,monospace">1 aggregator</text><rect x="570.0" y="444.0" width="3" height="11" rx="1.5" fill="#1d4ed8"/><text x="579.0" y="453.0" font-size="10.5" font-weight="700" fill="#5b6675" letter-spacing="1.8" font-family="ui-monospace,SFMono-Regular,Menlo,Consolas,monospace">SAMPLE ROLLOUT</text><text x="842.0" y="453.0" font-size="9.5" font-weight="600" fill="#5b6675" text-anchor="end" font-family="ui-monospace,SFMono-Regular,Menlo,Consolas,monospace">12 steps · conscious:think</text><rect x="570.0" y="466.0" width="272.0" height="130" rx="12" fill="#eef1f6" stroke="#dde2ea" stroke-width="1"/><text x="706.0" y="535.0" font-size="12" font-weight="500" fill="#5b6675" text-anchor="middle" font-family="ui-monospace,SFMono-Regular,Menlo,Consolas,monospace">no numeric preview</text><line x1="58" y1="784.0" x2="842" y2="784.0" stroke="#dde2ea" stroke-width="1"/><text x="58.0" y="804.0" font-size="11" font-weight="500" fill="#5b6675">openworld_spec_version 1.0  ·  lineage: E59 brain architecture search</text><a href="https://play.reactflow.dev" target="_blank"><text x="450.0" y="804.0" font-size="10.5" font-weight="700" fill="#1d4ed8" text-anchor="middle" font-family="ui-monospace,SFMono-Regular,Menlo,Consolas,monospace">▸ open in React Flow</text></a><text x="842.0" y="804.0" font-size="12" font-weight="800" fill="#1d4ed8" text-anchor="end">OpenWorld</text></svg>