<?xml version="1.0" encoding="UTF-8"?>
<svg xmlns="http://www.w3.org/2000/svg" viewBox="0 0 900 778" width="900" height="778" font-family="-apple-system,BlinkMacSystemFont,Segoe UI,Roboto,Helvetica,Arial,sans-serif"><defs><linearGradient id="gbg" x1="0" y1="0" x2="0" y2="1"><stop offset="0" stop-color="#fcfbf8"/><stop offset="1" stop-color="#eef0ec"/></linearGradient><linearGradient id="gnode" x1="0" y1="0" x2="0" y2="1"><stop offset="0" stop-color="#ffffff"/><stop offset="1" stop-color="#eef1f6"/></linearGradient><linearGradient id="gacc" x1="0" y1="0" x2="1" y2="0"><stop offset="0" stop-color="#1d4ed8"/><stop offset="1" stop-color="#0891b2"/></linearGradient><linearGradient id="garea" x1="0" y1="0" x2="0" y2="1"><stop offset="0" stop-color="#1d4ed8" stop-opacity="0.34"/><stop offset="1" stop-color="#1d4ed8" stop-opacity="0"/></linearGradient><filter id="sh" x="-30%" y="-30%" width="160%" height="160%"><feDropShadow dx="0" dy="5" stdDeviation="9" flood-color="#16202e" flood-opacity="0.14"/></filter><filter id="shsoft" x="-40%" y="-40%" width="180%" height="180%"><feDropShadow dx="0" dy="10" stdDeviation="22" flood-color="#16202e" flood-opacity="0.14"/></filter><marker id="arr" markerWidth="9" markerHeight="9" refX="6.5" refY="3" orient="auto"><path d="M0,0 L6.5,3 L0,6 Z" fill="#1d4ed8"/></marker><marker id="arrUp" markerWidth="9" markerHeight="9" refX="3" refY="6.2" orient="auto"><path d="M0,6.2 L3,0 L6,6.2 Z" fill="#0f766e"/></marker><pattern id="grid" width="24" height="24" patternUnits="userSpaceOnUse"><path d="M24 0 H0 V24" fill="none" stroke="#8aa0c2" stroke-width="0.6" opacity="0.35"/></pattern><pattern id="gridFine" width="22" height="22" patternUnits="userSpaceOnUse"><path d="M22 0 H0 V22" fill="none" stroke="#8aa0c2" stroke-width="0.5" opacity="0.28"/></pattern><filter id="glow" x="-60%" y="-60%" width="220%" height="220%"><feGaussianBlur stdDeviation="2.4" result="b"/><feMerge><feMergeNode in="b"/><feMergeNode in="SourceGraphic"/></feMerge></filter></defs><rect x="0" y="0" width="900" height="778.0" fill="url(#gbg)"/><g filter="url(#shsoft)"><rect x="26" y="26" width="848" height="726.0" rx="24" fill="url(#gbg)" stroke="#dde2ea" stroke-width="1"/></g><clipPath id="pc"><rect x="26" y="26" width="848" height="726.0" rx="24"/></clipPath><rect x="26" y="26" width="848" height="726.0" fill="url(#gridFine)" clip-path="url(#pc)"/><rect x="26" y="26" width="848" height="6" rx="3" fill="url(#gacc)"/><path d="M 39 51 L 39 39 L 51 39" fill="none" stroke="#1d4ed8" stroke-width="1.4" opacity="0.55"/><path d="M 861 51 L 861 39 L 849 39" fill="none" stroke="#1d4ed8" stroke-width="1.4" opacity="0.55"/><path d="M 39 727 L 39 739 L 51 739" fill="none" stroke="#1d4ed8" stroke-width="1.4" opacity="0.55"/><path d="M 861 727 L 861 739 L 849 739" fill="none" stroke="#1d4ed8" stroke-width="1.4" opacity="0.55"/><g transform="translate(73.0,76.0)"><rect x="-15.0" y="-15.0" width="30.0" height="30.0" rx="5.1" fill="none" stroke="#1d4ed8" stroke-width="2.1"/><rect x="-9.0" y="-9.0" width="18.0" height="18.0" rx="3.6" fill="none" stroke="#b45309" stroke-width="1.9"/><rect x="-3.6" y="-3.6" width="7.2" height="7.2" rx="1.8" fill="#0f766e"/></g><text x="98.0" y="58.0" font-size="9.5" font-weight="700" fill="#1d4ed8" letter-spacing="2.4" font-family="ui-monospace,SFMono-Regular,Menlo,Consolas,monospace">OPENWORLD · MODEL CARD</text><text x="98.0" y="84.0" font-size="29" font-weight="700" fill="#16202e" font-family="'Iowan Old Style','Palatino Linotype',Palatino,Georgia,serif">hospital-network</text><text x="58.0" y="104.0" font-size="14" font-weight="500" fill="#5b6675">Two triage clinics that transfer critical patients to balance load; treated counts</text><text x="58.0" y="123.0" font-size="14" font-weight="500" fill="#5b6675">roll up to the network.</text><rect x="58.0" y="134.0" width="90.4" height="22" rx="11.0" fill="#eaeef6"/><text x="66.0" y="148.0" font-size="12" font-weight="600" fill="#1e3a8a">healthcare</text><rect x="156.4" y="134.0" width="83.0" height="22" rx="11.0" fill="#eaeef6"/><text x="164.4" y="148.0" font-size="12" font-weight="600" fill="#1e3a8a">composite</text><rect x="247.4" y="134.0" width="97.8" height="22" rx="11.0" fill="#eaeef6"/><text x="255.4" y="148.0" font-size="12" font-weight="600" fill="#1e3a8a">multi-world</text><rect x="817.7" y="48.0" width="38.3" height="22" rx="11.0" fill="#eaeef6"/><text x="825.7" y="62.0" font-size="12" font-weight="600" fill="#0f766e">MIT</text><rect x="763.9" y="48.0" width="45.8" height="22" rx="11.0" fill="#eaeef6"/><text x="771.9" y="62.0" font-size="12" font-weight="600" fill="#1e3a8a">v0.9</text><line x1="58" y1="182.0" x2="842" y2="182.0" stroke="#dde2ea" stroke-width="1"/><rect x="58" y="220.0" width="784" height="208.0" rx="16" fill="#eef1f6" fill-opacity="0.5" stroke="#dde2ea" stroke-width="1"/><text x="58.0" y="208.0" font-size="11" font-weight="700" fill="#5b6675" letter-spacing="1.6" font-family="ui-monospace,SFMono-Regular,Menlo,Consolas,monospace">WORLD OF WORLDS</text><g transform="translate(239.0,226.0) scale(1.0000)"><g filter="url(#shsoft)"><rect x="0.0" y="0.0" width="422.0" height="192.0" rx="18" fill="#fcfbf8" fill-opacity="0.62" stroke="#1d4ed8" stroke-width="1.7"/></g><rect x="0.0" y="0.0" width="422.0" height="6" rx="3" fill="#1d4ed8"/><text x="20.0" y="31.0" font-size="16" font-weight="700" fill="#16202e" font-family="'Iowan Old Style','Palatino Linotype',Palatino,Georgia,serif">hospital-network</text><text x="20.0" y="46.0" font-size="9.5" font-weight="600" fill="#5b6675" font-family="ui-monospace,SFMono-Regular,Menlo,Consolas,monospace">composite · 2 worlds</text><a href="triage.svg"><g filter="url(#sh)"><rect x="20.0" y="52.0" width="176" height="104" rx="13" fill="url(#gnode)" stroke="#dde2ea" stroke-width="1.1"/></g><rect x="20.0" y="52.0" width="176" height="5" rx="2.5" fill="#b45309"/><text x="33.0" y="77.0" font-size="13.5" font-weight="700" fill="#16202e" font-family="'Iowan Old Style','Palatino Linotype',Palatino,Georgia,serif">triage</text><text x="33.0" y="97.0" font-size="10" font-weight="500" fill="#5b6675" font-family="ui-monospace,SFMono-Regular,Menlo,Consolas,monospace">tick: int</text><text x="33.0" y="112.0" font-size="10" font-weight="500" fill="#5b6675" font-family="ui-monospace,SFMono-Regular,Menlo,Consolas,monospace">critical_waiting: int</text><text x="33.0" y="127.0" font-size="10" font-weight="500" fill="#5b6675" font-family="ui-monospace,SFMono-Regular,Menlo,Consolas,monospace">moderate_waiting: int</text><text x="33.0" y="142.0" font-size="10" font-weight="500" fill="#5b6675" font-family="ui-monospace,SFMono-Regular,Menlo,Consolas,monospace">+4 more</text><text x="33.0" y="145.0" font-size="9.5" font-weight="600" fill="#b45309" font-family="ui-monospace,SFMono-Regular,Menlo,Consolas,monospace">3 actions</text><circle cx="181.0" cy="142.0" r="3" fill="#0f766e"/></a><a href="triage.svg"><g filter="url(#sh)"><rect x="226.0" y="52.0" width="176" height="104" rx="13" fill="url(#gnode)" stroke="#dde2ea" stroke-width="1.1"/></g><rect x="226.0" y="52.0" width="176" height="5" rx="2.5" fill="#b45309"/><text x="239.0" y="77.0" font-size="13.5" font-weight="700" fill="#16202e" font-family="'Iowan Old Style','Palatino Linotype',Palatino,Georgia,serif">triage</text><text x="239.0" y="97.0" font-size="10" font-weight="500" fill="#5b6675" font-family="ui-monospace,SFMono-Regular,Menlo,Consolas,monospace">tick: int</text><text x="239.0" y="112.0" font-size="10" font-weight="500" fill="#5b6675" font-family="ui-monospace,SFMono-Regular,Menlo,Consolas,monospace">critical_waiting: int</text><text x="239.0" y="127.0" font-size="10" font-weight="500" fill="#5b6675" font-family="ui-monospace,SFMono-Regular,Menlo,Consolas,monospace">moderate_waiting: int</text><text x="239.0" y="142.0" font-size="10" font-weight="500" fill="#5b6675" font-family="ui-monospace,SFMono-Regular,Menlo,Consolas,monospace">+4 more</text><text x="239.0" y="145.0" font-size="9.5" font-weight="600" fill="#b45309" font-family="ui-monospace,SFMono-Regular,Menlo,Consolas,monospace">3 actions</text><circle cx="387.0" cy="142.0" r="3" fill="#0f766e"/></a><path d="M 196.0 104.0 C 211.0 104.0, 211.0 104.0, 226.0 104.0" fill="none" stroke="#1d4ed8" stroke-width="1.9" marker-end="url(#arr)" marker-start="url(#arr)"/><rect x="182.0" y="85.0" width="58.0" height="15" rx="7.5" fill="#fcfbf8" stroke="#dde2ea" stroke-width="0.8"/><text x="211.0" y="96.0" font-size="9.5" font-weight="600" fill="#1d4ed8" text-anchor="middle">transfer</text><rect x="290.0" y="14.0" width="112.0" height="21" rx="10.5" fill="#eef1f6" stroke="#0f766e" stroke-width="1.1"/><text x="298.0" y="29.0" font-size="10" font-weight="700" fill="#0f766e" font-family="ui-monospace,SFMono-Regular,Menlo,Consolas,monospace">Σ total_treated</text><path d="M 108.0 52.0 L 346.0 35.0" fill="none" stroke="#0f766e" stroke-width="1" stroke-dasharray="3 3" opacity="0.45" marker-end="url(#arrUp)"/><path d="M 314.0 52.0 L 346.0 35.0" fill="none" stroke="#0f766e" stroke-width="1" stroke-dasharray="3 3" opacity="0.45" marker-end="url(#arrUp)"/></g><rect x="58.0" y="444.0" width="3" height="11" rx="1.5" fill="#1d4ed8"/><text x="67.0" y="453.0" font-size="10.5" font-weight="700" fill="#5b6675" letter-spacing="1.8" font-family="ui-monospace,SFMono-Regular,Menlo,Consolas,monospace">SUB-WORLDS</text><rect x="54.0" y="467.0" width="258.0" height="24" rx="6" fill="#1d4ed8" fill-opacity="0.035"/><text x="62.0" y="483.0" font-size="12" font-weight="600" fill="#16202e" font-family="ui-monospace,SFMono-Regular,Menlo,Consolas,monospace">north</text><rect x="267.2" y="471.0" width="40.8" height="17" rx="5" fill="#eaeef6"/><text x="274.2" y="483.0" font-size="10.5" font-weight="700" fill="#b45309" font-family="ui-monospace,SFMono-Regular,Menlo,Consolas,monospace">leaf</text><text x="259.2" y="483.0" font-size="10.5" font-weight="600" fill="#5b6675" text-anchor="end" font-family="ui-monospace,SFMono-Regular,Menlo,Consolas,monospace">triage</text><text x="62.0" y="509.0" font-size="12" font-weight="600" fill="#16202e" font-family="ui-monospace,SFMono-Regular,Menlo,Consolas,monospace">south</text><rect x="267.2" y="497.0" width="40.8" height="17" rx="5" fill="#eaeef6"/><text x="274.2" y="509.0" font-size="10.5" font-weight="700" fill="#b45309" font-family="ui-monospace,SFMono-Regular,Menlo,Consolas,monospace">leaf</text><text x="259.2" y="509.0" font-size="10.5" font-weight="600" fill="#5b6675" text-anchor="end" font-family="ui-monospace,SFMono-Regular,Menlo,Consolas,monospace">triage</text><rect x="328.0" y="444.0" width="3" height="11" rx="1.5" fill="#1d4ed8"/><text x="337.0" y="453.0" font-size="10.5" font-weight="700" fill="#5b6675" letter-spacing="1.8" font-family="ui-monospace,SFMono-Regular,Menlo,Consolas,monospace">ACTIONS</text><rect x="328.0" y="468.0" width="76.5" height="20" rx="6" fill="#eaeef6" stroke="#1d4ed8" stroke-width="1" stroke-opacity="0.16"/><text x="337.0" y="482.0" font-size="10.5" font-weight="600" fill="#1e3a8a" font-family="ui-monospace,SFMono-Regular,Menlo,Consolas,monospace">north ▸ 3</text><rect x="411.5" y="468.0" width="76.5" height="20" rx="6" fill="#eaeef6" stroke="#1d4ed8" stroke-width="1" stroke-opacity="0.16"/><text x="420.5" y="482.0" font-size="10.5" font-weight="600" fill="#1e3a8a" font-family="ui-monospace,SFMono-Regular,Menlo,Consolas,monospace">south ▸ 3</text><rect x="495.0" y="468.0" width="44.0" height="20" rx="6" fill="#eaeef6" stroke="#1d4ed8" stroke-width="1" stroke-opacity="0.16"/><text x="504.0" y="482.0" font-size="10.5" font-weight="600" fill="#1e3a8a" font-family="ui-monospace,SFMono-Regular,Menlo,Consolas,monospace">tick</text><rect x="328.0" y="512.0" width="3" height="11" rx="1.5" fill="#1d4ed8"/><text x="337.0" y="521.0" font-size="10.5" font-weight="700" fill="#5b6675" letter-spacing="1.8" font-family="ui-monospace,SFMono-Regular,Menlo,Consolas,monospace">DYNAMICS</text><circle cx="337.0" cy="542.0" r="8" fill="none" stroke="#5b6675" stroke-width="1.6"/><text x="352.0" y="546.0" font-size="12.5" font-weight="700" fill="#16202e">composite dynamics</text><rect x="328.0" y="572.0" width="3" height="11" rx="1.5" fill="#1d4ed8"/><text x="337.0" y="581.0" font-size="10.5" font-weight="700" fill="#5b6675" letter-spacing="1.8" font-family="ui-monospace,SFMono-Regular,Menlo,Consolas,monospace">STRUCTURE</text><circle cx="332.0" cy="592.0" r="2.4" fill="#1d4ed8"/><text x="341.0" y="596.0" font-size="11.5" font-weight="600" fill="#16202e" font-family="ui-monospace,SFMono-Regular,Menlo,Consolas,monospace">2 child worlds</text><circle cx="332.0" cy="611.0" r="2.4" fill="#1d4ed8"/><text x="341.0" y="615.0" font-size="11.5" font-weight="600" fill="#16202e" font-family="ui-monospace,SFMono-Regular,Menlo,Consolas,monospace">1 bridge</text><circle cx="332.0" cy="630.0" r="2.4" fill="#1d4ed8"/><text x="341.0" y="634.0" font-size="11.5" font-weight="600" fill="#16202e" font-family="ui-monospace,SFMono-Regular,Menlo,Consolas,monospace">1 aggregator</text><rect x="570.0" y="444.0" width="3" height="11" rx="1.5" fill="#1d4ed8"/><text x="579.0" y="453.0" font-size="10.5" font-weight="700" fill="#5b6675" letter-spacing="1.8" font-family="ui-monospace,SFMono-Regular,Menlo,Consolas,monospace">SAMPLE ROLLOUT</text><text x="842.0" y="453.0" font-size="9.5" font-weight="600" fill="#5b6675" text-anchor="end" font-family="ui-monospace,SFMono-Regular,Menlo,Consolas,monospace">12 steps · tick</text><rect x="570.0" y="466.0" width="272.0" height="130" rx="12" fill="#eef1f6" stroke="#dde2ea" stroke-width="1"/><text x="578.0" y="480.0" font-size="9" font-weight="600" fill="#5b6675" font-family="ui-monospace,SFMono-Regular,Menlo,Consolas,monospace">11</text><text x="578.0" y="588.0" font-size="9" font-weight="600" fill="#5b6675" font-family="ui-monospace,SFMono-Regular,Menlo,Consolas,monospace">0</text><line x1="586.0" y1="506.5" x2="826.0" y2="506.5" stroke="#dde2ea" stroke-width="0.8" stroke-dasharray="1 5" opacity="0.7"/><line x1="586.0" y1="531.0" x2="826.0" y2="531.0" stroke="#dde2ea" stroke-width="0.8" stroke-dasharray="1 5" opacity="0.7"/><line x1="586.0" y1="555.5" x2="826.0" y2="555.5" stroke="#dde2ea" stroke-width="0.8" stroke-dasharray="1 5" opacity="0.7"/><path class="series" d="M 586.0 580.0 L 586.0 580.0 L 606.0 562.2 L 626.0 544.4 L 646.0 526.5 L 666.0 517.6 L 686.0 508.7 L 706.0 499.8 L 726.0 490.9 L 746.0 482.0 L 766.0 482.0 L 786.0 482.0 L 806.0 482.0 L 826.0 482.0 L 826.0 580.0 Z" fill="url(#garea)"/><polyline class="series" points="586.0,580.0 606.0,562.2 626.0,544.4 646.0,526.5 666.0,517.6 686.0,508.7 706.0,499.8 726.0,490.9 746.0,482.0 766.0,482.0 786.0,482.0 806.0,482.0 826.0,482.0" fill="none" stroke="#1d4ed8" stroke-width="2.4" stroke-linejoin="round"/><circle cx="826.0" cy="482.0" r="3.4" fill="#1d4ed8"/><text x="822.0" y="474.0" font-size="9.5" font-weight="700" fill="#1d4ed8" text-anchor="end" font-family="ui-monospace,SFMono-Regular,Menlo,Consolas,monospace">11</text><rect x="572.0" y="603.0" width="9" height="9" rx="2" fill="#1d4ed8"/><text x="586.0" y="612.0" font-size="10.5" font-weight="600" fill="#5b6675" font-family="ui-monospace,SFMono-Regular,Menlo,Consolas,monospace">total_treated ↑</text><rect x="570.0" y="636.0" width="3" height="11" rx="1.5" fill="#1d4ed8"/><text x="579.0" y="645.0" font-size="10.5" font-weight="700" fill="#5b6675" letter-spacing="1.8" font-family="ui-monospace,SFMono-Regular,Menlo,Consolas,monospace">METRICS</text><text x="574.0" y="672.0" font-size="11" font-weight="600" fill="#5b6675" font-family="ui-monospace,SFMono-Regular,Menlo,Consolas,monospace">round-trip</text><text x="842.0" y="672.0" font-size="11.5" font-weight="700" fill="#0f766e" text-anchor="end" font-family="ui-monospace,SFMono-Regular,Menlo,Consolas,monospace">exact</text><line x1="574.0" y1="679.0" x2="842.0" y2="679.0" stroke="#dde2ea" stroke-width="1" stroke-dasharray="1 4" opacity="0.7"/><text x="574.0" y="694.0" font-size="11" font-weight="600" fill="#5b6675" font-family="ui-monospace,SFMono-Regular,Menlo,Consolas,monospace">reachable states</text><text x="842.0" y="694.0" font-size="11.5" font-weight="700" fill="#0f766e" text-anchor="end" font-family="ui-monospace,SFMono-Regular,Menlo,Consolas,monospace">—</text><line x1="574.0" y1="701.0" x2="842.0" y2="701.0" stroke="#dde2ea" stroke-width="1" stroke-dasharray="1 4" opacity="0.7"/><text x="574.0" y="716.0" font-size="11" font-weight="600" fill="#5b6675" font-family="ui-monospace,SFMono-Regular,Menlo,Consolas,monospace">spec size</text><text x="842.0" y="716.0" font-size="11.5" font-weight="700" fill="#0f766e" text-anchor="end" font-family="ui-monospace,SFMono-Regular,Menlo,Consolas,monospace">15.8 KB</text><line x1="574.0" y1="723.0" x2="842.0" y2="723.0" stroke="#dde2ea" stroke-width="1" stroke-dasharray="1 4" opacity="0.7"/><line x1="58" y1="740.0" x2="842" y2="740.0" stroke="#dde2ea" stroke-width="1"/><text x="58.0" y="760.0" font-size="11" font-weight="500" fill="#5b6675">openworld_spec_version 1.0  ·  lineage: composed from triage</text><a href="https://play.reactflow.dev" target="_blank"><text x="450.0" y="760.0" font-size="10.5" font-weight="700" fill="#1d4ed8" text-anchor="middle" font-family="ui-monospace,SFMono-Regular,Menlo,Consolas,monospace">▸ open in React Flow</text></a><text x="842.0" y="760.0" font-size="12" font-weight="800" fill="#1d4ed8" text-anchor="end">OpenWorld</text></svg>