<?xml version="1.0" encoding="UTF-8"?>
<svg xmlns="http://www.w3.org/2000/svg" viewBox="0 0 900 907" width="900" height="907" font-family="-apple-system,BlinkMacSystemFont,Segoe UI,Roboto,Helvetica,Arial,sans-serif"><defs><linearGradient id="gbg" x1="0" y1="0" x2="0" y2="1"><stop offset="0" stop-color="#ffffff"/><stop offset="1" stop-color="#eef2f8"/></linearGradient><linearGradient id="gnode" x1="0" y1="0" x2="0" y2="1"><stop offset="0" stop-color="#ffffff"/><stop offset="1" stop-color="#eef2ff"/></linearGradient><linearGradient id="gacc" x1="0" y1="0" x2="1" y2="0"><stop offset="0" stop-color="#2563eb"/><stop offset="1" stop-color="#7c3aed"/></linearGradient><linearGradient id="garea" x1="0" y1="0" x2="0" y2="1"><stop offset="0" stop-color="#2563eb" stop-opacity="0.34"/><stop offset="1" stop-color="#2563eb" stop-opacity="0"/></linearGradient><filter id="sh" x="-30%" y="-30%" width="160%" height="160%"><feDropShadow dx="0" dy="5" stdDeviation="9" flood-color="#0f172a" flood-opacity="0.16"/></filter><filter id="shsoft" x="-40%" y="-40%" width="180%" height="180%"><feDropShadow dx="0" dy="10" stdDeviation="22" flood-color="#0f172a" flood-opacity="0.16"/></filter><marker id="arr" markerWidth="9" markerHeight="9" refX="6.5" refY="3" orient="auto"><path d="M0,0 L6.5,3 L0,6 Z" fill="#2563eb"/></marker></defs><rect x="0" y="0" width="900" height="907" fill="url(#gbg)"/><g filter="url(#shsoft)"><rect x="26" y="26" width="848" height="855" rx="24" fill="url(#gbg)" stroke="#e2e8f0" stroke-width="1"/></g><rect x="26" y="26" width="848" height="6" rx="3" fill="url(#gacc)"/><g transform="translate(72.0,72.0)"><circle r="15" fill="url(#gacc)"/><circle r="15" fill="none" stroke="#ffffff" stroke-opacity="0.55" stroke-width="1.1"/><ellipse rx="6.8" ry="15" fill="none" stroke="#ffffff" stroke-opacity="0.55" stroke-width="1"/><line x1="-15" y1="0" x2="15" y2="0" stroke="#ffffff" stroke-opacity="0.55" stroke-width="1"/><line x1="-12.9" y1="-7.5" x2="12.9" y2="-7.5" stroke="#ffffff" stroke-opacity="0.4" stroke-width="0.9"/><line x1="-12.9" y1="7.5" x2="12.9" y2="7.5" stroke="#ffffff" stroke-opacity="0.4" stroke-width="0.9"/></g><text x="96.0" y="78.0" font-size="30" font-weight="800" fill="#0f172a">hospital-network</text><text x="58.0" y="104.0" font-size="14" font-weight="500" fill="#64748b">Two triage clinics that transfer critical patients to balance load; treated counts</text><text x="58.0" y="123.0" font-size="14" font-weight="500" fill="#64748b">roll up to the network.</text><rect x="58.0" y="134.0" width="90.4" height="22" rx="11.0" fill="#eef2ff"/><text x="66.0" y="148.0" font-size="12" font-weight="600" fill="#3730a3">healthcare</text><rect x="156.4" y="134.0" width="83.0" height="22" rx="11.0" fill="#eef2ff"/><text x="164.4" y="148.0" font-size="12" font-weight="600" fill="#3730a3">composite</text><rect x="247.4" y="134.0" width="97.8" height="22" rx="11.0" fill="#eef2ff"/><text x="255.4" y="148.0" font-size="12" font-weight="600" fill="#3730a3">multi-world</text><rect x="817.7" y="48.0" width="38.3" height="22" rx="11.0" fill="#eef2ff"/><text x="825.7" y="62.0" font-size="12" font-weight="600" fill="#059669">MIT</text><rect x="763.9" y="48.0" width="45.8" height="22" rx="11.0" fill="#eef2ff"/><text x="771.9" y="62.0" font-size="12" font-weight="600" fill="#3730a3">v0.9</text><line x1="58" y1="182.0" x2="842" y2="182.0" stroke="#e2e8f0" stroke-width="1"/><rect x="58" y="220.0" width="784" height="268.0" rx="16" fill="#eef2ff" fill-opacity="0.5" stroke="#e2e8f0" stroke-width="1"/><text x="58.0" y="208.0" font-size="11" font-weight="700" fill="#64748b" letter-spacing="1.6">COMPOSITION GRAPH</text><path d="M 196.0 320.0 C 450.0 320.0, 450.0 361.0, 701.0 361.0" fill="none" stroke="#2563eb" stroke-width="1.7" stroke-opacity="0.85" marker-end="url(#arr)"/><path d="M 196.0 402.0 C 450.0 402.0, 450.0 361.0, 701.0 361.0" fill="none" stroke="#2563eb" stroke-width="1.7" stroke-opacity="0.85" marker-end="url(#arr)"/><path d="M 196.0 320.0 C 242.0 320.0, 242.0 402.0, 196.0 402.0" fill="none" stroke="#2563eb" stroke-width="1.7" stroke-opacity="0.85" marker-end="url(#arr)"/><rect x="213.0" y="353.0" width="58.0" height="15" rx="7.5" fill="#ffffff" stroke="#e2e8f0" stroke-width="0.8"/><text x="242.0" y="364.0" font-size="9.5" font-weight="600" fill="#2563eb" text-anchor="middle">transfer</text><a href="triage.svg"><g filter="url(#sh)"><rect x="58.0" y="292.0" width="138.0" height="56.0" rx="13" fill="url(#gnode)" stroke="#e2e8f0" stroke-width="1.2"/></g><rect x="58.0" y="292.0" width="138.0" height="5" rx="2.5" fill="url(#gacc)"/><text x="127.0" y="317.0" font-size="13" font-weight="700" fill="#0f172a" text-anchor="middle">north</text><text x="127.0" y="332.0" font-size="11" font-weight="500" fill="#64748b" text-anchor="middle">3 actions</text></a><a href="triage.svg"><g filter="url(#sh)"><rect x="58.0" y="374.0" width="138.0" height="56.0" rx="13" fill="url(#gnode)" stroke="#e2e8f0" stroke-width="1.2"/></g><rect x="58.0" y="374.0" width="138.0" height="5" rx="2.5" fill="url(#gacc)"/><text x="127.0" y="399.0" font-size="13" font-weight="700" fill="#0f172a" text-anchor="middle">south</text><text x="127.0" y="414.0" font-size="11" font-weight="500" fill="#64748b" text-anchor="middle">3 actions</text></a><g filter="url(#sh)"><rect x="704.0" y="333.0" width="138.0" height="56.0" rx="13" fill="#eef2ff" stroke="#7c3aed" stroke-width="1.4"/></g><text x="773.0" y="365.5" font-size="13" font-weight="700" fill="#0f172a" text-anchor="middle">Σ total_treated</text><text x="58.0" y="506.0" font-size="11" font-weight="700" fill="#64748b" letter-spacing="1.6">STATE SCHEMA</text><text x="58.0" y="537.0" font-size="13" font-weight="600" fill="#0f172a">north</text><rect x="262.2" y="525.0" width="43.3" height="21" rx="10.5" fill="#eef2ff"/><text x="270.2" y="538.0" font-size="11" font-weight="600" fill="#3730a3">dict</text><line x1="58.0" y1="546.0" x2="308.0" y2="546.0" stroke="#e2e8f0" stroke-width="1" stroke-dasharray="2 4"/><text x="58.0" y="564.0" font-size="13" font-weight="600" fill="#0f172a">south</text><rect x="262.2" y="552.0" width="43.3" height="21" rx="10.5" fill="#eef2ff"/><text x="270.2" y="565.0" font-size="11" font-weight="600" fill="#3730a3">dict</text><line x1="58.0" y1="573.0" x2="308.0" y2="573.0" stroke="#e2e8f0" stroke-width="1" stroke-dasharray="2 4"/><text x="328.0" y="506.0" font-size="11" font-weight="700" fill="#64748b" letter-spacing="1.6">ACTIONS</text><rect x="328.0" y="520.0" width="164.8" height="22" rx="11.0" fill="#eef2ff"/><text x="336.0" y="534.0" font-size="12" font-weight="600" fill="#3730a3">north:treat_critical</text><rect x="328.0" y="550.0" width="164.8" height="22" rx="11.0" fill="#eef2ff"/><text x="336.0" y="564.0" font-size="12" font-weight="600" fill="#3730a3">north:treat_moderate</text><rect x="328.0" y="580.0" width="90.4" height="22" rx="11.0" fill="#eef2ff"/><text x="336.0" y="594.0" font-size="12" font-weight="600" fill="#3730a3">north:wait</text><rect x="328.0" y="610.0" width="164.8" height="22" rx="11.0" fill="#eef2ff"/><text x="336.0" y="624.0" font-size="12" font-weight="600" fill="#3730a3">south:treat_critical</text><rect x="328.0" y="640.0" width="164.8" height="22" rx="11.0" fill="#eef2ff"/><text x="336.0" y="654.0" font-size="12" font-weight="600" fill="#3730a3">south:treat_moderate</text><rect x="328.0" y="670.0" width="90.4" height="22" rx="11.0" fill="#eef2ff"/><text x="336.0" y="684.0" font-size="12" font-weight="600" fill="#3730a3">south:wait</text><rect x="426.4" y="670.0" width="45.8" height="22" rx="11.0" fill="#eef2ff"/><text x="434.4" y="684.0" font-size="12" font-weight="600" fill="#3730a3">tick</text><text x="328.0" y="722.0" font-size="11" font-weight="700" fill="#64748b" letter-spacing="1.6">DYNAMICS</text><circle cx="337.0" cy="747.0" r="8" fill="none" stroke="#64748b" stroke-width="1.6"/><text x="352.0" y="751.0" font-size="13" font-weight="700" fill="#0f172a">composite dynamics</text><text x="328.0" y="780.0" font-size="11" font-weight="700" fill="#64748b" letter-spacing="1.6">DETAILS</text><circle cx="332.0" cy="794.0" r="2.6" fill="#2563eb"/><text x="342.0" y="798.0" font-size="12" font-weight="600" fill="#0f172a">0 rules</text><circle cx="332.0" cy="813.0" r="2.6" fill="#2563eb"/><text x="342.0" y="817.0" font-size="12" font-weight="600" fill="#0f172a">2 child worlds</text><circle cx="332.0" cy="832.0" r="2.6" fill="#2563eb"/><text x="342.0" y="836.0" font-size="12" font-weight="600" fill="#0f172a">1 bridge</text><text x="570.0" y="506.0" font-size="11" font-weight="700" fill="#64748b" letter-spacing="1.6">SAMPLE ROLLOUT</text><rect x="570.0" y="520.0" width="272.0" height="132" rx="14" fill="#eef2ff" stroke="#e2e8f0" stroke-width="1"/><path class="series" d="M 584.0 638.0 L 584.0 638.0 L 604.3 619.1 L 624.7 600.2 L 645.0 581.3 L 665.3 571.8 L 685.7 562.4 L 706.0 552.9 L 726.3 543.5 L 746.7 534.0 L 767.0 534.0 L 787.3 534.0 L 807.7 534.0 L 828.0 534.0 L 828.0 638.0 Z" fill="url(#garea)"/><polyline class="series" points="584.0,638.0 604.3,619.1 624.7,600.2 645.0,581.3 665.3,571.8 685.7,562.4 706.0,552.9 726.3,543.5 746.7,534.0 767.0,534.0 787.3,534.0 807.7,534.0 828.0,534.0" fill="none" stroke="#2563eb" stroke-width="2.4" stroke-linejoin="round"/><circle cx="828.0" cy="534.0" r="3.2" fill="#2563eb"/><rect x="570.0" y="659.0" width="10" height="10" rx="2.5" fill="#2563eb"/><text x="585.0" y="668.0" font-size="11" font-weight="600" fill="#64748b">total_treated ↑</text><line x1="58" y1="869.0" x2="842" y2="869.0" stroke="#e2e8f0" stroke-width="1"/><text x="58.0" y="889.0" font-size="11" font-weight="500" fill="#64748b">openworld_spec_version 1.0  ·  lineage: composed from triage</text><text x="842.0" y="889.0" font-size="12" font-weight="800" fill="#2563eb" text-anchor="end">OpenWorld</text></svg>