<?xml version="1.0" encoding="UTF-8"?>
<svg xmlns="http://www.w3.org/2000/svg" viewBox="0 0 900 846" width="900" height="846" font-family="-apple-system,BlinkMacSystemFont,Segoe UI,Roboto,Helvetica,Arial,sans-serif"><defs><linearGradient id="gbg" x1="0" y1="0" x2="0" y2="1"><stop offset="0" stop-color="#ffffff"/><stop offset="1" stop-color="#eef2f8"/></linearGradient><linearGradient id="gnode" x1="0" y1="0" x2="0" y2="1"><stop offset="0" stop-color="#ffffff"/><stop offset="1" stop-color="#eef2ff"/></linearGradient><linearGradient id="gacc" x1="0" y1="0" x2="1" y2="0"><stop offset="0" stop-color="#2563eb"/><stop offset="1" stop-color="#7c3aed"/></linearGradient><linearGradient id="garea" x1="0" y1="0" x2="0" y2="1"><stop offset="0" stop-color="#2563eb" stop-opacity="0.34"/><stop offset="1" stop-color="#2563eb" stop-opacity="0"/></linearGradient><filter id="sh" x="-30%" y="-30%" width="160%" height="160%"><feDropShadow dx="0" dy="5" stdDeviation="9" flood-color="#0f172a" flood-opacity="0.16"/></filter><filter id="shsoft" x="-40%" y="-40%" width="180%" height="180%"><feDropShadow dx="0" dy="10" stdDeviation="22" flood-color="#0f172a" flood-opacity="0.16"/></filter><marker id="arr" markerWidth="9" markerHeight="9" refX="6.5" refY="3" orient="auto"><path d="M0,0 L6.5,3 L0,6 Z" fill="#2563eb"/></marker><marker id="arrUp" markerWidth="9" markerHeight="9" refX="3" refY="6.2" orient="auto"><path d="M0,6.2 L3,0 L6,6.2 Z" fill="#7c3aed"/></marker><pattern id="grid" width="24" height="24" patternUnits="userSpaceOnUse"><path d="M24 0 H0 V24" fill="none" stroke="#9fb3d1" stroke-width="0.6" opacity="0.35"/></pattern><pattern id="gridFine" width="6" height="6" patternUnits="userSpaceOnUse"><circle cx="0.7" cy="0.7" r="0.7" fill="#9fb3d1" opacity="0.18"/></pattern><filter id="glow" x="-60%" y="-60%" width="220%" height="220%"><feGaussianBlur stdDeviation="2.4" result="b"/><feMerge><feMergeNode in="b"/><feMergeNode in="SourceGraphic"/></feMerge></filter></defs><rect x="0" y="0" width="900" height="846.0" fill="url(#gbg)"/><g filter="url(#shsoft)"><rect x="26" y="26" width="848" height="794.0" rx="24" fill="url(#gbg)" stroke="#dfe4ec" stroke-width="1"/></g><clipPath id="pc"><rect x="26" y="26" width="848" height="794.0" rx="24"/></clipPath><rect x="26" y="26" width="848" height="794.0" fill="url(#gridFine)" clip-path="url(#pc)"/><rect x="26" y="26" width="848" height="6" rx="3" fill="url(#gacc)"/><path d="M 39 51 L 39 39 L 51 39" fill="none" stroke="#2563eb" stroke-width="1.4" opacity="0.55"/><path d="M 861 51 L 861 39 L 849 39" fill="none" stroke="#2563eb" stroke-width="1.4" opacity="0.55"/><path d="M 39 795 L 39 807 L 51 807" fill="none" stroke="#2563eb" stroke-width="1.4" opacity="0.55"/><path d="M 861 795 L 861 807 L 849 807" fill="none" stroke="#2563eb" stroke-width="1.4" opacity="0.55"/><g transform="translate(73.0,76.0)"><circle r="15" fill="url(#gacc)"/><circle r="15" fill="none" stroke="#ffffff" stroke-opacity="0.55" stroke-width="1.1"/><ellipse rx="6.8" ry="15" fill="none" stroke="#ffffff" stroke-opacity="0.55" stroke-width="1"/><line x1="-15" y1="0" x2="15" y2="0" stroke="#ffffff" stroke-opacity="0.55" stroke-width="1"/><line x1="-12.9" y1="-7.5" x2="12.9" y2="-7.5" stroke="#ffffff" stroke-opacity="0.4" stroke-width="0.9"/><line x1="-12.9" y1="7.5" x2="12.9" y2="7.5" stroke="#ffffff" stroke-opacity="0.4" stroke-width="0.9"/></g><text x="98.0" y="58.0" font-size="9.5" font-weight="700" fill="#2563eb" letter-spacing="2.4" font-family="ui-monospace,SFMono-Regular,Menlo,Consolas,monospace">OPENWORLD · MODEL CARD</text><text x="98.0" y="84.0" font-size="29" font-weight="700" fill="#0f172a" font-family="'Iowan Old Style','Palatino Linotype',Palatino,Georgia,serif">hospital-network</text><text x="58.0" y="104.0" font-size="14" font-weight="500" fill="#64748b">Two triage clinics that transfer critical patients to balance load; treated counts</text><text x="58.0" y="123.0" font-size="14" font-weight="500" fill="#64748b">roll up to the network.</text><rect x="58.0" y="134.0" width="90.4" height="22" rx="11.0" fill="#eef2ff"/><text x="66.0" y="148.0" font-size="12" font-weight="600" fill="#3730a3">healthcare</text><rect x="156.4" y="134.0" width="83.0" height="22" rx="11.0" fill="#eef2ff"/><text x="164.4" y="148.0" font-size="12" font-weight="600" fill="#3730a3">composite</text><rect x="247.4" y="134.0" width="97.8" height="22" rx="11.0" fill="#eef2ff"/><text x="255.4" y="148.0" font-size="12" font-weight="600" fill="#3730a3">multi-world</text><rect x="817.7" y="48.0" width="38.3" height="22" rx="11.0" fill="#eef2ff"/><text x="825.7" y="62.0" font-size="12" font-weight="600" fill="#059669">MIT</text><rect x="763.9" y="48.0" width="45.8" height="22" rx="11.0" fill="#eef2ff"/><text x="771.9" y="62.0" font-size="12" font-weight="600" fill="#3730a3">v0.9</text><line x1="58" y1="182.0" x2="842" y2="182.0" stroke="#e2e8f0" stroke-width="1"/><rect x="58" y="220.0" width="784" height="208.0" rx="16" fill="#eef2ff" fill-opacity="0.5" stroke="#e2e8f0" stroke-width="1"/><text x="58.0" y="208.0" font-size="11" font-weight="700" fill="#64748b" letter-spacing="1.6" font-family="ui-monospace,SFMono-Regular,Menlo,Consolas,monospace">WORLD OF WORLDS</text><g transform="translate(239.0,226.0) scale(1.0000)"><g filter="url(#shsoft)"><rect x="0.0" y="0.0" width="422.0" height="192.0" rx="18" fill="#ffffff" fill-opacity="0.62" stroke="#2563eb" stroke-width="1.7"/></g><rect x="0.0" y="0.0" width="422.0" height="6" rx="3" fill="#2563eb"/><text x="20.0" y="31.0" font-size="16" font-weight="700" fill="#0f172a" font-family="'Iowan Old Style','Palatino Linotype',Palatino,Georgia,serif">hospital-network</text><text x="20.0" y="46.0" font-size="9.5" font-weight="600" fill="#64748b" font-family="ui-monospace,SFMono-Regular,Menlo,Consolas,monospace">composite · 2 worlds</text><a href="triage.svg"><g filter="url(#sh)"><rect x="20.0" y="52.0" width="176" height="104" rx="13" fill="url(#gnode)" stroke="#e2e8f0" stroke-width="1.1"/></g><rect x="20.0" y="52.0" width="176" height="5" rx="2.5" fill="#2563eb"/><text x="33.0" y="77.0" font-size="13.5" font-weight="700" fill="#0f172a" font-family="'Iowan Old Style','Palatino Linotype',Palatino,Georgia,serif">triage</text><text x="33.0" y="97.0" font-size="10" font-weight="500" fill="#64748b" font-family="ui-monospace,SFMono-Regular,Menlo,Consolas,monospace">tick: int</text><text x="33.0" y="112.0" font-size="10" font-weight="500" fill="#64748b" font-family="ui-monospace,SFMono-Regular,Menlo,Consolas,monospace">critical_waiting: int</text><text x="33.0" y="127.0" font-size="10" font-weight="500" fill="#64748b" font-family="ui-monospace,SFMono-Regular,Menlo,Consolas,monospace">moderate_waiting: int</text><text x="33.0" y="142.0" font-size="10" font-weight="500" fill="#64748b" font-family="ui-monospace,SFMono-Regular,Menlo,Consolas,monospace">+4 more</text><text x="33.0" y="145.0" font-size="9.5" font-weight="600" fill="#2563eb" font-family="ui-monospace,SFMono-Regular,Menlo,Consolas,monospace">3 actions</text><circle cx="181.0" cy="142.0" r="3" fill="#059669"/></a><a href="triage.svg"><g filter="url(#sh)"><rect x="226.0" y="52.0" width="176" height="104" rx="13" fill="url(#gnode)" stroke="#e2e8f0" stroke-width="1.1"/></g><rect x="226.0" y="52.0" width="176" height="5" rx="2.5" fill="#2563eb"/><text x="239.0" y="77.0" font-size="13.5" font-weight="700" fill="#0f172a" font-family="'Iowan Old Style','Palatino Linotype',Palatino,Georgia,serif">triage</text><text x="239.0" y="97.0" font-size="10" font-weight="500" fill="#64748b" font-family="ui-monospace,SFMono-Regular,Menlo,Consolas,monospace">tick: int</text><text x="239.0" y="112.0" font-size="10" font-weight="500" fill="#64748b" font-family="ui-monospace,SFMono-Regular,Menlo,Consolas,monospace">critical_waiting: int</text><text x="239.0" y="127.0" font-size="10" font-weight="500" fill="#64748b" font-family="ui-monospace,SFMono-Regular,Menlo,Consolas,monospace">moderate_waiting: int</text><text x="239.0" y="142.0" font-size="10" font-weight="500" fill="#64748b" font-family="ui-monospace,SFMono-Regular,Menlo,Consolas,monospace">+4 more</text><text x="239.0" y="145.0" font-size="9.5" font-weight="600" fill="#2563eb" font-family="ui-monospace,SFMono-Regular,Menlo,Consolas,monospace">3 actions</text><circle cx="387.0" cy="142.0" r="3" fill="#059669"/></a><path d="M 196.0 104.0 C 211.0 104.0, 211.0 104.0, 226.0 104.0" fill="none" stroke="#2563eb" stroke-width="1.9" marker-end="url(#arr)" marker-start="url(#arr)"/><rect x="182.0" y="85.0" width="58.0" height="15" rx="7.5" fill="#ffffff" stroke="#e2e8f0" stroke-width="0.8"/><text x="211.0" y="96.0" font-size="9.5" font-weight="600" fill="#2563eb" text-anchor="middle">transfer</text><rect x="290.0" y="14.0" width="112.0" height="21" rx="10.5" fill="#eef2ff" stroke="#7c3aed" stroke-width="1.1"/><text x="298.0" y="29.0" font-size="10" font-weight="700" fill="#7c3aed" font-family="ui-monospace,SFMono-Regular,Menlo,Consolas,monospace">Σ total_treated</text><path d="M 108.0 52.0 L 346.0 35.0" fill="none" stroke="#7c3aed" stroke-width="1" stroke-dasharray="3 3" opacity="0.45" marker-end="url(#arrUp)"/><path d="M 314.0 52.0 L 346.0 35.0" fill="none" stroke="#7c3aed" stroke-width="1" stroke-dasharray="3 3" opacity="0.45" marker-end="url(#arrUp)"/></g><rect x="58.0" y="444.0" width="3" height="11" rx="1.5" fill="#2563eb"/><text x="67.0" y="453.0" font-size="10.5" font-weight="700" fill="#64748b" letter-spacing="1.8" font-family="ui-monospace,SFMono-Regular,Menlo,Consolas,monospace">STATE SCHEMA</text><rect x="54.0" y="467.0" width="258.0" height="24" rx="6" fill="#2563eb" fill-opacity="0.035"/><text x="62.0" y="483.0" font-size="12" font-weight="600" fill="#0f172a" font-family="ui-monospace,SFMono-Regular,Menlo,Consolas,monospace">north</text><rect x="267.2" y="471.0" width="40.8" height="17" rx="5" fill="#eef2ff"/><text x="274.2" y="483.0" font-size="10.5" font-weight="700" fill="#2563eb" font-family="ui-monospace,SFMono-Regular,Menlo,Consolas,monospace">dict</text><text x="62.0" y="509.0" font-size="12" font-weight="600" fill="#0f172a" font-family="ui-monospace,SFMono-Regular,Menlo,Consolas,monospace">south</text><rect x="267.2" y="497.0" width="40.8" height="17" rx="5" fill="#eef2ff"/><text x="274.2" y="509.0" font-size="10.5" font-weight="700" fill="#2563eb" font-family="ui-monospace,SFMono-Regular,Menlo,Consolas,monospace">dict</text><rect x="328.0" y="444.0" width="3" height="11" rx="1.5" fill="#2563eb"/><text x="337.0" y="453.0" font-size="10.5" font-weight="700" fill="#64748b" letter-spacing="1.8" font-family="ui-monospace,SFMono-Regular,Menlo,Consolas,monospace">ACTIONS</text><rect x="328.0" y="468.0" width="148.0" height="20" rx="6" fill="#eef2ff" stroke="#2563eb" stroke-width="1" stroke-opacity="0.16"/><text x="337.0" y="482.0" font-size="10.5" font-weight="600" fill="#3730a3" font-family="ui-monospace,SFMono-Regular,Menlo,Consolas,monospace">north:treat_critical</text><rect x="328.0" y="494.0" width="148.0" height="20" rx="6" fill="#eef2ff" stroke="#2563eb" stroke-width="1" stroke-opacity="0.16"/><text x="337.0" y="508.0" font-size="10.5" font-weight="600" fill="#3730a3" font-family="ui-monospace,SFMono-Regular,Menlo,Consolas,monospace">north:treat_moderate</text><rect x="328.0" y="520.0" width="83.0" height="20" rx="6" fill="#eef2ff" stroke="#2563eb" stroke-width="1" stroke-opacity="0.16"/><text x="337.0" y="534.0" font-size="10.5" font-weight="600" fill="#3730a3" font-family="ui-monospace,SFMono-Regular,Menlo,Consolas,monospace">north:wait</text><rect x="328.0" y="546.0" width="148.0" height="20" rx="6" fill="#eef2ff" stroke="#2563eb" stroke-width="1" stroke-opacity="0.16"/><text x="337.0" y="560.0" font-size="10.5" font-weight="600" fill="#3730a3" font-family="ui-monospace,SFMono-Regular,Menlo,Consolas,monospace">south:treat_critical</text><rect x="328.0" y="572.0" width="148.0" height="20" rx="6" fill="#eef2ff" stroke="#2563eb" stroke-width="1" stroke-opacity="0.16"/><text x="337.0" y="586.0" font-size="10.5" font-weight="600" fill="#3730a3" font-family="ui-monospace,SFMono-Regular,Menlo,Consolas,monospace">south:treat_moderate</text><rect x="328.0" y="598.0" width="83.0" height="20" rx="6" fill="#eef2ff" stroke="#2563eb" stroke-width="1" stroke-opacity="0.16"/><text x="337.0" y="612.0" font-size="10.5" font-weight="600" fill="#3730a3" font-family="ui-monospace,SFMono-Regular,Menlo,Consolas,monospace">south:wait</text><rect x="418.0" y="598.0" width="44.0" height="20" rx="6" fill="#eef2ff" stroke="#2563eb" stroke-width="1" stroke-opacity="0.16"/><text x="427.0" y="612.0" font-size="10.5" font-weight="600" fill="#3730a3" font-family="ui-monospace,SFMono-Regular,Menlo,Consolas,monospace">tick</text><rect x="328.0" y="640.0" width="3" height="11" rx="1.5" fill="#2563eb"/><text x="337.0" y="649.0" font-size="10.5" font-weight="700" fill="#64748b" letter-spacing="1.8" font-family="ui-monospace,SFMono-Regular,Menlo,Consolas,monospace">DYNAMICS</text><circle cx="337.0" cy="670.0" r="8" fill="none" stroke="#64748b" stroke-width="1.6"/><text x="352.0" y="674.0" font-size="12.5" font-weight="700" fill="#0f172a">composite dynamics</text><rect x="328.0" y="694.0" width="3" height="11" rx="1.5" fill="#2563eb"/><text x="337.0" y="703.0" font-size="10.5" font-weight="700" fill="#64748b" letter-spacing="1.8" font-family="ui-monospace,SFMono-Regular,Menlo,Consolas,monospace">DETAILS</text><circle cx="332.0" cy="714.0" r="2.4" fill="#2563eb"/><text x="341.0" y="718.0" font-size="11.5" font-weight="600" fill="#0f172a" font-family="ui-monospace,SFMono-Regular,Menlo,Consolas,monospace">0 rules</text><circle cx="332.0" cy="733.0" r="2.4" fill="#2563eb"/><text x="341.0" y="737.0" font-size="11.5" font-weight="600" fill="#0f172a" font-family="ui-monospace,SFMono-Regular,Menlo,Consolas,monospace">2 child worlds</text><circle cx="332.0" cy="752.0" r="2.4" fill="#2563eb"/><text x="341.0" y="756.0" font-size="11.5" font-weight="600" fill="#0f172a" font-family="ui-monospace,SFMono-Regular,Menlo,Consolas,monospace">1 bridge</text><circle cx="332.0" cy="771.0" r="2.4" fill="#2563eb"/><text x="341.0" y="775.0" font-size="11.5" font-weight="600" fill="#0f172a" font-family="ui-monospace,SFMono-Regular,Menlo,Consolas,monospace">1 aggregator</text><rect x="570.0" y="444.0" width="3" height="11" rx="1.5" fill="#2563eb"/><text x="579.0" y="453.0" font-size="10.5" font-weight="700" fill="#64748b" letter-spacing="1.8" font-family="ui-monospace,SFMono-Regular,Menlo,Consolas,monospace">SAMPLE ROLLOUT</text><rect x="570.0" y="466.0" width="272.0" height="124" rx="12" fill="#eef2ff" stroke="#e2e8f0" stroke-width="1"/><line x1="586.0" y1="505.0" x2="826.0" y2="505.0" stroke="#e2e8f0" stroke-width="0.8" stroke-dasharray="1 5" opacity="0.7"/><line x1="586.0" y1="528.0" x2="826.0" y2="528.0" stroke="#e2e8f0" stroke-width="0.8" stroke-dasharray="1 5" opacity="0.7"/><line x1="586.0" y1="551.0" x2="826.0" y2="551.0" stroke="#e2e8f0" stroke-width="0.8" stroke-dasharray="1 5" opacity="0.7"/><path class="series" d="M 586.0 574.0 L 586.0 574.0 L 606.0 557.3 L 626.0 540.5 L 646.0 523.8 L 666.0 515.5 L 686.0 507.1 L 706.0 498.7 L 726.0 490.4 L 746.0 482.0 L 766.0 482.0 L 786.0 482.0 L 806.0 482.0 L 826.0 482.0 L 826.0 574.0 Z" fill="url(#garea)"/><polyline class="series" points="586.0,574.0 606.0,557.3 626.0,540.5 646.0,523.8 666.0,515.5 686.0,507.1 706.0,498.7 726.0,490.4 746.0,482.0 766.0,482.0 786.0,482.0 806.0,482.0 826.0,482.0" fill="none" stroke="#2563eb" stroke-width="2.4" stroke-linejoin="round"/><circle cx="826.0" cy="482.0" r="3.4" fill="#2563eb"/><text x="822.0" y="474.0" font-size="9.5" font-weight="700" fill="#2563eb" text-anchor="end" font-family="ui-monospace,SFMono-Regular,Menlo,Consolas,monospace">11</text><rect x="572.0" y="597.0" width="9" height="9" rx="2" fill="#2563eb"/><text x="586.0" y="606.0" font-size="10.5" font-weight="600" fill="#64748b" font-family="ui-monospace,SFMono-Regular,Menlo,Consolas,monospace">total_treated ↑</text><line x1="58" y1="808.0" x2="842" y2="808.0" stroke="#e2e8f0" stroke-width="1"/><text x="58.0" y="828.0" font-size="11" font-weight="500" fill="#64748b">openworld_spec_version 1.0  ·  lineage: composed from triage</text><text x="842.0" y="828.0" font-size="12" font-weight="800" fill="#2563eb" text-anchor="end">OpenWorld</text></svg>