<?xml version="1.0" encoding="UTF-8"?>
<svg xmlns="http://www.w3.org/2000/svg" viewBox="0 0 900 847" width="900" height="847" font-family="-apple-system,BlinkMacSystemFont,Segoe UI,Roboto,Helvetica,Arial,sans-serif"><defs><linearGradient id="gbg" x1="0" y1="0" x2="0" y2="1"><stop offset="0" stop-color="#ffffff"/><stop offset="1" stop-color="#eef2f8"/></linearGradient><linearGradient id="gnode" x1="0" y1="0" x2="0" y2="1"><stop offset="0" stop-color="#ffffff"/><stop offset="1" stop-color="#eef2ff"/></linearGradient><linearGradient id="gacc" x1="0" y1="0" x2="1" y2="0"><stop offset="0" stop-color="#2563eb"/><stop offset="1" stop-color="#7c3aed"/></linearGradient><linearGradient id="garea" x1="0" y1="0" x2="0" y2="1"><stop offset="0" stop-color="#2563eb" stop-opacity="0.34"/><stop offset="1" stop-color="#2563eb" stop-opacity="0"/></linearGradient><filter id="sh" x="-30%" y="-30%" width="160%" height="160%"><feDropShadow dx="0" dy="5" stdDeviation="9" flood-color="#0f172a" flood-opacity="0.16"/></filter><filter id="shsoft" x="-40%" y="-40%" width="180%" height="180%"><feDropShadow dx="0" dy="10" stdDeviation="22" flood-color="#0f172a" flood-opacity="0.16"/></filter><marker id="arr" markerWidth="9" markerHeight="9" refX="6.5" refY="3" orient="auto"><path d="M0,0 L6.5,3 L0,6 Z" fill="#2563eb"/></marker><marker id="arrUp" markerWidth="9" markerHeight="9" refX="3" refY="6.2" orient="auto"><path d="M0,6.2 L3,0 L6,6.2 Z" fill="#7c3aed"/></marker><pattern id="grid" width="24" height="24" patternUnits="userSpaceOnUse"><path d="M24 0 H0 V24" fill="none" stroke="#9fb3d1" stroke-width="0.6" opacity="0.35"/></pattern><pattern id="gridFine" width="6" height="6" patternUnits="userSpaceOnUse"><circle cx="0.7" cy="0.7" r="0.7" fill="#9fb3d1" opacity="0.18"/></pattern><filter id="glow" x="-60%" y="-60%" width="220%" height="220%"><feGaussianBlur stdDeviation="2.4" result="b"/><feMerge><feMergeNode in="b"/><feMergeNode in="SourceGraphic"/></feMerge></filter></defs><rect x="0" y="0" width="900" height="847.0" fill="url(#gbg)"/><g filter="url(#shsoft)"><rect x="26" y="26" width="848" height="795.0" rx="24" fill="url(#gbg)" stroke="#dfe4ec" stroke-width="1"/></g><clipPath id="pc"><rect x="26" y="26" width="848" height="795.0" rx="24"/></clipPath><rect x="26" y="26" width="848" height="795.0" fill="url(#gridFine)" clip-path="url(#pc)"/><rect x="26" y="26" width="848" height="6" rx="3" fill="url(#gacc)"/><path d="M 39 51 L 39 39 L 51 39" fill="none" stroke="#2563eb" stroke-width="1.4" opacity="0.55"/><path d="M 861 51 L 861 39 L 849 39" fill="none" stroke="#2563eb" stroke-width="1.4" opacity="0.55"/><path d="M 39 796 L 39 808 L 51 808" fill="none" stroke="#2563eb" stroke-width="1.4" opacity="0.55"/><path d="M 861 796 L 861 808 L 849 808" fill="none" stroke="#2563eb" stroke-width="1.4" opacity="0.55"/><g transform="translate(73.0,76.0)"><circle r="15" fill="url(#gacc)"/><circle r="15" fill="none" stroke="#ffffff" stroke-opacity="0.55" stroke-width="1.1"/><ellipse rx="6.8" ry="15" fill="none" stroke="#ffffff" stroke-opacity="0.55" stroke-width="1"/><line x1="-15" y1="0" x2="15" y2="0" stroke="#ffffff" stroke-opacity="0.55" stroke-width="1"/><line x1="-12.9" y1="-7.5" x2="12.9" y2="-7.5" stroke="#ffffff" stroke-opacity="0.4" stroke-width="0.9"/><line x1="-12.9" y1="7.5" x2="12.9" y2="7.5" stroke="#ffffff" stroke-opacity="0.4" stroke-width="0.9"/></g><text x="98.0" y="58.0" font-size="9.5" font-weight="700" fill="#2563eb" letter-spacing="2.4" font-family="ui-monospace,SFMono-Regular,Menlo,Consolas,monospace">OPENWORLD · MODEL CARD</text><text x="98.0" y="84.0" font-size="29" font-weight="700" fill="#0f172a" font-family="'Iowan Old Style','Palatino Linotype',Palatino,Georgia,serif">hospital-network</text><text x="58.0" y="104.0" font-size="14" font-weight="500" fill="#64748b">Two triage clinics that transfer critical patients to balance load; treated counts</text><text x="58.0" y="123.0" font-size="14" font-weight="500" fill="#64748b">roll up to the network.</text><rect x="58.0" y="134.0" width="90.4" height="22" rx="11.0" fill="#eef2ff"/><text x="66.0" y="148.0" font-size="12" font-weight="600" fill="#3730a3">healthcare</text><rect x="156.4" y="134.0" width="83.0" height="22" rx="11.0" fill="#eef2ff"/><text x="164.4" y="148.0" font-size="12" font-weight="600" fill="#3730a3">composite</text><rect x="247.4" y="134.0" width="97.8" height="22" rx="11.0" fill="#eef2ff"/><text x="255.4" y="148.0" font-size="12" font-weight="600" fill="#3730a3">multi-world</text><rect x="817.7" y="48.0" width="38.3" height="22" rx="11.0" fill="#eef2ff"/><text x="825.7" y="62.0" font-size="12" font-weight="600" fill="#059669">MIT</text><rect x="763.9" y="48.0" width="45.8" height="22" rx="11.0" fill="#eef2ff"/><text x="771.9" y="62.0" font-size="12" font-weight="600" fill="#3730a3">v0.9</text><line x1="58" y1="182.0" x2="842" y2="182.0" stroke="#e2e8f0" stroke-width="1"/><rect x="58" y="220.0" width="784" height="208.0" rx="16" fill="#eef2ff" fill-opacity="0.5" stroke="#e2e8f0" stroke-width="1"/><text x="58.0" y="208.0" font-size="11" font-weight="700" fill="#64748b" letter-spacing="1.6" font-family="ui-monospace,SFMono-Regular,Menlo,Consolas,monospace">WORLD OF WORLDS</text><g transform="translate(239.0,226.0) scale(1.0000)"><g filter="url(#shsoft)"><rect x="0.0" y="0.0" width="422.0" height="192.0" rx="18" fill="#ffffff" fill-opacity="0.62" stroke="#2563eb" stroke-width="1.7"/></g><rect x="0.0" y="0.0" width="422.0" height="6" rx="3" fill="#2563eb"/><text x="20.0" y="31.0" font-size="16" font-weight="700" fill="#0f172a" font-family="'Iowan Old Style','Palatino Linotype',Palatino,Georgia,serif">hospital-network</text><text x="20.0" y="46.0" font-size="9.5" font-weight="600" fill="#64748b" font-family="ui-monospace,SFMono-Regular,Menlo,Consolas,monospace">composite · 2 worlds</text><a href="triage.svg"><g filter="url(#sh)"><rect x="20.0" y="52.0" width="176" height="104" rx="13" fill="url(#gnode)" stroke="#e2e8f0" stroke-width="1.1"/></g><rect x="20.0" y="52.0" width="176" height="5" rx="2.5" fill="#2563eb"/><text x="33.0" y="77.0" font-size="13.5" font-weight="700" fill="#0f172a" font-family="'Iowan Old Style','Palatino Linotype',Palatino,Georgia,serif">triage</text><text x="33.0" y="97.0" font-size="10" font-weight="500" fill="#64748b" font-family="ui-monospace,SFMono-Regular,Menlo,Consolas,monospace">tick: int</text><text x="33.0" y="112.0" font-size="10" font-weight="500" fill="#64748b" font-family="ui-monospace,SFMono-Regular,Menlo,Consolas,monospace">critical_waiting: int</text><text x="33.0" y="127.0" font-size="10" font-weight="500" fill="#64748b" font-family="ui-monospace,SFMono-Regular,Menlo,Consolas,monospace">moderate_waiting: int</text><text x="33.0" y="142.0" font-size="10" font-weight="500" fill="#64748b" font-family="ui-monospace,SFMono-Regular,Menlo,Consolas,monospace">+4 more</text><text x="33.0" y="145.0" font-size="9.5" font-weight="600" fill="#2563eb" font-family="ui-monospace,SFMono-Regular,Menlo,Consolas,monospace">3 actions</text><circle cx="181.0" cy="142.0" r="3" fill="#059669"/></a><a href="triage.svg"><g filter="url(#sh)"><rect x="226.0" y="52.0" width="176" height="104" rx="13" fill="url(#gnode)" stroke="#e2e8f0" stroke-width="1.1"/></g><rect x="226.0" y="52.0" width="176" height="5" rx="2.5" fill="#2563eb"/><text x="239.0" y="77.0" font-size="13.5" font-weight="700" fill="#0f172a" font-family="'Iowan Old Style','Palatino Linotype',Palatino,Georgia,serif">triage</text><text x="239.0" y="97.0" font-size="10" font-weight="500" fill="#64748b" font-family="ui-monospace,SFMono-Regular,Menlo,Consolas,monospace">tick: int</text><text x="239.0" y="112.0" font-size="10" font-weight="500" fill="#64748b" font-family="ui-monospace,SFMono-Regular,Menlo,Consolas,monospace">critical_waiting: int</text><text x="239.0" y="127.0" font-size="10" font-weight="500" fill="#64748b" font-family="ui-monospace,SFMono-Regular,Menlo,Consolas,monospace">moderate_waiting: int</text><text x="239.0" y="142.0" font-size="10" font-weight="500" fill="#64748b" font-family="ui-monospace,SFMono-Regular,Menlo,Consolas,monospace">+4 more</text><text x="239.0" y="145.0" font-size="9.5" font-weight="600" fill="#2563eb" font-family="ui-monospace,SFMono-Regular,Menlo,Consolas,monospace">3 actions</text><circle cx="387.0" cy="142.0" r="3" fill="#059669"/></a><path d="M 196.0 104.0 C 211.0 104.0, 211.0 104.0, 226.0 104.0" fill="none" stroke="#2563eb" stroke-width="1.9" marker-end="url(#arr)" marker-start="url(#arr)"/><rect x="182.0" y="85.0" width="58.0" height="15" rx="7.5" fill="#ffffff" stroke="#e2e8f0" stroke-width="0.8"/><text x="211.0" y="96.0" font-size="9.5" font-weight="600" fill="#2563eb" text-anchor="middle">transfer</text><rect x="290.0" y="14.0" width="112.0" height="21" rx="10.5" fill="#eef2ff" stroke="#7c3aed" stroke-width="1.1"/><text x="298.0" y="29.0" font-size="10" font-weight="700" fill="#7c3aed" font-family="ui-monospace,SFMono-Regular,Menlo,Consolas,monospace">Σ total_treated</text><path d="M 108.0 52.0 L 346.0 35.0" fill="none" stroke="#7c3aed" stroke-width="1" stroke-dasharray="3 3" opacity="0.45" marker-end="url(#arrUp)"/><path d="M 314.0 52.0 L 346.0 35.0" fill="none" stroke="#7c3aed" stroke-width="1" stroke-dasharray="3 3" opacity="0.45" marker-end="url(#arrUp)"/></g><text x="58.0" y="446.0" font-size="11" font-weight="700" fill="#64748b" letter-spacing="1.6">STATE SCHEMA</text><text x="58.0" y="477.0" font-size="13" font-weight="600" fill="#0f172a">north</text><rect x="262.2" y="465.0" width="43.3" height="21" rx="10.5" fill="#eef2ff"/><text x="270.2" y="478.0" font-size="11" font-weight="600" fill="#3730a3">dict</text><line x1="58.0" y1="486.0" x2="308.0" y2="486.0" stroke="#e2e8f0" stroke-width="1" stroke-dasharray="2 4"/><text x="58.0" y="504.0" font-size="13" font-weight="600" fill="#0f172a">south</text><rect x="262.2" y="492.0" width="43.3" height="21" rx="10.5" fill="#eef2ff"/><text x="270.2" y="505.0" font-size="11" font-weight="600" fill="#3730a3">dict</text><line x1="58.0" y1="513.0" x2="308.0" y2="513.0" stroke="#e2e8f0" stroke-width="1" stroke-dasharray="2 4"/><text x="328.0" y="446.0" font-size="11" font-weight="700" fill="#64748b" letter-spacing="1.6">ACTIONS</text><rect x="328.0" y="460.0" width="164.8" height="22" rx="11.0" fill="#eef2ff"/><text x="336.0" y="474.0" font-size="12" font-weight="600" fill="#3730a3">north:treat_critical</text><rect x="328.0" y="490.0" width="164.8" height="22" rx="11.0" fill="#eef2ff"/><text x="336.0" y="504.0" font-size="12" font-weight="600" fill="#3730a3">north:treat_moderate</text><rect x="328.0" y="520.0" width="90.4" height="22" rx="11.0" fill="#eef2ff"/><text x="336.0" y="534.0" font-size="12" font-weight="600" fill="#3730a3">north:wait</text><rect x="328.0" y="550.0" width="164.8" height="22" rx="11.0" fill="#eef2ff"/><text x="336.0" y="564.0" font-size="12" font-weight="600" fill="#3730a3">south:treat_critical</text><rect x="328.0" y="580.0" width="164.8" height="22" rx="11.0" fill="#eef2ff"/><text x="336.0" y="594.0" font-size="12" font-weight="600" fill="#3730a3">south:treat_moderate</text><rect x="328.0" y="610.0" width="90.4" height="22" rx="11.0" fill="#eef2ff"/><text x="336.0" y="624.0" font-size="12" font-weight="600" fill="#3730a3">south:wait</text><rect x="426.4" y="610.0" width="45.8" height="22" rx="11.0" fill="#eef2ff"/><text x="434.4" y="624.0" font-size="12" font-weight="600" fill="#3730a3">tick</text><text x="328.0" y="662.0" font-size="11" font-weight="700" fill="#64748b" letter-spacing="1.6">DYNAMICS</text><circle cx="337.0" cy="687.0" r="8" fill="none" stroke="#64748b" stroke-width="1.6"/><text x="352.0" y="691.0" font-size="13" font-weight="700" fill="#0f172a">composite dynamics</text><text x="328.0" y="720.0" font-size="11" font-weight="700" fill="#64748b" letter-spacing="1.6">DETAILS</text><circle cx="332.0" cy="734.0" r="2.6" fill="#2563eb"/><text x="342.0" y="738.0" font-size="12" font-weight="600" fill="#0f172a">0 rules</text><circle cx="332.0" cy="753.0" r="2.6" fill="#2563eb"/><text x="342.0" y="757.0" font-size="12" font-weight="600" fill="#0f172a">2 child worlds</text><circle cx="332.0" cy="772.0" r="2.6" fill="#2563eb"/><text x="342.0" y="776.0" font-size="12" font-weight="600" fill="#0f172a">1 bridge</text><text x="570.0" y="446.0" font-size="11" font-weight="700" fill="#64748b" letter-spacing="1.6">SAMPLE ROLLOUT</text><rect x="570.0" y="460.0" width="272.0" height="132" rx="14" fill="#eef2ff" stroke="#e2e8f0" stroke-width="1"/><path class="series" d="M 584.0 578.0 L 584.0 578.0 L 604.3 559.1 L 624.7 540.2 L 645.0 521.3 L 665.3 511.8 L 685.7 502.4 L 706.0 492.9 L 726.3 483.5 L 746.7 474.0 L 767.0 474.0 L 787.3 474.0 L 807.7 474.0 L 828.0 474.0 L 828.0 578.0 Z" fill="url(#garea)"/><polyline class="series" points="584.0,578.0 604.3,559.1 624.7,540.2 645.0,521.3 665.3,511.8 685.7,502.4 706.0,492.9 726.3,483.5 746.7,474.0 767.0,474.0 787.3,474.0 807.7,474.0 828.0,474.0" fill="none" stroke="#2563eb" stroke-width="2.4" stroke-linejoin="round"/><circle cx="828.0" cy="474.0" r="3.2" fill="#2563eb"/><rect x="570.0" y="599.0" width="10" height="10" rx="2.5" fill="#2563eb"/><text x="585.0" y="608.0" font-size="11" font-weight="600" fill="#64748b">total_treated ↑</text><line x1="58" y1="809.0" x2="842" y2="809.0" stroke="#e2e8f0" stroke-width="1"/><text x="58.0" y="829.0" font-size="11" font-weight="500" fill="#64748b">openworld_spec_version 1.0  ·  lineage: composed from triage</text><text x="842.0" y="829.0" font-size="12" font-weight="800" fill="#2563eb" text-anchor="end">OpenWorld</text></svg>