<?xml version="1.0" encoding="UTF-8"?>
<svg xmlns="http://www.w3.org/2000/svg" xmlns:xlink="http://www.w3.org/1999/xlink" viewBox="0 0 918 462" width="918" height="462" font-family="-apple-system,BlinkMacSystemFont,Segoe UI,Roboto,Helvetica,Arial,sans-serif"><defs><linearGradient id="gbg" x1="0" y1="0" x2="0" y2="1"><stop offset="0" stop-color="#ffffff"/><stop offset="1" stop-color="#eef2f8"/></linearGradient><linearGradient id="gnode" x1="0" y1="0" x2="0" y2="1"><stop offset="0" stop-color="#ffffff"/><stop offset="1" stop-color="#eef2ff"/></linearGradient><linearGradient id="gacc" x1="0" y1="0" x2="1" y2="0"><stop offset="0" stop-color="#2563eb"/><stop offset="1" stop-color="#7c3aed"/></linearGradient><linearGradient id="garea" x1="0" y1="0" x2="0" y2="1"><stop offset="0" stop-color="#2563eb" stop-opacity="0.34"/><stop offset="1" stop-color="#2563eb" stop-opacity="0"/></linearGradient><filter id="sh" x="-30%" y="-30%" width="160%" height="160%"><feDropShadow dx="0" dy="5" stdDeviation="9" flood-color="#0f172a" flood-opacity="0.16"/></filter><filter id="shsoft" x="-40%" y="-40%" width="180%" height="180%"><feDropShadow dx="0" dy="10" stdDeviation="22" flood-color="#0f172a" flood-opacity="0.16"/></filter><marker id="arr" markerWidth="9" markerHeight="9" refX="6.5" refY="3" orient="auto"><path d="M0,0 L6.5,3 L0,6 Z" fill="#2563eb"/></marker></defs><rect x="0" y="0" width="918" height="462" fill="url(#gbg)"/><g transform="translate(44.0,50.0)"><circle r="16" fill="url(#gacc)"/><circle r="16" fill="none" stroke="#ffffff" stroke-opacity="0.55" stroke-width="1.1"/><ellipse rx="7.2" ry="16" fill="none" stroke="#ffffff" stroke-opacity="0.55" stroke-width="1"/><line x1="-16" y1="0" x2="16" y2="0" stroke="#ffffff" stroke-opacity="0.55" stroke-width="1"/><line x1="-13.8" y1="-8.0" x2="13.8" y2="-8.0" stroke="#ffffff" stroke-opacity="0.4" stroke-width="0.9"/><line x1="-13.8" y1="8.0" x2="13.8" y2="8.0" stroke="#ffffff" stroke-opacity="0.4" stroke-width="0.9"/></g><text x="70.0" y="56.0" font-size="26" font-weight="800" fill="#0f172a">OpenWorld model gallery</text><text x="70.0" y="76.0" font-size="13" font-weight="600" fill="#64748b">4 world models</text><a href="sprint.svg"><g filter="url(#sh)"><rect x="32" y="92" width="270" height="150" rx="16" fill="url(#gnode)" stroke="#e2e8f0" stroke-width="1"/></g><rect x="32" y="92" width="270" height="5" rx="2.5" fill="url(#gacc)"/><g transform="translate(56.0,128.0)"><circle r="12" fill="url(#gacc)"/><circle r="12" fill="none" stroke="#ffffff" stroke-opacity="0.55" stroke-width="1.1"/><ellipse rx="5.4" ry="12" fill="none" stroke="#ffffff" stroke-opacity="0.55" stroke-width="1"/><line x1="-12" y1="0" x2="12" y2="0" stroke="#ffffff" stroke-opacity="0.55" stroke-width="1"/><line x1="-10.3" y1="-6.0" x2="10.3" y2="-6.0" stroke="#ffffff" stroke-opacity="0.4" stroke-width="0.9"/><line x1="-10.3" y1="6.0" x2="10.3" y2="6.0" stroke="#ffffff" stroke-opacity="0.4" stroke-width="0.9"/></g><text x="76.0" y="132.0" font-size="17" font-weight="800" fill="#0f172a">sprint</text><text x="50.0" y="158.0" font-size="12" font-weight="600" fill="#64748b">leaf world</text><rect x="50.0" y="172.0" width="91.0" height="21" rx="10.5" fill="#eef2ff"/><text x="58.0" y="185.0" font-size="11" font-weight="600" fill="#3730a3">engineering</text><rect x="148.0" y="172.0" width="70.6" height="21" rx="10.5" fill="#eef2ff"/><text x="156.0" y="185.0" font-size="11" font-weight="600" fill="#3730a3">verified</text><rect x="225.6" y="172.0" width="43.3" height="21" rx="10.5" fill="#eef2ff"/><text x="233.6" y="185.0" font-size="11" font-weight="600" fill="#3730a3">leaf</text><text x="50.0" y="226.0" font-size="11.5" font-weight="700" fill="#64748b">v1.0</text><text x="284.0" y="226.0" font-size="11.5" font-weight="700" fill="#059669" text-anchor="end">MIT</text></a><a href="triage.svg"><g filter="url(#sh)"><rect x="324" y="92" width="270" height="150" rx="16" fill="url(#gnode)" stroke="#e2e8f0" stroke-width="1"/></g><rect x="324" y="92" width="270" height="5" rx="2.5" fill="url(#gacc)"/><g transform="translate(348.0,128.0)"><circle r="12" fill="url(#gacc)"/><circle r="12" fill="none" stroke="#ffffff" stroke-opacity="0.55" stroke-width="1.1"/><ellipse rx="5.4" ry="12" fill="none" stroke="#ffffff" stroke-opacity="0.55" stroke-width="1"/><line x1="-12" y1="0" x2="12" y2="0" stroke="#ffffff" stroke-opacity="0.55" stroke-width="1"/><line x1="-10.3" y1="-6.0" x2="10.3" y2="-6.0" stroke="#ffffff" stroke-opacity="0.4" stroke-width="0.9"/><line x1="-10.3" y1="6.0" x2="10.3" y2="6.0" stroke="#ffffff" stroke-opacity="0.4" stroke-width="0.9"/></g><text x="368.0" y="132.0" font-size="17" font-weight="800" fill="#0f172a">triage</text><text x="342.0" y="158.0" font-size="12" font-weight="600" fill="#64748b">leaf world</text><rect x="342.0" y="172.0" width="84.2" height="21" rx="10.5" fill="#eef2ff"/><text x="350.0" y="185.0" font-size="11" font-weight="600" fill="#3730a3">healthcare</text><rect x="433.2" y="172.0" width="50.1" height="21" rx="10.5" fill="#eef2ff"/><text x="441.2" y="185.0" font-size="11" font-weight="600" fill="#3730a3">queue</text><rect x="490.3" y="172.0" width="43.3" height="21" rx="10.5" fill="#eef2ff"/><text x="498.3" y="185.0" font-size="11" font-weight="600" fill="#3730a3">leaf</text><text x="342.0" y="226.0" font-size="11.5" font-weight="700" fill="#64748b">v1.0</text><text x="576.0" y="226.0" font-size="11.5" font-weight="700" fill="#059669" text-anchor="end">MIT</text></a><a href="orchard.svg"><g filter="url(#sh)"><rect x="616" y="92" width="270" height="150" rx="16" fill="url(#gnode)" stroke="#e2e8f0" stroke-width="1"/></g><rect x="616" y="92" width="270" height="5" rx="2.5" fill="url(#gacc)"/><g transform="translate(640.0,128.0)"><circle r="12" fill="url(#gacc)"/><circle r="12" fill="none" stroke="#ffffff" stroke-opacity="0.55" stroke-width="1.1"/><ellipse rx="5.4" ry="12" fill="none" stroke="#ffffff" stroke-opacity="0.55" stroke-width="1"/><line x1="-12" y1="0" x2="12" y2="0" stroke="#ffffff" stroke-opacity="0.55" stroke-width="1"/><line x1="-10.3" y1="-6.0" x2="10.3" y2="-6.0" stroke="#ffffff" stroke-opacity="0.4" stroke-width="0.9"/><line x1="-10.3" y1="6.0" x2="10.3" y2="6.0" stroke="#ffffff" stroke-opacity="0.4" stroke-width="0.9"/></g><text x="660.0" y="132.0" font-size="17" font-weight="800" fill="#0f172a">orchard</text><text x="634.0" y="158.0" font-size="12" font-weight="600" fill="#64748b">leaf world</text><rect x="634.0" y="172.0" width="70.6" height="21" rx="10.5" fill="#eef2ff"/><text x="642.0" y="185.0" font-size="11" font-weight="600" fill="#3730a3">resource</text><rect x="711.6" y="172.0" width="91.0" height="21" rx="10.5" fill="#eef2ff"/><text x="719.6" y="185.0" font-size="11" font-weight="600" fill="#3730a3">multi-agent</text><rect x="809.6" y="172.0" width="43.3" height="21" rx="10.5" fill="#eef2ff"/><text x="817.6" y="185.0" font-size="11" font-weight="600" fill="#3730a3">leaf</text><text x="634.0" y="226.0" font-size="11.5" font-weight="700" fill="#64748b">v1.0</text><text x="868.0" y="226.0" font-size="11.5" font-weight="700" fill="#059669" text-anchor="end">MIT</text></a><a href="hospital-network.svg"><g filter="url(#sh)"><rect x="32" y="264" width="270" height="150" rx="16" fill="url(#gnode)" stroke="#e2e8f0" stroke-width="1"/></g><rect x="32" y="264" width="270" height="5" rx="2.5" fill="url(#gacc)"/><g transform="translate(56.0,300.0)"><circle r="12" fill="url(#gacc)"/><circle r="12" fill="none" stroke="#ffffff" stroke-opacity="0.55" stroke-width="1.1"/><ellipse rx="5.4" ry="12" fill="none" stroke="#ffffff" stroke-opacity="0.55" stroke-width="1"/><line x1="-12" y1="0" x2="12" y2="0" stroke="#ffffff" stroke-opacity="0.55" stroke-width="1"/><line x1="-10.3" y1="-6.0" x2="10.3" y2="-6.0" stroke="#ffffff" stroke-opacity="0.4" stroke-width="0.9"/><line x1="-10.3" y1="6.0" x2="10.3" y2="6.0" stroke="#ffffff" stroke-opacity="0.4" stroke-width="0.9"/></g><text x="76.0" y="304.0" font-size="17" font-weight="800" fill="#0f172a">hospital-network</text><text x="50.0" y="330.0" font-size="12" font-weight="600" fill="#64748b">2 worlds · 1 bridges</text><rect x="50.0" y="344.0" width="84.2" height="21" rx="10.5" fill="#eef2ff"/><text x="58.0" y="357.0" font-size="11" font-weight="600" fill="#3730a3">healthcare</text><rect x="141.2" y="344.0" width="77.4" height="21" rx="10.5" fill="#eef2ff"/><text x="149.2" y="357.0" font-size="11" font-weight="600" fill="#3730a3">composite</text><rect x="225.6" y="344.0" width="91.0" height="21" rx="10.5" fill="#eef2ff"/><text x="233.6" y="357.0" font-size="11" font-weight="600" fill="#3730a3">multi-world</text><text x="50.0" y="398.0" font-size="11.5" font-weight="700" fill="#64748b">v0.9</text><text x="284.0" y="398.0" font-size="11.5" font-weight="700" fill="#059669" text-anchor="end">MIT</text></a></svg>