<?xml version="1.0" encoding="UTF-8"?>
<svg xmlns="http://www.w3.org/2000/svg" xmlns:xlink="http://www.w3.org/1999/xlink" viewBox="0 0 1016 680" width="1016" height="680" font-family="-apple-system,BlinkMacSystemFont,Segoe UI,Roboto,Helvetica,Arial,sans-serif"><defs><linearGradient id="gbg" x1="0" y1="0" x2="0" y2="1"><stop offset="0" stop-color="#fcfbf8"/><stop offset="1" stop-color="#eef0ec"/></linearGradient><linearGradient id="gnode" x1="0" y1="0" x2="0" y2="1"><stop offset="0" stop-color="#ffffff"/><stop offset="1" stop-color="#eef1f6"/></linearGradient><linearGradient id="gacc" x1="0" y1="0" x2="1" y2="0"><stop offset="0" stop-color="#1d4ed8"/><stop offset="1" stop-color="#0891b2"/></linearGradient><linearGradient id="garea" x1="0" y1="0" x2="0" y2="1"><stop offset="0" stop-color="#1d4ed8" stop-opacity="0.34"/><stop offset="1" stop-color="#1d4ed8" stop-opacity="0"/></linearGradient><filter id="sh" x="-30%" y="-30%" width="160%" height="160%"><feDropShadow dx="0" dy="5" stdDeviation="9" flood-color="#16202e" flood-opacity="0.14"/></filter><filter id="shsoft" x="-40%" y="-40%" width="180%" height="180%"><feDropShadow dx="0" dy="10" stdDeviation="22" flood-color="#16202e" flood-opacity="0.14"/></filter><marker id="arr" markerWidth="9" markerHeight="9" refX="6.5" refY="3" orient="auto"><path d="M0,0 L6.5,3 L0,6 Z" fill="#1d4ed8"/></marker><marker id="arrUp" markerWidth="9" markerHeight="9" refX="3" refY="6.2" orient="auto"><path d="M0,6.2 L3,0 L6,6.2 Z" fill="#0f766e"/></marker><pattern id="grid" width="24" height="24" patternUnits="userSpaceOnUse"><path d="M24 0 H0 V24" fill="none" stroke="#8aa0c2" stroke-width="0.6" opacity="0.35"/></pattern><pattern id="gridFine" width="22" height="22" patternUnits="userSpaceOnUse"><path d="M22 0 H0 V22" fill="none" stroke="#8aa0c2" stroke-width="0.5" opacity="0.28"/></pattern><filter id="glow" x="-60%" y="-60%" width="220%" height="220%"><feGaussianBlur stdDeviation="2.4" result="b"/><feMerge><feMergeNode in="b"/><feMergeNode in="SourceGraphic"/></feMerge></filter></defs><rect x="0" y="0" width="1016" height="680" fill="url(#gbg)"/><rect x="0" y="0" width="1016" height="680" fill="url(#gridFine)"/><g transform="translate(47.0,54.0)"><rect x="-16.0" y="-16.0" width="32.0" height="32.0" rx="5.4" fill="none" stroke="#1d4ed8" stroke-width="2.1"/><rect x="-9.6" y="-9.6" width="19.2" height="19.2" rx="3.8" fill="none" stroke="#b45309" stroke-width="1.9"/><rect x="-3.8" y="-3.8" width="7.7" height="7.7" rx="1.9" fill="#0f766e"/></g><text x="74.0" y="50.0" font-size="9.5" font-weight="700" fill="#1d4ed8" letter-spacing="2.4" font-family="ui-monospace,SFMono-Regular,Menlo,Consolas,monospace">OPENWORLD</text><text x="74.0" y="74.0" font-size="27" font-weight="700" fill="#16202e" font-family="'Iowan Old Style','Palatino Linotype',Palatino,Georgia,serif">OpenWorld model gallery</text><text x="982.0" y="64.0" font-size="13" font-weight="600" fill="#5b6675" text-anchor="end" font-family="ui-monospace,SFMono-Regular,Menlo,Consolas,monospace">5 world models</text><a href="sprint.svg"><g filter="url(#shsoft)"><rect x="34" y="110" width="300" height="248" rx="16" fill="url(#gnode)" stroke="#dde2ea" stroke-width="1"/></g><rect x="34" y="110" width="300" height="5" rx="2.5" fill="url(#gacc)"/><g transform="translate(60.0,146.0)"><rect x="-11.0" y="-11.0" width="22.0" height="22.0" rx="3.7" fill="none" stroke="#1d4ed8" stroke-width="2.1"/><rect x="-6.6" y="-6.6" width="13.2" height="13.2" rx="2.6" fill="none" stroke="#b45309" stroke-width="1.9"/><rect x="-2.6" y="-2.6" width="5.3" height="5.3" rx="1.3" fill="#0f766e"/></g><text x="80.0" y="150.0" font-size="17" font-weight="700" fill="#16202e" font-family="'Iowan Old Style','Palatino Linotype',Palatino,Georgia,serif">sprint</text><text x="52.0" y="172.0" font-size="10.5" font-weight="600" fill="#5b6675" font-family="ui-monospace,SFMono-Regular,Menlo,Consolas,monospace">leaf · state machine</text><rect x="48.0" y="184.0" width="272" height="120" rx="11" fill="#eef1f6" stroke="#dde2ea" stroke-width="1"/><clipPath id="thc0"><rect x="48.0" y="184.0" width="272.0" height="120.0" rx="10"/></clipPath><g clip-path="url(#thc0)"><g transform="translate(84.0,184.0) scale(0.5556)"><path d="M 64.5 116.0 C 81.5 116.0, 81.5 116.0, 95.5 116.0" fill="none" stroke="#1d4ed8" stroke-width="1.7" stroke-opacity="0.85" marker-end="url(#arr)"/><rect x="64.5" y="108.0" width="34.0" height="15" rx="7.5" fill="#fcfbf8" stroke="#dde2ea" stroke-width="0.8"/><text x="81.5" y="119.0" font-size="9.5" font-weight="600" fill="#1d4ed8" text-anchor="middle">ship</text><path d="M 19.2 80.5 C 8.2 54.5, 56.2 54.5, 45.2 80.5" fill="none" stroke="#1d4ed8" stroke-width="1.5" marker-end="url(#arr)"/><rect x="-11.8" y="48.5" width="88.0" height="15" rx="7.5" fill="#fcfbf8" stroke="#dde2ea" stroke-width="0.8"/><text x="32.2" y="59.5" font-size="9.5" font-weight="600" fill="#1d4ed8" text-anchor="middle">fix, refactor</text><path d="M 163.0 116.0 C 180.0 116.0, 180.0 67.5, 194.0 67.5" fill="none" stroke="#1d4ed8" stroke-width="1.7" stroke-opacity="0.85" marker-end="url(#arr)"/><rect x="163.0" y="83.8" width="34.0" height="15" rx="7.5" fill="#fcfbf8" stroke="#dde2ea" stroke-width="0.8"/><text x="180.0" y="94.8" font-size="9.5" font-weight="600" fill="#1d4ed8" text-anchor="middle">ship</text><path d="M 163.0 116.0 C 180.0 116.0, 180.0 164.5, 194.0 164.5" fill="none" stroke="#1d4ed8" stroke-width="1.7" stroke-opacity="0.85" marker-end="url(#arr)"/><rect x="151.0" y="132.2" width="58.0" height="15" rx="7.5" fill="#fcfbf8" stroke="#dde2ea" stroke-width="0.8"/><text x="180.0" y="143.2" font-size="9.5" font-weight="600" fill="#1d4ed8" text-anchor="middle">refactor</text><path d="M 117.8 80.5 C 106.8 54.5, 154.8 54.5, 143.8 80.5" fill="none" stroke="#1d4ed8" stroke-width="1.5" marker-end="url(#arr)"/><rect x="116.8" y="48.5" width="28.0" height="15" rx="7.5" fill="#fcfbf8" stroke="#dde2ea" stroke-width="0.8"/><text x="130.8" y="59.5" font-size="9.5" font-weight="600" fill="#1d4ed8" text-anchor="middle">fix</text><path d="M 261.5 67.5 C 278.5 67.5, 278.5 67.5, 292.5 67.5" fill="none" stroke="#1d4ed8" stroke-width="1.7" stroke-opacity="0.85" marker-end="url(#arr)"/><rect x="261.5" y="59.5" width="34.0" height="15" rx="7.5" fill="#fcfbf8" stroke="#dde2ea" stroke-width="0.8"/><text x="278.5" y="70.5" font-size="9.5" font-weight="600" fill="#1d4ed8" text-anchor="middle">ship</text><path d="M 261.5 67.5 C 278.5 67.5, 278.5 164.5, 292.5 164.5" fill="none" stroke="#1d4ed8" stroke-width="1.7" stroke-opacity="0.85" marker-end="url(#arr)"/><rect x="249.5" y="108.0" width="58.0" height="15" rx="7.5" fill="#fcfbf8" stroke="#dde2ea" stroke-width="0.8"/><text x="278.5" y="119.0" font-size="9.5" font-weight="600" fill="#1d4ed8" text-anchor="middle">refactor</text><path d="M 216.2 32.0 C 205.2 6.0, 253.2 6.0, 242.2 32.0" fill="none" stroke="#1d4ed8" stroke-width="1.5" marker-end="url(#arr)"/><rect x="215.2" y="0.0" width="28.0" height="15" rx="7.5" fill="#fcfbf8" stroke="#dde2ea" stroke-width="0.8"/><text x="229.2" y="11.0" font-size="9.5" font-weight="600" fill="#1d4ed8" text-anchor="middle">fix</text><g filter="url(#sh)"><rect x="0.0" y="80.5" width="64.5" height="71.0" rx="13" fill="url(#gnode)" stroke="#1d4ed8" stroke-width="2.2"/></g><text x="2.0" y="73.5" font-size="10" font-weight="700" fill="#1d4ed8">▶ start</text><text x="32.2" y="105.5" font-size="13" font-weight="700" fill="#16202e" text-anchor="middle">backlog 12</text><text x="32.2" y="120.5" font-size="11" font-weight="500" fill="#5b6675" text-anchor="middle">debt 0</text><text x="32.2" y="135.5" font-size="11" font-weight="500" fill="#5b6675" text-anchor="middle">shipped 0</text><g filter="url(#sh)"><rect x="98.5" y="80.5" width="64.5" height="71.0" rx="13" fill="url(#gnode)" stroke="#dde2ea" stroke-width="1.2"/></g><text x="130.8" y="105.5" font-size="13" font-weight="700" fill="#16202e" text-anchor="middle">backlog 11</text><text x="130.8" y="120.5" font-size="11" font-weight="500" fill="#5b6675" text-anchor="middle">debt 1</text><text x="130.8" y="135.5" font-size="11" font-weight="500" fill="#5b6675" text-anchor="middle">shipped 1</text><g filter="url(#sh)"><rect x="197.0" y="32.0" width="64.5" height="71.0" rx="13" fill="url(#gnode)" stroke="#dde2ea" stroke-width="1.2"/></g><text x="229.2" y="57.0" font-size="13" font-weight="700" fill="#16202e" text-anchor="middle">backlog 10</text><text x="229.2" y="72.0" font-size="11" font-weight="500" fill="#5b6675" text-anchor="middle">debt 2</text><text x="229.2" y="87.0" font-size="11" font-weight="500" fill="#5b6675" text-anchor="middle">shipped 2</text><g filter="url(#sh)"><rect x="197.0" y="129.0" width="64.5" height="71.0" rx="13" fill="url(#gnode)" stroke="#dde2ea" stroke-width="1.2"/></g><text x="229.2" y="154.0" font-size="13" font-weight="700" fill="#16202e" text-anchor="middle">backlog 11</text><text x="229.2" y="169.0" font-size="11" font-weight="500" fill="#5b6675" text-anchor="middle">debt 0</text><text x="229.2" y="184.0" font-size="11" font-weight="500" fill="#5b6675" text-anchor="middle">shipped 1</text><g filter="url(#sh)"><rect x="295.5" y="32.0" width="64.5" height="71.0" rx="13" fill="url(#gnode)" stroke="#dde2ea" stroke-width="1.2"/></g><text x="327.8" y="57.0" font-size="13" font-weight="700" fill="#16202e" text-anchor="middle">backlog 9</text><text x="327.8" y="72.0" font-size="11" font-weight="500" fill="#5b6675" text-anchor="middle">debt 3</text><text x="327.8" y="87.0" font-size="11" font-weight="500" fill="#5b6675" text-anchor="middle">shipped 3</text><g filter="url(#sh)"><rect x="295.5" y="129.0" width="64.5" height="71.0" rx="13" fill="url(#gnode)" stroke="#dde2ea" stroke-width="1.2"/></g><text x="327.8" y="154.0" font-size="13" font-weight="700" fill="#16202e" text-anchor="middle">backlog 10</text><text x="327.8" y="169.0" font-size="11" font-weight="500" fill="#5b6675" text-anchor="middle">debt 0</text><text x="327.8" y="184.0" font-size="11" font-weight="500" fill="#5b6675" text-anchor="middle">shipped 2</text></g></g><rect x="52.0" y="316.0" width="84.2" height="20" rx="10.0" fill="#eaeef6"/><text x="60.0" y="328.0" font-size="10" font-weight="600" fill="#1e3a8a">engineering</text><rect x="142.2" y="316.0" width="65.6" height="20" rx="10.0" fill="#eaeef6"/><text x="150.2" y="328.0" font-size="10" font-weight="600" fill="#1e3a8a">verified</text><rect x="213.8" y="316.0" width="40.8" height="20" rx="10.0" fill="#eaeef6"/><text x="221.8" y="328.0" font-size="10" font-weight="600" fill="#1e3a8a">leaf</text><text x="52.0" y="343.0" font-size="11" font-weight="700" fill="#5b6675" font-family="ui-monospace,SFMono-Regular,Menlo,Consolas,monospace">v1.0</text><text x="316.0" y="343.0" font-size="11" font-weight="700" fill="#0f766e" text-anchor="end" font-family="ui-monospace,SFMono-Regular,Menlo,Consolas,monospace">MIT</text></a><a href="triage.svg"><g filter="url(#shsoft)"><rect x="358" y="110" width="300" height="248" rx="16" fill="url(#gnode)" stroke="#dde2ea" stroke-width="1"/></g><rect x="358" y="110" width="300" height="5" rx="2.5" fill="url(#gacc)"/><g transform="translate(384.0,146.0)"><rect x="-11.0" y="-11.0" width="22.0" height="22.0" rx="3.7" fill="none" stroke="#1d4ed8" stroke-width="2.1"/><rect x="-6.6" y="-6.6" width="13.2" height="13.2" rx="2.6" fill="none" stroke="#b45309" stroke-width="1.9"/><rect x="-2.6" y="-2.6" width="5.3" height="5.3" rx="1.3" fill="#0f766e"/></g><text x="404.0" y="150.0" font-size="17" font-weight="700" fill="#16202e" font-family="'Iowan Old Style','Palatino Linotype',Palatino,Georgia,serif">triage</text><text x="376.0" y="172.0" font-size="10.5" font-weight="600" fill="#5b6675" font-family="ui-monospace,SFMono-Regular,Menlo,Consolas,monospace">leaf · state machine</text><rect x="372.0" y="184.0" width="272" height="120" rx="11" fill="#eef1f6" stroke="#dde2ea" stroke-width="1"/><clipPath id="thc1"><rect x="372.0" y="184.0" width="272.0" height="120.0" rx="10"/></clipPath><g clip-path="url(#thc1)"><g transform="translate(439.0,184.0) scale(0.3834)"><path d="M 163.0 164.5 C 180.0 164.5, 180.0 67.5, 194.0 67.5" fill="none" stroke="#1d4ed8" stroke-width="1.7" stroke-opacity="0.85" marker-end="url(#arr)"/><rect x="133.0" y="108.0" width="94.0" height="15" rx="7.5" fill="#fcfbf8" stroke="#dde2ea" stroke-width="0.8"/><text x="180.0" y="119.0" font-size="9.5" font-weight="600" fill="#1d4ed8" text-anchor="middle">treat_critical</text><path d="M 163.0 164.5 C 180.0 164.5, 180.0 164.5, 194.0 164.5" fill="none" stroke="#1d4ed8" stroke-width="1.7" stroke-opacity="0.85" marker-end="url(#arr)"/><rect x="133.0" y="156.5" width="94.0" height="15" rx="7.5" fill="#fcfbf8" stroke="#dde2ea" stroke-width="0.8"/><text x="180.0" y="167.5" font-size="9.5" font-weight="600" fill="#1d4ed8" text-anchor="middle">treat_moderate</text><path d="M 163.0 164.5 C 180.0 164.5, 180.0 261.5, 194.0 261.5" fill="none" stroke="#1d4ed8" stroke-width="1.7" stroke-opacity="0.85" marker-end="url(#arr)"/><rect x="163.0" y="205.0" width="34.0" height="15" rx="7.5" fill="#fcfbf8" stroke="#dde2ea" stroke-width="0.8"/><text x="180.0" y="216.0" font-size="9.5" font-weight="600" fill="#1d4ed8" text-anchor="middle">wait</text><path d="M 261.5 67.5 C 278.5 67.5, 278.5 67.5, 292.5 67.5" fill="none" stroke="#1d4ed8" stroke-width="1.7" stroke-opacity="0.85" marker-end="url(#arr)"/><rect x="231.5" y="59.5" width="94.0" height="15" rx="7.5" fill="#fcfbf8" stroke="#dde2ea" stroke-width="0.8"/><text x="278.5" y="70.5" font-size="9.5" font-weight="600" fill="#1d4ed8" text-anchor="middle">treat_critical</text><path d="M 261.5 67.5 C 278.5 67.5, 278.5 164.5, 292.5 164.5" fill="none" stroke="#1d4ed8" stroke-width="1.7" stroke-opacity="0.85" marker-end="url(#arr)"/><rect x="231.5" y="108.0" width="94.0" height="15" rx="7.5" fill="#fcfbf8" stroke="#dde2ea" stroke-width="0.8"/><text x="278.5" y="119.0" font-size="9.5" font-weight="600" fill="#1d4ed8" text-anchor="middle">treat_moderate</text><path d="M 64.5 164.5 C 81.5 164.5, 81.5 164.5, 95.5 164.5" fill="none" stroke="#1d4ed8" stroke-width="1.7" stroke-opacity="0.85" stroke-dasharray="5 4" marker-end="url(#arr)"/><rect x="52.5" y="156.5" width="58.0" height="15" rx="7.5" fill="#fcfbf8" stroke="#dde2ea" stroke-width="0.8"/><text x="81.5" y="167.5" font-size="9.5" font-weight="600" fill="#1d4ed8" text-anchor="middle">perceive</text><path d="M 261.5 164.5 C 278.5 164.5, 278.5 261.5, 292.5 261.5" fill="none" stroke="#1d4ed8" stroke-width="1.7" stroke-opacity="0.85" stroke-dasharray="5 4" marker-end="url(#arr)"/><rect x="261.5" y="205.0" width="34.0" height="15" rx="7.5" fill="#fcfbf8" stroke="#dde2ea" stroke-width="0.8"/><text x="278.5" y="216.0" font-size="9.5" font-weight="600" fill="#1d4ed8" text-anchor="middle">emit</text><g filter="url(#sh)"><rect x="98.5" y="129.0" width="64.5" height="71.0" rx="13" fill="url(#gnode)" stroke="#1d4ed8" stroke-width="2.2"/></g><text x="100.5" y="122.0" font-size="10" font-weight="700" fill="#1d4ed8">▶ start</text><text x="130.8" y="154.0" font-size="13" font-weight="700" fill="#16202e" text-anchor="middle">critical_waiting 4</text><text x="130.8" y="169.0" font-size="11" font-weight="500" fill="#5b6675" text-anchor="middle">deteriorated 0</text><text x="130.8" y="184.0" font-size="11" font-weight="500" fill="#5b6675" text-anchor="middle">moderate_waiting 8</text><g filter="url(#sh)"><rect x="197.0" y="32.0" width="64.5" height="71.0" rx="13" fill="url(#gnode)" stroke="#dde2ea" stroke-width="1.2"/></g><text x="229.2" y="57.0" font-size="13" font-weight="700" fill="#16202e" text-anchor="middle">critical_waiting 3</text><text x="229.2" y="72.0" font-size="11" font-weight="500" fill="#5b6675" text-anchor="middle">deteriorated 0</text><text x="229.2" y="87.0" font-size="11" font-weight="500" fill="#5b6675" text-anchor="middle">moderate_waiting 8</text><g filter="url(#sh)"><rect x="197.0" y="129.0" width="64.5" height="71.0" rx="13" fill="url(#gnode)" stroke="#dde2ea" stroke-width="1.2"/></g><text x="229.2" y="154.0" font-size="13" font-weight="700" fill="#16202e" text-anchor="middle">critical_waiting 4</text><text x="229.2" y="169.0" font-size="11" font-weight="500" fill="#5b6675" text-anchor="middle">deteriorated 0</text><text x="229.2" y="184.0" font-size="11" font-weight="500" fill="#5b6675" text-anchor="middle">moderate_waiting 7</text><g filter="url(#sh)"><rect x="197.0" y="226.0" width="64.5" height="71.0" rx="13" fill="url(#gnode)" stroke="#dde2ea" stroke-width="1.2"/></g><text x="229.2" y="251.0" font-size="13" font-weight="700" fill="#16202e" text-anchor="middle">critical_waiting 4</text><text x="229.2" y="266.0" font-size="11" font-weight="500" fill="#5b6675" text-anchor="middle">deteriorated 0</text><text x="229.2" y="281.0" font-size="11" font-weight="500" fill="#5b6675" text-anchor="middle">moderate_waiting 8</text><g filter="url(#sh)"><rect x="295.5" y="32.0" width="64.5" height="71.0" rx="13" fill="url(#gnode)" stroke="#dde2ea" stroke-width="1.2"/></g><text x="327.8" y="57.0" font-size="13" font-weight="700" fill="#16202e" text-anchor="middle">critical_waiting 1</text><text x="327.8" y="72.0" font-size="11" font-weight="500" fill="#5b6675" text-anchor="middle">deteriorated 1</text><text x="327.8" y="87.0" font-size="11" font-weight="500" fill="#5b6675" text-anchor="middle">moderate_waiting 8</text><g filter="url(#sh)"><rect x="295.5" y="129.0" width="64.5" height="71.0" rx="13" fill="url(#gnode)" stroke="#dde2ea" stroke-width="1.2"/></g><text x="327.8" y="154.0" font-size="13" font-weight="700" fill="#16202e" text-anchor="middle">critical_waiting 2</text><text x="327.8" y="169.0" font-size="11" font-weight="500" fill="#5b6675" text-anchor="middle">deteriorated 1</text><text x="327.8" y="184.0" font-size="11" font-weight="500" fill="#5b6675" text-anchor="middle">moderate_waiting 7</text><g filter="url(#sh)"><rect x="0.0" y="129.0" width="64.5" height="71.0" rx="13" fill="#eef1f6" stroke="#b45309" stroke-width="1.5" stroke-dasharray="5 3"/></g><text x="11.0" y="122.0" font-size="9" font-weight="700" fill="#b45309" font-family="ui-monospace,SFMono-Regular,Menlo,Consolas,monospace">⌖ sensor</text><text x="32.2" y="161.5" font-size="13" font-weight="700" fill="#16202e" text-anchor="middle">text</text><text x="32.2" y="176.5" font-size="11" font-weight="500" fill="#5b6675" text-anchor="middle">critical_waiting, moderate_waiting</text><g filter="url(#sh)"><rect x="295.5" y="226.0" width="64.5" height="71.0" rx="13" fill="#eef1f6" stroke="#0f766e" stroke-width="1.5" stroke-dasharray="5 3"/></g><text x="306.5" y="219.0" font-size="9" font-weight="700" fill="#0f766e" font-family="ui-monospace,SFMono-Regular,Menlo,Consolas,monospace">▸ output</text><text x="327.8" y="258.5" font-size="13" font-weight="700" fill="#16202e" text-anchor="middle">alert</text><text x="327.8" y="273.5" font-size="11" font-weight="500" fill="#5b6675" text-anchor="middle">critical_waiting, deteriorated</text></g></g><rect x="376.0" y="316.0" width="78.0" height="20" rx="10.0" fill="#eaeef6"/><text x="384.0" y="328.0" font-size="10" font-weight="600" fill="#1e3a8a">healthcare</text><rect x="460.0" y="316.0" width="47.0" height="20" rx="10.0" fill="#eaeef6"/><text x="468.0" y="328.0" font-size="10" font-weight="600" fill="#1e3a8a">queue</text><rect x="513.0" y="316.0" width="78.0" height="20" rx="10.0" fill="#eaeef6"/><text x="521.0" y="328.0" font-size="10" font-weight="600" fill="#1e3a8a">perception</text><text x="376.0" y="343.0" font-size="11" font-weight="700" fill="#5b6675" font-family="ui-monospace,SFMono-Regular,Menlo,Consolas,monospace">v1.0</text><text x="640.0" y="343.0" font-size="11" font-weight="700" fill="#0f766e" text-anchor="end" font-family="ui-monospace,SFMono-Regular,Menlo,Consolas,monospace">MIT</text></a><a href="orchard.svg"><g filter="url(#shsoft)"><rect x="682" y="110" width="300" height="248" rx="16" fill="url(#gnode)" stroke="#dde2ea" stroke-width="1"/></g><rect x="682" y="110" width="300" height="5" rx="2.5" fill="url(#gacc)"/><g transform="translate(708.0,146.0)"><rect x="-11.0" y="-11.0" width="22.0" height="22.0" rx="3.7" fill="none" stroke="#1d4ed8" stroke-width="2.1"/><rect x="-6.6" y="-6.6" width="13.2" height="13.2" rx="2.6" fill="none" stroke="#b45309" stroke-width="1.9"/><rect x="-2.6" y="-2.6" width="5.3" height="5.3" rx="1.3" fill="#0f766e"/></g><text x="728.0" y="150.0" font-size="17" font-weight="700" fill="#16202e" font-family="'Iowan Old Style','Palatino Linotype',Palatino,Georgia,serif">orchard</text><text x="700.0" y="172.0" font-size="10.5" font-weight="600" fill="#5b6675" font-family="ui-monospace,SFMono-Regular,Menlo,Consolas,monospace">leaf · state machine</text><rect x="696.0" y="184.0" width="272" height="120" rx="11" fill="#eef1f6" stroke="#dde2ea" stroke-width="1"/><clipPath id="thc2"><rect x="696.0" y="184.0" width="272.0" height="120.0" rx="10"/></clipPath><g clip-path="url(#thc2)"><g transform="translate(710.7,184.0) scale(0.6742)"><path d="M 167.0 76.5 C 156.0 50.5, 204.0 50.5, 193.0 76.5" fill="none" stroke="#1d4ed8" stroke-width="1.5" marker-end="url(#arr)"/><rect x="145.0" y="44.5" width="70.0" height="15" rx="7.5" fill="#fcfbf8" stroke="#dde2ea" stroke-width="0.8"/><text x="180.0" y="55.5" font-size="9.5" font-weight="600" fill="#1d4ed8" text-anchor="middle">pick, wait</text><g filter="url(#sh)"><rect x="119.0" y="76.5" width="122.0" height="41.0" rx="13" fill="url(#gnode)" stroke="#1d4ed8" stroke-width="2.2"/></g><text x="121.0" y="69.5" font-size="10" font-weight="700" fill="#1d4ed8">▶ start</text><text x="180.0" y="101.5" font-size="13" font-weight="700" fill="#16202e" text-anchor="middle">apples 10</text></g></g><rect x="700.0" y="316.0" width="65.6" height="20" rx="10.0" fill="#eaeef6"/><text x="708.0" y="328.0" font-size="10" font-weight="600" fill="#1e3a8a">resource</text><rect x="771.6" y="316.0" width="84.2" height="20" rx="10.0" fill="#eaeef6"/><text x="779.6" y="328.0" font-size="10" font-weight="600" fill="#1e3a8a">multi-agent</text><rect x="861.8" y="316.0" width="40.8" height="20" rx="10.0" fill="#eaeef6"/><text x="869.8" y="328.0" font-size="10" font-weight="600" fill="#1e3a8a">leaf</text><text x="700.0" y="343.0" font-size="11" font-weight="700" fill="#5b6675" font-family="ui-monospace,SFMono-Regular,Menlo,Consolas,monospace">v1.0</text><text x="964.0" y="343.0" font-size="11" font-weight="700" fill="#0f766e" text-anchor="end" font-family="ui-monospace,SFMono-Regular,Menlo,Consolas,monospace">MIT</text></a><a href="hospital-network.svg"><g filter="url(#shsoft)"><rect x="34" y="382" width="300" height="248" rx="16" fill="url(#gnode)" stroke="#dde2ea" stroke-width="1"/></g><rect x="34" y="382" width="300" height="5" rx="2.5" fill="url(#gacc)"/><g transform="translate(60.0,418.0)"><rect x="-11.0" y="-11.0" width="22.0" height="22.0" rx="3.7" fill="none" stroke="#1d4ed8" stroke-width="2.1"/><rect x="-6.6" y="-6.6" width="13.2" height="13.2" rx="2.6" fill="none" stroke="#b45309" stroke-width="1.9"/><rect x="-2.6" y="-2.6" width="5.3" height="5.3" rx="1.3" fill="#0f766e"/></g><text x="80.0" y="422.0" font-size="17" font-weight="700" fill="#16202e" font-family="'Iowan Old Style','Palatino Linotype',Palatino,Georgia,serif">hospital-network</text><text x="52.0" y="444.0" font-size="10.5" font-weight="600" fill="#5b6675" font-family="ui-monospace,SFMono-Regular,Menlo,Consolas,monospace">2 worlds · 1 bridges</text><rect x="48.0" y="456.0" width="272" height="120" rx="11" fill="#eef1f6" stroke="#dde2ea" stroke-width="1"/><clipPath id="thc3"><rect x="48.0" y="456.0" width="272.0" height="120.0" rx="10"/></clipPath><g clip-path="url(#thc3)"><g transform="translate(52.1,456.0) scale(0.6250)"><g filter="url(#shsoft)"><rect x="0.0" y="0.0" width="422.0" height="192.0" rx="18" fill="#fcfbf8" fill-opacity="0.62" stroke="#1d4ed8" stroke-width="1.7"/></g><rect x="0.0" y="0.0" width="422.0" height="6" rx="3" fill="#1d4ed8"/><text x="20.0" y="31.0" font-size="16" font-weight="700" fill="#16202e" font-family="'Iowan Old Style','Palatino Linotype',Palatino,Georgia,serif">hospital-network</text><text x="20.0" y="46.0" font-size="9.5" font-weight="600" fill="#5b6675" font-family="ui-monospace,SFMono-Regular,Menlo,Consolas,monospace">composite · 2 worlds</text><a href="triage.svg"><g filter="url(#sh)"><rect x="20.0" y="52.0" width="176" height="104" rx="13" fill="url(#gnode)" stroke="#dde2ea" stroke-width="1.1"/></g><rect x="20.0" y="52.0" width="176" height="5" rx="2.5" fill="#b45309"/><text x="33.0" y="77.0" font-size="13.5" font-weight="700" fill="#16202e" font-family="'Iowan Old Style','Palatino Linotype',Palatino,Georgia,serif">triage</text><text x="33.0" y="97.0" font-size="10" font-weight="500" fill="#5b6675" font-family="ui-monospace,SFMono-Regular,Menlo,Consolas,monospace">tick: int</text><text x="33.0" y="112.0" font-size="10" font-weight="500" fill="#5b6675" font-family="ui-monospace,SFMono-Regular,Menlo,Consolas,monospace">critical_waiting: int</text><text x="33.0" y="127.0" font-size="10" font-weight="500" fill="#5b6675" font-family="ui-monospace,SFMono-Regular,Menlo,Consolas,monospace">moderate_waiting: int</text><text x="33.0" y="142.0" font-size="10" font-weight="500" fill="#5b6675" font-family="ui-monospace,SFMono-Regular,Menlo,Consolas,monospace">+4 more</text><text x="33.0" y="145.0" font-size="9.5" font-weight="600" fill="#b45309" font-family="ui-monospace,SFMono-Regular,Menlo,Consolas,monospace">3 actions</text><circle cx="181.0" cy="142.0" r="3" fill="#0f766e"/></a><a href="triage.svg"><g filter="url(#sh)"><rect x="226.0" y="52.0" width="176" height="104" rx="13" fill="url(#gnode)" stroke="#dde2ea" stroke-width="1.1"/></g><rect x="226.0" y="52.0" width="176" height="5" rx="2.5" fill="#b45309"/><text x="239.0" y="77.0" font-size="13.5" font-weight="700" fill="#16202e" font-family="'Iowan Old Style','Palatino Linotype',Palatino,Georgia,serif">triage</text><text x="239.0" y="97.0" font-size="10" font-weight="500" fill="#5b6675" font-family="ui-monospace,SFMono-Regular,Menlo,Consolas,monospace">tick: int</text><text x="239.0" y="112.0" font-size="10" font-weight="500" fill="#5b6675" font-family="ui-monospace,SFMono-Regular,Menlo,Consolas,monospace">critical_waiting: int</text><text x="239.0" y="127.0" font-size="10" font-weight="500" fill="#5b6675" font-family="ui-monospace,SFMono-Regular,Menlo,Consolas,monospace">moderate_waiting: int</text><text x="239.0" y="142.0" font-size="10" font-weight="500" fill="#5b6675" font-family="ui-monospace,SFMono-Regular,Menlo,Consolas,monospace">+4 more</text><text x="239.0" y="145.0" font-size="9.5" font-weight="600" fill="#b45309" font-family="ui-monospace,SFMono-Regular,Menlo,Consolas,monospace">3 actions</text><circle cx="387.0" cy="142.0" r="3" fill="#0f766e"/></a><path d="M 196.0 104.0 C 211.0 104.0, 211.0 104.0, 226.0 104.0" fill="none" stroke="#1d4ed8" stroke-width="1.9" marker-end="url(#arr)" marker-start="url(#arr)"/><rect x="182.0" y="85.0" width="58.0" height="15" rx="7.5" fill="#fcfbf8" stroke="#dde2ea" stroke-width="0.8"/><text x="211.0" y="96.0" font-size="9.5" font-weight="600" fill="#1d4ed8" text-anchor="middle">transfer</text><rect x="290.0" y="14.0" width="112.0" height="21" rx="10.5" fill="#eef1f6" stroke="#0f766e" stroke-width="1.1"/><text x="298.0" y="29.0" font-size="10" font-weight="700" fill="#0f766e" font-family="ui-monospace,SFMono-Regular,Menlo,Consolas,monospace">Σ total_treated</text><path d="M 108.0 52.0 L 346.0 35.0" fill="none" stroke="#0f766e" stroke-width="1" stroke-dasharray="3 3" opacity="0.45" marker-end="url(#arrUp)"/><path d="M 314.0 52.0 L 346.0 35.0" fill="none" stroke="#0f766e" stroke-width="1" stroke-dasharray="3 3" opacity="0.45" marker-end="url(#arrUp)"/></g></g><rect x="52.0" y="588.0" width="78.0" height="20" rx="10.0" fill="#eaeef6"/><text x="60.0" y="600.0" font-size="10" font-weight="600" fill="#1e3a8a">healthcare</text><rect x="136.0" y="588.0" width="71.8" height="20" rx="10.0" fill="#eaeef6"/><text x="144.0" y="600.0" font-size="10" font-weight="600" fill="#1e3a8a">composite</text><rect x="213.8" y="588.0" width="84.2" height="20" rx="10.0" fill="#eaeef6"/><text x="221.8" y="600.0" font-size="10" font-weight="600" fill="#1e3a8a">multi-world</text><text x="52.0" y="615.0" font-size="11" font-weight="700" fill="#5b6675" font-family="ui-monospace,SFMono-Regular,Menlo,Consolas,monospace">v0.9</text><text x="316.0" y="615.0" font-size="11" font-weight="700" fill="#0f766e" text-anchor="end" font-family="ui-monospace,SFMono-Regular,Menlo,Consolas,monospace">MIT</text></a><a href="nation.svg"><g filter="url(#shsoft)"><rect x="358" y="382" width="300" height="248" rx="16" fill="url(#gnode)" stroke="#dde2ea" stroke-width="1"/></g><rect x="358" y="382" width="300" height="5" rx="2.5" fill="url(#gacc)"/><g transform="translate(384.0,418.0)"><rect x="-11.0" y="-11.0" width="22.0" height="22.0" rx="3.7" fill="none" stroke="#1d4ed8" stroke-width="2.1"/><rect x="-6.6" y="-6.6" width="13.2" height="13.2" rx="2.6" fill="none" stroke="#b45309" stroke-width="1.9"/><rect x="-2.6" y="-2.6" width="5.3" height="5.3" rx="1.3" fill="#0f766e"/></g><text x="404.0" y="422.0" font-size="17" font-weight="700" fill="#16202e" font-family="'Iowan Old Style','Palatino Linotype',Palatino,Georgia,serif">nation</text><text x="376.0" y="444.0" font-size="10.5" font-weight="600" fill="#5b6675" font-family="ui-monospace,SFMono-Regular,Menlo,Consolas,monospace">2 worlds · 0 bridges</text><rect x="372.0" y="456.0" width="272" height="120" rx="11" fill="#eef1f6" stroke="#dde2ea" stroke-width="1"/><clipPath id="thc4"><rect x="372.0" y="456.0" width="272.0" height="120.0" rx="10"/></clipPath><g clip-path="url(#thc4)"><g transform="translate(372.0,474.3) scale(0.2976)"><g filter="url(#shsoft)"><rect x="0.0" y="0.0" width="914.0" height="280.0" rx="18" fill="#fcfbf8" fill-opacity="0.62" stroke="#1d4ed8" stroke-width="1.7"/></g><rect x="0.0" y="0.0" width="914.0" height="6" rx="3" fill="#1d4ed8"/><text x="20.0" y="31.0" font-size="16" font-weight="700" fill="#16202e" font-family="'Iowan Old Style','Palatino Linotype',Palatino,Georgia,serif">nation</text><text x="20.0" y="46.0" font-size="9.5" font-weight="600" fill="#5b6675" font-family="ui-monospace,SFMono-Regular,Menlo,Consolas,monospace">composite · 2 worlds</text><g filter="url(#shsoft)"><rect x="20.0" y="52.0" width="422.0" height="192.0" rx="18" fill="#fcfbf8" fill-opacity="0.62" stroke="#b45309" stroke-width="1.7"/></g><rect x="20.0" y="52.0" width="422.0" height="6" rx="3" fill="#b45309"/><text x="40.0" y="83.0" font-size="16" font-weight="700" fill="#16202e" font-family="'Iowan Old Style','Palatino Linotype',Palatino,Georgia,serif">north-region</text><text x="40.0" y="98.0" font-size="9.5" font-weight="600" fill="#5b6675" font-family="ui-monospace,SFMono-Regular,Menlo,Consolas,monospace">composite · 2 worlds</text><a href="ironforge.svg"><g filter="url(#sh)"><rect x="40.0" y="104.0" width="176" height="104" rx="13" fill="url(#gnode)" stroke="#dde2ea" stroke-width="1.1"/></g><rect x="40.0" y="104.0" width="176" height="5" rx="2.5" fill="#0f766e"/><text x="53.0" y="129.0" font-size="13.5" font-weight="700" fill="#16202e" font-family="'Iowan Old Style','Palatino Linotype',Palatino,Georgia,serif">ironforge</text><text x="53.0" y="149.0" font-size="10" font-weight="500" fill="#5b6675" font-family="ui-monospace,SFMono-Regular,Menlo,Consolas,monospace">treasury: int</text><text x="53.0" y="164.0" font-size="10" font-weight="500" fill="#5b6675" font-family="ui-monospace,SFMono-Regular,Menlo,Consolas,monospace">goods: int</text><text x="53.0" y="197.0" font-size="9.5" font-weight="600" fill="#0f766e" font-family="ui-monospace,SFMono-Regular,Menlo,Consolas,monospace">2 actions</text><circle cx="201.0" cy="194.0" r="3" fill="#0f766e"/></a><a href="steeltown.svg"><g filter="url(#sh)"><rect x="246.0" y="104.0" width="176" height="104" rx="13" fill="url(#gnode)" stroke="#dde2ea" stroke-width="1.1"/></g><rect x="246.0" y="104.0" width="176" height="5" rx="2.5" fill="#0f766e"/><text x="259.0" y="129.0" font-size="13.5" font-weight="700" fill="#16202e" font-family="'Iowan Old Style','Palatino Linotype',Palatino,Georgia,serif">steeltown</text><text x="259.0" y="149.0" font-size="10" font-weight="500" fill="#5b6675" font-family="ui-monospace,SFMono-Regular,Menlo,Consolas,monospace">treasury: int</text><text x="259.0" y="164.0" font-size="10" font-weight="500" fill="#5b6675" font-family="ui-monospace,SFMono-Regular,Menlo,Consolas,monospace">goods: int</text><text x="259.0" y="197.0" font-size="9.5" font-weight="600" fill="#0f766e" font-family="ui-monospace,SFMono-Regular,Menlo,Consolas,monospace">2 actions</text><circle cx="407.0" cy="194.0" r="3" fill="#0f766e"/></a><path d="M 216.0 156.0 C 231.0 156.0, 231.0 156.0, 246.0 156.0" fill="none" stroke="#1d4ed8" stroke-width="1.9" marker-end="url(#arr)" marker-start="url(#arr)"/><rect x="211.0" y="137.0" width="40.0" height="15" rx="7.5" fill="#fcfbf8" stroke="#dde2ea" stroke-width="0.8"/><text x="231.0" y="148.0" font-size="9.5" font-weight="600" fill="#1d4ed8" text-anchor="middle">trade</text><rect x="329.2" y="66.0" width="92.8" height="21" rx="10.5" fill="#eef1f6" stroke="#0f766e" stroke-width="1.1"/><text x="337.2" y="81.0" font-size="10" font-weight="700" fill="#0f766e" font-family="ui-monospace,SFMono-Regular,Menlo,Consolas,monospace">Σ region_gdp</text><path d="M 128.0 104.0 L 375.6 87.0" fill="none" stroke="#0f766e" stroke-width="1" stroke-dasharray="3 3" opacity="0.45" marker-end="url(#arrUp)"/><path d="M 334.0 104.0 L 375.6 87.0" fill="none" stroke="#0f766e" stroke-width="1" stroke-dasharray="3 3" opacity="0.45" marker-end="url(#arrUp)"/><g filter="url(#shsoft)"><rect x="472.0" y="52.0" width="422.0" height="192.0" rx="18" fill="#fcfbf8" fill-opacity="0.62" stroke="#b45309" stroke-width="1.7"/></g><rect x="472.0" y="52.0" width="422.0" height="6" rx="3" fill="#b45309"/><text x="492.0" y="83.0" font-size="16" font-weight="700" fill="#16202e" font-family="'Iowan Old Style','Palatino Linotype',Palatino,Georgia,serif">south-region</text><text x="492.0" y="98.0" font-size="9.5" font-weight="600" fill="#5b6675" font-family="ui-monospace,SFMono-Regular,Menlo,Consolas,monospace">composite · 2 worlds</text><a href="portville.svg"><g filter="url(#sh)"><rect x="492.0" y="104.0" width="176" height="104" rx="13" fill="url(#gnode)" stroke="#dde2ea" stroke-width="1.1"/></g><rect x="492.0" y="104.0" width="176" height="5" rx="2.5" fill="#0f766e"/><text x="505.0" y="129.0" font-size="13.5" font-weight="700" fill="#16202e" font-family="'Iowan Old Style','Palatino Linotype',Palatino,Georgia,serif">portville</text><text x="505.0" y="149.0" font-size="10" font-weight="500" fill="#5b6675" font-family="ui-monospace,SFMono-Regular,Menlo,Consolas,monospace">treasury: int</text><text x="505.0" y="164.0" font-size="10" font-weight="500" fill="#5b6675" font-family="ui-monospace,SFMono-Regular,Menlo,Consolas,monospace">goods: int</text><text x="505.0" y="197.0" font-size="9.5" font-weight="600" fill="#0f766e" font-family="ui-monospace,SFMono-Regular,Menlo,Consolas,monospace">2 actions</text><circle cx="653.0" cy="194.0" r="3" fill="#0f766e"/></a><a href="baytown.svg"><g filter="url(#sh)"><rect x="698.0" y="104.0" width="176" height="104" rx="13" fill="url(#gnode)" stroke="#dde2ea" stroke-width="1.1"/></g><rect x="698.0" y="104.0" width="176" height="5" rx="2.5" fill="#0f766e"/><text x="711.0" y="129.0" font-size="13.5" font-weight="700" fill="#16202e" font-family="'Iowan Old Style','Palatino Linotype',Palatino,Georgia,serif">baytown</text><text x="711.0" y="149.0" font-size="10" font-weight="500" fill="#5b6675" font-family="ui-monospace,SFMono-Regular,Menlo,Consolas,monospace">treasury: int</text><text x="711.0" y="164.0" font-size="10" font-weight="500" fill="#5b6675" font-family="ui-monospace,SFMono-Regular,Menlo,Consolas,monospace">goods: int</text><text x="711.0" y="197.0" font-size="9.5" font-weight="600" fill="#0f766e" font-family="ui-monospace,SFMono-Regular,Menlo,Consolas,monospace">2 actions</text><circle cx="859.0" cy="194.0" r="3" fill="#0f766e"/></a><path d="M 668.0 156.0 C 683.0 156.0, 683.0 156.0, 698.0 156.0" fill="none" stroke="#1d4ed8" stroke-width="1.9" marker-end="url(#arr)" marker-start="url(#arr)"/><rect x="663.0" y="137.0" width="40.0" height="15" rx="7.5" fill="#fcfbf8" stroke="#dde2ea" stroke-width="0.8"/><text x="683.0" y="148.0" font-size="9.5" font-weight="600" fill="#1d4ed8" text-anchor="middle">trade</text><rect x="781.2" y="66.0" width="92.8" height="21" rx="10.5" fill="#eef1f6" stroke="#0f766e" stroke-width="1.1"/><text x="789.2" y="81.0" font-size="10" font-weight="700" fill="#0f766e" font-family="ui-monospace,SFMono-Regular,Menlo,Consolas,monospace">Σ region_gdp</text><path d="M 580.0 104.0 L 827.6 87.0" fill="none" stroke="#0f766e" stroke-width="1" stroke-dasharray="3 3" opacity="0.45" marker-end="url(#arrUp)"/><path d="M 786.0 104.0 L 827.6 87.0" fill="none" stroke="#0f766e" stroke-width="1" stroke-dasharray="3 3" opacity="0.45" marker-end="url(#arrUp)"/><rect x="801.2" y="14.0" width="92.8" height="21" rx="10.5" fill="#eef1f6" stroke="#0f766e" stroke-width="1.1"/><text x="809.2" y="29.0" font-size="10" font-weight="700" fill="#0f766e" font-family="ui-monospace,SFMono-Regular,Menlo,Consolas,monospace">Σ nation_gdp</text><path d="M 231.0 52.0 L 847.6 35.0" fill="none" stroke="#0f766e" stroke-width="1" stroke-dasharray="3 3" opacity="0.45" marker-end="url(#arrUp)"/><path d="M 683.0 52.0 L 847.6 35.0" fill="none" stroke="#0f766e" stroke-width="1" stroke-dasharray="3 3" opacity="0.45" marker-end="url(#arrUp)"/></g></g><rect x="376.0" y="588.0" width="59.4" height="20" rx="10.0" fill="#eaeef6"/><text x="384.0" y="600.0" font-size="10" font-weight="600" fill="#1e3a8a">economy</text><rect x="441.4" y="588.0" width="53.2" height="20" rx="10.0" fill="#eaeef6"/><text x="449.4" y="600.0" font-size="10" font-weight="600" fill="#1e3a8a">nested</text><rect x="500.6" y="588.0" width="109.0" height="20" rx="10.0" fill="#eaeef6"/><text x="508.6" y="600.0" font-size="10" font-weight="600" fill="#1e3a8a">world-of-worlds</text><text x="376.0" y="615.0" font-size="11" font-weight="700" fill="#5b6675" font-family="ui-monospace,SFMono-Regular,Menlo,Consolas,monospace">v0.9</text><text x="640.0" y="615.0" font-size="11" font-weight="700" fill="#0f766e" text-anchor="end" font-family="ui-monospace,SFMono-Regular,Menlo,Consolas,monospace">MIT</text></a></svg>