<?xml version="1.0" encoding="UTF-8"?>
<svg xmlns="http://www.w3.org/2000/svg" viewBox="0 0 900 1015" width="900" height="1015" font-family="-apple-system,BlinkMacSystemFont,Segoe UI,Roboto,Helvetica,Arial,sans-serif"><defs><linearGradient id="gbg" x1="0" y1="0" x2="0" y2="1"><stop offset="0" stop-color="#ffffff"/><stop offset="1" stop-color="#eef2f8"/></linearGradient><linearGradient id="gnode" x1="0" y1="0" x2="0" y2="1"><stop offset="0" stop-color="#ffffff"/><stop offset="1" stop-color="#eef2ff"/></linearGradient><linearGradient id="gacc" x1="0" y1="0" x2="1" y2="0"><stop offset="0" stop-color="#2563eb"/><stop offset="1" stop-color="#7c3aed"/></linearGradient><linearGradient id="garea" x1="0" y1="0" x2="0" y2="1"><stop offset="0" stop-color="#2563eb" stop-opacity="0.34"/><stop offset="1" stop-color="#2563eb" stop-opacity="0"/></linearGradient><filter id="sh" x="-30%" y="-30%" width="160%" height="160%"><feDropShadow dx="0" dy="5" stdDeviation="9" flood-color="#0f172a" flood-opacity="0.16"/></filter><filter id="shsoft" x="-40%" y="-40%" width="180%" height="180%"><feDropShadow dx="0" dy="10" stdDeviation="22" flood-color="#0f172a" flood-opacity="0.16"/></filter><marker id="arr" markerWidth="9" markerHeight="9" refX="6.5" refY="3" orient="auto"><path d="M0,0 L6.5,3 L0,6 Z" fill="#2563eb"/></marker><marker id="arrUp" markerWidth="9" markerHeight="9" refX="3" refY="6.2" orient="auto"><path d="M0,6.2 L3,0 L6,6.2 Z" fill="#7c3aed"/></marker><pattern id="grid" width="24" height="24" patternUnits="userSpaceOnUse"><path d="M24 0 H0 V24" fill="none" stroke="#9fb3d1" stroke-width="0.6" opacity="0.35"/></pattern><pattern id="gridFine" width="6" height="6" patternUnits="userSpaceOnUse"><circle cx="0.7" cy="0.7" r="0.7" fill="#9fb3d1" opacity="0.18"/></pattern><filter id="glow" x="-60%" y="-60%" width="220%" height="220%"><feGaussianBlur stdDeviation="2.4" result="b"/><feMerge><feMergeNode in="b"/><feMergeNode in="SourceGraphic"/></feMerge></filter></defs><rect x="0" y="0" width="900" height="1015.1750547045951" fill="url(#gbg)"/><g filter="url(#shsoft)"><rect x="26" y="26" width="848" height="963.1750547045951" rx="24" fill="url(#gbg)" stroke="#dfe4ec" stroke-width="1"/></g><clipPath id="pc"><rect x="26" y="26" width="848" height="963.1750547045951" rx="24"/></clipPath><rect x="26" y="26" width="848" height="963.1750547045951" fill="url(#gridFine)" clip-path="url(#pc)"/><rect x="26" y="26" width="848" height="6" rx="3" fill="url(#gacc)"/><path d="M 39 51 L 39 39 L 51 39" fill="none" stroke="#2563eb" stroke-width="1.4" opacity="0.55"/><path d="M 861 51 L 861 39 L 849 39" fill="none" stroke="#2563eb" stroke-width="1.4" opacity="0.55"/><path d="M 39 964 L 39 976 L 51 976" fill="none" stroke="#2563eb" stroke-width="1.4" opacity="0.55"/><path d="M 861 964 L 861 976 L 849 976" fill="none" stroke="#2563eb" stroke-width="1.4" opacity="0.55"/><g transform="translate(73.0,76.0)"><circle r="15" fill="url(#gacc)"/><circle r="15" fill="none" stroke="#ffffff" stroke-opacity="0.55" stroke-width="1.1"/><ellipse rx="6.8" ry="15" fill="none" stroke="#ffffff" stroke-opacity="0.55" stroke-width="1"/><line x1="-15" y1="0" x2="15" y2="0" stroke="#ffffff" stroke-opacity="0.55" stroke-width="1"/><line x1="-12.9" y1="-7.5" x2="12.9" y2="-7.5" stroke="#ffffff" stroke-opacity="0.4" stroke-width="0.9"/><line x1="-12.9" y1="7.5" x2="12.9" y2="7.5" stroke="#ffffff" stroke-opacity="0.4" stroke-width="0.9"/></g><text x="98.0" y="58.0" font-size="9.5" font-weight="700" fill="#2563eb" letter-spacing="2.4" font-family="ui-monospace,SFMono-Regular,Menlo,Consolas,monospace">OPENWORLD · MODEL CARD</text><text x="98.0" y="84.0" font-size="29" font-weight="700" fill="#0f172a" font-family="'Iowan Old Style','Palatino Linotype',Palatino,Georgia,serif">nation</text><text x="58.0" y="104.0" font-size="14" font-weight="500" fill="#64748b">A nation of two regions, each of two cities: GDP rolls up the hierarchy (city -&gt;</text><text x="58.0" y="123.0" font-size="14" font-weight="500" fill="#64748b">region -&gt; nation).</text><rect x="58.0" y="134.0" width="68.1" height="22" rx="11.0" fill="#eef2ff"/><text x="66.0" y="148.0" font-size="12" font-weight="600" fill="#3730a3">economy</text><rect x="134.1" y="134.0" width="60.6" height="22" rx="11.0" fill="#eef2ff"/><text x="142.1" y="148.0" font-size="12" font-weight="600" fill="#3730a3">nested</text><rect x="202.7" y="134.0" width="127.6" height="22" rx="11.0" fill="#eef2ff"/><text x="210.7" y="148.0" font-size="12" font-weight="600" fill="#3730a3">world-of-worlds</text><rect x="817.7" y="48.0" width="38.3" height="22" rx="11.0" fill="#eef2ff"/><text x="825.7" y="62.0" font-size="12" font-weight="600" fill="#059669">MIT</text><rect x="763.9" y="48.0" width="45.8" height="22" rx="11.0" fill="#eef2ff"/><text x="771.9" y="62.0" font-size="12" font-weight="600" fill="#3730a3">v0.9</text><line x1="58" y1="182.0" x2="842" y2="182.0" stroke="#e2e8f0" stroke-width="1"/><rect x="58" y="220.0" width="784" height="256.2" rx="16" fill="#eef2ff" fill-opacity="0.5" stroke="#e2e8f0" stroke-width="1"/><text x="58.0" y="208.0" font-size="11" font-weight="700" fill="#64748b" letter-spacing="1.6" font-family="ui-monospace,SFMono-Regular,Menlo,Consolas,monospace">WORLD OF WORLDS</text><g transform="translate(58.0,226.0) scale(0.8578)"><g filter="url(#shsoft)"><rect x="0.0" y="0.0" width="914.0" height="280.0" rx="18" fill="#ffffff" fill-opacity="0.62" stroke="#2563eb" stroke-width="1.7"/></g><rect x="0.0" y="0.0" width="914.0" height="6" rx="3" fill="#2563eb"/><text x="20.0" y="31.0" font-size="16" font-weight="700" fill="#0f172a" font-family="'Iowan Old Style','Palatino Linotype',Palatino,Georgia,serif">nation</text><text x="20.0" y="46.0" font-size="9.5" font-weight="600" fill="#64748b" font-family="ui-monospace,SFMono-Regular,Menlo,Consolas,monospace">composite · 2 worlds</text><g filter="url(#shsoft)"><rect x="20.0" y="52.0" width="422.0" height="192.0" rx="18" fill="#ffffff" fill-opacity="0.62" stroke="#7c3aed" stroke-width="1.7"/></g><rect x="20.0" y="52.0" width="422.0" height="6" rx="3" fill="#7c3aed"/><text x="40.0" y="83.0" font-size="16" font-weight="700" fill="#0f172a" font-family="'Iowan Old Style','Palatino Linotype',Palatino,Georgia,serif">north-region</text><text x="40.0" y="98.0" font-size="9.5" font-weight="600" fill="#64748b" font-family="ui-monospace,SFMono-Regular,Menlo,Consolas,monospace">composite · 2 worlds</text><a href="ironforge.svg"><g filter="url(#sh)"><rect x="40.0" y="104.0" width="176" height="104" rx="13" fill="url(#gnode)" stroke="#e2e8f0" stroke-width="1.1"/></g><rect x="40.0" y="104.0" width="176" height="5" rx="2.5" fill="#2563eb"/><text x="53.0" y="129.0" font-size="13.5" font-weight="700" fill="#0f172a" font-family="'Iowan Old Style','Palatino Linotype',Palatino,Georgia,serif">ironforge</text><text x="53.0" y="149.0" font-size="10" font-weight="500" fill="#64748b" font-family="ui-monospace,SFMono-Regular,Menlo,Consolas,monospace">treasury: int</text><text x="53.0" y="164.0" font-size="10" font-weight="500" fill="#64748b" font-family="ui-monospace,SFMono-Regular,Menlo,Consolas,monospace">goods: int</text><text x="53.0" y="197.0" font-size="9.5" font-weight="600" fill="#2563eb" font-family="ui-monospace,SFMono-Regular,Menlo,Consolas,monospace">2 actions</text><circle cx="201.0" cy="194.0" r="3" fill="#059669"/></a><a href="steeltown.svg"><g filter="url(#sh)"><rect x="246.0" y="104.0" width="176" height="104" rx="13" fill="url(#gnode)" stroke="#e2e8f0" stroke-width="1.1"/></g><rect x="246.0" y="104.0" width="176" height="5" rx="2.5" fill="#2563eb"/><text x="259.0" y="129.0" font-size="13.5" font-weight="700" fill="#0f172a" font-family="'Iowan Old Style','Palatino Linotype',Palatino,Georgia,serif">steeltown</text><text x="259.0" y="149.0" font-size="10" font-weight="500" fill="#64748b" font-family="ui-monospace,SFMono-Regular,Menlo,Consolas,monospace">treasury: int</text><text x="259.0" y="164.0" font-size="10" font-weight="500" fill="#64748b" font-family="ui-monospace,SFMono-Regular,Menlo,Consolas,monospace">goods: int</text><text x="259.0" y="197.0" font-size="9.5" font-weight="600" fill="#2563eb" font-family="ui-monospace,SFMono-Regular,Menlo,Consolas,monospace">2 actions</text><circle cx="407.0" cy="194.0" r="3" fill="#059669"/></a><path d="M 216.0 156.0 C 231.0 156.0, 231.0 156.0, 246.0 156.0" fill="none" stroke="#2563eb" stroke-width="1.9" marker-end="url(#arr)" marker-start="url(#arr)"/><rect x="211.0" y="137.0" width="40.0" height="15" rx="7.5" fill="#ffffff" stroke="#e2e8f0" stroke-width="0.8"/><text x="231.0" y="148.0" font-size="9.5" font-weight="600" fill="#2563eb" text-anchor="middle">trade</text><rect x="329.2" y="66.0" width="92.8" height="21" rx="10.5" fill="#eef2ff" stroke="#7c3aed" stroke-width="1.1"/><text x="337.2" y="81.0" font-size="10" font-weight="700" fill="#7c3aed" font-family="ui-monospace,SFMono-Regular,Menlo,Consolas,monospace">Σ region_gdp</text><path d="M 128.0 104.0 L 375.6 87.0" fill="none" stroke="#7c3aed" stroke-width="1" stroke-dasharray="3 3" opacity="0.45" marker-end="url(#arrUp)"/><path d="M 334.0 104.0 L 375.6 87.0" fill="none" stroke="#7c3aed" stroke-width="1" stroke-dasharray="3 3" opacity="0.45" marker-end="url(#arrUp)"/><g filter="url(#shsoft)"><rect x="472.0" y="52.0" width="422.0" height="192.0" rx="18" fill="#ffffff" fill-opacity="0.62" stroke="#7c3aed" stroke-width="1.7"/></g><rect x="472.0" y="52.0" width="422.0" height="6" rx="3" fill="#7c3aed"/><text x="492.0" y="83.0" font-size="16" font-weight="700" fill="#0f172a" font-family="'Iowan Old Style','Palatino Linotype',Palatino,Georgia,serif">south-region</text><text x="492.0" y="98.0" font-size="9.5" font-weight="600" fill="#64748b" font-family="ui-monospace,SFMono-Regular,Menlo,Consolas,monospace">composite · 2 worlds</text><a href="portville.svg"><g filter="url(#sh)"><rect x="492.0" y="104.0" width="176" height="104" rx="13" fill="url(#gnode)" stroke="#e2e8f0" stroke-width="1.1"/></g><rect x="492.0" y="104.0" width="176" height="5" rx="2.5" fill="#2563eb"/><text x="505.0" y="129.0" font-size="13.5" font-weight="700" fill="#0f172a" font-family="'Iowan Old Style','Palatino Linotype',Palatino,Georgia,serif">portville</text><text x="505.0" y="149.0" font-size="10" font-weight="500" fill="#64748b" font-family="ui-monospace,SFMono-Regular,Menlo,Consolas,monospace">treasury: int</text><text x="505.0" y="164.0" font-size="10" font-weight="500" fill="#64748b" font-family="ui-monospace,SFMono-Regular,Menlo,Consolas,monospace">goods: int</text><text x="505.0" y="197.0" font-size="9.5" font-weight="600" fill="#2563eb" font-family="ui-monospace,SFMono-Regular,Menlo,Consolas,monospace">2 actions</text><circle cx="653.0" cy="194.0" r="3" fill="#059669"/></a><a href="baytown.svg"><g filter="url(#sh)"><rect x="698.0" y="104.0" width="176" height="104" rx="13" fill="url(#gnode)" stroke="#e2e8f0" stroke-width="1.1"/></g><rect x="698.0" y="104.0" width="176" height="5" rx="2.5" fill="#2563eb"/><text x="711.0" y="129.0" font-size="13.5" font-weight="700" fill="#0f172a" font-family="'Iowan Old Style','Palatino Linotype',Palatino,Georgia,serif">baytown</text><text x="711.0" y="149.0" font-size="10" font-weight="500" fill="#64748b" font-family="ui-monospace,SFMono-Regular,Menlo,Consolas,monospace">treasury: int</text><text x="711.0" y="164.0" font-size="10" font-weight="500" fill="#64748b" font-family="ui-monospace,SFMono-Regular,Menlo,Consolas,monospace">goods: int</text><text x="711.0" y="197.0" font-size="9.5" font-weight="600" fill="#2563eb" font-family="ui-monospace,SFMono-Regular,Menlo,Consolas,monospace">2 actions</text><circle cx="859.0" cy="194.0" r="3" fill="#059669"/></a><path d="M 668.0 156.0 C 683.0 156.0, 683.0 156.0, 698.0 156.0" fill="none" stroke="#2563eb" stroke-width="1.9" marker-end="url(#arr)" marker-start="url(#arr)"/><rect x="663.0" y="137.0" width="40.0" height="15" rx="7.5" fill="#ffffff" stroke="#e2e8f0" stroke-width="0.8"/><text x="683.0" y="148.0" font-size="9.5" font-weight="600" fill="#2563eb" text-anchor="middle">trade</text><rect x="781.2" y="66.0" width="92.8" height="21" rx="10.5" fill="#eef2ff" stroke="#7c3aed" stroke-width="1.1"/><text x="789.2" y="81.0" font-size="10" font-weight="700" fill="#7c3aed" font-family="ui-monospace,SFMono-Regular,Menlo,Consolas,monospace">Σ region_gdp</text><path d="M 580.0 104.0 L 827.6 87.0" fill="none" stroke="#7c3aed" stroke-width="1" stroke-dasharray="3 3" opacity="0.45" marker-end="url(#arrUp)"/><path d="M 786.0 104.0 L 827.6 87.0" fill="none" stroke="#7c3aed" stroke-width="1" stroke-dasharray="3 3" opacity="0.45" marker-end="url(#arrUp)"/><rect x="801.2" y="14.0" width="92.8" height="21" rx="10.5" fill="#eef2ff" stroke="#7c3aed" stroke-width="1.1"/><text x="809.2" y="29.0" font-size="10" font-weight="700" fill="#7c3aed" font-family="ui-monospace,SFMono-Regular,Menlo,Consolas,monospace">Σ nation_gdp</text><path d="M 231.0 52.0 L 847.6 35.0" fill="none" stroke="#7c3aed" stroke-width="1" stroke-dasharray="3 3" opacity="0.45" marker-end="url(#arrUp)"/><path d="M 683.0 52.0 L 847.6 35.0" fill="none" stroke="#7c3aed" stroke-width="1" stroke-dasharray="3 3" opacity="0.45" marker-end="url(#arrUp)"/></g><text x="58.0" y="494.2" font-size="11" font-weight="700" fill="#64748b" letter-spacing="1.6">STATE SCHEMA</text><text x="58.0" y="525.2" font-size="13" font-weight="600" fill="#0f172a">north</text><rect x="262.2" y="513.2" width="43.3" height="21" rx="10.5" fill="#eef2ff"/><text x="270.2" y="526.2" font-size="11" font-weight="600" fill="#3730a3">dict</text><line x1="58.0" y1="534.2" x2="308.0" y2="534.2" stroke="#e2e8f0" stroke-width="1" stroke-dasharray="2 4"/><text x="58.0" y="552.2" font-size="13" font-weight="600" fill="#0f172a">south</text><rect x="262.2" y="540.2" width="43.3" height="21" rx="10.5" fill="#eef2ff"/><text x="270.2" y="553.2" font-size="11" font-weight="600" fill="#3730a3">dict</text><line x1="58.0" y1="561.2" x2="308.0" y2="561.2" stroke="#e2e8f0" stroke-width="1" stroke-dasharray="2 4"/><text x="328.0" y="494.2" font-size="11" font-weight="700" fill="#64748b" letter-spacing="1.6">ACTIONS</text><rect x="328.0" y="508.2" width="149.9" height="22" rx="11.0" fill="#eef2ff"/><text x="336.0" y="522.2" font-size="12" font-weight="600" fill="#3730a3">north:west:produce</text><rect x="328.0" y="538.2" width="127.6" height="22" rx="11.0" fill="#eef2ff"/><text x="336.0" y="552.2" font-size="12" font-weight="600" fill="#3730a3">north:west:sell</text><rect x="328.0" y="568.2" width="149.9" height="22" rx="11.0" fill="#eef2ff"/><text x="336.0" y="582.2" font-size="12" font-weight="600" fill="#3730a3">north:east:produce</text><rect x="328.0" y="598.2" width="127.6" height="22" rx="11.0" fill="#eef2ff"/><text x="336.0" y="612.2" font-size="12" font-weight="600" fill="#3730a3">north:east:sell</text><rect x="328.0" y="628.2" width="90.4" height="22" rx="11.0" fill="#eef2ff"/><text x="336.0" y="642.2" font-size="12" font-weight="600" fill="#3730a3">north:tick</text><rect x="328.0" y="658.2" width="149.9" height="22" rx="11.0" fill="#eef2ff"/><text x="336.0" y="672.2" font-size="12" font-weight="600" fill="#3730a3">south:west:produce</text><rect x="328.0" y="688.2" width="127.6" height="22" rx="11.0" fill="#eef2ff"/><text x="336.0" y="702.2" font-size="12" font-weight="600" fill="#3730a3">south:west:sell</text><rect x="328.0" y="718.2" width="149.9" height="22" rx="11.0" fill="#eef2ff"/><text x="336.0" y="732.2" font-size="12" font-weight="600" fill="#3730a3">south:east:produce</text><rect x="328.0" y="748.2" width="127.6" height="22" rx="11.0" fill="#eef2ff"/><text x="336.0" y="762.2" font-size="12" font-weight="600" fill="#3730a3">south:east:sell</text><rect x="328.0" y="778.2" width="90.4" height="22" rx="11.0" fill="#eef2ff"/><text x="336.0" y="792.2" font-size="12" font-weight="600" fill="#3730a3">south:tick</text><rect x="426.4" y="778.2" width="30.9" height="22" rx="11.0" fill="#eef2ff"/><text x="434.4" y="792.2" font-size="12" font-weight="600" fill="#3730a3">+1</text><text x="328.0" y="830.2" font-size="11" font-weight="700" fill="#64748b" letter-spacing="1.6">DYNAMICS</text><circle cx="337.0" cy="855.2" r="8" fill="none" stroke="#64748b" stroke-width="1.6"/><text x="352.0" y="859.2" font-size="13" font-weight="700" fill="#0f172a">composite dynamics</text><text x="328.0" y="888.2" font-size="11" font-weight="700" fill="#64748b" letter-spacing="1.6">DETAILS</text><circle cx="332.0" cy="902.2" r="2.6" fill="#2563eb"/><text x="342.0" y="906.2" font-size="12" font-weight="600" fill="#0f172a">0 rules</text><circle cx="332.0" cy="921.2" r="2.6" fill="#2563eb"/><text x="342.0" y="925.2" font-size="12" font-weight="600" fill="#0f172a">2 child worlds</text><circle cx="332.0" cy="940.2" r="2.6" fill="#2563eb"/><text x="342.0" y="944.2" font-size="12" font-weight="600" fill="#0f172a">0 bridges</text><text x="570.0" y="494.2" font-size="11" font-weight="700" fill="#64748b" letter-spacing="1.6">SAMPLE ROLLOUT</text><rect x="570.0" y="508.2" width="272.0" height="132" rx="14" fill="#eef2ff" stroke="#e2e8f0" stroke-width="1"/><path class="series" d="M 584.0 626.2 L 584.0 626.2 L 604.3 617.5 L 624.7 608.8 L 645.0 600.2 L 665.3 591.5 L 685.7 582.8 L 706.0 574.2 L 726.3 565.5 L 746.7 556.8 L 767.0 548.2 L 787.3 539.5 L 807.7 530.8 L 828.0 522.2 L 828.0 626.2 Z" fill="url(#garea)"/><polyline class="series" points="584.0,626.2 604.3,617.5 624.7,608.8 645.0,600.2 665.3,591.5 685.7,582.8 706.0,574.2 726.3,565.5 746.7,556.8 767.0,548.2 787.3,539.5 807.7,530.8 828.0,522.2" fill="none" stroke="#2563eb" stroke-width="2.4" stroke-linejoin="round"/><circle cx="828.0" cy="522.2" r="3.2" fill="#2563eb"/><rect x="570.0" y="647.2" width="10" height="10" rx="2.5" fill="#2563eb"/><text x="585.0" y="656.2" font-size="11" font-weight="600" fill="#64748b">nation_gdp ↑</text><line x1="58" y1="977.2" x2="842" y2="977.2" stroke="#e2e8f0" stroke-width="1"/><text x="58.0" y="997.2" font-size="11" font-weight="500" fill="#64748b">openworld_spec_version 1.0  ·  lineage: nation &gt; region &gt; city</text><text x="842.0" y="997.2" font-size="12" font-weight="800" fill="#2563eb" text-anchor="end">OpenWorld</text></svg>