<?xml version="1.0" encoding="UTF-8"?>
<svg xmlns="http://www.w3.org/2000/svg" viewBox="0 0 900 826" width="900" height="826" font-family="-apple-system,BlinkMacSystemFont,Segoe UI,Roboto,Helvetica,Arial,sans-serif"><defs><linearGradient id="gbg" x1="0" y1="0" x2="0" y2="1"><stop offset="0" stop-color="#fcfbf8"/><stop offset="1" stop-color="#eef0ec"/></linearGradient><linearGradient id="gnode" x1="0" y1="0" x2="0" y2="1"><stop offset="0" stop-color="#ffffff"/><stop offset="1" stop-color="#eef1f6"/></linearGradient><linearGradient id="gacc" x1="0" y1="0" x2="1" y2="0"><stop offset="0" stop-color="#1d4ed8"/><stop offset="1" stop-color="#0891b2"/></linearGradient><linearGradient id="garea" x1="0" y1="0" x2="0" y2="1"><stop offset="0" stop-color="#1d4ed8" stop-opacity="0.34"/><stop offset="1" stop-color="#1d4ed8" stop-opacity="0"/></linearGradient><filter id="sh" x="-30%" y="-30%" width="160%" height="160%"><feDropShadow dx="0" dy="5" stdDeviation="9" flood-color="#16202e" flood-opacity="0.14"/></filter><filter id="shsoft" x="-40%" y="-40%" width="180%" height="180%"><feDropShadow dx="0" dy="10" stdDeviation="22" flood-color="#16202e" flood-opacity="0.14"/></filter><marker id="arr" markerWidth="9" markerHeight="9" refX="6.5" refY="3" orient="auto"><path d="M0,0 L6.5,3 L0,6 Z" fill="#1d4ed8"/></marker><marker id="arrUp" markerWidth="9" markerHeight="9" refX="3" refY="6.2" orient="auto"><path d="M0,6.2 L3,0 L6,6.2 Z" fill="#0f766e"/></marker><pattern id="grid" width="24" height="24" patternUnits="userSpaceOnUse"><path d="M24 0 H0 V24" fill="none" stroke="#8aa0c2" stroke-width="0.6" opacity="0.35"/></pattern><pattern id="gridFine" width="22" height="22" patternUnits="userSpaceOnUse"><path d="M22 0 H0 V22" fill="none" stroke="#8aa0c2" stroke-width="0.5" opacity="0.28"/></pattern><filter id="glow" x="-60%" y="-60%" width="220%" height="220%"><feGaussianBlur stdDeviation="2.4" result="b"/><feMerge><feMergeNode in="b"/><feMergeNode in="SourceGraphic"/></feMerge></filter></defs><rect x="0" y="0" width="900" height="826.1750547045951" fill="url(#gbg)"/><g filter="url(#shsoft)"><rect x="26" y="26" width="848" height="774.1750547045951" rx="24" fill="url(#gbg)" stroke="#dde2ea" stroke-width="1"/></g><clipPath id="pc"><rect x="26" y="26" width="848" height="774.1750547045951" rx="24"/></clipPath><rect x="26" y="26" width="848" height="774.1750547045951" fill="url(#gridFine)" clip-path="url(#pc)"/><rect x="26" y="26" width="848" height="6" rx="3" fill="url(#gacc)"/><path d="M 39 51 L 39 39 L 51 39" fill="none" stroke="#1d4ed8" stroke-width="1.4" opacity="0.55"/><path d="M 861 51 L 861 39 L 849 39" fill="none" stroke="#1d4ed8" stroke-width="1.4" opacity="0.55"/><path d="M 39 775 L 39 787 L 51 787" fill="none" stroke="#1d4ed8" stroke-width="1.4" opacity="0.55"/><path d="M 861 775 L 861 787 L 849 787" fill="none" stroke="#1d4ed8" stroke-width="1.4" opacity="0.55"/><g transform="translate(73.0,76.0)"><rect x="-15.0" y="-15.0" width="30.0" height="30.0" rx="5.1" fill="none" stroke="#1d4ed8" stroke-width="2.1"/><rect x="-9.0" y="-9.0" width="18.0" height="18.0" rx="3.6" fill="none" stroke="#b45309" stroke-width="1.9"/><rect x="-3.6" y="-3.6" width="7.2" height="7.2" rx="1.8" fill="#0f766e"/></g><text x="98.0" y="58.0" font-size="9.5" font-weight="700" fill="#1d4ed8" letter-spacing="2.4" font-family="ui-monospace,SFMono-Regular,Menlo,Consolas,monospace">OPENWORLD · MODEL CARD</text><text x="98.0" y="84.0" font-size="29" font-weight="700" fill="#16202e" font-family="'Iowan Old Style','Palatino Linotype',Palatino,Georgia,serif">nation</text><text x="58.0" y="104.0" font-size="14" font-weight="500" fill="#5b6675">A nation of two regions, each of two cities: GDP rolls up the hierarchy (city -&gt;</text><text x="58.0" y="123.0" font-size="14" font-weight="500" fill="#5b6675">region -&gt; nation).</text><rect x="58.0" y="134.0" width="68.1" height="22" rx="11.0" fill="#eaeef6"/><text x="66.0" y="148.0" font-size="12" font-weight="600" fill="#1e3a8a">economy</text><rect x="134.1" y="134.0" width="60.6" height="22" rx="11.0" fill="#eaeef6"/><text x="142.1" y="148.0" font-size="12" font-weight="600" fill="#1e3a8a">nested</text><rect x="202.7" y="134.0" width="127.6" height="22" rx="11.0" fill="#eaeef6"/><text x="210.7" y="148.0" font-size="12" font-weight="600" fill="#1e3a8a">world-of-worlds</text><rect x="817.7" y="48.0" width="38.3" height="22" rx="11.0" fill="#eaeef6"/><text x="825.7" y="62.0" font-size="12" font-weight="600" fill="#0f766e">MIT</text><rect x="763.9" y="48.0" width="45.8" height="22" rx="11.0" fill="#eaeef6"/><text x="771.9" y="62.0" font-size="12" font-weight="600" fill="#1e3a8a">v0.9</text><line x1="58" y1="182.0" x2="842" y2="182.0" stroke="#dde2ea" stroke-width="1"/><rect x="58" y="220.0" width="784" height="256.2" rx="16" fill="#eef1f6" fill-opacity="0.5" stroke="#dde2ea" stroke-width="1"/><text x="58.0" y="208.0" font-size="11" font-weight="700" fill="#5b6675" letter-spacing="1.6" font-family="ui-monospace,SFMono-Regular,Menlo,Consolas,monospace">WORLD OF WORLDS</text><g transform="translate(58.0,226.0) scale(0.8578)"><g filter="url(#shsoft)"><rect x="0.0" y="0.0" width="914.0" height="280.0" rx="18" fill="#fcfbf8" fill-opacity="0.62" stroke="#1d4ed8" stroke-width="1.7"/></g><rect x="0.0" y="0.0" width="914.0" height="6" rx="3" fill="#1d4ed8"/><text x="20.0" y="31.0" font-size="16" font-weight="700" fill="#16202e" font-family="'Iowan Old Style','Palatino Linotype',Palatino,Georgia,serif">nation</text><text x="20.0" y="46.0" font-size="9.5" font-weight="600" fill="#5b6675" font-family="ui-monospace,SFMono-Regular,Menlo,Consolas,monospace">composite · 2 worlds</text><g filter="url(#shsoft)"><rect x="20.0" y="52.0" width="422.0" height="192.0" rx="18" fill="#fcfbf8" fill-opacity="0.62" stroke="#b45309" stroke-width="1.7"/></g><rect x="20.0" y="52.0" width="422.0" height="6" rx="3" fill="#b45309"/><text x="40.0" y="83.0" font-size="16" font-weight="700" fill="#16202e" font-family="'Iowan Old Style','Palatino Linotype',Palatino,Georgia,serif">north-region</text><text x="40.0" y="98.0" font-size="9.5" font-weight="600" fill="#5b6675" font-family="ui-monospace,SFMono-Regular,Menlo,Consolas,monospace">composite · 2 worlds</text><a href="ironforge.svg"><g filter="url(#sh)"><rect x="40.0" y="104.0" width="176" height="104" rx="13" fill="url(#gnode)" stroke="#dde2ea" stroke-width="1.1"/></g><rect x="40.0" y="104.0" width="176" height="5" rx="2.5" fill="#0f766e"/><text x="53.0" y="129.0" font-size="13.5" font-weight="700" fill="#16202e" font-family="'Iowan Old Style','Palatino Linotype',Palatino,Georgia,serif">ironforge</text><text x="53.0" y="149.0" font-size="10" font-weight="500" fill="#5b6675" font-family="ui-monospace,SFMono-Regular,Menlo,Consolas,monospace">treasury: int</text><text x="53.0" y="164.0" font-size="10" font-weight="500" fill="#5b6675" font-family="ui-monospace,SFMono-Regular,Menlo,Consolas,monospace">goods: int</text><text x="53.0" y="197.0" font-size="9.5" font-weight="600" fill="#0f766e" font-family="ui-monospace,SFMono-Regular,Menlo,Consolas,monospace">2 actions</text><circle cx="201.0" cy="194.0" r="3" fill="#0f766e"/></a><a href="steeltown.svg"><g filter="url(#sh)"><rect x="246.0" y="104.0" width="176" height="104" rx="13" fill="url(#gnode)" stroke="#dde2ea" stroke-width="1.1"/></g><rect x="246.0" y="104.0" width="176" height="5" rx="2.5" fill="#0f766e"/><text x="259.0" y="129.0" font-size="13.5" font-weight="700" fill="#16202e" font-family="'Iowan Old Style','Palatino Linotype',Palatino,Georgia,serif">steeltown</text><text x="259.0" y="149.0" font-size="10" font-weight="500" fill="#5b6675" font-family="ui-monospace,SFMono-Regular,Menlo,Consolas,monospace">treasury: int</text><text x="259.0" y="164.0" font-size="10" font-weight="500" fill="#5b6675" font-family="ui-monospace,SFMono-Regular,Menlo,Consolas,monospace">goods: int</text><text x="259.0" y="197.0" font-size="9.5" font-weight="600" fill="#0f766e" font-family="ui-monospace,SFMono-Regular,Menlo,Consolas,monospace">2 actions</text><circle cx="407.0" cy="194.0" r="3" fill="#0f766e"/></a><path d="M 216.0 156.0 C 231.0 156.0, 231.0 156.0, 246.0 156.0" fill="none" stroke="#1d4ed8" stroke-width="1.9" marker-end="url(#arr)" marker-start="url(#arr)"/><rect x="211.0" y="137.0" width="40.0" height="15" rx="7.5" fill="#fcfbf8" stroke="#dde2ea" stroke-width="0.8"/><text x="231.0" y="148.0" font-size="9.5" font-weight="600" fill="#1d4ed8" text-anchor="middle">trade</text><rect x="329.2" y="66.0" width="92.8" height="21" rx="10.5" fill="#eef1f6" stroke="#0f766e" stroke-width="1.1"/><text x="337.2" y="81.0" font-size="10" font-weight="700" fill="#0f766e" font-family="ui-monospace,SFMono-Regular,Menlo,Consolas,monospace">Σ region_gdp</text><path d="M 128.0 104.0 L 375.6 87.0" fill="none" stroke="#0f766e" stroke-width="1" stroke-dasharray="3 3" opacity="0.45" marker-end="url(#arrUp)"/><path d="M 334.0 104.0 L 375.6 87.0" fill="none" stroke="#0f766e" stroke-width="1" stroke-dasharray="3 3" opacity="0.45" marker-end="url(#arrUp)"/><g filter="url(#shsoft)"><rect x="472.0" y="52.0" width="422.0" height="192.0" rx="18" fill="#fcfbf8" fill-opacity="0.62" stroke="#b45309" stroke-width="1.7"/></g><rect x="472.0" y="52.0" width="422.0" height="6" rx="3" fill="#b45309"/><text x="492.0" y="83.0" font-size="16" font-weight="700" fill="#16202e" font-family="'Iowan Old Style','Palatino Linotype',Palatino,Georgia,serif">south-region</text><text x="492.0" y="98.0" font-size="9.5" font-weight="600" fill="#5b6675" font-family="ui-monospace,SFMono-Regular,Menlo,Consolas,monospace">composite · 2 worlds</text><a href="portville.svg"><g filter="url(#sh)"><rect x="492.0" y="104.0" width="176" height="104" rx="13" fill="url(#gnode)" stroke="#dde2ea" stroke-width="1.1"/></g><rect x="492.0" y="104.0" width="176" height="5" rx="2.5" fill="#0f766e"/><text x="505.0" y="129.0" font-size="13.5" font-weight="700" fill="#16202e" font-family="'Iowan Old Style','Palatino Linotype',Palatino,Georgia,serif">portville</text><text x="505.0" y="149.0" font-size="10" font-weight="500" fill="#5b6675" font-family="ui-monospace,SFMono-Regular,Menlo,Consolas,monospace">treasury: int</text><text x="505.0" y="164.0" font-size="10" font-weight="500" fill="#5b6675" font-family="ui-monospace,SFMono-Regular,Menlo,Consolas,monospace">goods: int</text><text x="505.0" y="197.0" font-size="9.5" font-weight="600" fill="#0f766e" font-family="ui-monospace,SFMono-Regular,Menlo,Consolas,monospace">2 actions</text><circle cx="653.0" cy="194.0" r="3" fill="#0f766e"/></a><a href="baytown.svg"><g filter="url(#sh)"><rect x="698.0" y="104.0" width="176" height="104" rx="13" fill="url(#gnode)" stroke="#dde2ea" stroke-width="1.1"/></g><rect x="698.0" y="104.0" width="176" height="5" rx="2.5" fill="#0f766e"/><text x="711.0" y="129.0" font-size="13.5" font-weight="700" fill="#16202e" font-family="'Iowan Old Style','Palatino Linotype',Palatino,Georgia,serif">baytown</text><text x="711.0" y="149.0" font-size="10" font-weight="500" fill="#5b6675" font-family="ui-monospace,SFMono-Regular,Menlo,Consolas,monospace">treasury: int</text><text x="711.0" y="164.0" font-size="10" font-weight="500" fill="#5b6675" font-family="ui-monospace,SFMono-Regular,Menlo,Consolas,monospace">goods: int</text><text x="711.0" y="197.0" font-size="9.5" font-weight="600" fill="#0f766e" font-family="ui-monospace,SFMono-Regular,Menlo,Consolas,monospace">2 actions</text><circle cx="859.0" cy="194.0" r="3" fill="#0f766e"/></a><path d="M 668.0 156.0 C 683.0 156.0, 683.0 156.0, 698.0 156.0" fill="none" stroke="#1d4ed8" stroke-width="1.9" marker-end="url(#arr)" marker-start="url(#arr)"/><rect x="663.0" y="137.0" width="40.0" height="15" rx="7.5" fill="#fcfbf8" stroke="#dde2ea" stroke-width="0.8"/><text x="683.0" y="148.0" font-size="9.5" font-weight="600" fill="#1d4ed8" text-anchor="middle">trade</text><rect x="781.2" y="66.0" width="92.8" height="21" rx="10.5" fill="#eef1f6" stroke="#0f766e" stroke-width="1.1"/><text x="789.2" y="81.0" font-size="10" font-weight="700" fill="#0f766e" font-family="ui-monospace,SFMono-Regular,Menlo,Consolas,monospace">Σ region_gdp</text><path d="M 580.0 104.0 L 827.6 87.0" fill="none" stroke="#0f766e" stroke-width="1" stroke-dasharray="3 3" opacity="0.45" marker-end="url(#arrUp)"/><path d="M 786.0 104.0 L 827.6 87.0" fill="none" stroke="#0f766e" stroke-width="1" stroke-dasharray="3 3" opacity="0.45" marker-end="url(#arrUp)"/><rect x="801.2" y="14.0" width="92.8" height="21" rx="10.5" fill="#eef1f6" stroke="#0f766e" stroke-width="1.1"/><text x="809.2" y="29.0" font-size="10" font-weight="700" fill="#0f766e" font-family="ui-monospace,SFMono-Regular,Menlo,Consolas,monospace">Σ nation_gdp</text><path d="M 231.0 52.0 L 847.6 35.0" fill="none" stroke="#0f766e" stroke-width="1" stroke-dasharray="3 3" opacity="0.45" marker-end="url(#arrUp)"/><path d="M 683.0 52.0 L 847.6 35.0" fill="none" stroke="#0f766e" stroke-width="1" stroke-dasharray="3 3" opacity="0.45" marker-end="url(#arrUp)"/></g><rect x="58.0" y="492.2" width="3" height="11" rx="1.5" fill="#1d4ed8"/><text x="67.0" y="501.2" font-size="10.5" font-weight="700" fill="#5b6675" letter-spacing="1.8" font-family="ui-monospace,SFMono-Regular,Menlo,Consolas,monospace">SUB-WORLDS</text><rect x="54.0" y="515.2" width="258.0" height="24" rx="6" fill="#1d4ed8" fill-opacity="0.035"/><text x="62.0" y="531.2" font-size="12" font-weight="600" fill="#16202e" font-family="ui-monospace,SFMono-Regular,Menlo,Consolas,monospace">north</text><rect x="233.7" y="519.2" width="74.3" height="17" rx="5" fill="#eaeef6"/><text x="240.7" y="531.2" font-size="10.5" font-weight="700" fill="#b45309" font-family="ui-monospace,SFMono-Regular,Menlo,Consolas,monospace">composite</text><text x="225.7" y="531.2" font-size="10.5" font-weight="600" fill="#5b6675" text-anchor="end" font-family="ui-monospace,SFMono-Regular,Menlo,Consolas,monospace">north-region</text><text x="62.0" y="557.2" font-size="12" font-weight="600" fill="#16202e" font-family="ui-monospace,SFMono-Regular,Menlo,Consolas,monospace">south</text><rect x="233.7" y="545.2" width="74.3" height="17" rx="5" fill="#eaeef6"/><text x="240.7" y="557.2" font-size="10.5" font-weight="700" fill="#b45309" font-family="ui-monospace,SFMono-Regular,Menlo,Consolas,monospace">composite</text><text x="225.7" y="557.2" font-size="10.5" font-weight="600" fill="#5b6675" text-anchor="end" font-family="ui-monospace,SFMono-Regular,Menlo,Consolas,monospace">south-region</text><rect x="328.0" y="492.2" width="3" height="11" rx="1.5" fill="#1d4ed8"/><text x="337.0" y="501.2" font-size="10.5" font-weight="700" fill="#5b6675" letter-spacing="1.8" font-family="ui-monospace,SFMono-Regular,Menlo,Consolas,monospace">ACTIONS</text><rect x="328.0" y="516.2" width="76.5" height="20" rx="6" fill="#eaeef6" stroke="#1d4ed8" stroke-width="1" stroke-opacity="0.16"/><text x="337.0" y="530.2" font-size="10.5" font-weight="600" fill="#1e3a8a" font-family="ui-monospace,SFMono-Regular,Menlo,Consolas,monospace">north ▸ 5</text><rect x="411.5" y="516.2" width="76.5" height="20" rx="6" fill="#eaeef6" stroke="#1d4ed8" stroke-width="1" stroke-opacity="0.16"/><text x="420.5" y="530.2" font-size="10.5" font-weight="600" fill="#1e3a8a" font-family="ui-monospace,SFMono-Regular,Menlo,Consolas,monospace">south ▸ 5</text><rect x="495.0" y="516.2" width="44.0" height="20" rx="6" fill="#eaeef6" stroke="#1d4ed8" stroke-width="1" stroke-opacity="0.16"/><text x="504.0" y="530.2" font-size="10.5" font-weight="600" fill="#1e3a8a" font-family="ui-monospace,SFMono-Regular,Menlo,Consolas,monospace">tick</text><rect x="328.0" y="560.2" width="3" height="11" rx="1.5" fill="#1d4ed8"/><text x="337.0" y="569.2" font-size="10.5" font-weight="700" fill="#5b6675" letter-spacing="1.8" font-family="ui-monospace,SFMono-Regular,Menlo,Consolas,monospace">DYNAMICS</text><circle cx="337.0" cy="590.2" r="8" fill="none" stroke="#5b6675" stroke-width="1.6"/><text x="352.0" y="594.2" font-size="12.5" font-weight="700" fill="#16202e">composite dynamics</text><rect x="328.0" y="620.2" width="3" height="11" rx="1.5" fill="#1d4ed8"/><text x="337.0" y="629.2" font-size="10.5" font-weight="700" fill="#5b6675" letter-spacing="1.8" font-family="ui-monospace,SFMono-Regular,Menlo,Consolas,monospace">STRUCTURE</text><circle cx="332.0" cy="640.2" r="2.4" fill="#1d4ed8"/><text x="341.0" y="644.2" font-size="11.5" font-weight="600" fill="#16202e" font-family="ui-monospace,SFMono-Regular,Menlo,Consolas,monospace">2 child worlds</text><circle cx="332.0" cy="659.2" r="2.4" fill="#1d4ed8"/><text x="341.0" y="663.2" font-size="11.5" font-weight="600" fill="#16202e" font-family="ui-monospace,SFMono-Regular,Menlo,Consolas,monospace">1 aggregator</text><rect x="570.0" y="492.2" width="3" height="11" rx="1.5" fill="#1d4ed8"/><text x="579.0" y="501.2" font-size="10.5" font-weight="700" fill="#5b6675" letter-spacing="1.8" font-family="ui-monospace,SFMono-Regular,Menlo,Consolas,monospace">SAMPLE ROLLOUT</text><text x="842.0" y="501.2" font-size="9.5" font-weight="600" fill="#5b6675" text-anchor="end" font-family="ui-monospace,SFMono-Regular,Menlo,Consolas,monospace">12 steps · tick</text><rect x="570.0" y="514.2" width="272.0" height="130" rx="12" fill="#eef1f6" stroke="#dde2ea" stroke-width="1"/><text x="578.0" y="528.2" font-size="9" font-weight="600" fill="#5b6675" font-family="ui-monospace,SFMono-Regular,Menlo,Consolas,monospace">152</text><text x="578.0" y="636.2" font-size="9" font-weight="600" fill="#5b6675" font-family="ui-monospace,SFMono-Regular,Menlo,Consolas,monospace">56</text><line x1="586.0" y1="554.7" x2="826.0" y2="554.7" stroke="#dde2ea" stroke-width="0.8" stroke-dasharray="1 5" opacity="0.7"/><line x1="586.0" y1="579.2" x2="826.0" y2="579.2" stroke="#dde2ea" stroke-width="0.8" stroke-dasharray="1 5" opacity="0.7"/><line x1="586.0" y1="603.7" x2="826.0" y2="603.7" stroke="#dde2ea" stroke-width="0.8" stroke-dasharray="1 5" opacity="0.7"/><path class="series" d="M 586.0 628.2 L 586.0 628.2 L 606.0 620.0 L 626.0 611.8 L 646.0 603.7 L 666.0 595.5 L 686.0 587.3 L 706.0 579.2 L 726.0 571.0 L 746.0 562.8 L 766.0 554.7 L 786.0 546.5 L 806.0 538.3 L 826.0 530.2 L 826.0 628.2 Z" fill="url(#garea)"/><polyline class="series" points="586.0,628.2 606.0,620.0 626.0,611.8 646.0,603.7 666.0,595.5 686.0,587.3 706.0,579.2 726.0,571.0 746.0,562.8 766.0,554.7 786.0,546.5 806.0,538.3 826.0,530.2" fill="none" stroke="#1d4ed8" stroke-width="2.4" stroke-linejoin="round"/><circle cx="826.0" cy="530.2" r="3.4" fill="#1d4ed8"/><text x="822.0" y="522.2" font-size="9.5" font-weight="700" fill="#1d4ed8" text-anchor="end" font-family="ui-monospace,SFMono-Regular,Menlo,Consolas,monospace">152</text><rect x="572.0" y="651.2" width="9" height="9" rx="2" fill="#1d4ed8"/><text x="586.0" y="660.2" font-size="10.5" font-weight="600" fill="#5b6675" font-family="ui-monospace,SFMono-Regular,Menlo,Consolas,monospace">nation_gdp ↑</text><rect x="570.0" y="684.2" width="3" height="11" rx="1.5" fill="#1d4ed8"/><text x="579.0" y="693.2" font-size="10.5" font-weight="700" fill="#5b6675" letter-spacing="1.8" font-family="ui-monospace,SFMono-Regular,Menlo,Consolas,monospace">METRICS</text><text x="574.0" y="720.2" font-size="11" font-weight="600" fill="#5b6675" font-family="ui-monospace,SFMono-Regular,Menlo,Consolas,monospace">round-trip</text><text x="842.0" y="720.2" font-size="11.5" font-weight="700" fill="#0f766e" text-anchor="end" font-family="ui-monospace,SFMono-Regular,Menlo,Consolas,monospace">exact</text><line x1="574.0" y1="727.2" x2="842.0" y2="727.2" stroke="#dde2ea" stroke-width="1" stroke-dasharray="1 4" opacity="0.7"/><text x="574.0" y="742.2" font-size="11" font-weight="600" fill="#5b6675" font-family="ui-monospace,SFMono-Regular,Menlo,Consolas,monospace">reachable states</text><text x="842.0" y="742.2" font-size="11.5" font-weight="700" fill="#0f766e" text-anchor="end" font-family="ui-monospace,SFMono-Regular,Menlo,Consolas,monospace">—</text><line x1="574.0" y1="749.2" x2="842.0" y2="749.2" stroke="#dde2ea" stroke-width="1" stroke-dasharray="1 4" opacity="0.7"/><text x="574.0" y="764.2" font-size="11" font-weight="600" fill="#5b6675" font-family="ui-monospace,SFMono-Regular,Menlo,Consolas,monospace">spec size</text><text x="842.0" y="764.2" font-size="11.5" font-weight="700" fill="#0f766e" text-anchor="end" font-family="ui-monospace,SFMono-Regular,Menlo,Consolas,monospace">26.3 KB</text><line x1="574.0" y1="771.2" x2="842.0" y2="771.2" stroke="#dde2ea" stroke-width="1" stroke-dasharray="1 4" opacity="0.7"/><line x1="58" y1="788.2" x2="842" y2="788.2" stroke="#dde2ea" stroke-width="1"/><text x="58.0" y="808.2" font-size="11" font-weight="500" fill="#5b6675">openworld_spec_version 1.0  ·  lineage: nation &gt; region &gt; city</text><a href="https://play.reactflow.dev" target="_blank"><text x="450.0" y="808.2" font-size="10.5" font-weight="700" fill="#1d4ed8" text-anchor="middle" font-family="ui-monospace,SFMono-Regular,Menlo,Consolas,monospace">▸ open in React Flow</text></a><text x="842.0" y="808.2" font-size="12" font-weight="800" fill="#1d4ed8" text-anchor="end">OpenWorld</text></svg>