<?xml version="1.0" encoding="UTF-8"?>
<svg xmlns="http://www.w3.org/2000/svg" viewBox="0 0 900 702" width="900" height="702" font-family="-apple-system,BlinkMacSystemFont,Segoe UI,Roboto,Helvetica,Arial,sans-serif"><defs><linearGradient id="gbg" x1="0" y1="0" x2="0" y2="1"><stop offset="0" stop-color="#ffffff"/><stop offset="1" stop-color="#eef2f8"/></linearGradient><linearGradient id="gnode" x1="0" y1="0" x2="0" y2="1"><stop offset="0" stop-color="#ffffff"/><stop offset="1" stop-color="#eef2ff"/></linearGradient><linearGradient id="gacc" x1="0" y1="0" x2="1" y2="0"><stop offset="0" stop-color="#2563eb"/><stop offset="1" stop-color="#7c3aed"/></linearGradient><linearGradient id="garea" x1="0" y1="0" x2="0" y2="1"><stop offset="0" stop-color="#2563eb" stop-opacity="0.34"/><stop offset="1" stop-color="#2563eb" stop-opacity="0"/></linearGradient><filter id="sh" x="-30%" y="-30%" width="160%" height="160%"><feDropShadow dx="0" dy="5" stdDeviation="9" flood-color="#0f172a" flood-opacity="0.16"/></filter><filter id="shsoft" x="-40%" y="-40%" width="180%" height="180%"><feDropShadow dx="0" dy="10" stdDeviation="22" flood-color="#0f172a" flood-opacity="0.16"/></filter><marker id="arr" markerWidth="9" markerHeight="9" refX="6.5" refY="3" orient="auto"><path d="M0,0 L6.5,3 L0,6 Z" fill="#2563eb"/></marker><marker id="arrUp" markerWidth="9" markerHeight="9" refX="3" refY="6.2" orient="auto"><path d="M0,6.2 L3,0 L6,6.2 Z" fill="#7c3aed"/></marker><pattern id="grid" width="24" height="24" patternUnits="userSpaceOnUse"><path d="M24 0 H0 V24" fill="none" stroke="#9fb3d1" stroke-width="0.6" opacity="0.35"/></pattern><pattern id="gridFine" width="6" height="6" patternUnits="userSpaceOnUse"><circle cx="0.7" cy="0.7" r="0.7" fill="#9fb3d1" opacity="0.18"/></pattern><filter id="glow" x="-60%" y="-60%" width="220%" height="220%"><feGaussianBlur stdDeviation="2.4" result="b"/><feMerge><feMergeNode in="b"/><feMergeNode in="SourceGraphic"/></feMerge></filter></defs><rect x="0" y="0" width="900" height="702" fill="url(#gbg)"/><g filter="url(#shsoft)"><rect x="26" y="26" width="848" height="650" rx="24" fill="url(#gbg)" stroke="#dfe4ec" stroke-width="1"/></g><clipPath id="pc"><rect x="26" y="26" width="848" height="650" rx="24"/></clipPath><rect x="26" y="26" width="848" height="650" fill="url(#gridFine)" clip-path="url(#pc)"/><rect x="26" y="26" width="848" height="6" rx="3" fill="url(#gacc)"/><path d="M 39 51 L 39 39 L 51 39" fill="none" stroke="#2563eb" stroke-width="1.4" opacity="0.55"/><path d="M 861 51 L 861 39 L 849 39" fill="none" stroke="#2563eb" stroke-width="1.4" opacity="0.55"/><path d="M 39 651 L 39 663 L 51 663" fill="none" stroke="#2563eb" stroke-width="1.4" opacity="0.55"/><path d="M 861 651 L 861 663 L 849 663" fill="none" stroke="#2563eb" stroke-width="1.4" opacity="0.55"/><g transform="translate(73.0,76.0)"><circle r="15" fill="url(#gacc)"/><circle r="15" fill="none" stroke="#ffffff" stroke-opacity="0.55" stroke-width="1.1"/><ellipse rx="6.8" ry="15" fill="none" stroke="#ffffff" stroke-opacity="0.55" stroke-width="1"/><line x1="-15" y1="0" x2="15" y2="0" stroke="#ffffff" stroke-opacity="0.55" stroke-width="1"/><line x1="-12.9" y1="-7.5" x2="12.9" y2="-7.5" stroke="#ffffff" stroke-opacity="0.4" stroke-width="0.9"/><line x1="-12.9" y1="7.5" x2="12.9" y2="7.5" stroke="#ffffff" stroke-opacity="0.4" stroke-width="0.9"/></g><text x="98.0" y="58.0" font-size="9.5" font-weight="700" fill="#2563eb" letter-spacing="2.4" font-family="ui-monospace,SFMono-Regular,Menlo,Consolas,monospace">OPENWORLD · MODEL CARD</text><text x="98.0" y="84.0" font-size="29" font-weight="700" fill="#0f172a" font-family="'Iowan Old Style','Palatino Linotype',Palatino,Georgia,serif">orchard</text><text x="58.0" y="104.0" font-size="14" font-weight="500" fill="#64748b">Agents share an orchard with a limited pool of apples.</text><rect x="58.0" y="115.0" width="75.5" height="22" rx="11.0" fill="#eef2ff"/><text x="66.0" y="129.0" font-size="12" font-weight="600" fill="#3730a3">resource</text><rect x="141.5" y="115.0" width="97.8" height="22" rx="11.0" fill="#eef2ff"/><text x="149.5" y="129.0" font-size="12" font-weight="600" fill="#3730a3">multi-agent</text><rect x="247.4" y="115.0" width="45.8" height="22" rx="11.0" fill="#eef2ff"/><text x="255.4" y="129.0" font-size="12" font-weight="600" fill="#3730a3">leaf</text><rect x="817.7" y="48.0" width="38.3" height="22" rx="11.0" fill="#eef2ff"/><text x="825.7" y="62.0" font-size="12" font-weight="600" fill="#059669">MIT</text><rect x="763.9" y="48.0" width="45.8" height="22" rx="11.0" fill="#eef2ff"/><text x="771.9" y="62.0" font-size="12" font-weight="600" fill="#3730a3">v1.0</text><line x1="58" y1="163.0" x2="842" y2="163.0" stroke="#e2e8f0" stroke-width="1"/><rect x="58" y="201.0" width="784" height="270.0" rx="16" fill="#eef2ff" fill-opacity="0.5" stroke="#e2e8f0" stroke-width="1"/><text x="58.0" y="189.0" font-size="11" font-weight="700" fill="#64748b" letter-spacing="1.6" font-family="ui-monospace,SFMono-Regular,Menlo,Consolas,monospace">STATE-TRANSITION GRAPH</text><path d="M 437.0 323.5 C 426.0 297.5, 474.0 297.5, 463.0 323.5" fill="none" stroke="#2563eb" stroke-width="1.5" marker-end="url(#arr)"/><rect x="415.0" y="291.5" width="70.0" height="15" rx="7.5" fill="#ffffff" stroke="#e2e8f0" stroke-width="0.8"/><text x="450.0" y="302.5" font-size="9.5" font-weight="600" fill="#2563eb" text-anchor="middle">pick, wait</text><g filter="url(#sh)"><rect x="389.0" y="323.5" width="122.0" height="41.0" rx="13" fill="url(#gnode)" stroke="#2563eb" stroke-width="2.2"/></g><text x="391.0" y="316.5" font-size="10" font-weight="700" fill="#2563eb">▶ start</text><text x="450.0" y="348.5" font-size="13" font-weight="700" fill="#0f172a" text-anchor="middle">apples 10</text><rect x="58.0" y="487.0" width="3" height="11" rx="1.5" fill="#2563eb"/><text x="67.0" y="496.0" font-size="10.5" font-weight="700" fill="#64748b" letter-spacing="1.8" font-family="ui-monospace,SFMono-Regular,Menlo,Consolas,monospace">STATE SCHEMA</text><rect x="54.0" y="510.0" width="258.0" height="24" rx="6" fill="#2563eb" fill-opacity="0.035"/><text x="62.0" y="526.0" font-size="12" font-weight="600" fill="#0f172a" font-family="ui-monospace,SFMono-Regular,Menlo,Consolas,monospace">apples</text><rect x="273.9" y="514.0" width="34.1" height="17" rx="5" fill="#eef2ff"/><text x="280.9" y="526.0" font-size="10.5" font-weight="700" fill="#2563eb" font-family="ui-monospace,SFMono-Regular,Menlo,Consolas,monospace">int</text><text x="62.0" y="552.0" font-size="12" font-weight="600" fill="#0f172a" font-family="ui-monospace,SFMono-Regular,Menlo,Consolas,monospace">harvested</text><rect x="267.2" y="540.0" width="40.8" height="17" rx="5" fill="#eef2ff"/><text x="274.2" y="552.0" font-size="10.5" font-weight="700" fill="#2563eb" font-family="ui-monospace,SFMono-Regular,Menlo,Consolas,monospace">dict</text><rect x="328.0" y="487.0" width="3" height="11" rx="1.5" fill="#2563eb"/><text x="337.0" y="496.0" font-size="10.5" font-weight="700" fill="#64748b" letter-spacing="1.8" font-family="ui-monospace,SFMono-Regular,Menlo,Consolas,monospace">ACTIONS</text><rect x="328.0" y="511.0" width="44.0" height="20" rx="6" fill="#eef2ff" stroke="#2563eb" stroke-width="1" stroke-opacity="0.16"/><text x="337.0" y="525.0" font-size="10.5" font-weight="600" fill="#3730a3" font-family="ui-monospace,SFMono-Regular,Menlo,Consolas,monospace">pick</text><rect x="379.0" y="511.0" width="44.0" height="20" rx="6" fill="#eef2ff" stroke="#2563eb" stroke-width="1" stroke-opacity="0.16"/><text x="388.0" y="525.0" font-size="10.5" font-weight="600" fill="#3730a3" font-family="ui-monospace,SFMono-Regular,Menlo,Consolas,monospace">wait</text><rect x="328.0" y="553.0" width="3" height="11" rx="1.5" fill="#2563eb"/><text x="337.0" y="562.0" font-size="10.5" font-weight="700" fill="#64748b" letter-spacing="1.8" font-family="ui-monospace,SFMono-Regular,Menlo,Consolas,monospace">DYNAMICS</text><circle cx="337.0" cy="583.0" r="8" fill="#059669"/><path d="M333.4,583.0 l2.4,2.4 l4-4.4" fill="none" stroke="#fff" stroke-width="1.8" stroke-linecap="round" stroke-linejoin="round"/><text x="352.0" y="587.0" font-size="12.5" font-weight="700" fill="#0f172a">code (from function)</text><rect x="328.0" y="607.0" width="3" height="11" rx="1.5" fill="#2563eb"/><text x="337.0" y="616.0" font-size="10.5" font-weight="700" fill="#64748b" letter-spacing="1.8" font-family="ui-monospace,SFMono-Regular,Menlo,Consolas,monospace">DETAILS</text><circle cx="332.0" cy="627.0" r="2.4" fill="#2563eb"/><text x="341.0" y="631.0" font-size="11.5" font-weight="600" fill="#0f172a" font-family="ui-monospace,SFMono-Regular,Menlo,Consolas,monospace">3 rules</text><rect x="570.0" y="487.0" width="3" height="11" rx="1.5" fill="#2563eb"/><text x="579.0" y="496.0" font-size="10.5" font-weight="700" fill="#64748b" letter-spacing="1.8" font-family="ui-monospace,SFMono-Regular,Menlo,Consolas,monospace">SAMPLE ROLLOUT</text><rect x="570.0" y="509.0" width="272.0" height="124" rx="12" fill="#eef2ff" stroke="#e2e8f0" stroke-width="1"/><text x="706.0" y="575.0" font-size="12" font-weight="500" fill="#64748b" text-anchor="middle" font-family="ui-monospace,SFMono-Regular,Menlo,Consolas,monospace">no numeric preview</text><line x1="58" y1="664.0" x2="842" y2="664.0" stroke="#e2e8f0" stroke-width="1"/><text x="58.0" y="684.0" font-size="11" font-weight="500" fill="#64748b">openworld_spec_version 1.0  ·  lineage: E01 orchard world</text><a href="https://play.reactflow.dev" target="_blank"><text x="450.0" y="684.0" font-size="10.5" font-weight="700" fill="#2563eb" text-anchor="middle" font-family="ui-monospace,SFMono-Regular,Menlo,Consolas,monospace">▸ open in React Flow</text></a><text x="842.0" y="684.0" font-size="12" font-weight="800" fill="#2563eb" text-anchor="end">OpenWorld</text></svg>