<?xml version="1.0" encoding="UTF-8"?>
<svg xmlns="http://www.w3.org/2000/svg" viewBox="0 0 900 700" width="900" height="700" font-family="-apple-system,BlinkMacSystemFont,Segoe UI,Roboto,Helvetica,Arial,sans-serif"><defs><linearGradient id="gbg" x1="0" y1="0" x2="0" y2="1"><stop offset="0" stop-color="#ffffff"/><stop offset="1" stop-color="#eef2f8"/></linearGradient><linearGradient id="gnode" x1="0" y1="0" x2="0" y2="1"><stop offset="0" stop-color="#ffffff"/><stop offset="1" stop-color="#eef2ff"/></linearGradient><linearGradient id="gacc" x1="0" y1="0" x2="1" y2="0"><stop offset="0" stop-color="#2563eb"/><stop offset="1" stop-color="#7c3aed"/></linearGradient><linearGradient id="garea" x1="0" y1="0" x2="0" y2="1"><stop offset="0" stop-color="#2563eb" stop-opacity="0.34"/><stop offset="1" stop-color="#2563eb" stop-opacity="0"/></linearGradient><filter id="sh" x="-30%" y="-30%" width="160%" height="160%"><feDropShadow dx="0" dy="5" stdDeviation="9" flood-color="#0f172a" flood-opacity="0.16"/></filter><filter id="shsoft" x="-40%" y="-40%" width="180%" height="180%"><feDropShadow dx="0" dy="10" stdDeviation="22" flood-color="#0f172a" flood-opacity="0.16"/></filter><marker id="arr" markerWidth="9" markerHeight="9" refX="6.5" refY="3" orient="auto"><path d="M0,0 L6.5,3 L0,6 Z" fill="#2563eb"/></marker></defs><rect x="0" y="0" width="900" height="700" fill="url(#gbg)"/><g filter="url(#shsoft)"><rect x="26" y="26" width="848" height="648" rx="24" fill="url(#gbg)" stroke="#e2e8f0" stroke-width="1"/></g><rect x="26" y="26" width="848" height="6" rx="3" fill="url(#gacc)"/><g transform="translate(72.0,72.0)"><circle r="15" fill="url(#gacc)"/><circle r="15" fill="none" stroke="#ffffff" stroke-opacity="0.55" stroke-width="1.1"/><ellipse rx="6.8" ry="15" fill="none" stroke="#ffffff" stroke-opacity="0.55" stroke-width="1"/><line x1="-15" y1="0" x2="15" y2="0" stroke="#ffffff" stroke-opacity="0.55" stroke-width="1"/><line x1="-12.9" y1="-7.5" x2="12.9" y2="-7.5" stroke="#ffffff" stroke-opacity="0.4" stroke-width="0.9"/><line x1="-12.9" y1="7.5" x2="12.9" y2="7.5" stroke="#ffffff" stroke-opacity="0.4" stroke-width="0.9"/></g><text x="96.0" y="78.0" font-size="30" font-weight="800" fill="#0f172a">orchard</text><text x="58.0" y="104.0" font-size="14" font-weight="500" fill="#64748b">Agents share an orchard with a limited pool of apples.</text><rect x="58.0" y="115.0" width="75.5" height="22" rx="11.0" fill="#eef2ff"/><text x="66.0" y="129.0" font-size="12" font-weight="600" fill="#3730a3">resource</text><rect x="141.5" y="115.0" width="97.8" height="22" rx="11.0" fill="#eef2ff"/><text x="149.5" y="129.0" font-size="12" font-weight="600" fill="#3730a3">multi-agent</text><rect x="247.4" y="115.0" width="45.8" height="22" rx="11.0" fill="#eef2ff"/><text x="255.4" y="129.0" font-size="12" font-weight="600" fill="#3730a3">leaf</text><rect x="817.7" y="48.0" width="38.3" height="22" rx="11.0" fill="#eef2ff"/><text x="825.7" y="62.0" font-size="12" font-weight="600" fill="#059669">MIT</text><rect x="763.9" y="48.0" width="45.8" height="22" rx="11.0" fill="#eef2ff"/><text x="771.9" y="62.0" font-size="12" font-weight="600" fill="#3730a3">v1.0</text><line x1="58" y1="163.0" x2="842" y2="163.0" stroke="#e2e8f0" stroke-width="1"/><rect x="58" y="201.0" width="784" height="268.0" rx="16" fill="#eef2ff" fill-opacity="0.5" stroke="#e2e8f0" stroke-width="1"/><text x="58.0" y="189.0" font-size="11" font-weight="700" fill="#64748b" letter-spacing="1.6">STATE-TRANSITION GRAPH</text><path d="M 437.0 321.5 C 426.0 295.5, 474.0 295.5, 463.0 321.5" fill="none" stroke="#2563eb" stroke-width="1.5" marker-end="url(#arr)"/><rect x="415.0" y="289.5" width="70.0" height="15" rx="7.5" fill="#ffffff" stroke="#e2e8f0" stroke-width="0.8"/><text x="450.0" y="300.5" font-size="9.5" font-weight="600" fill="#2563eb" text-anchor="middle">pick, wait</text><g filter="url(#sh)"><rect x="389.0" y="321.5" width="122.0" height="41.0" rx="13" fill="url(#gnode)" stroke="#2563eb" stroke-width="2.2"/></g><text x="391.0" y="314.5" font-size="10" font-weight="700" fill="#2563eb">▶ start</text><text x="450.0" y="346.5" font-size="13" font-weight="700" fill="#0f172a" text-anchor="middle">apples 10</text><text x="58.0" y="487.0" font-size="11" font-weight="700" fill="#64748b" letter-spacing="1.6">STATE SCHEMA</text><text x="58.0" y="518.0" font-size="13" font-weight="600" fill="#0f172a">apples</text><rect x="269.7" y="506.0" width="36.5" height="21" rx="10.5" fill="#eef2ff"/><text x="277.7" y="519.0" font-size="11" font-weight="600" fill="#3730a3">int</text><line x1="58.0" y1="527.0" x2="308.0" y2="527.0" stroke="#e2e8f0" stroke-width="1" stroke-dasharray="2 4"/><text x="58.0" y="545.0" font-size="13" font-weight="600" fill="#0f172a">harvested</text><rect x="262.2" y="533.0" width="43.3" height="21" rx="10.5" fill="#eef2ff"/><text x="270.2" y="546.0" font-size="11" font-weight="600" fill="#3730a3">dict</text><line x1="58.0" y1="554.0" x2="308.0" y2="554.0" stroke="#e2e8f0" stroke-width="1" stroke-dasharray="2 4"/><text x="328.0" y="487.0" font-size="11" font-weight="700" fill="#64748b" letter-spacing="1.6">ACTIONS</text><rect x="328.0" y="501.0" width="45.8" height="22" rx="11.0" fill="#eef2ff"/><text x="336.0" y="515.0" font-size="12" font-weight="600" fill="#3730a3">pick</text><rect x="381.8" y="501.0" width="45.8" height="22" rx="11.0" fill="#eef2ff"/><text x="389.8" y="515.0" font-size="12" font-weight="600" fill="#3730a3">wait</text><text x="328.0" y="553.0" font-size="11" font-weight="700" fill="#64748b" letter-spacing="1.6">DYNAMICS</text><circle cx="337.0" cy="578.0" r="8" fill="#059669"/><path d="M333.4,578.0 l2.4,2.4 l4-4.4" fill="none" stroke="#fff" stroke-width="1.8" stroke-linecap="round"/><text x="352.0" y="582.0" font-size="13" font-weight="700" fill="#0f172a">code (from function)</text><text x="328.0" y="611.0" font-size="11" font-weight="700" fill="#64748b" letter-spacing="1.6">DETAILS</text><circle cx="332.0" cy="625.0" r="2.6" fill="#2563eb"/><text x="342.0" y="629.0" font-size="12" font-weight="600" fill="#0f172a">3 rules</text><text x="570.0" y="487.0" font-size="11" font-weight="700" fill="#64748b" letter-spacing="1.6">SAMPLE ROLLOUT</text><rect x="570.0" y="501.0" width="272.0" height="132" rx="14" fill="#eef2ff" stroke="#e2e8f0" stroke-width="1"/><text x="706.0" y="571.0" font-size="12" font-weight="500" fill="#64748b" text-anchor="middle">no numeric preview</text><line x1="58" y1="662.0" x2="842" y2="662.0" stroke="#e2e8f0" stroke-width="1"/><text x="58.0" y="682.0" font-size="11" font-weight="500" fill="#64748b">openworld_spec_version 1.0  ·  lineage: E01 orchard world</text><text x="842.0" y="682.0" font-size="12" font-weight="800" fill="#2563eb" text-anchor="end">OpenWorld</text></svg>