<?xml version="1.0" encoding="UTF-8"?>
<svg xmlns="http://www.w3.org/2000/svg" viewBox="0 0 900 942" width="900" height="942" font-family="-apple-system,BlinkMacSystemFont,Segoe UI,Roboto,Helvetica,Arial,sans-serif"><defs><linearGradient id="gbg" x1="0" y1="0" x2="0" y2="1"><stop offset="0" stop-color="#fcfbf8"/><stop offset="1" stop-color="#eef0ec"/></linearGradient><linearGradient id="gnode" x1="0" y1="0" x2="0" y2="1"><stop offset="0" stop-color="#ffffff"/><stop offset="1" stop-color="#eef1f6"/></linearGradient><linearGradient id="gacc" x1="0" y1="0" x2="1" y2="0"><stop offset="0" stop-color="#1d4ed8"/><stop offset="1" stop-color="#0891b2"/></linearGradient><linearGradient id="garea" x1="0" y1="0" x2="0" y2="1"><stop offset="0" stop-color="#1d4ed8" stop-opacity="0.34"/><stop offset="1" stop-color="#1d4ed8" stop-opacity="0"/></linearGradient><filter id="sh" x="-30%" y="-30%" width="160%" height="160%"><feDropShadow dx="0" dy="5" stdDeviation="9" flood-color="#16202e" flood-opacity="0.14"/></filter><filter id="shsoft" x="-40%" y="-40%" width="180%" height="180%"><feDropShadow dx="0" dy="10" stdDeviation="22" flood-color="#16202e" flood-opacity="0.14"/></filter><marker id="arr" markerWidth="9" markerHeight="9" refX="6.5" refY="3" orient="auto"><path d="M0,0 L6.5,3 L0,6 Z" fill="#1d4ed8"/></marker><marker id="arrUp" markerWidth="9" markerHeight="9" refX="3" refY="6.2" orient="auto"><path d="M0,6.2 L3,0 L6,6.2 Z" fill="#0f766e"/></marker><pattern id="grid" width="24" height="24" patternUnits="userSpaceOnUse"><path d="M24 0 H0 V24" fill="none" stroke="#8aa0c2" stroke-width="0.6" opacity="0.35"/></pattern><pattern id="gridFine" width="22" height="22" patternUnits="userSpaceOnUse"><path d="M22 0 H0 V22" fill="none" stroke="#8aa0c2" stroke-width="0.5" opacity="0.28"/></pattern><filter id="glow" x="-60%" y="-60%" width="220%" height="220%"><feGaussianBlur stdDeviation="2.4" result="b"/><feMerge><feMergeNode in="b"/><feMergeNode in="SourceGraphic"/></feMerge></filter></defs><rect x="0" y="0" width="900" height="942" fill="url(#gbg)"/><g filter="url(#shsoft)"><rect x="26" y="26" width="848" height="890" rx="24" fill="url(#gbg)" stroke="#dde2ea" stroke-width="1"/></g><clipPath id="pc"><rect x="26" y="26" width="848" height="890" rx="24"/></clipPath><rect x="26" y="26" width="848" height="890" fill="url(#gridFine)" clip-path="url(#pc)"/><rect x="26" y="26" width="848" height="6" rx="3" fill="url(#gacc)"/><path d="M 39 51 L 39 39 L 51 39" fill="none" stroke="#1d4ed8" stroke-width="1.4" opacity="0.55"/><path d="M 861 51 L 861 39 L 849 39" fill="none" stroke="#1d4ed8" stroke-width="1.4" opacity="0.55"/><path d="M 39 891 L 39 903 L 51 903" fill="none" stroke="#1d4ed8" stroke-width="1.4" opacity="0.55"/><path d="M 861 891 L 861 903 L 849 903" fill="none" stroke="#1d4ed8" stroke-width="1.4" opacity="0.55"/><g transform="translate(73.0,76.0)"><rect x="-15.0" y="-15.0" width="30.0" height="30.0" rx="5.1" fill="none" stroke="#1d4ed8" stroke-width="2.1"/><rect x="-9.0" y="-9.0" width="18.0" height="18.0" rx="3.6" fill="none" stroke="#b45309" stroke-width="1.9"/><rect x="-3.6" y="-3.6" width="7.2" height="7.2" rx="1.8" fill="#0f766e"/></g><text x="98.0" y="58.0" font-size="9.5" font-weight="700" fill="#1d4ed8" letter-spacing="2.4" font-family="ui-monospace,SFMono-Regular,Menlo,Consolas,monospace">OPENWORLD · MODEL CARD</text><text x="98.0" y="84.0" font-size="29" font-weight="700" fill="#16202e" font-family="'Iowan Old Style','Palatino Linotype',Palatino,Georgia,serif">orchard</text><text x="58.0" y="104.0" font-size="14" font-weight="500" fill="#5b6675">Agents share an orchard with a limited pool of apples.</text><rect x="58.0" y="115.0" width="75.5" height="22" rx="11.0" fill="#eaeef6"/><text x="66.0" y="129.0" font-size="12" font-weight="600" fill="#1e3a8a">resource</text><rect x="141.5" y="115.0" width="97.8" height="22" rx="11.0" fill="#eaeef6"/><text x="149.5" y="129.0" font-size="12" font-weight="600" fill="#1e3a8a">multi-agent</text><rect x="247.4" y="115.0" width="45.8" height="22" rx="11.0" fill="#eaeef6"/><text x="255.4" y="129.0" font-size="12" font-weight="600" fill="#1e3a8a">leaf</text><rect x="817.7" y="48.0" width="38.3" height="22" rx="11.0" fill="#eaeef6"/><text x="825.7" y="62.0" font-size="12" font-weight="600" fill="#0f766e">MIT</text><rect x="763.9" y="48.0" width="45.8" height="22" rx="11.0" fill="#eaeef6"/><text x="771.9" y="62.0" font-size="12" font-weight="600" fill="#1e3a8a">v1.0</text><line x1="58" y1="163.0" x2="842" y2="163.0" stroke="#dde2ea" stroke-width="1"/><rect x="58" y="201.0" width="784" height="270.0" rx="16" fill="#eef1f6" fill-opacity="0.5" stroke="#dde2ea" stroke-width="1"/><text x="58.0" y="189.0" font-size="11" font-weight="700" fill="#5b6675" letter-spacing="1.6" font-family="ui-monospace,SFMono-Regular,Menlo,Consolas,monospace">STATE-TRANSITION GRAPH</text><path d="M 437.0 323.5 C 426.0 297.5, 474.0 297.5, 463.0 323.5" fill="none" stroke="#1d4ed8" stroke-width="1.5" marker-end="url(#arr)"/><rect x="415.0" y="291.5" width="70.0" height="15" rx="7.5" fill="#fcfbf8" stroke="#dde2ea" stroke-width="0.8"/><text x="450.0" y="302.5" font-size="9.5" font-weight="600" fill="#1d4ed8" text-anchor="middle">pick, wait</text><g filter="url(#sh)"><rect x="389.0" y="323.5" width="122.0" height="41.0" rx="13" fill="url(#gnode)" stroke="#1d4ed8" stroke-width="2.2"/></g><text x="391.0" y="316.5" font-size="10" font-weight="700" fill="#1d4ed8">▶ start</text><text x="450.0" y="348.5" font-size="13" font-weight="700" fill="#16202e" text-anchor="middle">apples 10</text><rect x="58.0" y="487.0" width="3" height="11" rx="1.5" fill="#1d4ed8"/><text x="67.0" y="496.0" font-size="10.5" font-weight="700" fill="#5b6675" letter-spacing="1.8" font-family="ui-monospace,SFMono-Regular,Menlo,Consolas,monospace">STATE SCHEMA</text><rect x="54.0" y="510.0" width="258.0" height="24" rx="6" fill="#1d4ed8" fill-opacity="0.035"/><text x="62.0" y="526.0" font-size="12" font-weight="600" fill="#16202e" font-family="ui-monospace,SFMono-Regular,Menlo,Consolas,monospace">apples</text><rect x="273.9" y="514.0" width="34.1" height="17" rx="5" fill="#eaeef6"/><text x="280.9" y="526.0" font-size="10.5" font-weight="700" fill="#1d4ed8" font-family="ui-monospace,SFMono-Regular,Menlo,Consolas,monospace">int</text><text x="265.9" y="526.0" font-size="10.5" font-weight="600" fill="#5b6675" text-anchor="end" font-family="ui-monospace,SFMono-Regular,Menlo,Consolas,monospace">10</text><text x="62.0" y="552.0" font-size="12" font-weight="600" fill="#16202e" font-family="ui-monospace,SFMono-Regular,Menlo,Consolas,monospace">harvested</text><rect x="267.2" y="540.0" width="40.8" height="17" rx="5" fill="#eaeef6"/><text x="274.2" y="552.0" font-size="10.5" font-weight="700" fill="#1d4ed8" font-family="ui-monospace,SFMono-Regular,Menlo,Consolas,monospace">dict</text><text x="259.2" y="552.0" font-size="10.5" font-weight="600" fill="#5b6675" text-anchor="end" font-family="ui-monospace,SFMono-Regular,Menlo,Consolas,monospace">{…}</text><rect x="328.0" y="487.0" width="3" height="11" rx="1.5" fill="#1d4ed8"/><text x="337.0" y="496.0" font-size="10.5" font-weight="700" fill="#5b6675" letter-spacing="1.8" font-family="ui-monospace,SFMono-Regular,Menlo,Consolas,monospace">ACTIONS</text><rect x="328.0" y="511.0" width="44.0" height="20" rx="6" fill="#eaeef6" stroke="#1d4ed8" stroke-width="1" stroke-opacity="0.16"/><text x="337.0" y="525.0" font-size="10.5" font-weight="600" fill="#1e3a8a" font-family="ui-monospace,SFMono-Regular,Menlo,Consolas,monospace">pick</text><rect x="379.0" y="511.0" width="44.0" height="20" rx="6" fill="#eaeef6" stroke="#1d4ed8" stroke-width="1" stroke-opacity="0.16"/><text x="388.0" y="525.0" font-size="10.5" font-weight="600" fill="#1e3a8a" font-family="ui-monospace,SFMono-Regular,Menlo,Consolas,monospace">wait</text><rect x="328.0" y="555.0" width="3" height="11" rx="1.5" fill="#1d4ed8"/><text x="337.0" y="564.0" font-size="10.5" font-weight="700" fill="#5b6675" letter-spacing="1.8" font-family="ui-monospace,SFMono-Regular,Menlo,Consolas,monospace">DYNAMICS</text><circle cx="337.0" cy="585.0" r="8" fill="#0f766e"/><path d="M333.4,585.0 l2.4,2.4 l4-4.4" fill="none" stroke="#fff" stroke-width="1.8" stroke-linecap="round" stroke-linejoin="round"/><text x="352.0" y="589.0" font-size="12.5" font-weight="700" fill="#16202e">code (from function)</text><rect x="570.0" y="487.0" width="3" height="11" rx="1.5" fill="#1d4ed8"/><text x="579.0" y="496.0" font-size="10.5" font-weight="700" fill="#5b6675" letter-spacing="1.8" font-family="ui-monospace,SFMono-Regular,Menlo,Consolas,monospace">SAMPLE ROLLOUT</text><text x="842.0" y="496.0" font-size="9.5" font-weight="600" fill="#5b6675" text-anchor="end" font-family="ui-monospace,SFMono-Regular,Menlo,Consolas,monospace">12 steps · pick</text><rect x="570.0" y="509.0" width="272.0" height="130" rx="12" fill="#eef1f6" stroke="#dde2ea" stroke-width="1"/><text x="706.0" y="578.0" font-size="12" font-weight="500" fill="#5b6675" text-anchor="middle" font-family="ui-monospace,SFMono-Regular,Menlo,Consolas,monospace">no numeric preview</text><rect x="570.0" y="661.0" width="3" height="11" rx="1.5" fill="#1d4ed8"/><text x="579.0" y="670.0" font-size="10.5" font-weight="700" fill="#5b6675" letter-spacing="1.8" font-family="ui-monospace,SFMono-Regular,Menlo,Consolas,monospace">METRICS</text><text x="574.0" y="697.0" font-size="11" font-weight="600" fill="#5b6675" font-family="ui-monospace,SFMono-Regular,Menlo,Consolas,monospace">round-trip</text><text x="842.0" y="697.0" font-size="11.5" font-weight="700" fill="#0f766e" text-anchor="end" font-family="ui-monospace,SFMono-Regular,Menlo,Consolas,monospace">exact</text><line x1="574.0" y1="704.0" x2="842.0" y2="704.0" stroke="#dde2ea" stroke-width="1" stroke-dasharray="1 4" opacity="0.7"/><text x="574.0" y="719.0" font-size="11" font-weight="600" fill="#5b6675" font-family="ui-monospace,SFMono-Regular,Menlo,Consolas,monospace">reachable states</text><text x="842.0" y="719.0" font-size="11.5" font-weight="700" fill="#0f766e" text-anchor="end" font-family="ui-monospace,SFMono-Regular,Menlo,Consolas,monospace">1</text><line x1="574.0" y1="726.0" x2="842.0" y2="726.0" stroke="#dde2ea" stroke-width="1" stroke-dasharray="1 4" opacity="0.7"/><text x="574.0" y="741.0" font-size="11" font-weight="600" fill="#5b6675" font-family="ui-monospace,SFMono-Regular,Menlo,Consolas,monospace">spec size</text><text x="842.0" y="741.0" font-size="11.5" font-weight="700" fill="#0f766e" text-anchor="end" font-family="ui-monospace,SFMono-Regular,Menlo,Consolas,monospace">1.7 KB</text><line x1="574.0" y1="748.0" x2="842.0" y2="748.0" stroke="#dde2ea" stroke-width="1" stroke-dasharray="1 4" opacity="0.7"/><line x1="58" y1="767.0" x2="842" y2="767.0" stroke="#dde2ea" stroke-width="1"/><rect x="58.0" y="777.0" width="3" height="11" rx="1.5" fill="#1d4ed8"/><text x="67.0" y="786.0" font-size="10.5" font-weight="700" fill="#5b6675" letter-spacing="1.8" font-family="ui-monospace,SFMono-Regular,Menlo,Consolas,monospace">RULES — declared contract</text><text x="62.0" y="814.0" font-size="11" font-weight="800" fill="#1d4ed8" font-family="ui-monospace,SFMono-Regular,Menlo,Consolas,monospace">1</text><text x="80.0" y="814.0" font-size="11" font-weight="500" fill="#16202e">&#x27;pick&#x27; moves one apple from the orchard to the acting agent&#x27;s count in &#x27;harvested&#x27; (use action[&#x27;agent&#x27;] as the key;</text><text x="80.0" y="829.0" font-size="11" font-weight="500" fill="#16202e">create it at 0 if missing).</text><text x="62.0" y="853.0" font-size="11" font-weight="800" fill="#1d4ed8" font-family="ui-monospace,SFMono-Regular,Menlo,Consolas,monospace">2</text><text x="80.0" y="853.0" font-size="11" font-weight="500" fill="#16202e">Picking when no apples remain does nothing.</text><text x="62.0" y="877.0" font-size="11" font-weight="800" fill="#1d4ed8" font-family="ui-monospace,SFMono-Regular,Menlo,Consolas,monospace">3</text><text x="80.0" y="877.0" font-size="11" font-weight="500" fill="#16202e">&#x27;wait&#x27; and &#x27;noop&#x27; leave the state unchanged.</text><line x1="58" y1="904.0" x2="842" y2="904.0" stroke="#dde2ea" stroke-width="1"/><text x="58.0" y="924.0" font-size="11" font-weight="500" fill="#5b6675">openworld_spec_version 1.0  ·  lineage: E01 orchard world</text><a href="https://play.reactflow.dev" target="_blank"><text x="450.0" y="924.0" font-size="10.5" font-weight="700" fill="#1d4ed8" text-anchor="middle" font-family="ui-monospace,SFMono-Regular,Menlo,Consolas,monospace">▸ open in React Flow</text></a><text x="842.0" y="924.0" font-size="12" font-weight="800" fill="#1d4ed8" text-anchor="end">OpenWorld</text></svg>