<?xml version="1.0" encoding="UTF-8"?>
<svg xmlns="http://www.w3.org/2000/svg" viewBox="0 0 900 984" width="900" height="984" font-family="-apple-system,BlinkMacSystemFont,Segoe UI,Roboto,Helvetica,Arial,sans-serif"><defs><linearGradient id="gbg" x1="0" y1="0" x2="0" y2="1"><stop offset="0" stop-color="#fcfbf8"/><stop offset="1" stop-color="#eef0ec"/></linearGradient><linearGradient id="gnode" x1="0" y1="0" x2="0" y2="1"><stop offset="0" stop-color="#ffffff"/><stop offset="1" stop-color="#eef1f6"/></linearGradient><linearGradient id="gacc" x1="0" y1="0" x2="1" y2="0"><stop offset="0" stop-color="#1d4ed8"/><stop offset="1" stop-color="#0891b2"/></linearGradient><linearGradient id="garea" x1="0" y1="0" x2="0" y2="1"><stop offset="0" stop-color="#1d4ed8" stop-opacity="0.34"/><stop offset="1" stop-color="#1d4ed8" stop-opacity="0"/></linearGradient><filter id="sh" x="-30%" y="-30%" width="160%" height="160%"><feDropShadow dx="0" dy="5" stdDeviation="9" flood-color="#16202e" flood-opacity="0.14"/></filter><filter id="shsoft" x="-40%" y="-40%" width="180%" height="180%"><feDropShadow dx="0" dy="10" stdDeviation="22" flood-color="#16202e" flood-opacity="0.14"/></filter><marker id="arr" markerWidth="9" markerHeight="9" refX="6.5" refY="3" orient="auto"><path d="M0,0 L6.5,3 L0,6 Z" fill="#1d4ed8"/></marker><marker id="arrUp" markerWidth="9" markerHeight="9" refX="3" refY="6.2" orient="auto"><path d="M0,6.2 L3,0 L6,6.2 Z" fill="#0f766e"/></marker><pattern id="grid" width="24" height="24" patternUnits="userSpaceOnUse"><path d="M24 0 H0 V24" fill="none" stroke="#8aa0c2" stroke-width="0.6" opacity="0.35"/></pattern><pattern id="gridFine" width="22" height="22" patternUnits="userSpaceOnUse"><path d="M22 0 H0 V22" fill="none" stroke="#8aa0c2" stroke-width="0.5" opacity="0.28"/></pattern><filter id="glow" x="-60%" y="-60%" width="220%" height="220%"><feGaussianBlur stdDeviation="2.4" result="b"/><feMerge><feMergeNode in="b"/><feMergeNode in="SourceGraphic"/></feMerge></filter></defs><rect x="0" y="0" width="900" height="984" fill="url(#gbg)"/><g filter="url(#shsoft)"><rect x="26" y="26" width="848" height="932" rx="24" fill="url(#gbg)" stroke="#dde2ea" stroke-width="1"/></g><clipPath id="pc"><rect x="26" y="26" width="848" height="932" rx="24"/></clipPath><rect x="26" y="26" width="848" height="932" fill="url(#gridFine)" clip-path="url(#pc)"/><rect x="26" y="26" width="848" height="6" rx="3" fill="url(#gacc)"/><path d="M 39 51 L 39 39 L 51 39" fill="none" stroke="#1d4ed8" stroke-width="1.4" opacity="0.55"/><path d="M 861 51 L 861 39 L 849 39" fill="none" stroke="#1d4ed8" stroke-width="1.4" opacity="0.55"/><path d="M 39 933 L 39 945 L 51 945" fill="none" stroke="#1d4ed8" stroke-width="1.4" opacity="0.55"/><path d="M 861 933 L 861 945 L 849 945" fill="none" stroke="#1d4ed8" stroke-width="1.4" opacity="0.55"/><g transform="translate(73.0,76.0)"><rect x="-15.0" y="-15.0" width="30.0" height="30.0" rx="5.1" fill="none" stroke="#1d4ed8" stroke-width="2.1"/><rect x="-9.0" y="-9.0" width="18.0" height="18.0" rx="3.6" fill="none" stroke="#b45309" stroke-width="1.9"/><rect x="-3.6" y="-3.6" width="7.2" height="7.2" rx="1.8" fill="#0f766e"/></g><text x="98.0" y="58.0" font-size="9.5" font-weight="700" fill="#1d4ed8" letter-spacing="2.4" font-family="ui-monospace,SFMono-Regular,Menlo,Consolas,monospace">OPENWORLD · MODEL CARD</text><text x="98.0" y="84.0" font-size="29" font-weight="700" fill="#16202e" font-family="'Iowan Old Style','Palatino Linotype',Palatino,Georgia,serif">sprint</text><text x="58.0" y="104.0" font-size="14" font-weight="500" fill="#5b6675">An engineering team working a sprint backlog.</text><rect x="58.0" y="115.0" width="97.8" height="22" rx="11.0" fill="#eaeef6"/><text x="66.0" y="129.0" font-size="12" font-weight="600" fill="#1e3a8a">engineering</text><rect x="163.8" y="115.0" width="75.5" height="22" rx="11.0" fill="#eaeef6"/><text x="171.8" y="129.0" font-size="12" font-weight="600" fill="#1e3a8a">verified</text><rect x="247.4" y="115.0" width="45.8" height="22" rx="11.0" fill="#eaeef6"/><text x="255.4" y="129.0" font-size="12" font-weight="600" fill="#1e3a8a">leaf</text><rect x="817.7" y="48.0" width="38.3" height="22" rx="11.0" fill="#eaeef6"/><text x="825.7" y="62.0" font-size="12" font-weight="600" fill="#0f766e">MIT</text><rect x="763.9" y="48.0" width="45.8" height="22" rx="11.0" fill="#eaeef6"/><text x="771.9" y="62.0" font-size="12" font-weight="600" fill="#1e3a8a">v1.0</text><line x1="58" y1="163.0" x2="842" y2="163.0" stroke="#dde2ea" stroke-width="1"/><rect x="58" y="201.0" width="784" height="270.0" rx="16" fill="#eef1f6" fill-opacity="0.5" stroke="#dde2ea" stroke-width="1"/><text x="58.0" y="189.0" font-size="11" font-weight="700" fill="#5b6675" letter-spacing="1.6" font-family="ui-monospace,SFMono-Regular,Menlo,Consolas,monospace">STATE-TRANSITION GRAPH</text><path d="M 180.0 344.0 C 229.3 344.0, 229.3 344.0, 275.7 344.0" fill="none" stroke="#1d4ed8" stroke-width="1.7" stroke-opacity="0.85" marker-end="url(#arr)"/><rect x="212.3" y="336.0" width="34.0" height="15" rx="7.5" fill="#fcfbf8" stroke="#dde2ea" stroke-width="0.8"/><text x="229.3" y="347.0" font-size="9.5" font-weight="600" fill="#1d4ed8" text-anchor="middle">ship</text><path d="M 106.0 308.5 C 95.0 282.5, 143.0 282.5, 132.0 308.5" fill="none" stroke="#1d4ed8" stroke-width="1.5" marker-end="url(#arr)"/><rect x="75.0" y="276.5" width="88.0" height="15" rx="7.5" fill="#fcfbf8" stroke="#dde2ea" stroke-width="0.8"/><text x="119.0" y="287.5" font-size="9.5" font-weight="600" fill="#1d4ed8" text-anchor="middle">fix, refactor</text><path d="M 400.7 344.0 C 450.0 344.0, 450.0 295.5, 496.3 295.5" fill="none" stroke="#1d4ed8" stroke-width="1.7" stroke-opacity="0.85" marker-end="url(#arr)"/><rect x="433.0" y="311.8" width="34.0" height="15" rx="7.5" fill="#fcfbf8" stroke="#dde2ea" stroke-width="0.8"/><text x="450.0" y="322.8" font-size="9.5" font-weight="600" fill="#1d4ed8" text-anchor="middle">ship</text><path d="M 400.7 344.0 C 450.0 344.0, 450.0 392.5, 496.3 392.5" fill="none" stroke="#1d4ed8" stroke-width="1.7" stroke-opacity="0.85" marker-end="url(#arr)"/><rect x="421.0" y="360.2" width="58.0" height="15" rx="7.5" fill="#fcfbf8" stroke="#dde2ea" stroke-width="0.8"/><text x="450.0" y="371.2" font-size="9.5" font-weight="600" fill="#1d4ed8" text-anchor="middle">refactor</text><path d="M 326.7 308.5 C 315.7 282.5, 363.7 282.5, 352.7 308.5" fill="none" stroke="#1d4ed8" stroke-width="1.5" marker-end="url(#arr)"/><rect x="325.7" y="276.5" width="28.0" height="15" rx="7.5" fill="#fcfbf8" stroke="#dde2ea" stroke-width="0.8"/><text x="339.7" y="287.5" font-size="9.5" font-weight="600" fill="#1d4ed8" text-anchor="middle">fix</text><path d="M 621.3 295.5 C 670.7 295.5, 670.7 295.5, 717.0 295.5" fill="none" stroke="#1d4ed8" stroke-width="1.7" stroke-opacity="0.85" marker-end="url(#arr)"/><rect x="653.7" y="287.5" width="34.0" height="15" rx="7.5" fill="#fcfbf8" stroke="#dde2ea" stroke-width="0.8"/><text x="670.7" y="298.5" font-size="9.5" font-weight="600" fill="#1d4ed8" text-anchor="middle">ship</text><path d="M 621.3 295.5 C 670.7 295.5, 670.7 392.5, 717.0 392.5" fill="none" stroke="#1d4ed8" stroke-width="1.7" stroke-opacity="0.85" marker-end="url(#arr)"/><rect x="641.7" y="336.0" width="58.0" height="15" rx="7.5" fill="#fcfbf8" stroke="#dde2ea" stroke-width="0.8"/><text x="670.7" y="347.0" font-size="9.5" font-weight="600" fill="#1d4ed8" text-anchor="middle">refactor</text><path d="M 547.3 260.0 C 536.3 234.0, 584.3 234.0, 573.3 260.0" fill="none" stroke="#1d4ed8" stroke-width="1.5" marker-end="url(#arr)"/><rect x="546.3" y="228.0" width="28.0" height="15" rx="7.5" fill="#fcfbf8" stroke="#dde2ea" stroke-width="0.8"/><text x="560.3" y="239.0" font-size="9.5" font-weight="600" fill="#1d4ed8" text-anchor="middle">fix</text><g filter="url(#sh)"><rect x="58.0" y="308.5" width="122.0" height="71.0" rx="13" fill="url(#gnode)" stroke="#1d4ed8" stroke-width="2.2"/></g><text x="60.0" y="301.5" font-size="10" font-weight="700" fill="#1d4ed8">▶ start</text><text x="119.0" y="333.5" font-size="13" font-weight="700" fill="#16202e" text-anchor="middle">backlog 12</text><text x="119.0" y="348.5" font-size="11" font-weight="500" fill="#5b6675" text-anchor="middle">debt 0</text><text x="119.0" y="363.5" font-size="11" font-weight="500" fill="#5b6675" text-anchor="middle">shipped 0</text><g filter="url(#sh)"><rect x="278.7" y="308.5" width="122.0" height="71.0" rx="13" fill="url(#gnode)" stroke="#dde2ea" stroke-width="1.2"/></g><text x="339.7" y="333.5" font-size="13" font-weight="700" fill="#16202e" text-anchor="middle">backlog 11</text><text x="339.7" y="348.5" font-size="11" font-weight="500" fill="#5b6675" text-anchor="middle">debt 1</text><text x="339.7" y="363.5" font-size="11" font-weight="500" fill="#5b6675" text-anchor="middle">shipped 1</text><g filter="url(#sh)"><rect x="499.3" y="260.0" width="122.0" height="71.0" rx="13" fill="url(#gnode)" stroke="#dde2ea" stroke-width="1.2"/></g><text x="560.3" y="285.0" font-size="13" font-weight="700" fill="#16202e" text-anchor="middle">backlog 10</text><text x="560.3" y="300.0" font-size="11" font-weight="500" fill="#5b6675" text-anchor="middle">debt 2</text><text x="560.3" y="315.0" font-size="11" font-weight="500" fill="#5b6675" text-anchor="middle">shipped 2</text><g filter="url(#sh)"><rect x="499.3" y="357.0" width="122.0" height="71.0" rx="13" fill="url(#gnode)" stroke="#dde2ea" stroke-width="1.2"/></g><text x="560.3" y="382.0" font-size="13" font-weight="700" fill="#16202e" text-anchor="middle">backlog 11</text><text x="560.3" y="397.0" font-size="11" font-weight="500" fill="#5b6675" text-anchor="middle">debt 0</text><text x="560.3" y="412.0" font-size="11" font-weight="500" fill="#5b6675" text-anchor="middle">shipped 1</text><g filter="url(#sh)"><rect x="720.0" y="260.0" width="122.0" height="71.0" rx="13" fill="url(#gnode)" stroke="#dde2ea" stroke-width="1.2"/></g><text x="781.0" y="285.0" font-size="13" font-weight="700" fill="#16202e" text-anchor="middle">backlog 9</text><text x="781.0" y="300.0" font-size="11" font-weight="500" fill="#5b6675" text-anchor="middle">debt 3</text><text x="781.0" y="315.0" font-size="11" font-weight="500" fill="#5b6675" text-anchor="middle">shipped 3</text><g filter="url(#sh)"><rect x="720.0" y="357.0" width="122.0" height="71.0" rx="13" fill="url(#gnode)" stroke="#dde2ea" stroke-width="1.2"/></g><text x="781.0" y="382.0" font-size="13" font-weight="700" fill="#16202e" text-anchor="middle">backlog 10</text><text x="781.0" y="397.0" font-size="11" font-weight="500" fill="#5b6675" text-anchor="middle">debt 0</text><text x="781.0" y="412.0" font-size="11" font-weight="500" fill="#5b6675" text-anchor="middle">shipped 2</text><rect x="58.0" y="487.0" width="3" height="11" rx="1.5" fill="#1d4ed8"/><text x="67.0" y="496.0" font-size="10.5" font-weight="700" fill="#5b6675" letter-spacing="1.8" font-family="ui-monospace,SFMono-Regular,Menlo,Consolas,monospace">STATE SCHEMA</text><rect x="54.0" y="510.0" width="258.0" height="24" rx="6" fill="#1d4ed8" fill-opacity="0.035"/><text x="62.0" y="526.0" font-size="12" font-weight="600" fill="#16202e" font-family="ui-monospace,SFMono-Regular,Menlo,Consolas,monospace">backlog</text><rect x="273.9" y="514.0" width="34.1" height="17" rx="5" fill="#eaeef6"/><text x="280.9" y="526.0" font-size="10.5" font-weight="700" fill="#1d4ed8" font-family="ui-monospace,SFMono-Regular,Menlo,Consolas,monospace">int</text><text x="265.9" y="526.0" font-size="10.5" font-weight="600" fill="#5b6675" text-anchor="end" font-family="ui-monospace,SFMono-Regular,Menlo,Consolas,monospace">12</text><text x="62.0" y="552.0" font-size="12" font-weight="600" fill="#16202e" font-family="ui-monospace,SFMono-Regular,Menlo,Consolas,monospace">shipped</text><rect x="273.9" y="540.0" width="34.1" height="17" rx="5" fill="#eaeef6"/><text x="280.9" y="552.0" font-size="10.5" font-weight="700" fill="#1d4ed8" font-family="ui-monospace,SFMono-Regular,Menlo,Consolas,monospace">int</text><text x="265.9" y="552.0" font-size="10.5" font-weight="600" fill="#5b6675" text-anchor="end" font-family="ui-monospace,SFMono-Regular,Menlo,Consolas,monospace">0</text><rect x="54.0" y="562.0" width="258.0" height="24" rx="6" fill="#1d4ed8" fill-opacity="0.035"/><text x="62.0" y="578.0" font-size="12" font-weight="600" fill="#16202e" font-family="ui-monospace,SFMono-Regular,Menlo,Consolas,monospace">bugs</text><rect x="273.9" y="566.0" width="34.1" height="17" rx="5" fill="#eaeef6"/><text x="280.9" y="578.0" font-size="10.5" font-weight="700" fill="#1d4ed8" font-family="ui-monospace,SFMono-Regular,Menlo,Consolas,monospace">int</text><text x="265.9" y="578.0" font-size="10.5" font-weight="600" fill="#5b6675" text-anchor="end" font-family="ui-monospace,SFMono-Regular,Menlo,Consolas,monospace">0</text><text x="62.0" y="604.0" font-size="12" font-weight="600" fill="#16202e" font-family="ui-monospace,SFMono-Regular,Menlo,Consolas,monospace">debt</text><rect x="273.9" y="592.0" width="34.1" height="17" rx="5" fill="#eaeef6"/><text x="280.9" y="604.0" font-size="10.5" font-weight="700" fill="#1d4ed8" font-family="ui-monospace,SFMono-Regular,Menlo,Consolas,monospace">int</text><text x="265.9" y="604.0" font-size="10.5" font-weight="600" fill="#5b6675" text-anchor="end" font-family="ui-monospace,SFMono-Regular,Menlo,Consolas,monospace">0</text><rect x="328.0" y="487.0" width="3" height="11" rx="1.5" fill="#1d4ed8"/><text x="337.0" y="496.0" font-size="10.5" font-weight="700" fill="#5b6675" letter-spacing="1.8" font-family="ui-monospace,SFMono-Regular,Menlo,Consolas,monospace">ACTIONS</text><rect x="328.0" y="511.0" width="44.0" height="20" rx="6" fill="#eaeef6" stroke="#1d4ed8" stroke-width="1" stroke-opacity="0.16"/><text x="337.0" y="525.0" font-size="10.5" font-weight="600" fill="#1e3a8a" font-family="ui-monospace,SFMono-Regular,Menlo,Consolas,monospace">ship</text><rect x="379.0" y="511.0" width="37.5" height="20" rx="6" fill="#eaeef6" stroke="#1d4ed8" stroke-width="1" stroke-opacity="0.16"/><text x="388.0" y="525.0" font-size="10.5" font-weight="600" fill="#1e3a8a" font-family="ui-monospace,SFMono-Regular,Menlo,Consolas,monospace">fix</text><rect x="423.5" y="511.0" width="70.0" height="20" rx="6" fill="#eaeef6" stroke="#1d4ed8" stroke-width="1" stroke-opacity="0.16"/><text x="432.5" y="525.0" font-size="10.5" font-weight="600" fill="#1e3a8a" font-family="ui-monospace,SFMono-Regular,Menlo,Consolas,monospace">refactor</text><rect x="328.0" y="555.0" width="3" height="11" rx="1.5" fill="#1d4ed8"/><text x="337.0" y="564.0" font-size="10.5" font-weight="700" fill="#5b6675" letter-spacing="1.8" font-family="ui-monospace,SFMono-Regular,Menlo,Consolas,monospace">DYNAMICS</text><circle cx="337.0" cy="585.0" r="8" fill="#0f766e"/><path d="M333.4,585.0 l2.4,2.4 l4-4.4" fill="none" stroke="#fff" stroke-width="1.8" stroke-linecap="round" stroke-linejoin="round"/><text x="352.0" y="589.0" font-size="12.5" font-weight="700" fill="#16202e">code (from function)</text><rect x="570.0" y="487.0" width="3" height="11" rx="1.5" fill="#1d4ed8"/><text x="579.0" y="496.0" font-size="10.5" font-weight="700" fill="#5b6675" letter-spacing="1.8" font-family="ui-monospace,SFMono-Regular,Menlo,Consolas,monospace">SAMPLE ROLLOUT</text><text x="842.0" y="496.0" font-size="9.5" font-weight="600" fill="#5b6675" text-anchor="end" font-family="ui-monospace,SFMono-Regular,Menlo,Consolas,monospace">12 steps · ship</text><rect x="570.0" y="509.0" width="272.0" height="130" rx="12" fill="#eef1f6" stroke="#dde2ea" stroke-width="1"/><text x="578.0" y="523.0" font-size="9" font-weight="600" fill="#5b6675" font-family="ui-monospace,SFMono-Regular,Menlo,Consolas,monospace">15</text><text x="578.0" y="631.0" font-size="9" font-weight="600" fill="#5b6675" font-family="ui-monospace,SFMono-Regular,Menlo,Consolas,monospace">0</text><line x1="586.0" y1="549.5" x2="826.0" y2="549.5" stroke="#dde2ea" stroke-width="0.8" stroke-dasharray="1 5" opacity="0.7"/><line x1="586.0" y1="574.0" x2="826.0" y2="574.0" stroke="#dde2ea" stroke-width="0.8" stroke-dasharray="1 5" opacity="0.7"/><line x1="586.0" y1="598.5" x2="826.0" y2="598.5" stroke="#dde2ea" stroke-width="0.8" stroke-dasharray="1 5" opacity="0.7"/><path class="series" d="M 586.0 623.0 L 586.0 623.0 L 606.0 623.0 L 626.0 623.0 L 646.0 623.0 L 666.0 616.5 L 686.0 609.9 L 706.0 603.4 L 726.0 596.9 L 746.0 583.8 L 766.0 570.7 L 786.0 557.7 L 806.0 544.6 L 826.0 525.0 L 826.0 623.0 Z" fill="url(#garea)"/><polyline class="series" points="586.0,623.0 606.0,623.0 626.0,623.0 646.0,623.0 666.0,616.5 686.0,609.9 706.0,603.4 726.0,596.9 746.0,583.8 766.0,570.7 786.0,557.7 806.0,544.6 826.0,525.0" fill="none" stroke="#1d4ed8" stroke-width="2.4" stroke-linejoin="round"/><circle cx="826.0" cy="525.0" r="3.4" fill="#1d4ed8"/><text x="822.0" y="517.0" font-size="9.5" font-weight="700" fill="#1d4ed8" text-anchor="end" font-family="ui-monospace,SFMono-Regular,Menlo,Consolas,monospace">15</text><polyline class="series" points="586.0,525.0 606.0,533.2 626.0,541.3 646.0,549.5 666.0,557.7 686.0,565.8 706.0,574.0 726.0,582.2 746.0,590.3 766.0,598.5 786.0,606.7 806.0,614.8 826.0,623.0" fill="none" stroke="#0f766e" stroke-width="1.8" stroke-opacity="0.9" stroke-linejoin="round"/><polyline class="series" points="586.0,623.0 606.0,614.8 626.0,606.7 646.0,598.5 666.0,590.3 686.0,582.2 706.0,574.0 726.0,565.8 746.0,557.7 766.0,549.5 786.0,541.3 806.0,533.2 826.0,525.0" fill="none" stroke="#b45309" stroke-width="1.8" stroke-opacity="0.9" stroke-linejoin="round"/><polyline class="series" points="586.0,623.0 606.0,614.8 626.0,606.7 646.0,598.5 666.0,590.3 686.0,582.2 706.0,574.0 726.0,565.8 746.0,557.7 766.0,549.5 786.0,541.3 806.0,533.2 826.0,525.0" fill="none" stroke="#9d2449" stroke-width="1.8" stroke-opacity="0.9" stroke-linejoin="round"/><rect x="572.0" y="646.0" width="9" height="9" rx="2" fill="#1d4ed8"/><text x="586.0" y="655.0" font-size="10.5" font-weight="600" fill="#5b6675" font-family="ui-monospace,SFMono-Regular,Menlo,Consolas,monospace">bugs ↑</text><rect x="637.8" y="646.0" width="9" height="9" rx="2" fill="#0f766e"/><text x="651.8" y="655.0" font-size="10.5" font-weight="600" fill="#5b6675" font-family="ui-monospace,SFMono-Regular,Menlo,Consolas,monospace">backlog ↓</text><rect x="722.5" y="646.0" width="9" height="9" rx="2" fill="#b45309"/><text x="736.5" y="655.0" font-size="10.5" font-weight="600" fill="#5b6675" font-family="ui-monospace,SFMono-Regular,Menlo,Consolas,monospace">shipped ↑</text><rect x="807.2" y="646.0" width="9" height="9" rx="2" fill="#9d2449"/><text x="821.2" y="655.0" font-size="10.5" font-weight="600" fill="#5b6675" font-family="ui-monospace,SFMono-Regular,Menlo,Consolas,monospace">debt ↑</text><rect x="570.0" y="679.0" width="3" height="11" rx="1.5" fill="#1d4ed8"/><text x="579.0" y="688.0" font-size="10.5" font-weight="700" fill="#5b6675" letter-spacing="1.8" font-family="ui-monospace,SFMono-Regular,Menlo,Consolas,monospace">METRICS</text><text x="574.0" y="715.0" font-size="11" font-weight="600" fill="#5b6675" font-family="ui-monospace,SFMono-Regular,Menlo,Consolas,monospace">round-trip</text><text x="842.0" y="715.0" font-size="11.5" font-weight="700" fill="#0f766e" text-anchor="end" font-family="ui-monospace,SFMono-Regular,Menlo,Consolas,monospace">exact</text><line x1="574.0" y1="722.0" x2="842.0" y2="722.0" stroke="#dde2ea" stroke-width="1" stroke-dasharray="1 4" opacity="0.7"/><text x="574.0" y="737.0" font-size="11" font-weight="600" fill="#5b6675" font-family="ui-monospace,SFMono-Regular,Menlo,Consolas,monospace">reachable states</text><text x="842.0" y="737.0" font-size="11.5" font-weight="700" fill="#0f766e" text-anchor="end" font-family="ui-monospace,SFMono-Regular,Menlo,Consolas,monospace">6</text><line x1="574.0" y1="744.0" x2="842.0" y2="744.0" stroke="#dde2ea" stroke-width="1" stroke-dasharray="1 4" opacity="0.7"/><text x="574.0" y="759.0" font-size="11" font-weight="600" fill="#5b6675" font-family="ui-monospace,SFMono-Regular,Menlo,Consolas,monospace">spec size</text><text x="842.0" y="759.0" font-size="11.5" font-weight="700" fill="#0f766e" text-anchor="end" font-family="ui-monospace,SFMono-Regular,Menlo,Consolas,monospace">4.2 KB</text><line x1="574.0" y1="766.0" x2="842.0" y2="766.0" stroke="#dde2ea" stroke-width="1" stroke-dasharray="1 4" opacity="0.7"/><line x1="58" y1="785.0" x2="842" y2="785.0" stroke="#dde2ea" stroke-width="1"/><rect x="58.0" y="795.0" width="3" height="11" rx="1.5" fill="#1d4ed8"/><text x="67.0" y="804.0" font-size="10.5" font-weight="700" fill="#5b6675" letter-spacing="1.8" font-family="ui-monospace,SFMono-Regular,Menlo,Consolas,monospace">RULES — declared contract</text><text x="62.0" y="832.0" font-size="11" font-weight="800" fill="#1d4ed8" font-family="ui-monospace,SFMono-Regular,Menlo,Consolas,monospace">1</text><text x="80.0" y="832.0" font-size="11" font-weight="500" fill="#16202e">&#x27;ship&#x27; (when backlog &gt; 0): backlog -1, shipped +1, debt +1, then bugs increase by debt // 4 (integer division, using</text><text x="80.0" y="847.0" font-size="11" font-weight="500" fill="#16202e">the debt value after the +1).</text><text x="62.0" y="871.0" font-size="11" font-weight="800" fill="#1d4ed8" font-family="ui-monospace,SFMono-Regular,Menlo,Consolas,monospace">2</text><text x="80.0" y="871.0" font-size="11" font-weight="500" fill="#16202e">&#x27;fix&#x27;: bugs decrease by 2, never below 0.</text><text x="62.0" y="895.0" font-size="11" font-weight="800" fill="#1d4ed8" font-family="ui-monospace,SFMono-Regular,Menlo,Consolas,monospace">3</text><text x="80.0" y="895.0" font-size="11" font-weight="500" fill="#16202e">&#x27;refactor&#x27;: debt decreases by 2, never below 0.</text><text x="62.0" y="919.0" font-size="11" font-weight="800" fill="#1d4ed8" font-family="ui-monospace,SFMono-Regular,Menlo,Consolas,monospace">4</text><text x="80.0" y="919.0" font-size="11" font-weight="500" fill="#16202e">&#x27;noop&#x27; and unknown actions change nothing.</text><line x1="58" y1="946.0" x2="842" y2="946.0" stroke="#dde2ea" stroke-width="1"/><text x="58.0" y="966.0" font-size="11" font-weight="500" fill="#5b6675">openworld_spec_version 1.0  ·  lineage: E34 sprint world</text><a href="https://play.reactflow.dev" target="_blank"><text x="450.0" y="966.0" font-size="10.5" font-weight="700" fill="#1d4ed8" text-anchor="middle" font-family="ui-monospace,SFMono-Regular,Menlo,Consolas,monospace">▸ open in React Flow</text></a><text x="842.0" y="966.0" font-size="12" font-weight="800" fill="#1d4ed8" text-anchor="end">OpenWorld</text></svg>