<?xml version="1.0" encoding="UTF-8"?>
<svg xmlns="http://www.w3.org/2000/svg" viewBox="0 0 900 703" width="900" height="703" font-family="-apple-system,BlinkMacSystemFont,Segoe UI,Roboto,Helvetica,Arial,sans-serif"><defs><linearGradient id="gbg" x1="0" y1="0" x2="0" y2="1"><stop offset="0" stop-color="#ffffff"/><stop offset="1" stop-color="#eef2f8"/></linearGradient><linearGradient id="gnode" x1="0" y1="0" x2="0" y2="1"><stop offset="0" stop-color="#ffffff"/><stop offset="1" stop-color="#eef2ff"/></linearGradient><linearGradient id="gacc" x1="0" y1="0" x2="1" y2="0"><stop offset="0" stop-color="#2563eb"/><stop offset="1" stop-color="#7c3aed"/></linearGradient><linearGradient id="garea" x1="0" y1="0" x2="0" y2="1"><stop offset="0" stop-color="#2563eb" stop-opacity="0.34"/><stop offset="1" stop-color="#2563eb" stop-opacity="0"/></linearGradient><filter id="sh" x="-30%" y="-30%" width="160%" height="160%"><feDropShadow dx="0" dy="5" stdDeviation="9" flood-color="#0f172a" flood-opacity="0.16"/></filter><filter id="shsoft" x="-40%" y="-40%" width="180%" height="180%"><feDropShadow dx="0" dy="10" stdDeviation="22" flood-color="#0f172a" flood-opacity="0.16"/></filter><marker id="arr" markerWidth="9" markerHeight="9" refX="6.5" refY="3" orient="auto"><path d="M0,0 L6.5,3 L0,6 Z" fill="#2563eb"/></marker></defs><rect x="0" y="0" width="900" height="703" fill="url(#gbg)"/><g filter="url(#shsoft)"><rect x="26" y="26" width="848" height="651" rx="24" fill="url(#gbg)" stroke="#e2e8f0" stroke-width="1"/></g><rect x="26" y="26" width="848" height="6" rx="3" fill="url(#gacc)"/><g transform="translate(72.0,72.0)"><circle r="15" fill="url(#gacc)"/><circle r="15" fill="none" stroke="#ffffff" stroke-opacity="0.55" stroke-width="1.1"/><ellipse rx="6.8" ry="15" fill="none" stroke="#ffffff" stroke-opacity="0.55" stroke-width="1"/><line x1="-15" y1="0" x2="15" y2="0" stroke="#ffffff" stroke-opacity="0.55" stroke-width="1"/><line x1="-12.9" y1="-7.5" x2="12.9" y2="-7.5" stroke="#ffffff" stroke-opacity="0.4" stroke-width="0.9"/><line x1="-12.9" y1="7.5" x2="12.9" y2="7.5" stroke="#ffffff" stroke-opacity="0.4" stroke-width="0.9"/></g><text x="96.0" y="78.0" font-size="30" font-weight="800" fill="#0f172a">sprint</text><text x="58.0" y="104.0" font-size="14" font-weight="500" fill="#64748b">An engineering team working a sprint backlog.</text><rect x="58.0" y="115.0" width="97.8" height="22" rx="11.0" fill="#eef2ff"/><text x="66.0" y="129.0" font-size="12" font-weight="600" fill="#3730a3">engineering</text><rect x="163.8" y="115.0" width="75.5" height="22" rx="11.0" fill="#eef2ff"/><text x="171.8" y="129.0" font-size="12" font-weight="600" fill="#3730a3">verified</text><rect x="247.4" y="115.0" width="45.8" height="22" rx="11.0" fill="#eef2ff"/><text x="255.4" y="129.0" font-size="12" font-weight="600" fill="#3730a3">leaf</text><rect x="817.7" y="48.0" width="38.3" height="22" rx="11.0" fill="#eef2ff"/><text x="825.7" y="62.0" font-size="12" font-weight="600" fill="#059669">MIT</text><rect x="763.9" y="48.0" width="45.8" height="22" rx="11.0" fill="#eef2ff"/><text x="771.9" y="62.0" font-size="12" font-weight="600" fill="#3730a3">v1.0</text><line x1="58" y1="163.0" x2="842" y2="163.0" stroke="#e2e8f0" stroke-width="1"/><rect x="58" y="201.0" width="784" height="268.0" rx="16" fill="#eef2ff" fill-opacity="0.5" stroke="#e2e8f0" stroke-width="1"/><text x="58.0" y="189.0" font-size="11" font-weight="700" fill="#64748b" letter-spacing="1.6">STATE-TRANSITION GRAPH</text><path d="M 180.0 342.0 C 229.3 342.0, 229.3 342.0, 275.7 342.0" fill="none" stroke="#2563eb" stroke-width="1.7" stroke-opacity="0.85" marker-end="url(#arr)"/><rect x="212.3" y="334.0" width="34.0" height="15" rx="7.5" fill="#ffffff" stroke="#e2e8f0" stroke-width="0.8"/><text x="229.3" y="345.0" font-size="9.5" font-weight="600" fill="#2563eb" text-anchor="middle">ship</text><path d="M 106.0 306.5 C 95.0 280.5, 143.0 280.5, 132.0 306.5" fill="none" stroke="#2563eb" stroke-width="1.5" marker-end="url(#arr)"/><rect x="75.0" y="274.5" width="88.0" height="15" rx="7.5" fill="#ffffff" stroke="#e2e8f0" stroke-width="0.8"/><text x="119.0" y="285.5" font-size="9.5" font-weight="600" fill="#2563eb" text-anchor="middle">fix, refactor</text><path d="M 400.7 342.0 C 450.0 342.0, 450.0 293.5, 496.3 293.5" fill="none" stroke="#2563eb" stroke-width="1.7" stroke-opacity="0.85" marker-end="url(#arr)"/><rect x="433.0" y="309.8" width="34.0" height="15" rx="7.5" fill="#ffffff" stroke="#e2e8f0" stroke-width="0.8"/><text x="450.0" y="320.8" font-size="9.5" font-weight="600" fill="#2563eb" text-anchor="middle">ship</text><path d="M 400.7 342.0 C 450.0 342.0, 450.0 390.5, 496.3 390.5" fill="none" stroke="#2563eb" stroke-width="1.7" stroke-opacity="0.85" marker-end="url(#arr)"/><rect x="421.0" y="358.2" width="58.0" height="15" rx="7.5" fill="#ffffff" stroke="#e2e8f0" stroke-width="0.8"/><text x="450.0" y="369.2" font-size="9.5" font-weight="600" fill="#2563eb" text-anchor="middle">refactor</text><path d="M 326.7 306.5 C 315.7 280.5, 363.7 280.5, 352.7 306.5" fill="none" stroke="#2563eb" stroke-width="1.5" marker-end="url(#arr)"/><rect x="325.7" y="274.5" width="28.0" height="15" rx="7.5" fill="#ffffff" stroke="#e2e8f0" stroke-width="0.8"/><text x="339.7" y="285.5" font-size="9.5" font-weight="600" fill="#2563eb" text-anchor="middle">fix</text><path d="M 621.3 293.5 C 670.7 293.5, 670.7 293.5, 717.0 293.5" fill="none" stroke="#2563eb" stroke-width="1.7" stroke-opacity="0.85" marker-end="url(#arr)"/><rect x="653.7" y="285.5" width="34.0" height="15" rx="7.5" fill="#ffffff" stroke="#e2e8f0" stroke-width="0.8"/><text x="670.7" y="296.5" font-size="9.5" font-weight="600" fill="#2563eb" text-anchor="middle">ship</text><path d="M 621.3 293.5 C 670.7 293.5, 670.7 390.5, 717.0 390.5" fill="none" stroke="#2563eb" stroke-width="1.7" stroke-opacity="0.85" marker-end="url(#arr)"/><rect x="641.7" y="334.0" width="58.0" height="15" rx="7.5" fill="#ffffff" stroke="#e2e8f0" stroke-width="0.8"/><text x="670.7" y="345.0" font-size="9.5" font-weight="600" fill="#2563eb" text-anchor="middle">refactor</text><path d="M 547.3 258.0 C 536.3 232.0, 584.3 232.0, 573.3 258.0" fill="none" stroke="#2563eb" stroke-width="1.5" marker-end="url(#arr)"/><rect x="546.3" y="226.0" width="28.0" height="15" rx="7.5" fill="#ffffff" stroke="#e2e8f0" stroke-width="0.8"/><text x="560.3" y="237.0" font-size="9.5" font-weight="600" fill="#2563eb" text-anchor="middle">fix</text><g filter="url(#sh)"><rect x="58.0" y="306.5" width="122.0" height="71.0" rx="13" fill="url(#gnode)" stroke="#2563eb" stroke-width="2.2"/></g><text x="60.0" y="299.5" font-size="10" font-weight="700" fill="#2563eb">▶ start</text><text x="119.0" y="331.5" font-size="13" font-weight="700" fill="#0f172a" text-anchor="middle">backlog 12</text><text x="119.0" y="346.5" font-size="11" font-weight="500" fill="#64748b" text-anchor="middle">debt 0</text><text x="119.0" y="361.5" font-size="11" font-weight="500" fill="#64748b" text-anchor="middle">shipped 0</text><g filter="url(#sh)"><rect x="278.7" y="306.5" width="122.0" height="71.0" rx="13" fill="url(#gnode)" stroke="#e2e8f0" stroke-width="1.2"/></g><text x="339.7" y="331.5" font-size="13" font-weight="700" fill="#0f172a" text-anchor="middle">backlog 11</text><text x="339.7" y="346.5" font-size="11" font-weight="500" fill="#64748b" text-anchor="middle">debt 1</text><text x="339.7" y="361.5" font-size="11" font-weight="500" fill="#64748b" text-anchor="middle">shipped 1</text><g filter="url(#sh)"><rect x="499.3" y="258.0" width="122.0" height="71.0" rx="13" fill="url(#gnode)" stroke="#e2e8f0" stroke-width="1.2"/></g><text x="560.3" y="283.0" font-size="13" font-weight="700" fill="#0f172a" text-anchor="middle">backlog 10</text><text x="560.3" y="298.0" font-size="11" font-weight="500" fill="#64748b" text-anchor="middle">debt 2</text><text x="560.3" y="313.0" font-size="11" font-weight="500" fill="#64748b" text-anchor="middle">shipped 2</text><g filter="url(#sh)"><rect x="499.3" y="355.0" width="122.0" height="71.0" rx="13" fill="url(#gnode)" stroke="#e2e8f0" stroke-width="1.2"/></g><text x="560.3" y="380.0" font-size="13" font-weight="700" fill="#0f172a" text-anchor="middle">backlog 11</text><text x="560.3" y="395.0" font-size="11" font-weight="500" fill="#64748b" text-anchor="middle">debt 0</text><text x="560.3" y="410.0" font-size="11" font-weight="500" fill="#64748b" text-anchor="middle">shipped 1</text><g filter="url(#sh)"><rect x="720.0" y="258.0" width="122.0" height="71.0" rx="13" fill="url(#gnode)" stroke="#e2e8f0" stroke-width="1.2"/></g><text x="781.0" y="283.0" font-size="13" font-weight="700" fill="#0f172a" text-anchor="middle">backlog 9</text><text x="781.0" y="298.0" font-size="11" font-weight="500" fill="#64748b" text-anchor="middle">debt 3</text><text x="781.0" y="313.0" font-size="11" font-weight="500" fill="#64748b" text-anchor="middle">shipped 3</text><g filter="url(#sh)"><rect x="720.0" y="355.0" width="122.0" height="71.0" rx="13" fill="url(#gnode)" stroke="#e2e8f0" stroke-width="1.2"/></g><text x="781.0" y="380.0" font-size="13" font-weight="700" fill="#0f172a" text-anchor="middle">backlog 10</text><text x="781.0" y="395.0" font-size="11" font-weight="500" fill="#64748b" text-anchor="middle">debt 0</text><text x="781.0" y="410.0" font-size="11" font-weight="500" fill="#64748b" text-anchor="middle">shipped 2</text><text x="58.0" y="487.0" font-size="11" font-weight="700" fill="#64748b" letter-spacing="1.6">STATE SCHEMA</text><text x="58.0" y="518.0" font-size="13" font-weight="600" fill="#0f172a">backlog</text><rect x="269.7" y="506.0" width="36.5" height="21" rx="10.5" fill="#eef2ff"/><text x="277.7" y="519.0" font-size="11" font-weight="600" fill="#3730a3">int</text><line x1="58.0" y1="527.0" x2="308.0" y2="527.0" stroke="#e2e8f0" stroke-width="1" stroke-dasharray="2 4"/><text x="58.0" y="545.0" font-size="13" font-weight="600" fill="#0f172a">shipped</text><rect x="269.7" y="533.0" width="36.5" height="21" rx="10.5" fill="#eef2ff"/><text x="277.7" y="546.0" font-size="11" font-weight="600" fill="#3730a3">int</text><line x1="58.0" y1="554.0" x2="308.0" y2="554.0" stroke="#e2e8f0" stroke-width="1" stroke-dasharray="2 4"/><text x="58.0" y="572.0" font-size="13" font-weight="600" fill="#0f172a">bugs</text><rect x="269.7" y="560.0" width="36.5" height="21" rx="10.5" fill="#eef2ff"/><text x="277.7" y="573.0" font-size="11" font-weight="600" fill="#3730a3">int</text><line x1="58.0" y1="581.0" x2="308.0" y2="581.0" stroke="#e2e8f0" stroke-width="1" stroke-dasharray="2 4"/><text x="58.0" y="599.0" font-size="13" font-weight="600" fill="#0f172a">debt</text><rect x="269.7" y="587.0" width="36.5" height="21" rx="10.5" fill="#eef2ff"/><text x="277.7" y="600.0" font-size="11" font-weight="600" fill="#3730a3">int</text><line x1="58.0" y1="608.0" x2="308.0" y2="608.0" stroke="#e2e8f0" stroke-width="1" stroke-dasharray="2 4"/><text x="328.0" y="487.0" font-size="11" font-weight="700" fill="#64748b" letter-spacing="1.6">ACTIONS</text><rect x="328.0" y="501.0" width="45.8" height="22" rx="11.0" fill="#eef2ff"/><text x="336.0" y="515.0" font-size="12" font-weight="600" fill="#3730a3">ship</text><rect x="381.8" y="501.0" width="38.3" height="22" rx="11.0" fill="#eef2ff"/><text x="389.8" y="515.0" font-size="12" font-weight="600" fill="#3730a3">fix</text><rect x="428.1" y="501.0" width="75.5" height="22" rx="11.0" fill="#eef2ff"/><text x="436.1" y="515.0" font-size="12" font-weight="600" fill="#3730a3">refactor</text><text x="328.0" y="553.0" font-size="11" font-weight="700" fill="#64748b" letter-spacing="1.6">DYNAMICS</text><circle cx="337.0" cy="578.0" r="8" fill="#059669"/><path d="M333.4,578.0 l2.4,2.4 l4-4.4" fill="none" stroke="#fff" stroke-width="1.8" stroke-linecap="round"/><text x="352.0" y="582.0" font-size="13" font-weight="700" fill="#0f172a">code (from function)</text><text x="328.0" y="611.0" font-size="11" font-weight="700" fill="#64748b" letter-spacing="1.6">DETAILS</text><circle cx="332.0" cy="625.0" r="2.6" fill="#2563eb"/><text x="342.0" y="629.0" font-size="12" font-weight="600" fill="#0f172a">4 rules</text><text x="570.0" y="487.0" font-size="11" font-weight="700" fill="#64748b" letter-spacing="1.6">SAMPLE ROLLOUT</text><rect x="570.0" y="501.0" width="272.0" height="132" rx="14" fill="#eef2ff" stroke="#e2e8f0" stroke-width="1"/><path class="series" d="M 584.0 619.0 L 584.0 619.0 L 604.3 619.0 L 624.7 619.0 L 645.0 619.0 L 665.3 612.1 L 685.7 605.1 L 706.0 598.2 L 726.3 591.3 L 746.7 577.4 L 767.0 563.5 L 787.3 549.7 L 807.7 535.8 L 828.0 515.0 L 828.0 619.0 Z" fill="url(#garea)"/><polyline class="series" points="584.0,619.0 604.3,619.0 624.7,619.0 645.0,619.0 665.3,612.1 685.7,605.1 706.0,598.2 726.3,591.3 746.7,577.4 767.0,563.5 787.3,549.7 807.7,535.8 828.0,515.0" fill="none" stroke="#2563eb" stroke-width="2.4" stroke-linejoin="round"/><circle cx="828.0" cy="515.0" r="3.2" fill="#2563eb"/><polyline class="series" points="584.0,515.0 604.3,523.7 624.7,532.3 645.0,541.0 665.3,549.7 685.7,558.3 706.0,567.0 726.3,575.7 746.7,584.3 767.0,593.0 787.3,601.7 807.7,610.3 828.0,619.0" fill="none" stroke="#0f9d8f" stroke-width="1.8" stroke-opacity="0.9" stroke-linejoin="round"/><polyline class="series" points="584.0,619.0 604.3,610.3 624.7,601.7 645.0,593.0 665.3,584.3 685.7,575.7 706.0,567.0 726.3,558.3 746.7,549.7 767.0,541.0 787.3,532.3 807.7,523.7 828.0,515.0" fill="none" stroke="#d97706" stroke-width="1.8" stroke-opacity="0.9" stroke-linejoin="round"/><polyline class="series" points="584.0,619.0 604.3,610.3 624.7,601.7 645.0,593.0 665.3,584.3 685.7,575.7 706.0,567.0 726.3,558.3 746.7,549.7 767.0,541.0 787.3,532.3 807.7,523.7 828.0,515.0" fill="none" stroke="#db2777" stroke-width="1.8" stroke-opacity="0.9" stroke-linejoin="round"/><rect x="570.0" y="640.0" width="10" height="10" rx="2.5" fill="#2563eb"/><text x="585.0" y="649.0" font-size="11" font-weight="600" fill="#64748b">bugs ↑</text><rect x="638.6" y="640.0" width="10" height="10" rx="2.5" fill="#0f9d8f"/><text x="653.6" y="649.0" font-size="11" font-weight="600" fill="#64748b">backlog ↓</text><rect x="727.0" y="640.0" width="10" height="10" rx="2.5" fill="#d97706"/><text x="742.0" y="649.0" font-size="11" font-weight="600" fill="#64748b">shipped ↑</text><rect x="815.4" y="640.0" width="10" height="10" rx="2.5" fill="#db2777"/><text x="830.4" y="649.0" font-size="11" font-weight="600" fill="#64748b">debt ↑</text><line x1="58" y1="665.0" x2="842" y2="665.0" stroke="#e2e8f0" stroke-width="1"/><text x="58.0" y="685.0" font-size="11" font-weight="500" fill="#64748b">openworld_spec_version 1.0  ·  lineage: E34 sprint world</text><text x="842.0" y="685.0" font-size="12" font-weight="800" fill="#2563eb" text-anchor="end">OpenWorld</text></svg>