<?xml version="1.0" encoding="UTF-8"?>
<svg xmlns="http://www.w3.org/2000/svg" viewBox="0 0 900 705" width="900" height="705" font-family="-apple-system,BlinkMacSystemFont,Segoe UI,Roboto,Helvetica,Arial,sans-serif"><defs><linearGradient id="gbg" x1="0" y1="0" x2="0" y2="1"><stop offset="0" stop-color="#ffffff"/><stop offset="1" stop-color="#eef2f8"/></linearGradient><linearGradient id="gnode" x1="0" y1="0" x2="0" y2="1"><stop offset="0" stop-color="#ffffff"/><stop offset="1" stop-color="#eef2ff"/></linearGradient><linearGradient id="gacc" x1="0" y1="0" x2="1" y2="0"><stop offset="0" stop-color="#2563eb"/><stop offset="1" stop-color="#7c3aed"/></linearGradient><linearGradient id="garea" x1="0" y1="0" x2="0" y2="1"><stop offset="0" stop-color="#2563eb" stop-opacity="0.34"/><stop offset="1" stop-color="#2563eb" stop-opacity="0"/></linearGradient><filter id="sh" x="-30%" y="-30%" width="160%" height="160%"><feDropShadow dx="0" dy="5" stdDeviation="9" flood-color="#0f172a" flood-opacity="0.16"/></filter><filter id="shsoft" x="-40%" y="-40%" width="180%" height="180%"><feDropShadow dx="0" dy="10" stdDeviation="22" flood-color="#0f172a" flood-opacity="0.16"/></filter><marker id="arr" markerWidth="9" markerHeight="9" refX="6.5" refY="3" orient="auto"><path d="M0,0 L6.5,3 L0,6 Z" fill="#2563eb"/></marker><marker id="arrUp" markerWidth="9" markerHeight="9" refX="3" refY="6.2" orient="auto"><path d="M0,6.2 L3,0 L6,6.2 Z" fill="#7c3aed"/></marker><pattern id="grid" width="24" height="24" patternUnits="userSpaceOnUse"><path d="M24 0 H0 V24" fill="none" stroke="#9fb3d1" stroke-width="0.6" opacity="0.35"/></pattern><pattern id="gridFine" width="6" height="6" patternUnits="userSpaceOnUse"><circle cx="0.7" cy="0.7" r="0.7" fill="#9fb3d1" opacity="0.18"/></pattern><filter id="glow" x="-60%" y="-60%" width="220%" height="220%"><feGaussianBlur stdDeviation="2.4" result="b"/><feMerge><feMergeNode in="b"/><feMergeNode in="SourceGraphic"/></feMerge></filter></defs><rect x="0" y="0" width="900" height="705" fill="url(#gbg)"/><g filter="url(#shsoft)"><rect x="26" y="26" width="848" height="653" rx="24" fill="url(#gbg)" stroke="#dfe4ec" stroke-width="1"/></g><clipPath id="pc"><rect x="26" y="26" width="848" height="653" rx="24"/></clipPath><rect x="26" y="26" width="848" height="653" fill="url(#gridFine)" clip-path="url(#pc)"/><rect x="26" y="26" width="848" height="6" rx="3" fill="url(#gacc)"/><path d="M 39 51 L 39 39 L 51 39" fill="none" stroke="#2563eb" stroke-width="1.4" opacity="0.55"/><path d="M 861 51 L 861 39 L 849 39" fill="none" stroke="#2563eb" stroke-width="1.4" opacity="0.55"/><path d="M 39 654 L 39 666 L 51 666" fill="none" stroke="#2563eb" stroke-width="1.4" opacity="0.55"/><path d="M 861 654 L 861 666 L 849 666" fill="none" stroke="#2563eb" stroke-width="1.4" opacity="0.55"/><g transform="translate(73.0,76.0)"><circle r="15" fill="url(#gacc)"/><circle r="15" fill="none" stroke="#ffffff" stroke-opacity="0.55" stroke-width="1.1"/><ellipse rx="6.8" ry="15" fill="none" stroke="#ffffff" stroke-opacity="0.55" stroke-width="1"/><line x1="-15" y1="0" x2="15" y2="0" stroke="#ffffff" stroke-opacity="0.55" stroke-width="1"/><line x1="-12.9" y1="-7.5" x2="12.9" y2="-7.5" stroke="#ffffff" stroke-opacity="0.4" stroke-width="0.9"/><line x1="-12.9" y1="7.5" x2="12.9" y2="7.5" stroke="#ffffff" stroke-opacity="0.4" stroke-width="0.9"/></g><text x="98.0" y="58.0" font-size="9.5" font-weight="700" fill="#2563eb" letter-spacing="2.4" font-family="ui-monospace,SFMono-Regular,Menlo,Consolas,monospace">OPENWORLD · MODEL CARD</text><text x="98.0" y="84.0" font-size="29" font-weight="700" fill="#0f172a" font-family="'Iowan Old Style','Palatino Linotype',Palatino,Georgia,serif">sprint</text><text x="58.0" y="104.0" font-size="14" font-weight="500" fill="#64748b">An engineering team working a sprint backlog.</text><rect x="58.0" y="115.0" width="97.8" height="22" rx="11.0" fill="#eef2ff"/><text x="66.0" y="129.0" font-size="12" font-weight="600" fill="#3730a3">engineering</text><rect x="163.8" y="115.0" width="75.5" height="22" rx="11.0" fill="#eef2ff"/><text x="171.8" y="129.0" font-size="12" font-weight="600" fill="#3730a3">verified</text><rect x="247.4" y="115.0" width="45.8" height="22" rx="11.0" fill="#eef2ff"/><text x="255.4" y="129.0" font-size="12" font-weight="600" fill="#3730a3">leaf</text><rect x="817.7" y="48.0" width="38.3" height="22" rx="11.0" fill="#eef2ff"/><text x="825.7" y="62.0" font-size="12" font-weight="600" fill="#059669">MIT</text><rect x="763.9" y="48.0" width="45.8" height="22" rx="11.0" fill="#eef2ff"/><text x="771.9" y="62.0" font-size="12" font-weight="600" fill="#3730a3">v1.0</text><line x1="58" y1="163.0" x2="842" y2="163.0" stroke="#e2e8f0" stroke-width="1"/><rect x="58" y="201.0" width="784" height="270.0" rx="16" fill="#eef2ff" fill-opacity="0.5" stroke="#e2e8f0" stroke-width="1"/><text x="58.0" y="189.0" font-size="11" font-weight="700" fill="#64748b" letter-spacing="1.6" font-family="ui-monospace,SFMono-Regular,Menlo,Consolas,monospace">STATE-TRANSITION GRAPH</text><path d="M 180.0 344.0 C 229.3 344.0, 229.3 344.0, 275.7 344.0" fill="none" stroke="#2563eb" stroke-width="1.7" stroke-opacity="0.85" marker-end="url(#arr)"/><rect x="212.3" y="336.0" width="34.0" height="15" rx="7.5" fill="#ffffff" stroke="#e2e8f0" stroke-width="0.8"/><text x="229.3" y="347.0" font-size="9.5" font-weight="600" fill="#2563eb" text-anchor="middle">ship</text><path d="M 106.0 308.5 C 95.0 282.5, 143.0 282.5, 132.0 308.5" fill="none" stroke="#2563eb" stroke-width="1.5" marker-end="url(#arr)"/><rect x="75.0" y="276.5" width="88.0" height="15" rx="7.5" fill="#ffffff" stroke="#e2e8f0" stroke-width="0.8"/><text x="119.0" y="287.5" font-size="9.5" font-weight="600" fill="#2563eb" text-anchor="middle">fix, refactor</text><path d="M 400.7 344.0 C 450.0 344.0, 450.0 295.5, 496.3 295.5" fill="none" stroke="#2563eb" stroke-width="1.7" stroke-opacity="0.85" marker-end="url(#arr)"/><rect x="433.0" y="311.8" width="34.0" height="15" rx="7.5" fill="#ffffff" stroke="#e2e8f0" stroke-width="0.8"/><text x="450.0" y="322.8" font-size="9.5" font-weight="600" fill="#2563eb" text-anchor="middle">ship</text><path d="M 400.7 344.0 C 450.0 344.0, 450.0 392.5, 496.3 392.5" fill="none" stroke="#2563eb" stroke-width="1.7" stroke-opacity="0.85" marker-end="url(#arr)"/><rect x="421.0" y="360.2" width="58.0" height="15" rx="7.5" fill="#ffffff" stroke="#e2e8f0" stroke-width="0.8"/><text x="450.0" y="371.2" font-size="9.5" font-weight="600" fill="#2563eb" text-anchor="middle">refactor</text><path d="M 326.7 308.5 C 315.7 282.5, 363.7 282.5, 352.7 308.5" fill="none" stroke="#2563eb" stroke-width="1.5" marker-end="url(#arr)"/><rect x="325.7" y="276.5" width="28.0" height="15" rx="7.5" fill="#ffffff" stroke="#e2e8f0" stroke-width="0.8"/><text x="339.7" y="287.5" font-size="9.5" font-weight="600" fill="#2563eb" text-anchor="middle">fix</text><path d="M 621.3 295.5 C 670.7 295.5, 670.7 295.5, 717.0 295.5" fill="none" stroke="#2563eb" stroke-width="1.7" stroke-opacity="0.85" marker-end="url(#arr)"/><rect x="653.7" y="287.5" width="34.0" height="15" rx="7.5" fill="#ffffff" stroke="#e2e8f0" stroke-width="0.8"/><text x="670.7" y="298.5" font-size="9.5" font-weight="600" fill="#2563eb" text-anchor="middle">ship</text><path d="M 621.3 295.5 C 670.7 295.5, 670.7 392.5, 717.0 392.5" fill="none" stroke="#2563eb" stroke-width="1.7" stroke-opacity="0.85" marker-end="url(#arr)"/><rect x="641.7" y="336.0" width="58.0" height="15" rx="7.5" fill="#ffffff" stroke="#e2e8f0" stroke-width="0.8"/><text x="670.7" y="347.0" font-size="9.5" font-weight="600" fill="#2563eb" text-anchor="middle">refactor</text><path d="M 547.3 260.0 C 536.3 234.0, 584.3 234.0, 573.3 260.0" fill="none" stroke="#2563eb" stroke-width="1.5" marker-end="url(#arr)"/><rect x="546.3" y="228.0" width="28.0" height="15" rx="7.5" fill="#ffffff" stroke="#e2e8f0" stroke-width="0.8"/><text x="560.3" y="239.0" font-size="9.5" font-weight="600" fill="#2563eb" text-anchor="middle">fix</text><g filter="url(#sh)"><rect x="58.0" y="308.5" width="122.0" height="71.0" rx="13" fill="url(#gnode)" stroke="#2563eb" stroke-width="2.2"/></g><text x="60.0" y="301.5" font-size="10" font-weight="700" fill="#2563eb">▶ start</text><text x="119.0" y="333.5" font-size="13" font-weight="700" fill="#0f172a" text-anchor="middle">backlog 12</text><text x="119.0" y="348.5" font-size="11" font-weight="500" fill="#64748b" text-anchor="middle">debt 0</text><text x="119.0" y="363.5" font-size="11" font-weight="500" fill="#64748b" text-anchor="middle">shipped 0</text><g filter="url(#sh)"><rect x="278.7" y="308.5" width="122.0" height="71.0" rx="13" fill="url(#gnode)" stroke="#e2e8f0" stroke-width="1.2"/></g><text x="339.7" y="333.5" font-size="13" font-weight="700" fill="#0f172a" text-anchor="middle">backlog 11</text><text x="339.7" y="348.5" font-size="11" font-weight="500" fill="#64748b" text-anchor="middle">debt 1</text><text x="339.7" y="363.5" font-size="11" font-weight="500" fill="#64748b" text-anchor="middle">shipped 1</text><g filter="url(#sh)"><rect x="499.3" y="260.0" width="122.0" height="71.0" rx="13" fill="url(#gnode)" stroke="#e2e8f0" stroke-width="1.2"/></g><text x="560.3" y="285.0" font-size="13" font-weight="700" fill="#0f172a" text-anchor="middle">backlog 10</text><text x="560.3" y="300.0" font-size="11" font-weight="500" fill="#64748b" text-anchor="middle">debt 2</text><text x="560.3" y="315.0" font-size="11" font-weight="500" fill="#64748b" text-anchor="middle">shipped 2</text><g filter="url(#sh)"><rect x="499.3" y="357.0" width="122.0" height="71.0" rx="13" fill="url(#gnode)" stroke="#e2e8f0" stroke-width="1.2"/></g><text x="560.3" y="382.0" font-size="13" font-weight="700" fill="#0f172a" text-anchor="middle">backlog 11</text><text x="560.3" y="397.0" font-size="11" font-weight="500" fill="#64748b" text-anchor="middle">debt 0</text><text x="560.3" y="412.0" font-size="11" font-weight="500" fill="#64748b" text-anchor="middle">shipped 1</text><g filter="url(#sh)"><rect x="720.0" y="260.0" width="122.0" height="71.0" rx="13" fill="url(#gnode)" stroke="#e2e8f0" stroke-width="1.2"/></g><text x="781.0" y="285.0" font-size="13" font-weight="700" fill="#0f172a" text-anchor="middle">backlog 9</text><text x="781.0" y="300.0" font-size="11" font-weight="500" fill="#64748b" text-anchor="middle">debt 3</text><text x="781.0" y="315.0" font-size="11" font-weight="500" fill="#64748b" text-anchor="middle">shipped 3</text><g filter="url(#sh)"><rect x="720.0" y="357.0" width="122.0" height="71.0" rx="13" fill="url(#gnode)" stroke="#e2e8f0" stroke-width="1.2"/></g><text x="781.0" y="382.0" font-size="13" font-weight="700" fill="#0f172a" text-anchor="middle">backlog 10</text><text x="781.0" y="397.0" font-size="11" font-weight="500" fill="#64748b" text-anchor="middle">debt 0</text><text x="781.0" y="412.0" font-size="11" font-weight="500" fill="#64748b" text-anchor="middle">shipped 2</text><text x="58.0" y="489.0" font-size="11" font-weight="700" fill="#64748b" letter-spacing="1.6">STATE SCHEMA</text><text x="58.0" y="520.0" font-size="13" font-weight="600" fill="#0f172a">backlog</text><rect x="269.7" y="508.0" width="36.5" height="21" rx="10.5" fill="#eef2ff"/><text x="277.7" y="521.0" font-size="11" font-weight="600" fill="#3730a3">int</text><line x1="58.0" y1="529.0" x2="308.0" y2="529.0" stroke="#e2e8f0" stroke-width="1" stroke-dasharray="2 4"/><text x="58.0" y="547.0" font-size="13" font-weight="600" fill="#0f172a">shipped</text><rect x="269.7" y="535.0" width="36.5" height="21" rx="10.5" fill="#eef2ff"/><text x="277.7" y="548.0" font-size="11" font-weight="600" fill="#3730a3">int</text><line x1="58.0" y1="556.0" x2="308.0" y2="556.0" stroke="#e2e8f0" stroke-width="1" stroke-dasharray="2 4"/><text x="58.0" y="574.0" font-size="13" font-weight="600" fill="#0f172a">bugs</text><rect x="269.7" y="562.0" width="36.5" height="21" rx="10.5" fill="#eef2ff"/><text x="277.7" y="575.0" font-size="11" font-weight="600" fill="#3730a3">int</text><line x1="58.0" y1="583.0" x2="308.0" y2="583.0" stroke="#e2e8f0" stroke-width="1" stroke-dasharray="2 4"/><text x="58.0" y="601.0" font-size="13" font-weight="600" fill="#0f172a">debt</text><rect x="269.7" y="589.0" width="36.5" height="21" rx="10.5" fill="#eef2ff"/><text x="277.7" y="602.0" font-size="11" font-weight="600" fill="#3730a3">int</text><line x1="58.0" y1="610.0" x2="308.0" y2="610.0" stroke="#e2e8f0" stroke-width="1" stroke-dasharray="2 4"/><text x="328.0" y="489.0" font-size="11" font-weight="700" fill="#64748b" letter-spacing="1.6">ACTIONS</text><rect x="328.0" y="503.0" width="45.8" height="22" rx="11.0" fill="#eef2ff"/><text x="336.0" y="517.0" font-size="12" font-weight="600" fill="#3730a3">ship</text><rect x="381.8" y="503.0" width="38.3" height="22" rx="11.0" fill="#eef2ff"/><text x="389.8" y="517.0" font-size="12" font-weight="600" fill="#3730a3">fix</text><rect x="428.1" y="503.0" width="75.5" height="22" rx="11.0" fill="#eef2ff"/><text x="436.1" y="517.0" font-size="12" font-weight="600" fill="#3730a3">refactor</text><text x="328.0" y="555.0" font-size="11" font-weight="700" fill="#64748b" letter-spacing="1.6">DYNAMICS</text><circle cx="337.0" cy="580.0" r="8" fill="#059669"/><path d="M333.4,580.0 l2.4,2.4 l4-4.4" fill="none" stroke="#fff" stroke-width="1.8" stroke-linecap="round"/><text x="352.0" y="584.0" font-size="13" font-weight="700" fill="#0f172a">code (from function)</text><text x="328.0" y="613.0" font-size="11" font-weight="700" fill="#64748b" letter-spacing="1.6">DETAILS</text><circle cx="332.0" cy="627.0" r="2.6" fill="#2563eb"/><text x="342.0" y="631.0" font-size="12" font-weight="600" fill="#0f172a">4 rules</text><text x="570.0" y="489.0" font-size="11" font-weight="700" fill="#64748b" letter-spacing="1.6">SAMPLE ROLLOUT</text><rect x="570.0" y="503.0" width="272.0" height="132" rx="14" fill="#eef2ff" stroke="#e2e8f0" stroke-width="1"/><path class="series" d="M 584.0 621.0 L 584.0 621.0 L 604.3 621.0 L 624.7 621.0 L 645.0 621.0 L 665.3 614.1 L 685.7 607.1 L 706.0 600.2 L 726.3 593.3 L 746.7 579.4 L 767.0 565.5 L 787.3 551.7 L 807.7 537.8 L 828.0 517.0 L 828.0 621.0 Z" fill="url(#garea)"/><polyline class="series" points="584.0,621.0 604.3,621.0 624.7,621.0 645.0,621.0 665.3,614.1 685.7,607.1 706.0,600.2 726.3,593.3 746.7,579.4 767.0,565.5 787.3,551.7 807.7,537.8 828.0,517.0" fill="none" stroke="#2563eb" stroke-width="2.4" stroke-linejoin="round"/><circle cx="828.0" cy="517.0" r="3.2" fill="#2563eb"/><polyline class="series" points="584.0,517.0 604.3,525.7 624.7,534.3 645.0,543.0 665.3,551.7 685.7,560.3 706.0,569.0 726.3,577.7 746.7,586.3 767.0,595.0 787.3,603.7 807.7,612.3 828.0,621.0" fill="none" stroke="#0f9d8f" stroke-width="1.8" stroke-opacity="0.9" stroke-linejoin="round"/><polyline class="series" points="584.0,621.0 604.3,612.3 624.7,603.7 645.0,595.0 665.3,586.3 685.7,577.7 706.0,569.0 726.3,560.3 746.7,551.7 767.0,543.0 787.3,534.3 807.7,525.7 828.0,517.0" fill="none" stroke="#d97706" stroke-width="1.8" stroke-opacity="0.9" stroke-linejoin="round"/><polyline class="series" points="584.0,621.0 604.3,612.3 624.7,603.7 645.0,595.0 665.3,586.3 685.7,577.7 706.0,569.0 726.3,560.3 746.7,551.7 767.0,543.0 787.3,534.3 807.7,525.7 828.0,517.0" fill="none" stroke="#db2777" stroke-width="1.8" stroke-opacity="0.9" stroke-linejoin="round"/><rect x="570.0" y="642.0" width="10" height="10" rx="2.5" fill="#2563eb"/><text x="585.0" y="651.0" font-size="11" font-weight="600" fill="#64748b">bugs ↑</text><rect x="638.6" y="642.0" width="10" height="10" rx="2.5" fill="#0f9d8f"/><text x="653.6" y="651.0" font-size="11" font-weight="600" fill="#64748b">backlog ↓</text><rect x="727.0" y="642.0" width="10" height="10" rx="2.5" fill="#d97706"/><text x="742.0" y="651.0" font-size="11" font-weight="600" fill="#64748b">shipped ↑</text><rect x="815.4" y="642.0" width="10" height="10" rx="2.5" fill="#db2777"/><text x="830.4" y="651.0" font-size="11" font-weight="600" fill="#64748b">debt ↑</text><line x1="58" y1="667.0" x2="842" y2="667.0" stroke="#e2e8f0" stroke-width="1"/><text x="58.0" y="687.0" font-size="11" font-weight="500" fill="#64748b">openworld_spec_version 1.0  ·  lineage: E34 sprint world</text><text x="842.0" y="687.0" font-size="12" font-weight="800" fill="#2563eb" text-anchor="end">OpenWorld</text></svg>