<?xml version="1.0" encoding="UTF-8"?>
<svg xmlns="http://www.w3.org/2000/svg" viewBox="0 0 900 933" width="900" height="933" font-family="-apple-system,BlinkMacSystemFont,Segoe UI,Roboto,Helvetica,Arial,sans-serif"><defs><linearGradient id="gbg" x1="0" y1="0" x2="0" y2="1"><stop offset="0" stop-color="#fcfbf8"/><stop offset="1" stop-color="#eef0ec"/></linearGradient><linearGradient id="gnode" x1="0" y1="0" x2="0" y2="1"><stop offset="0" stop-color="#ffffff"/><stop offset="1" stop-color="#eef1f6"/></linearGradient><linearGradient id="gacc" x1="0" y1="0" x2="1" y2="0"><stop offset="0" stop-color="#1d4ed8"/><stop offset="1" stop-color="#0891b2"/></linearGradient><linearGradient id="garea" x1="0" y1="0" x2="0" y2="1"><stop offset="0" stop-color="#1d4ed8" stop-opacity="0.34"/><stop offset="1" stop-color="#1d4ed8" stop-opacity="0"/></linearGradient><filter id="sh" x="-30%" y="-30%" width="160%" height="160%"><feDropShadow dx="0" dy="5" stdDeviation="9" flood-color="#16202e" flood-opacity="0.14"/></filter><filter id="shsoft" x="-40%" y="-40%" width="180%" height="180%"><feDropShadow dx="0" dy="10" stdDeviation="22" flood-color="#16202e" flood-opacity="0.14"/></filter><marker id="arr" markerWidth="9" markerHeight="9" refX="6.5" refY="3" orient="auto"><path d="M0,0 L6.5,3 L0,6 Z" fill="#1d4ed8"/></marker><marker id="arrUp" markerWidth="9" markerHeight="9" refX="3" refY="6.2" orient="auto"><path d="M0,6.2 L3,0 L6,6.2 Z" fill="#0f766e"/></marker><pattern id="grid" width="24" height="24" patternUnits="userSpaceOnUse"><path d="M24 0 H0 V24" fill="none" stroke="#8aa0c2" stroke-width="0.6" opacity="0.35"/></pattern><pattern id="gridFine" width="22" height="22" patternUnits="userSpaceOnUse"><path d="M22 0 H0 V22" fill="none" stroke="#8aa0c2" stroke-width="0.5" opacity="0.28"/></pattern><filter id="glow" x="-60%" y="-60%" width="220%" height="220%"><feGaussianBlur stdDeviation="2.4" result="b"/><feMerge><feMergeNode in="b"/><feMergeNode in="SourceGraphic"/></feMerge></filter></defs><rect x="0" y="0" width="900" height="933" fill="url(#gbg)"/><g filter="url(#shsoft)"><rect x="26" y="26" width="848" height="881" rx="24" fill="url(#gbg)" stroke="#dde2ea" stroke-width="1"/></g><clipPath id="pc"><rect x="26" y="26" width="848" height="881" rx="24"/></clipPath><rect x="26" y="26" width="848" height="881" fill="url(#gridFine)" clip-path="url(#pc)"/><rect x="26" y="26" width="848" height="6" rx="3" fill="url(#gacc)"/><path d="M 39 51 L 39 39 L 51 39" fill="none" stroke="#1d4ed8" stroke-width="1.4" opacity="0.55"/><path d="M 861 51 L 861 39 L 849 39" fill="none" stroke="#1d4ed8" stroke-width="1.4" opacity="0.55"/><path d="M 39 882 L 39 894 L 51 894" fill="none" stroke="#1d4ed8" stroke-width="1.4" opacity="0.55"/><path d="M 861 882 L 861 894 L 849 894" fill="none" stroke="#1d4ed8" stroke-width="1.4" opacity="0.55"/><g transform="translate(73.0,76.0)"><rect x="-15.0" y="-15.0" width="30.0" height="30.0" rx="5.1" fill="none" stroke="#1d4ed8" stroke-width="2.1"/><rect x="-9.0" y="-9.0" width="18.0" height="18.0" rx="3.6" fill="none" stroke="#b45309" stroke-width="1.9"/><rect x="-3.6" y="-3.6" width="7.2" height="7.2" rx="1.8" fill="#0f766e"/></g><text x="98.0" y="58.0" font-size="9.5" font-weight="700" fill="#1d4ed8" letter-spacing="2.4" font-family="ui-monospace,SFMono-Regular,Menlo,Consolas,monospace">OPENWORLD · MODEL CARD</text><text x="98.0" y="84.0" font-size="29" font-weight="700" fill="#16202e" font-family="'Iowan Old Style','Palatino Linotype',Palatino,Georgia,serif">support-desk</text><text x="58.0" y="104.0" font-size="14" font-weight="500" fill="#5b6675">Ingest a ticket, recall a past fix, act, and report.</text><rect x="58.0" y="115.0" width="105.3" height="22" rx="11.0" fill="#eaeef6"/><text x="66.0" y="129.0" font-size="12" font-weight="600" fill="#1e3a8a">support-desk</text><rect x="171.3" y="115.0" width="90.4" height="22" rx="11.0" fill="#eaeef6"/><text x="179.3" y="129.0" font-size="12" font-weight="600" fill="#1e3a8a">perception</text><rect x="269.7" y="115.0" width="53.2" height="22" rx="11.0" fill="#eaeef6"/><text x="277.7" y="129.0" font-size="12" font-weight="600" fill="#1e3a8a">tools</text><rect x="817.7" y="48.0" width="38.3" height="22" rx="11.0" fill="#eaeef6"/><text x="825.7" y="62.0" font-size="12" font-weight="600" fill="#0f766e">MIT</text><rect x="763.9" y="48.0" width="45.8" height="22" rx="11.0" fill="#eaeef6"/><text x="771.9" y="62.0" font-size="12" font-weight="600" fill="#1e3a8a">v0.1</text><line x1="58" y1="163.0" x2="842" y2="163.0" stroke="#dde2ea" stroke-width="1"/><rect x="58" y="201.0" width="784" height="270.0" rx="16" fill="#eef1f6" fill-opacity="0.5" stroke="#dde2ea" stroke-width="1"/><text x="58.0" y="189.0" font-size="11" font-weight="700" fill="#5b6675" letter-spacing="1.6" font-family="ui-monospace,SFMono-Regular,Menlo,Consolas,monospace">STATE-TRANSITION GRAPH</text><path d="M 437.0 316.0 C 426.0 290.0, 474.0 290.0, 463.0 316.0" fill="none" stroke="#1d4ed8" stroke-width="1.5" marker-end="url(#arr)"/><rect x="403.0" y="284.0" width="94.0" height="15" rx="7.5" fill="#fcfbf8" stroke="#dde2ea" stroke-width="0.8"/><text x="450.0" y="295.0" font-size="9.5" font-weight="600" fill="#1d4ed8" text-anchor="middle">route, resolve</text><path d="M 210.4 303.0 C 292.1 303.0, 292.1 344.0, 370.8 344.0" fill="none" stroke="#1d4ed8" stroke-width="1.7" stroke-opacity="0.85" stroke-dasharray="5 4" marker-end="url(#arr)"/><rect x="263.1" y="315.5" width="58.0" height="15" rx="7.5" fill="#fcfbf8" stroke="#dde2ea" stroke-width="0.8"/><text x="292.1" y="326.5" font-size="9.5" font-weight="600" fill="#1d4ed8" text-anchor="middle">perceive</text><path d="M 210.4 385.0 C 292.1 385.0, 292.1 344.0, 370.8 344.0" fill="none" stroke="#1d4ed8" stroke-width="1.7" stroke-opacity="0.85" stroke-dasharray="5 4" marker-end="url(#arr)"/><rect x="263.1" y="356.5" width="58.0" height="15" rx="7.5" fill="#fcfbf8" stroke="#dde2ea" stroke-width="0.8"/><text x="292.1" y="367.5" font-size="9.5" font-weight="600" fill="#1d4ed8" text-anchor="middle">perceive</text><path d="M 526.2 344.0 C 607.9 344.0, 607.9 303.0, 686.6 303.0" fill="none" stroke="#1d4ed8" stroke-width="1.7" stroke-opacity="0.85" stroke-dasharray="5 4" marker-end="url(#arr)"/><rect x="590.9" y="315.5" width="34.0" height="15" rx="7.5" fill="#fcfbf8" stroke="#dde2ea" stroke-width="0.8"/><text x="607.9" y="326.5" font-size="9.5" font-weight="600" fill="#1d4ed8" text-anchor="middle">emit</text><path d="M 526.2 344.0 C 607.9 344.0, 607.9 385.0, 686.6 385.0" fill="none" stroke="#1d4ed8" stroke-width="1.7" stroke-opacity="0.85" stroke-dasharray="5 4" marker-end="url(#arr)"/><rect x="590.9" y="356.5" width="34.0" height="15" rx="7.5" fill="#fcfbf8" stroke="#dde2ea" stroke-width="0.8"/><text x="607.9" y="367.5" font-size="9.5" font-weight="600" fill="#1d4ed8" text-anchor="middle">emit</text><g filter="url(#sh)"><rect x="373.8" y="316.0" width="152.4" height="56.0" rx="13" fill="url(#gnode)" stroke="#1d4ed8" stroke-width="2.2"/></g><text x="375.8" y="309.0" font-size="10" font-weight="700" fill="#1d4ed8">▶ start</text><text x="450.0" y="341.0" font-size="13" font-weight="700" fill="#16202e" text-anchor="middle">id 0</text><text x="450.0" y="356.0" font-size="11" font-weight="500" fill="#5b6675" text-anchor="middle">priority 0</text><g filter="url(#sh)"><rect x="58.0" y="275.0" width="152.4" height="56.0" rx="13" fill="#eef1f6" stroke="#b45309" stroke-width="1.5" stroke-dasharray="5 3"/></g><text x="69.0" y="268.0" font-size="9" font-weight="700" fill="#b45309" font-family="ui-monospace,SFMono-Regular,Menlo,Consolas,monospace">⌖ sensor</text><text x="134.2" y="300.0" font-size="13" font-weight="700" fill="#16202e" text-anchor="middle">text</text><text x="134.2" y="315.0" font-size="11" font-weight="500" fill="#5b6675" text-anchor="middle">text, priority</text><g filter="url(#sh)"><rect x="58.0" y="357.0" width="152.4" height="56.0" rx="13" fill="#eef1f6" stroke="#b45309" stroke-width="1.5" stroke-dasharray="5 3"/></g><text x="69.0" y="350.0" font-size="9" font-weight="700" fill="#b45309" font-family="ui-monospace,SFMono-Regular,Menlo,Consolas,monospace">⌖ sensor</text><text x="134.2" y="382.0" font-size="13" font-weight="700" fill="#16202e" text-anchor="middle">text</text><text x="134.2" y="397.0" font-size="11" font-weight="500" fill="#5b6675" text-anchor="middle">priority</text><g filter="url(#sh)"><rect x="689.6" y="275.0" width="152.4" height="56.0" rx="13" fill="#eef1f6" stroke="#0f766e" stroke-width="1.5" stroke-dasharray="5 3"/></g><text x="700.6" y="268.0" font-size="9" font-weight="700" fill="#0f766e" font-family="ui-monospace,SFMono-Regular,Menlo,Consolas,monospace">▸ output</text><text x="765.8" y="300.0" font-size="13" font-weight="700" fill="#16202e" text-anchor="middle">text</text><text x="765.8" y="315.0" font-size="11" font-weight="500" fill="#5b6675" text-anchor="middle">id, recalled_tool</text><g filter="url(#sh)"><rect x="689.6" y="357.0" width="152.4" height="56.0" rx="13" fill="#eef1f6" stroke="#0f766e" stroke-width="1.5" stroke-dasharray="5 3"/></g><text x="700.6" y="350.0" font-size="9" font-weight="700" fill="#0f766e" font-family="ui-monospace,SFMono-Regular,Menlo,Consolas,monospace">▸ output</text><text x="765.8" y="382.0" font-size="13" font-weight="700" fill="#16202e" text-anchor="middle">action</text><text x="765.8" y="397.0" font-size="11" font-weight="500" fill="#5b6675" text-anchor="middle">recalled_tool, id</text><rect x="58.0" y="487.0" width="3" height="11" rx="1.5" fill="#1d4ed8"/><text x="67.0" y="496.0" font-size="10.5" font-weight="700" fill="#5b6675" letter-spacing="1.8" font-family="ui-monospace,SFMono-Regular,Menlo,Consolas,monospace">STATE SCHEMA</text><rect x="54.0" y="510.0" width="258.0" height="24" rx="6" fill="#1d4ed8" fill-opacity="0.035"/><text x="62.0" y="526.0" font-size="12" font-weight="600" fill="#16202e" font-family="ui-monospace,SFMono-Regular,Menlo,Consolas,monospace">text</text><rect x="273.9" y="514.0" width="34.1" height="17" rx="5" fill="#eaeef6"/><text x="280.9" y="526.0" font-size="10.5" font-weight="700" fill="#1d4ed8" font-family="ui-monospace,SFMono-Regular,Menlo,Consolas,monospace">str</text><text x="265.9" y="526.0" font-size="10.5" font-weight="600" fill="#5b6675" text-anchor="end" font-family="ui-monospace,SFMono-Regular,Menlo,Consolas,monospace">&quot;&quot;</text><text x="62.0" y="552.0" font-size="12" font-weight="600" fill="#16202e" font-family="ui-monospace,SFMono-Regular,Menlo,Consolas,monospace">priority</text><rect x="273.9" y="540.0" width="34.1" height="17" rx="5" fill="#eaeef6"/><text x="280.9" y="552.0" font-size="10.5" font-weight="700" fill="#1d4ed8" font-family="ui-monospace,SFMono-Regular,Menlo,Consolas,monospace">int</text><text x="265.9" y="552.0" font-size="10.5" font-weight="600" fill="#5b6675" text-anchor="end" font-family="ui-monospace,SFMono-Regular,Menlo,Consolas,monospace">0</text><rect x="54.0" y="562.0" width="258.0" height="24" rx="6" fill="#1d4ed8" fill-opacity="0.035"/><text x="62.0" y="578.0" font-size="12" font-weight="600" fill="#16202e" font-family="ui-monospace,SFMono-Regular,Menlo,Consolas,monospace">recalled_tool</text><rect x="273.9" y="566.0" width="34.1" height="17" rx="5" fill="#eaeef6"/><text x="280.9" y="578.0" font-size="10.5" font-weight="700" fill="#1d4ed8" font-family="ui-monospace,SFMono-Regular,Menlo,Consolas,monospace">str</text><text x="265.9" y="578.0" font-size="10.5" font-weight="600" fill="#5b6675" text-anchor="end" font-family="ui-monospace,SFMono-Regular,Menlo,Consolas,monospace">&quot;&quot;</text><text x="62.0" y="604.0" font-size="12" font-weight="600" fill="#16202e" font-family="ui-monospace,SFMono-Regular,Menlo,Consolas,monospace">id</text><rect x="273.9" y="592.0" width="34.1" height="17" rx="5" fill="#eaeef6"/><text x="280.9" y="604.0" font-size="10.5" font-weight="700" fill="#1d4ed8" font-family="ui-monospace,SFMono-Regular,Menlo,Consolas,monospace">int</text><text x="265.9" y="604.0" font-size="10.5" font-weight="600" fill="#5b6675" text-anchor="end" font-family="ui-monospace,SFMono-Regular,Menlo,Consolas,monospace">0</text><rect x="58.0" y="639.0" width="3" height="11" rx="1.5" fill="#1d4ed8"/><text x="67.0" y="648.0" font-size="10.5" font-weight="700" fill="#5b6675" letter-spacing="1.8" font-family="ui-monospace,SFMono-Regular,Menlo,Consolas,monospace">PERCEPTION</text><rect x="58.0" y="663.0" width="41.6" height="18" rx="5" fill="#eaeef6" stroke="#b45309" stroke-width="1" stroke-opacity="0.45" stroke-dasharray="3 2"/><text x="66.0" y="676.0" font-size="10" font-weight="700" fill="#b45309" font-family="ui-monospace,SFMono-Regular,Menlo,Consolas,monospace">text</text><text x="107.6" y="676.0" font-size="11" font-weight="600" fill="#16202e" font-family="ui-monospace,SFMono-Regular,Menlo,Consolas,monospace">→ text, priority</text><rect x="58.0" y="687.0" width="41.6" height="18" rx="5" fill="#eaeef6" stroke="#b45309" stroke-width="1" stroke-opacity="0.45" stroke-dasharray="3 2"/><text x="66.0" y="700.0" font-size="10" font-weight="700" fill="#b45309" font-family="ui-monospace,SFMono-Regular,Menlo,Consolas,monospace">text</text><text x="107.6" y="700.0" font-size="11" font-weight="600" fill="#16202e" font-family="ui-monospace,SFMono-Regular,Menlo,Consolas,monospace">→ priority</text><rect x="58.0" y="733.0" width="3" height="11" rx="1.5" fill="#1d4ed8"/><text x="67.0" y="742.0" font-size="10.5" font-weight="700" fill="#5b6675" letter-spacing="1.8" font-family="ui-monospace,SFMono-Regular,Menlo,Consolas,monospace">EMIT</text><rect x="58.0" y="757.0" width="41.6" height="18" rx="5" fill="#eaeef6" stroke="#0f766e" stroke-width="1" stroke-opacity="0.45" stroke-dasharray="3 2"/><text x="66.0" y="770.0" font-size="10" font-weight="700" fill="#0f766e" font-family="ui-monospace,SFMono-Regular,Menlo,Consolas,monospace">text</text><text x="107.6" y="770.0" font-size="11" font-weight="600" fill="#16202e" font-family="ui-monospace,SFMono-Regular,Menlo,Consolas,monospace">← id, recalled_tool</text><rect x="58.0" y="781.0" width="54.4" height="18" rx="5" fill="#eaeef6" stroke="#0f766e" stroke-width="1" stroke-opacity="0.45" stroke-dasharray="3 2"/><text x="66.0" y="794.0" font-size="10" font-weight="700" fill="#0f766e" font-family="ui-monospace,SFMono-Regular,Menlo,Consolas,monospace">action</text><text x="120.4" y="794.0" font-size="11" font-weight="600" fill="#16202e" font-family="ui-monospace,SFMono-Regular,Menlo,Consolas,monospace">← recalled_tool, id</text><rect x="328.0" y="487.0" width="3" height="11" rx="1.5" fill="#1d4ed8"/><text x="337.0" y="496.0" font-size="10.5" font-weight="700" fill="#5b6675" letter-spacing="1.8" font-family="ui-monospace,SFMono-Regular,Menlo,Consolas,monospace">ACTIONS</text><rect x="328.0" y="511.0" width="50.5" height="20" rx="6" fill="#eaeef6" stroke="#1d4ed8" stroke-width="1" stroke-opacity="0.16"/><text x="337.0" y="525.0" font-size="10.5" font-weight="600" fill="#1e3a8a" font-family="ui-monospace,SFMono-Regular,Menlo,Consolas,monospace">route</text><rect x="385.5" y="511.0" width="63.5" height="20" rx="6" fill="#eaeef6" stroke="#1d4ed8" stroke-width="1" stroke-opacity="0.16"/><text x="394.5" y="525.0" font-size="10.5" font-weight="600" fill="#1e3a8a" font-family="ui-monospace,SFMono-Regular,Menlo,Consolas,monospace">resolve</text><rect x="328.0" y="555.0" width="3" height="11" rx="1.5" fill="#1d4ed8"/><text x="337.0" y="564.0" font-size="10.5" font-weight="700" fill="#5b6675" letter-spacing="1.8" font-family="ui-monospace,SFMono-Regular,Menlo,Consolas,monospace">DYNAMICS</text><circle cx="337.0" cy="585.0" r="8" fill="#0f766e"/><path d="M333.4,585.0 l2.4,2.4 l4-4.4" fill="none" stroke="#fff" stroke-width="1.8" stroke-linecap="round" stroke-linejoin="round"/><text x="352.0" y="589.0" font-size="12.5" font-weight="700" fill="#16202e">verified code</text><rect x="328.0" y="615.0" width="3" height="11" rx="1.5" fill="#1d4ed8"/><text x="337.0" y="624.0" font-size="10.5" font-weight="700" fill="#5b6675" letter-spacing="1.8" font-family="ui-monospace,SFMono-Regular,Menlo,Consolas,monospace">OBJECTIVES</text><circle cx="332.0" cy="643.0" r="2.4" fill="#1d4ed8"/><text x="341.0" y="647.0" font-size="11.5" font-weight="600" fill="#16202e" font-family="ui-monospace,SFMono-Regular,Menlo,Consolas,monospace">resolve tickets · max resolut…</text><rect x="570.0" y="487.0" width="3" height="11" rx="1.5" fill="#1d4ed8"/><text x="579.0" y="496.0" font-size="10.5" font-weight="700" fill="#5b6675" letter-spacing="1.8" font-family="ui-monospace,SFMono-Regular,Menlo,Consolas,monospace">SAMPLE ROLLOUT</text><text x="842.0" y="496.0" font-size="9.5" font-weight="600" fill="#5b6675" text-anchor="end" font-family="ui-monospace,SFMono-Regular,Menlo,Consolas,monospace">12 steps · route</text><rect x="570.0" y="509.0" width="272.0" height="130" rx="12" fill="#eef1f6" stroke="#dde2ea" stroke-width="1"/><text x="706.0" y="578.0" font-size="12" font-weight="500" fill="#5b6675" text-anchor="middle" font-family="ui-monospace,SFMono-Regular,Menlo,Consolas,monospace">no numeric preview</text><line x1="58" y1="821.0" x2="842" y2="821.0" stroke="#dde2ea" stroke-width="1"/><rect x="58.0" y="831.0" width="3" height="11" rx="1.5" fill="#1d4ed8"/><text x="67.0" y="840.0" font-size="10.5" font-weight="700" fill="#5b6675" letter-spacing="1.8" font-family="ui-monospace,SFMono-Regular,Menlo,Consolas,monospace">RULES — declared contract</text><text x="62.0" y="868.0" font-size="11" font-weight="800" fill="#1d4ed8" font-family="ui-monospace,SFMono-Regular,Menlo,Consolas,monospace">1</text><text x="80.0" y="868.0" font-size="11" font-weight="500" fill="#16202e">perceive the ticket, recall the closest past resolution, apply its tool, and emit a validated report.</text><line x1="58" y1="895.0" x2="842" y2="895.0" stroke="#dde2ea" stroke-width="1"/><text x="58.0" y="915.0" font-size="11" font-weight="500" fill="#5b6675">openworld_spec_version 1.0  ·  lineage: E60 I/O boundary</text><a href="https://play.reactflow.dev" target="_blank"><text x="450.0" y="915.0" font-size="10.5" font-weight="700" fill="#1d4ed8" text-anchor="middle" font-family="ui-monospace,SFMono-Regular,Menlo,Consolas,monospace">▸ open in React Flow</text></a><text x="842.0" y="915.0" font-size="12" font-weight="800" fill="#1d4ed8" text-anchor="end">OpenWorld</text></svg>