<?xml version="1.0" encoding="UTF-8"?>
<svg xmlns="http://www.w3.org/2000/svg" viewBox="0 0 900 1119" width="900" height="1119" font-family="-apple-system,BlinkMacSystemFont,Segoe UI,Roboto,Helvetica,Arial,sans-serif"><defs><linearGradient id="gbg" x1="0" y1="0" x2="0" y2="1"><stop offset="0" stop-color="#fcfbf8"/><stop offset="1" stop-color="#eef0ec"/></linearGradient><linearGradient id="gnode" x1="0" y1="0" x2="0" y2="1"><stop offset="0" stop-color="#ffffff"/><stop offset="1" stop-color="#eef1f6"/></linearGradient><linearGradient id="gacc" x1="0" y1="0" x2="1" y2="0"><stop offset="0" stop-color="#1d4ed8"/><stop offset="1" stop-color="#0891b2"/></linearGradient><linearGradient id="garea" x1="0" y1="0" x2="0" y2="1"><stop offset="0" stop-color="#1d4ed8" stop-opacity="0.34"/><stop offset="1" stop-color="#1d4ed8" stop-opacity="0"/></linearGradient><filter id="sh" x="-30%" y="-30%" width="160%" height="160%"><feDropShadow dx="0" dy="5" stdDeviation="9" flood-color="#16202e" flood-opacity="0.14"/></filter><filter id="shsoft" x="-40%" y="-40%" width="180%" height="180%"><feDropShadow dx="0" dy="10" stdDeviation="22" flood-color="#16202e" flood-opacity="0.14"/></filter><marker id="arr" markerWidth="9" markerHeight="9" refX="6.5" refY="3" orient="auto"><path d="M0,0 L6.5,3 L0,6 Z" fill="#1d4ed8"/></marker><marker id="arrUp" markerWidth="9" markerHeight="9" refX="3" refY="6.2" orient="auto"><path d="M0,6.2 L3,0 L6,6.2 Z" fill="#0f766e"/></marker><pattern id="grid" width="24" height="24" patternUnits="userSpaceOnUse"><path d="M24 0 H0 V24" fill="none" stroke="#8aa0c2" stroke-width="0.6" opacity="0.35"/></pattern><pattern id="gridFine" width="22" height="22" patternUnits="userSpaceOnUse"><path d="M22 0 H0 V22" fill="none" stroke="#8aa0c2" stroke-width="0.5" opacity="0.28"/></pattern><filter id="glow" x="-60%" y="-60%" width="220%" height="220%"><feGaussianBlur stdDeviation="2.4" result="b"/><feMerge><feMergeNode in="b"/><feMergeNode in="SourceGraphic"/></feMerge></filter></defs><rect x="0" y="0" width="900" height="1119" fill="url(#gbg)"/><g filter="url(#shsoft)"><rect x="26" y="26" width="848" height="1067" rx="24" fill="url(#gbg)" stroke="#dde2ea" stroke-width="1"/></g><clipPath id="pc"><rect x="26" y="26" width="848" height="1067" rx="24"/></clipPath><rect x="26" y="26" width="848" height="1067" fill="url(#gridFine)" clip-path="url(#pc)"/><rect x="26" y="26" width="848" height="6" rx="3" fill="url(#gacc)"/><path d="M 39 51 L 39 39 L 51 39" fill="none" stroke="#1d4ed8" stroke-width="1.4" opacity="0.55"/><path d="M 861 51 L 861 39 L 849 39" fill="none" stroke="#1d4ed8" stroke-width="1.4" opacity="0.55"/><path d="M 39 1068 L 39 1080 L 51 1080" fill="none" stroke="#1d4ed8" stroke-width="1.4" opacity="0.55"/><path d="M 861 1068 L 861 1080 L 849 1080" fill="none" stroke="#1d4ed8" stroke-width="1.4" opacity="0.55"/><g transform="translate(73.0,76.0)"><rect x="-15.0" y="-15.0" width="30.0" height="30.0" rx="5.1" fill="none" stroke="#1d4ed8" stroke-width="2.1"/><rect x="-9.0" y="-9.0" width="18.0" height="18.0" rx="3.6" fill="none" stroke="#b45309" stroke-width="1.9"/><rect x="-3.6" y="-3.6" width="7.2" height="7.2" rx="1.8" fill="#0f766e"/></g><text x="98.0" y="58.0" font-size="9.5" font-weight="700" fill="#1d4ed8" letter-spacing="2.4" font-family="ui-monospace,SFMono-Regular,Menlo,Consolas,monospace">OPENWORLD · MODEL CARD</text><text x="98.0" y="84.0" font-size="29" font-weight="700" fill="#16202e" font-family="'Iowan Old Style','Palatino Linotype',Palatino,Georgia,serif">triage</text><text x="58.0" y="104.0" font-size="14" font-weight="500" fill="#5b6675">An ICU triage queue. Critical and moderate patients wait for treatment; untreated</text><text x="58.0" y="123.0" font-size="14" font-weight="500" fill="#5b6675">critical patients deteriorate over time.</text><rect x="58.0" y="134.0" width="90.4" height="22" rx="11.0" fill="#eaeef6"/><text x="66.0" y="148.0" font-size="12" font-weight="600" fill="#1e3a8a">healthcare</text><rect x="156.4" y="134.0" width="53.2" height="22" rx="11.0" fill="#eaeef6"/><text x="164.4" y="148.0" font-size="12" font-weight="600" fill="#1e3a8a">queue</text><rect x="217.6" y="134.0" width="90.4" height="22" rx="11.0" fill="#eaeef6"/><text x="225.6" y="148.0" font-size="12" font-weight="600" fill="#1e3a8a">perception</text><rect x="817.7" y="48.0" width="38.3" height="22" rx="11.0" fill="#eaeef6"/><text x="825.7" y="62.0" font-size="12" font-weight="600" fill="#0f766e">MIT</text><rect x="763.9" y="48.0" width="45.8" height="22" rx="11.0" fill="#eaeef6"/><text x="771.9" y="62.0" font-size="12" font-weight="600" fill="#1e3a8a">v1.0</text><line x1="58" y1="182.0" x2="842" y2="182.0" stroke="#dde2ea" stroke-width="1"/><rect x="58" y="220.0" width="784" height="325.0" rx="16" fill="#eef1f6" fill-opacity="0.5" stroke="#dde2ea" stroke-width="1"/><text x="58.0" y="208.0" font-size="11" font-weight="700" fill="#5b6675" letter-spacing="1.6" font-family="ui-monospace,SFMono-Regular,Menlo,Consolas,monospace">STATE-TRANSITION GRAPH</text><path d="M 433.0 390.5 C 450.0 390.5, 450.0 293.5, 464.0 293.5" fill="none" stroke="#1d4ed8" stroke-width="1.7" stroke-opacity="0.85" marker-end="url(#arr)"/><rect x="403.0" y="334.0" width="94.0" height="15" rx="7.5" fill="#fcfbf8" stroke="#dde2ea" stroke-width="0.8"/><text x="450.0" y="345.0" font-size="9.5" font-weight="600" fill="#1d4ed8" text-anchor="middle">treat_critical</text><path d="M 433.0 390.5 C 450.0 390.5, 450.0 390.5, 464.0 390.5" fill="none" stroke="#1d4ed8" stroke-width="1.7" stroke-opacity="0.85" marker-end="url(#arr)"/><rect x="403.0" y="382.5" width="94.0" height="15" rx="7.5" fill="#fcfbf8" stroke="#dde2ea" stroke-width="0.8"/><text x="450.0" y="393.5" font-size="9.5" font-weight="600" fill="#1d4ed8" text-anchor="middle">treat_moderate</text><path d="M 433.0 390.5 C 450.0 390.5, 450.0 487.5, 464.0 487.5" fill="none" stroke="#1d4ed8" stroke-width="1.7" stroke-opacity="0.85" marker-end="url(#arr)"/><rect x="433.0" y="431.0" width="34.0" height="15" rx="7.5" fill="#fcfbf8" stroke="#dde2ea" stroke-width="0.8"/><text x="450.0" y="442.0" font-size="9.5" font-weight="600" fill="#1d4ed8" text-anchor="middle">wait</text><path d="M 637.5 293.5 C 654.5 293.5, 654.5 293.5, 668.5 293.5" fill="none" stroke="#1d4ed8" stroke-width="1.7" stroke-opacity="0.85" marker-end="url(#arr)"/><rect x="607.5" y="285.5" width="94.0" height="15" rx="7.5" fill="#fcfbf8" stroke="#dde2ea" stroke-width="0.8"/><text x="654.5" y="296.5" font-size="9.5" font-weight="600" fill="#1d4ed8" text-anchor="middle">treat_critical</text><path d="M 637.5 293.5 C 654.5 293.5, 654.5 390.5, 668.5 390.5" fill="none" stroke="#1d4ed8" stroke-width="1.7" stroke-opacity="0.85" marker-end="url(#arr)"/><rect x="607.5" y="334.0" width="94.0" height="15" rx="7.5" fill="#fcfbf8" stroke="#dde2ea" stroke-width="0.8"/><text x="654.5" y="345.0" font-size="9.5" font-weight="600" fill="#1d4ed8" text-anchor="middle">treat_moderate</text><path d="M 228.5 390.5 C 245.5 390.5, 245.5 390.5, 259.5 390.5" fill="none" stroke="#1d4ed8" stroke-width="1.7" stroke-opacity="0.85" stroke-dasharray="5 4" marker-end="url(#arr)"/><rect x="216.5" y="382.5" width="58.0" height="15" rx="7.5" fill="#fcfbf8" stroke="#dde2ea" stroke-width="0.8"/><text x="245.5" y="393.5" font-size="9.5" font-weight="600" fill="#1d4ed8" text-anchor="middle">perceive</text><path d="M 637.5 390.5 C 654.5 390.5, 654.5 487.5, 668.5 487.5" fill="none" stroke="#1d4ed8" stroke-width="1.7" stroke-opacity="0.85" stroke-dasharray="5 4" marker-end="url(#arr)"/><rect x="637.5" y="431.0" width="34.0" height="15" rx="7.5" fill="#fcfbf8" stroke="#dde2ea" stroke-width="0.8"/><text x="654.5" y="442.0" font-size="9.5" font-weight="600" fill="#1d4ed8" text-anchor="middle">emit</text><g filter="url(#sh)"><rect x="262.5" y="355.0" width="170.5" height="71.0" rx="13" fill="url(#gnode)" stroke="#1d4ed8" stroke-width="2.2"/></g><text x="264.5" y="348.0" font-size="10" font-weight="700" fill="#1d4ed8">▶ start</text><text x="347.8" y="380.0" font-size="13" font-weight="700" fill="#16202e" text-anchor="middle">critical_waiting 4</text><text x="347.8" y="395.0" font-size="11" font-weight="500" fill="#5b6675" text-anchor="middle">deteriorated 0</text><text x="347.8" y="410.0" font-size="11" font-weight="500" fill="#5b6675" text-anchor="middle">moderate_waiting 8</text><g filter="url(#sh)"><rect x="467.0" y="258.0" width="170.5" height="71.0" rx="13" fill="url(#gnode)" stroke="#dde2ea" stroke-width="1.2"/></g><text x="552.2" y="283.0" font-size="13" font-weight="700" fill="#16202e" text-anchor="middle">critical_waiting 3</text><text x="552.2" y="298.0" font-size="11" font-weight="500" fill="#5b6675" text-anchor="middle">deteriorated 0</text><text x="552.2" y="313.0" font-size="11" font-weight="500" fill="#5b6675" text-anchor="middle">moderate_waiting 8</text><g filter="url(#sh)"><rect x="467.0" y="355.0" width="170.5" height="71.0" rx="13" fill="url(#gnode)" stroke="#dde2ea" stroke-width="1.2"/></g><text x="552.2" y="380.0" font-size="13" font-weight="700" fill="#16202e" text-anchor="middle">critical_waiting 4</text><text x="552.2" y="395.0" font-size="11" font-weight="500" fill="#5b6675" text-anchor="middle">deteriorated 0</text><text x="552.2" y="410.0" font-size="11" font-weight="500" fill="#5b6675" text-anchor="middle">moderate_waiting 7</text><g filter="url(#sh)"><rect x="467.0" y="452.0" width="170.5" height="71.0" rx="13" fill="url(#gnode)" stroke="#dde2ea" stroke-width="1.2"/></g><text x="552.2" y="477.0" font-size="13" font-weight="700" fill="#16202e" text-anchor="middle">critical_waiting 4</text><text x="552.2" y="492.0" font-size="11" font-weight="500" fill="#5b6675" text-anchor="middle">deteriorated 0</text><text x="552.2" y="507.0" font-size="11" font-weight="500" fill="#5b6675" text-anchor="middle">moderate_waiting 8</text><g filter="url(#sh)"><rect x="671.5" y="258.0" width="170.5" height="71.0" rx="13" fill="url(#gnode)" stroke="#dde2ea" stroke-width="1.2"/></g><text x="756.8" y="283.0" font-size="13" font-weight="700" fill="#16202e" text-anchor="middle">critical_waiting 1</text><text x="756.8" y="298.0" font-size="11" font-weight="500" fill="#5b6675" text-anchor="middle">deteriorated 1</text><text x="756.8" y="313.0" font-size="11" font-weight="500" fill="#5b6675" text-anchor="middle">moderate_waiting 8</text><g filter="url(#sh)"><rect x="671.5" y="355.0" width="170.5" height="71.0" rx="13" fill="url(#gnode)" stroke="#dde2ea" stroke-width="1.2"/></g><text x="756.8" y="380.0" font-size="13" font-weight="700" fill="#16202e" text-anchor="middle">critical_waiting 2</text><text x="756.8" y="395.0" font-size="11" font-weight="500" fill="#5b6675" text-anchor="middle">deteriorated 1</text><text x="756.8" y="410.0" font-size="11" font-weight="500" fill="#5b6675" text-anchor="middle">moderate_waiting 7</text><g filter="url(#sh)"><rect x="58.0" y="355.0" width="170.5" height="71.0" rx="13" fill="#eef1f6" stroke="#b45309" stroke-width="1.5" stroke-dasharray="5 3"/></g><text x="69.0" y="348.0" font-size="9" font-weight="700" fill="#b45309" font-family="ui-monospace,SFMono-Regular,Menlo,Consolas,monospace">⌖ sensor</text><text x="143.2" y="387.5" font-size="13" font-weight="700" fill="#16202e" text-anchor="middle">text</text><text x="143.2" y="402.5" font-size="11" font-weight="500" fill="#5b6675" text-anchor="middle">critical_waiting, moderate_waiting</text><g filter="url(#sh)"><rect x="671.5" y="452.0" width="170.5" height="71.0" rx="13" fill="#eef1f6" stroke="#0f766e" stroke-width="1.5" stroke-dasharray="5 3"/></g><text x="682.5" y="445.0" font-size="9" font-weight="700" fill="#0f766e" font-family="ui-monospace,SFMono-Regular,Menlo,Consolas,monospace">▸ output</text><text x="756.8" y="484.5" font-size="13" font-weight="700" fill="#16202e" text-anchor="middle">alert</text><text x="756.8" y="499.5" font-size="11" font-weight="500" fill="#5b6675" text-anchor="middle">critical_waiting, deteriorated</text><rect x="58.0" y="561.0" width="3" height="11" rx="1.5" fill="#1d4ed8"/><text x="67.0" y="570.0" font-size="10.5" font-weight="700" fill="#5b6675" letter-spacing="1.8" font-family="ui-monospace,SFMono-Regular,Menlo,Consolas,monospace">STATE SCHEMA</text><rect x="54.0" y="584.0" width="258.0" height="24" rx="6" fill="#1d4ed8" fill-opacity="0.035"/><text x="62.0" y="600.0" font-size="12" font-weight="600" fill="#16202e" font-family="ui-monospace,SFMono-Regular,Menlo,Consolas,monospace">tick</text><rect x="273.9" y="588.0" width="34.1" height="17" rx="5" fill="#eaeef6"/><text x="280.9" y="600.0" font-size="10.5" font-weight="700" fill="#1d4ed8" font-family="ui-monospace,SFMono-Regular,Menlo,Consolas,monospace">int</text><text x="265.9" y="600.0" font-size="10.5" font-weight="600" fill="#5b6675" text-anchor="end" font-family="ui-monospace,SFMono-Regular,Menlo,Consolas,monospace">0</text><text x="62.0" y="626.0" font-size="12" font-weight="600" fill="#16202e" font-family="ui-monospace,SFMono-Regular,Menlo,Consolas,monospace">critical_waiting</text><rect x="273.9" y="614.0" width="34.1" height="17" rx="5" fill="#eaeef6"/><text x="280.9" y="626.0" font-size="10.5" font-weight="700" fill="#1d4ed8" font-family="ui-monospace,SFMono-Regular,Menlo,Consolas,monospace">int</text><text x="265.9" y="626.0" font-size="10.5" font-weight="600" fill="#5b6675" text-anchor="end" font-family="ui-monospace,SFMono-Regular,Menlo,Consolas,monospace">4</text><rect x="54.0" y="636.0" width="258.0" height="24" rx="6" fill="#1d4ed8" fill-opacity="0.035"/><text x="62.0" y="652.0" font-size="12" font-weight="600" fill="#16202e" font-family="ui-monospace,SFMono-Regular,Menlo,Consolas,monospace">moderate_waiting</text><rect x="273.9" y="640.0" width="34.1" height="17" rx="5" fill="#eaeef6"/><text x="280.9" y="652.0" font-size="10.5" font-weight="700" fill="#1d4ed8" font-family="ui-monospace,SFMono-Regular,Menlo,Consolas,monospace">int</text><text x="265.9" y="652.0" font-size="10.5" font-weight="600" fill="#5b6675" text-anchor="end" font-family="ui-monospace,SFMono-Regular,Menlo,Consolas,monospace">8</text><text x="62.0" y="678.0" font-size="12" font-weight="600" fill="#16202e" font-family="ui-monospace,SFMono-Regular,Menlo,Consolas,monospace">treated</text><rect x="273.9" y="666.0" width="34.1" height="17" rx="5" fill="#eaeef6"/><text x="280.9" y="678.0" font-size="10.5" font-weight="700" fill="#1d4ed8" font-family="ui-monospace,SFMono-Regular,Menlo,Consolas,monospace">int</text><text x="265.9" y="678.0" font-size="10.5" font-weight="600" fill="#5b6675" text-anchor="end" font-family="ui-monospace,SFMono-Regular,Menlo,Consolas,monospace">0</text><rect x="54.0" y="688.0" width="258.0" height="24" rx="6" fill="#1d4ed8" fill-opacity="0.035"/><text x="62.0" y="704.0" font-size="12" font-weight="600" fill="#16202e" font-family="ui-monospace,SFMono-Regular,Menlo,Consolas,monospace">deteriorated</text><rect x="273.9" y="692.0" width="34.1" height="17" rx="5" fill="#eaeef6"/><text x="280.9" y="704.0" font-size="10.5" font-weight="700" fill="#1d4ed8" font-family="ui-monospace,SFMono-Regular,Menlo,Consolas,monospace">int</text><text x="265.9" y="704.0" font-size="10.5" font-weight="600" fill="#5b6675" text-anchor="end" font-family="ui-monospace,SFMono-Regular,Menlo,Consolas,monospace">0</text><text x="62.0" y="730.0" font-size="12" font-weight="600" fill="#16202e" font-family="ui-monospace,SFMono-Regular,Menlo,Consolas,monospace">outcomes</text><rect x="273.9" y="718.0" width="34.1" height="17" rx="5" fill="#eaeef6"/><text x="280.9" y="730.0" font-size="10.5" font-weight="700" fill="#1d4ed8" font-family="ui-monospace,SFMono-Regular,Menlo,Consolas,monospace">int</text><text x="265.9" y="730.0" font-size="10.5" font-weight="600" fill="#5b6675" text-anchor="end" font-family="ui-monospace,SFMono-Regular,Menlo,Consolas,monospace">0</text><text x="62.0" y="754.0" font-size="11" font-weight="500" fill="#5b6675" font-family="ui-monospace,SFMono-Regular,Menlo,Consolas,monospace">+ 1 more</text><rect x="58.0" y="785.0" width="3" height="11" rx="1.5" fill="#1d4ed8"/><text x="67.0" y="794.0" font-size="10.5" font-weight="700" fill="#5b6675" letter-spacing="1.8" font-family="ui-monospace,SFMono-Regular,Menlo,Consolas,monospace">PERCEPTION</text><rect x="58.0" y="809.0" width="41.6" height="18" rx="5" fill="#eaeef6" stroke="#b45309" stroke-width="1" stroke-opacity="0.45" stroke-dasharray="3 2"/><text x="66.0" y="822.0" font-size="10" font-weight="700" fill="#b45309" font-family="ui-monospace,SFMono-Regular,Menlo,Consolas,monospace">text</text><text x="107.6" y="822.0" font-size="11" font-weight="600" fill="#16202e" font-family="ui-monospace,SFMono-Regular,Menlo,Consolas,monospace">→ critical_waiting, moderat…</text><rect x="58.0" y="855.0" width="3" height="11" rx="1.5" fill="#1d4ed8"/><text x="67.0" y="864.0" font-size="10.5" font-weight="700" fill="#5b6675" letter-spacing="1.8" font-family="ui-monospace,SFMono-Regular,Menlo,Consolas,monospace">EMIT</text><rect x="58.0" y="879.0" width="48.0" height="18" rx="5" fill="#eaeef6" stroke="#0f766e" stroke-width="1" stroke-opacity="0.45" stroke-dasharray="3 2"/><text x="66.0" y="892.0" font-size="10" font-weight="700" fill="#0f766e" font-family="ui-monospace,SFMono-Regular,Menlo,Consolas,monospace">alert</text><text x="114.0" y="892.0" font-size="11" font-weight="600" fill="#16202e" font-family="ui-monospace,SFMono-Regular,Menlo,Consolas,monospace">← critical_waiting, deterio…</text><rect x="328.0" y="561.0" width="3" height="11" rx="1.5" fill="#1d4ed8"/><text x="337.0" y="570.0" font-size="10.5" font-weight="700" fill="#5b6675" letter-spacing="1.8" font-family="ui-monospace,SFMono-Regular,Menlo,Consolas,monospace">ACTIONS</text><rect x="328.0" y="585.0" width="109.0" height="20" rx="6" fill="#eaeef6" stroke="#1d4ed8" stroke-width="1" stroke-opacity="0.16"/><text x="337.0" y="599.0" font-size="10.5" font-weight="600" fill="#1e3a8a" font-family="ui-monospace,SFMono-Regular,Menlo,Consolas,monospace">treat_critical</text><rect x="328.0" y="611.0" width="109.0" height="20" rx="6" fill="#eaeef6" stroke="#1d4ed8" stroke-width="1" stroke-opacity="0.16"/><text x="337.0" y="625.0" font-size="10.5" font-weight="600" fill="#1e3a8a" font-family="ui-monospace,SFMono-Regular,Menlo,Consolas,monospace">treat_moderate</text><rect x="444.0" y="611.0" width="44.0" height="20" rx="6" fill="#eaeef6" stroke="#1d4ed8" stroke-width="1" stroke-opacity="0.16"/><text x="453.0" y="625.0" font-size="10.5" font-weight="600" fill="#1e3a8a" font-family="ui-monospace,SFMono-Regular,Menlo,Consolas,monospace">wait</text><rect x="328.0" y="655.0" width="3" height="11" rx="1.5" fill="#1d4ed8"/><text x="337.0" y="664.0" font-size="10.5" font-weight="700" fill="#5b6675" letter-spacing="1.8" font-family="ui-monospace,SFMono-Regular,Menlo,Consolas,monospace">DYNAMICS</text><circle cx="337.0" cy="685.0" r="8" fill="#0f766e"/><path d="M333.4,685.0 l2.4,2.4 l4-4.4" fill="none" stroke="#fff" stroke-width="1.8" stroke-linecap="round" stroke-linejoin="round"/><text x="352.0" y="689.0" font-size="12.5" font-weight="700" fill="#16202e">code (from function)</text><rect x="328.0" y="715.0" width="3" height="11" rx="1.5" fill="#1d4ed8"/><text x="337.0" y="724.0" font-size="10.5" font-weight="700" fill="#5b6675" letter-spacing="1.8" font-family="ui-monospace,SFMono-Regular,Menlo,Consolas,monospace">OBJECTIVES</text><circle cx="332.0" cy="743.0" r="2.4" fill="#1d4ed8"/><text x="341.0" y="747.0" font-size="11.5" font-weight="600" fill="#16202e" font-family="ui-monospace,SFMono-Regular,Menlo,Consolas,monospace">minimize deterioration · min …</text><circle cx="332.0" cy="762.0" r="2.4" fill="#1d4ed8"/><text x="341.0" y="766.0" font-size="11.5" font-weight="600" fill="#16202e" font-family="ui-monospace,SFMono-Regular,Menlo,Consolas,monospace">maximize outcomes · max outco…</text><rect x="570.0" y="561.0" width="3" height="11" rx="1.5" fill="#1d4ed8"/><text x="579.0" y="570.0" font-size="10.5" font-weight="700" fill="#5b6675" letter-spacing="1.8" font-family="ui-monospace,SFMono-Regular,Menlo,Consolas,monospace">SAMPLE ROLLOUT</text><text x="842.0" y="570.0" font-size="9.5" font-weight="600" fill="#5b6675" text-anchor="end" font-family="ui-monospace,SFMono-Regular,Menlo,Consolas,monospace">12 steps · treat_critical</text><rect x="570.0" y="583.0" width="272.0" height="130" rx="12" fill="#eef1f6" stroke="#dde2ea" stroke-width="1"/><text x="578.0" y="597.0" font-size="9" font-weight="600" fill="#5b6675" font-family="ui-monospace,SFMono-Regular,Menlo,Consolas,monospace">12</text><text x="578.0" y="705.0" font-size="9" font-weight="600" fill="#5b6675" font-family="ui-monospace,SFMono-Regular,Menlo,Consolas,monospace">0</text><line x1="586.0" y1="623.5" x2="826.0" y2="623.5" stroke="#dde2ea" stroke-width="0.8" stroke-dasharray="1 5" opacity="0.7"/><line x1="586.0" y1="648.0" x2="826.0" y2="648.0" stroke="#dde2ea" stroke-width="0.8" stroke-dasharray="1 5" opacity="0.7"/><line x1="586.0" y1="672.5" x2="826.0" y2="672.5" stroke="#dde2ea" stroke-width="0.8" stroke-dasharray="1 5" opacity="0.7"/><path class="series" d="M 586.0 697.0 L 586.0 697.0 L 606.0 688.8 L 626.0 680.7 L 646.0 672.5 L 666.0 664.3 L 686.0 656.2 L 706.0 648.0 L 726.0 639.8 L 746.0 631.7 L 766.0 623.5 L 786.0 615.3 L 806.0 607.2 L 826.0 599.0 L 826.0 697.0 Z" fill="url(#garea)"/><polyline class="series" points="586.0,697.0 606.0,688.8 626.0,680.7 646.0,672.5 666.0,664.3 686.0,656.2 706.0,648.0 726.0,639.8 746.0,631.7 766.0,623.5 786.0,615.3 806.0,607.2 826.0,599.0" fill="none" stroke="#1d4ed8" stroke-width="2.4" stroke-linejoin="round"/><circle cx="826.0" cy="599.0" r="3.4" fill="#1d4ed8"/><text x="822.0" y="591.0" font-size="9.5" font-weight="700" fill="#1d4ed8" text-anchor="end" font-family="ui-monospace,SFMono-Regular,Menlo,Consolas,monospace">12</text><polyline class="series" points="586.0,697.0 606.0,664.3 626.0,631.7 646.0,599.0 666.0,599.0 686.0,599.0 706.0,599.0 726.0,599.0 746.0,599.0 766.0,599.0 786.0,599.0 806.0,599.0 826.0,599.0" fill="none" stroke="#0f766e" stroke-width="1.8" stroke-opacity="0.9" stroke-linejoin="round"/><polyline class="series" points="586.0,697.0 606.0,655.0 626.0,641.0 646.0,599.0 666.0,599.0 686.0,599.0 706.0,599.0 726.0,599.0 746.0,599.0 766.0,599.0 786.0,599.0 806.0,599.0 826.0,599.0" fill="none" stroke="#b45309" stroke-width="1.8" stroke-opacity="0.9" stroke-linejoin="round"/><polyline class="series" points="586.0,599.0 606.0,623.5 626.0,672.5 646.0,697.0 666.0,697.0 686.0,697.0 706.0,697.0 726.0,697.0 746.0,697.0 766.0,697.0 786.0,697.0 806.0,697.0 826.0,697.0" fill="none" stroke="#9d2449" stroke-width="1.8" stroke-opacity="0.9" stroke-linejoin="round"/><rect x="572.0" y="720.0" width="9" height="9" rx="2" fill="#1d4ed8"/><text x="586.0" y="729.0" font-size="10.5" font-weight="600" fill="#5b6675" font-family="ui-monospace,SFMono-Regular,Menlo,Consolas,monospace">tick ↑</text><rect x="637.8" y="720.0" width="9" height="9" rx="2" fill="#0f766e"/><text x="651.8" y="729.0" font-size="10.5" font-weight="600" fill="#5b6675" font-family="ui-monospace,SFMono-Regular,Menlo,Consolas,monospace">spend ↑</text><rect x="709.9" y="720.0" width="9" height="9" rx="2" fill="#b45309"/><text x="723.9" y="729.0" font-size="10.5" font-weight="600" fill="#5b6675" font-family="ui-monospace,SFMono-Regular,Menlo,Consolas,monospace">outcomes ↑</text><rect x="800.9" y="720.0" width="9" height="9" rx="2" fill="#9d2449"/><text x="814.9" y="729.0" font-size="10.5" font-weight="600" fill="#5b6675" font-family="ui-monospace,SFMono-Regular,Menlo,Consolas,monospace">critical_waiting ↓</text><rect x="570.0" y="753.0" width="3" height="11" rx="1.5" fill="#1d4ed8"/><text x="579.0" y="762.0" font-size="10.5" font-weight="700" fill="#5b6675" letter-spacing="1.8" font-family="ui-monospace,SFMono-Regular,Menlo,Consolas,monospace">METRICS</text><text x="574.0" y="789.0" font-size="11" font-weight="600" fill="#5b6675" font-family="ui-monospace,SFMono-Regular,Menlo,Consolas,monospace">round-trip</text><text x="842.0" y="789.0" font-size="11.5" font-weight="700" fill="#0f766e" text-anchor="end" font-family="ui-monospace,SFMono-Regular,Menlo,Consolas,monospace">exact</text><line x1="574.0" y1="796.0" x2="842.0" y2="796.0" stroke="#dde2ea" stroke-width="1" stroke-dasharray="1 4" opacity="0.7"/><text x="574.0" y="811.0" font-size="11" font-weight="600" fill="#5b6675" font-family="ui-monospace,SFMono-Regular,Menlo,Consolas,monospace">reachable states</text><text x="842.0" y="811.0" font-size="11.5" font-weight="700" fill="#0f766e" text-anchor="end" font-family="ui-monospace,SFMono-Regular,Menlo,Consolas,monospace">6</text><line x1="574.0" y1="818.0" x2="842.0" y2="818.0" stroke="#dde2ea" stroke-width="1" stroke-dasharray="1 4" opacity="0.7"/><text x="574.0" y="833.0" font-size="11" font-weight="600" fill="#5b6675" font-family="ui-monospace,SFMono-Regular,Menlo,Consolas,monospace">spec size</text><text x="842.0" y="833.0" font-size="11.5" font-weight="700" fill="#0f766e" text-anchor="end" font-family="ui-monospace,SFMono-Regular,Menlo,Consolas,monospace">6.1 KB</text><line x1="574.0" y1="840.0" x2="842.0" y2="840.0" stroke="#dde2ea" stroke-width="1" stroke-dasharray="1 4" opacity="0.7"/><line x1="58" y1="919.0" x2="842" y2="919.0" stroke="#dde2ea" stroke-width="1"/><rect x="58.0" y="929.0" width="3" height="11" rx="1.5" fill="#1d4ed8"/><text x="67.0" y="938.0" font-size="10.5" font-weight="700" fill="#5b6675" letter-spacing="1.8" font-family="ui-monospace,SFMono-Regular,Menlo,Consolas,monospace">RULES — declared contract</text><text x="62.0" y="966.0" font-size="11" font-weight="800" fill="#1d4ed8" font-family="ui-monospace,SFMono-Regular,Menlo,Consolas,monospace">1</text><text x="80.0" y="966.0" font-size="11" font-weight="500" fill="#16202e">&#x27;treat_critical&#x27; treats one waiting critical patient: critical_waiting -1, treated +1, outcomes +3, spend +3.</text><text x="62.0" y="990.0" font-size="11" font-weight="800" fill="#1d4ed8" font-family="ui-monospace,SFMono-Regular,Menlo,Consolas,monospace">2</text><text x="80.0" y="990.0" font-size="11" font-weight="500" fill="#16202e">&#x27;treat_moderate&#x27; treats one waiting moderate patient: moderate_waiting -1, treated +1, outcomes +1, spend +1.</text><text x="62.0" y="1014.0" font-size="11" font-weight="800" fill="#1d4ed8" font-family="ui-monospace,SFMono-Regular,Menlo,Consolas,monospace">3</text><text x="80.0" y="1014.0" font-size="11" font-weight="500" fill="#16202e">Treating when the matching queue is empty does nothing (besides the clock).</text><text x="62.0" y="1038.0" font-size="11" font-weight="800" fill="#1d4ed8" font-family="ui-monospace,SFMono-Regular,Menlo,Consolas,monospace">4</text><text x="80.0" y="1038.0" font-size="11" font-weight="500" fill="#16202e">After EVERY action (including &#x27;wait&#x27; and &#x27;noop&#x27;), tick increases by 1.</text><text x="80.0" y="1059.0" font-size="10.5" font-weight="500" fill="#5b6675" font-family="ui-monospace,SFMono-Regular,Menlo,Consolas,monospace">+ 1 more rules</text><line x1="58" y1="1081.0" x2="842" y2="1081.0" stroke="#dde2ea" stroke-width="1"/><text x="58.0" y="1101.0" font-size="11" font-weight="500" fill="#5b6675">openworld_spec_version 1.0  ·  lineage: E08/E26 triage world</text><a href="https://play.reactflow.dev" target="_blank"><text x="450.0" y="1101.0" font-size="10.5" font-weight="700" fill="#1d4ed8" text-anchor="middle" font-family="ui-monospace,SFMono-Regular,Menlo,Consolas,monospace">▸ open in React Flow</text></a><text x="842.0" y="1101.0" font-size="12" font-weight="800" fill="#1d4ed8" text-anchor="end">OpenWorld</text></svg>