<?xml version="1.0" encoding="UTF-8"?>
<svg xmlns="http://www.w3.org/2000/svg" viewBox="0 0 900 819" width="900" height="819" font-family="-apple-system,BlinkMacSystemFont,Segoe UI,Roboto,Helvetica,Arial,sans-serif"><defs><linearGradient id="gbg" x1="0" y1="0" x2="0" y2="1"><stop offset="0" stop-color="#ffffff"/><stop offset="1" stop-color="#eef2f8"/></linearGradient><linearGradient id="gnode" x1="0" y1="0" x2="0" y2="1"><stop offset="0" stop-color="#ffffff"/><stop offset="1" stop-color="#eef2ff"/></linearGradient><linearGradient id="gacc" x1="0" y1="0" x2="1" y2="0"><stop offset="0" stop-color="#2563eb"/><stop offset="1" stop-color="#7c3aed"/></linearGradient><linearGradient id="garea" x1="0" y1="0" x2="0" y2="1"><stop offset="0" stop-color="#2563eb" stop-opacity="0.34"/><stop offset="1" stop-color="#2563eb" stop-opacity="0"/></linearGradient><filter id="sh" x="-30%" y="-30%" width="160%" height="160%"><feDropShadow dx="0" dy="5" stdDeviation="9" flood-color="#0f172a" flood-opacity="0.16"/></filter><filter id="shsoft" x="-40%" y="-40%" width="180%" height="180%"><feDropShadow dx="0" dy="10" stdDeviation="22" flood-color="#0f172a" flood-opacity="0.16"/></filter><marker id="arr" markerWidth="9" markerHeight="9" refX="6.5" refY="3" orient="auto"><path d="M0,0 L6.5,3 L0,6 Z" fill="#2563eb"/></marker><marker id="arrUp" markerWidth="9" markerHeight="9" refX="3" refY="6.2" orient="auto"><path d="M0,6.2 L3,0 L6,6.2 Z" fill="#7c3aed"/></marker><pattern id="grid" width="24" height="24" patternUnits="userSpaceOnUse"><path d="M24 0 H0 V24" fill="none" stroke="#9fb3d1" stroke-width="0.6" opacity="0.35"/></pattern><pattern id="gridFine" width="6" height="6" patternUnits="userSpaceOnUse"><circle cx="0.7" cy="0.7" r="0.7" fill="#9fb3d1" opacity="0.18"/></pattern><filter id="glow" x="-60%" y="-60%" width="220%" height="220%"><feGaussianBlur stdDeviation="2.4" result="b"/><feMerge><feMergeNode in="b"/><feMergeNode in="SourceGraphic"/></feMerge></filter></defs><rect x="0" y="0" width="900" height="819" fill="url(#gbg)"/><g filter="url(#shsoft)"><rect x="26" y="26" width="848" height="767" rx="24" fill="url(#gbg)" stroke="#dfe4ec" stroke-width="1"/></g><clipPath id="pc"><rect x="26" y="26" width="848" height="767" rx="24"/></clipPath><rect x="26" y="26" width="848" height="767" fill="url(#gridFine)" clip-path="url(#pc)"/><rect x="26" y="26" width="848" height="6" rx="3" fill="url(#gacc)"/><path d="M 39 51 L 39 39 L 51 39" fill="none" stroke="#2563eb" stroke-width="1.4" opacity="0.55"/><path d="M 861 51 L 861 39 L 849 39" fill="none" stroke="#2563eb" stroke-width="1.4" opacity="0.55"/><path d="M 39 768 L 39 780 L 51 780" fill="none" stroke="#2563eb" stroke-width="1.4" opacity="0.55"/><path d="M 861 768 L 861 780 L 849 780" fill="none" stroke="#2563eb" stroke-width="1.4" opacity="0.55"/><g transform="translate(73.0,76.0)"><circle r="15" fill="url(#gacc)"/><circle r="15" fill="none" stroke="#ffffff" stroke-opacity="0.55" stroke-width="1.1"/><ellipse rx="6.8" ry="15" fill="none" stroke="#ffffff" stroke-opacity="0.55" stroke-width="1"/><line x1="-15" y1="0" x2="15" y2="0" stroke="#ffffff" stroke-opacity="0.55" stroke-width="1"/><line x1="-12.9" y1="-7.5" x2="12.9" y2="-7.5" stroke="#ffffff" stroke-opacity="0.4" stroke-width="0.9"/><line x1="-12.9" y1="7.5" x2="12.9" y2="7.5" stroke="#ffffff" stroke-opacity="0.4" stroke-width="0.9"/></g><text x="98.0" y="58.0" font-size="9.5" font-weight="700" fill="#2563eb" letter-spacing="2.4" font-family="ui-monospace,SFMono-Regular,Menlo,Consolas,monospace">OPENWORLD · MODEL CARD</text><text x="98.0" y="84.0" font-size="29" font-weight="700" fill="#0f172a" font-family="'Iowan Old Style','Palatino Linotype',Palatino,Georgia,serif">triage</text><text x="58.0" y="104.0" font-size="14" font-weight="500" fill="#64748b">An ICU triage queue. Critical and moderate patients wait for treatment; untreated</text><text x="58.0" y="123.0" font-size="14" font-weight="500" fill="#64748b">critical patients deteriorate over time.</text><rect x="58.0" y="134.0" width="90.4" height="22" rx="11.0" fill="#eef2ff"/><text x="66.0" y="148.0" font-size="12" font-weight="600" fill="#3730a3">healthcare</text><rect x="156.4" y="134.0" width="53.2" height="22" rx="11.0" fill="#eef2ff"/><text x="164.4" y="148.0" font-size="12" font-weight="600" fill="#3730a3">queue</text><rect x="217.6" y="134.0" width="45.8" height="22" rx="11.0" fill="#eef2ff"/><text x="225.6" y="148.0" font-size="12" font-weight="600" fill="#3730a3">leaf</text><rect x="817.7" y="48.0" width="38.3" height="22" rx="11.0" fill="#eef2ff"/><text x="825.7" y="62.0" font-size="12" font-weight="600" fill="#059669">MIT</text><rect x="763.9" y="48.0" width="45.8" height="22" rx="11.0" fill="#eef2ff"/><text x="771.9" y="62.0" font-size="12" font-weight="600" fill="#3730a3">v1.0</text><line x1="58" y1="182.0" x2="842" y2="182.0" stroke="#e2e8f0" stroke-width="1"/><rect x="58" y="220.0" width="784" height="325.0" rx="16" fill="#eef2ff" fill-opacity="0.5" stroke="#e2e8f0" stroke-width="1"/><text x="58.0" y="208.0" font-size="11" font-weight="700" fill="#64748b" letter-spacing="1.6" font-family="ui-monospace,SFMono-Regular,Menlo,Consolas,monospace">STATE-TRANSITION GRAPH</text><path d="M 217.6 390.5 C 293.9 390.5, 293.9 293.5, 367.2 293.5" fill="none" stroke="#2563eb" stroke-width="1.7" stroke-opacity="0.85" marker-end="url(#arr)"/><rect x="246.9" y="334.0" width="94.0" height="15" rx="7.5" fill="#ffffff" stroke="#e2e8f0" stroke-width="0.8"/><text x="293.9" y="345.0" font-size="9.5" font-weight="600" fill="#2563eb" text-anchor="middle">treat_critical</text><path d="M 217.6 390.5 C 293.9 390.5, 293.9 390.5, 367.2 390.5" fill="none" stroke="#2563eb" stroke-width="1.7" stroke-opacity="0.85" marker-end="url(#arr)"/><rect x="246.9" y="382.5" width="94.0" height="15" rx="7.5" fill="#ffffff" stroke="#e2e8f0" stroke-width="0.8"/><text x="293.9" y="393.5" font-size="9.5" font-weight="600" fill="#2563eb" text-anchor="middle">treat_moderate</text><path d="M 217.6 390.5 C 293.9 390.5, 293.9 487.5, 367.2 487.5" fill="none" stroke="#2563eb" stroke-width="1.7" stroke-opacity="0.85" marker-end="url(#arr)"/><rect x="276.9" y="431.0" width="34.0" height="15" rx="7.5" fill="#ffffff" stroke="#e2e8f0" stroke-width="0.8"/><text x="293.9" y="442.0" font-size="9.5" font-weight="600" fill="#2563eb" text-anchor="middle">wait</text><path d="M 529.8 293.5 C 606.1 293.5, 606.1 342.0, 679.4 342.0" fill="none" stroke="#2563eb" stroke-width="1.7" stroke-opacity="0.85" marker-end="url(#arr)"/><rect x="559.1" y="309.8" width="94.0" height="15" rx="7.5" fill="#ffffff" stroke="#e2e8f0" stroke-width="0.8"/><text x="606.1" y="320.8" font-size="9.5" font-weight="600" fill="#2563eb" text-anchor="middle">treat_critical</text><path d="M 529.8 293.5 C 606.1 293.5, 606.1 439.0, 679.4 439.0" fill="none" stroke="#2563eb" stroke-width="1.7" stroke-opacity="0.85" marker-end="url(#arr)"/><rect x="559.1" y="358.2" width="94.0" height="15" rx="7.5" fill="#ffffff" stroke="#e2e8f0" stroke-width="0.8"/><text x="606.1" y="369.2" font-size="9.5" font-weight="600" fill="#2563eb" text-anchor="middle">treat_moderate</text><g filter="url(#sh)"><rect x="58.0" y="355.0" width="159.6" height="71.0" rx="13" fill="url(#gnode)" stroke="#2563eb" stroke-width="2.2"/></g><text x="60.0" y="348.0" font-size="10" font-weight="700" fill="#2563eb">▶ start</text><text x="137.8" y="380.0" font-size="13" font-weight="700" fill="#0f172a" text-anchor="middle">critical_waiting 4</text><text x="137.8" y="395.0" font-size="11" font-weight="500" fill="#64748b" text-anchor="middle">deteriorated 0</text><text x="137.8" y="410.0" font-size="11" font-weight="500" fill="#64748b" text-anchor="middle">moderate_waiting 8</text><g filter="url(#sh)"><rect x="370.2" y="258.0" width="159.6" height="71.0" rx="13" fill="url(#gnode)" stroke="#e2e8f0" stroke-width="1.2"/></g><text x="450.0" y="283.0" font-size="13" font-weight="700" fill="#0f172a" text-anchor="middle">critical_waiting 3</text><text x="450.0" y="298.0" font-size="11" font-weight="500" fill="#64748b" text-anchor="middle">deteriorated 0</text><text x="450.0" y="313.0" font-size="11" font-weight="500" fill="#64748b" text-anchor="middle">moderate_waiting 8</text><g filter="url(#sh)"><rect x="370.2" y="355.0" width="159.6" height="71.0" rx="13" fill="url(#gnode)" stroke="#e2e8f0" stroke-width="1.2"/></g><text x="450.0" y="380.0" font-size="13" font-weight="700" fill="#0f172a" text-anchor="middle">critical_waiting 4</text><text x="450.0" y="395.0" font-size="11" font-weight="500" fill="#64748b" text-anchor="middle">deteriorated 0</text><text x="450.0" y="410.0" font-size="11" font-weight="500" fill="#64748b" text-anchor="middle">moderate_waiting 7</text><g filter="url(#sh)"><rect x="370.2" y="452.0" width="159.6" height="71.0" rx="13" fill="url(#gnode)" stroke="#e2e8f0" stroke-width="1.2"/></g><text x="450.0" y="477.0" font-size="13" font-weight="700" fill="#0f172a" text-anchor="middle">critical_waiting 4</text><text x="450.0" y="492.0" font-size="11" font-weight="500" fill="#64748b" text-anchor="middle">deteriorated 0</text><text x="450.0" y="507.0" font-size="11" font-weight="500" fill="#64748b" text-anchor="middle">moderate_waiting 8</text><g filter="url(#sh)"><rect x="682.4" y="306.5" width="159.6" height="71.0" rx="13" fill="url(#gnode)" stroke="#e2e8f0" stroke-width="1.2"/></g><text x="762.2" y="331.5" font-size="13" font-weight="700" fill="#0f172a" text-anchor="middle">critical_waiting 1</text><text x="762.2" y="346.5" font-size="11" font-weight="500" fill="#64748b" text-anchor="middle">deteriorated 1</text><text x="762.2" y="361.5" font-size="11" font-weight="500" fill="#64748b" text-anchor="middle">moderate_waiting 8</text><g filter="url(#sh)"><rect x="682.4" y="403.5" width="159.6" height="71.0" rx="13" fill="url(#gnode)" stroke="#e2e8f0" stroke-width="1.2"/></g><text x="762.2" y="428.5" font-size="13" font-weight="700" fill="#0f172a" text-anchor="middle">critical_waiting 2</text><text x="762.2" y="443.5" font-size="11" font-weight="500" fill="#64748b" text-anchor="middle">deteriorated 1</text><text x="762.2" y="458.5" font-size="11" font-weight="500" fill="#64748b" text-anchor="middle">moderate_waiting 7</text><text x="58.0" y="563.0" font-size="11" font-weight="700" fill="#64748b" letter-spacing="1.6">STATE SCHEMA</text><text x="58.0" y="594.0" font-size="13" font-weight="600" fill="#0f172a">tick</text><rect x="269.7" y="582.0" width="36.5" height="21" rx="10.5" fill="#eef2ff"/><text x="277.7" y="595.0" font-size="11" font-weight="600" fill="#3730a3">int</text><line x1="58.0" y1="603.0" x2="308.0" y2="603.0" stroke="#e2e8f0" stroke-width="1" stroke-dasharray="2 4"/><text x="58.0" y="621.0" font-size="13" font-weight="600" fill="#0f172a">critical_waiting</text><rect x="269.7" y="609.0" width="36.5" height="21" rx="10.5" fill="#eef2ff"/><text x="277.7" y="622.0" font-size="11" font-weight="600" fill="#3730a3">int</text><line x1="58.0" y1="630.0" x2="308.0" y2="630.0" stroke="#e2e8f0" stroke-width="1" stroke-dasharray="2 4"/><text x="58.0" y="648.0" font-size="13" font-weight="600" fill="#0f172a">moderate_waiting</text><rect x="269.7" y="636.0" width="36.5" height="21" rx="10.5" fill="#eef2ff"/><text x="277.7" y="649.0" font-size="11" font-weight="600" fill="#3730a3">int</text><line x1="58.0" y1="657.0" x2="308.0" y2="657.0" stroke="#e2e8f0" stroke-width="1" stroke-dasharray="2 4"/><text x="58.0" y="675.0" font-size="13" font-weight="600" fill="#0f172a">treated</text><rect x="269.7" y="663.0" width="36.5" height="21" rx="10.5" fill="#eef2ff"/><text x="277.7" y="676.0" font-size="11" font-weight="600" fill="#3730a3">int</text><line x1="58.0" y1="684.0" x2="308.0" y2="684.0" stroke="#e2e8f0" stroke-width="1" stroke-dasharray="2 4"/><text x="58.0" y="702.0" font-size="13" font-weight="600" fill="#0f172a">deteriorated</text><rect x="269.7" y="690.0" width="36.5" height="21" rx="10.5" fill="#eef2ff"/><text x="277.7" y="703.0" font-size="11" font-weight="600" fill="#3730a3">int</text><line x1="58.0" y1="711.0" x2="308.0" y2="711.0" stroke="#e2e8f0" stroke-width="1" stroke-dasharray="2 4"/><text x="58.0" y="729.0" font-size="13" font-weight="600" fill="#0f172a">outcomes</text><rect x="269.7" y="717.0" width="36.5" height="21" rx="10.5" fill="#eef2ff"/><text x="277.7" y="730.0" font-size="11" font-weight="600" fill="#3730a3">int</text><line x1="58.0" y1="738.0" x2="308.0" y2="738.0" stroke="#e2e8f0" stroke-width="1" stroke-dasharray="2 4"/><text x="58.0" y="755.0" font-size="11.5" font-weight="500" fill="#64748b">+1 more</text><text x="328.0" y="563.0" font-size="11" font-weight="700" fill="#64748b" letter-spacing="1.6">ACTIONS</text><rect x="328.0" y="577.0" width="120.2" height="22" rx="11.0" fill="#eef2ff"/><text x="336.0" y="591.0" font-size="12" font-weight="600" fill="#3730a3">treat_critical</text><rect x="328.0" y="607.0" width="120.2" height="22" rx="11.0" fill="#eef2ff"/><text x="336.0" y="621.0" font-size="12" font-weight="600" fill="#3730a3">treat_moderate</text><rect x="456.2" y="607.0" width="45.8" height="22" rx="11.0" fill="#eef2ff"/><text x="464.2" y="621.0" font-size="12" font-weight="600" fill="#3730a3">wait</text><text x="328.0" y="659.0" font-size="11" font-weight="700" fill="#64748b" letter-spacing="1.6">DYNAMICS</text><circle cx="337.0" cy="684.0" r="8" fill="#059669"/><path d="M333.4,684.0 l2.4,2.4 l4-4.4" fill="none" stroke="#fff" stroke-width="1.8" stroke-linecap="round"/><text x="352.0" y="688.0" font-size="13" font-weight="700" fill="#0f172a">code (from function)</text><text x="328.0" y="717.0" font-size="11" font-weight="700" fill="#64748b" letter-spacing="1.6">DETAILS</text><circle cx="332.0" cy="731.0" r="2.6" fill="#2563eb"/><text x="342.0" y="735.0" font-size="12" font-weight="600" fill="#0f172a">5 rules</text><text x="570.0" y="563.0" font-size="11" font-weight="700" fill="#64748b" letter-spacing="1.6">SAMPLE ROLLOUT</text><rect x="570.0" y="577.0" width="272.0" height="132" rx="14" fill="#eef2ff" stroke="#e2e8f0" stroke-width="1"/><path class="series" d="M 584.0 695.0 L 584.0 695.0 L 604.3 686.3 L 624.7 677.7 L 645.0 669.0 L 665.3 660.3 L 685.7 651.7 L 706.0 643.0 L 726.3 634.3 L 746.7 625.7 L 767.0 617.0 L 787.3 608.3 L 807.7 599.7 L 828.0 591.0 L 828.0 695.0 Z" fill="url(#garea)"/><polyline class="series" points="584.0,695.0 604.3,686.3 624.7,677.7 645.0,669.0 665.3,660.3 685.7,651.7 706.0,643.0 726.3,634.3 746.7,625.7 767.0,617.0 787.3,608.3 807.7,599.7 828.0,591.0" fill="none" stroke="#2563eb" stroke-width="2.4" stroke-linejoin="round"/><circle cx="828.0" cy="591.0" r="3.2" fill="#2563eb"/><polyline class="series" points="584.0,695.0 604.3,660.3 624.7,625.7 645.0,591.0 665.3,591.0 685.7,591.0 706.0,591.0 726.3,591.0 746.7,591.0 767.0,591.0 787.3,591.0 807.7,591.0 828.0,591.0" fill="none" stroke="#0f9d8f" stroke-width="1.8" stroke-opacity="0.9" stroke-linejoin="round"/><polyline class="series" points="584.0,695.0 604.3,650.4 624.7,635.6 645.0,591.0 665.3,591.0 685.7,591.0 706.0,591.0 726.3,591.0 746.7,591.0 767.0,591.0 787.3,591.0 807.7,591.0 828.0,591.0" fill="none" stroke="#d97706" stroke-width="1.8" stroke-opacity="0.9" stroke-linejoin="round"/><polyline class="series" points="584.0,591.0 604.3,617.0 624.7,669.0 645.0,695.0 665.3,695.0 685.7,695.0 706.0,695.0 726.3,695.0 746.7,695.0 767.0,695.0 787.3,695.0 807.7,695.0 828.0,695.0" fill="none" stroke="#db2777" stroke-width="1.8" stroke-opacity="0.9" stroke-linejoin="round"/><rect x="570.0" y="716.0" width="10" height="10" rx="2.5" fill="#2563eb"/><text x="585.0" y="725.0" font-size="11" font-weight="600" fill="#64748b">tick ↑</text><rect x="638.6" y="716.0" width="10" height="10" rx="2.5" fill="#0f9d8f"/><text x="653.6" y="725.0" font-size="11" font-weight="600" fill="#64748b">spend ↑</text><rect x="713.8" y="716.0" width="10" height="10" rx="2.5" fill="#d97706"/><text x="728.8" y="725.0" font-size="11" font-weight="600" fill="#64748b">outcomes ↑</text><rect x="808.8" y="716.0" width="10" height="10" rx="2.5" fill="#db2777"/><text x="823.8" y="725.0" font-size="11" font-weight="600" fill="#64748b">critical_waiting ↓</text><line x1="58" y1="781.0" x2="842" y2="781.0" stroke="#e2e8f0" stroke-width="1"/><text x="58.0" y="801.0" font-size="11" font-weight="500" fill="#64748b">openworld_spec_version 1.0  ·  lineage: E08/E26 triage world</text><text x="842.0" y="801.0" font-size="12" font-weight="800" fill="#2563eb" text-anchor="end">OpenWorld</text></svg>