<?xml version="1.0" encoding="UTF-8"?>
<svg xmlns="http://www.w3.org/2000/svg" viewBox="0 0 900 815" width="900" height="815" font-family="-apple-system,BlinkMacSystemFont,Segoe UI,Roboto,Helvetica,Arial,sans-serif"><defs><linearGradient id="gbg" x1="0" y1="0" x2="0" y2="1"><stop offset="0" stop-color="#ffffff"/><stop offset="1" stop-color="#eef2f8"/></linearGradient><linearGradient id="gnode" x1="0" y1="0" x2="0" y2="1"><stop offset="0" stop-color="#ffffff"/><stop offset="1" stop-color="#eef2ff"/></linearGradient><linearGradient id="gacc" x1="0" y1="0" x2="1" y2="0"><stop offset="0" stop-color="#2563eb"/><stop offset="1" stop-color="#7c3aed"/></linearGradient><linearGradient id="garea" x1="0" y1="0" x2="0" y2="1"><stop offset="0" stop-color="#2563eb" stop-opacity="0.34"/><stop offset="1" stop-color="#2563eb" stop-opacity="0"/></linearGradient><filter id="sh" x="-30%" y="-30%" width="160%" height="160%"><feDropShadow dx="0" dy="5" stdDeviation="9" flood-color="#0f172a" flood-opacity="0.16"/></filter><filter id="shsoft" x="-40%" y="-40%" width="180%" height="180%"><feDropShadow dx="0" dy="10" stdDeviation="22" flood-color="#0f172a" flood-opacity="0.16"/></filter><marker id="arr" markerWidth="9" markerHeight="9" refX="6.5" refY="3" orient="auto"><path d="M0,0 L6.5,3 L0,6 Z" fill="#2563eb"/></marker><marker id="arrUp" markerWidth="9" markerHeight="9" refX="3" refY="6.2" orient="auto"><path d="M0,6.2 L3,0 L6,6.2 Z" fill="#7c3aed"/></marker><pattern id="grid" width="24" height="24" patternUnits="userSpaceOnUse"><path d="M24 0 H0 V24" fill="none" stroke="#9fb3d1" stroke-width="0.6" opacity="0.35"/></pattern><pattern id="gridFine" width="6" height="6" patternUnits="userSpaceOnUse"><circle cx="0.7" cy="0.7" r="0.7" fill="#9fb3d1" opacity="0.18"/></pattern><filter id="glow" x="-60%" y="-60%" width="220%" height="220%"><feGaussianBlur stdDeviation="2.4" result="b"/><feMerge><feMergeNode in="b"/><feMergeNode in="SourceGraphic"/></feMerge></filter></defs><rect x="0" y="0" width="900" height="815" fill="url(#gbg)"/><g filter="url(#shsoft)"><rect x="26" y="26" width="848" height="763" rx="24" fill="url(#gbg)" stroke="#dfe4ec" stroke-width="1"/></g><clipPath id="pc"><rect x="26" y="26" width="848" height="763" rx="24"/></clipPath><rect x="26" y="26" width="848" height="763" fill="url(#gridFine)" clip-path="url(#pc)"/><rect x="26" y="26" width="848" height="6" rx="3" fill="url(#gacc)"/><path d="M 39 51 L 39 39 L 51 39" fill="none" stroke="#2563eb" stroke-width="1.4" opacity="0.55"/><path d="M 861 51 L 861 39 L 849 39" fill="none" stroke="#2563eb" stroke-width="1.4" opacity="0.55"/><path d="M 39 764 L 39 776 L 51 776" fill="none" stroke="#2563eb" stroke-width="1.4" opacity="0.55"/><path d="M 861 764 L 861 776 L 849 776" fill="none" stroke="#2563eb" stroke-width="1.4" opacity="0.55"/><g transform="translate(73.0,76.0)"><circle r="15" fill="url(#gacc)"/><circle r="15" fill="none" stroke="#ffffff" stroke-opacity="0.55" stroke-width="1.1"/><ellipse rx="6.8" ry="15" fill="none" stroke="#ffffff" stroke-opacity="0.55" stroke-width="1"/><line x1="-15" y1="0" x2="15" y2="0" stroke="#ffffff" stroke-opacity="0.55" stroke-width="1"/><line x1="-12.9" y1="-7.5" x2="12.9" y2="-7.5" stroke="#ffffff" stroke-opacity="0.4" stroke-width="0.9"/><line x1="-12.9" y1="7.5" x2="12.9" y2="7.5" stroke="#ffffff" stroke-opacity="0.4" stroke-width="0.9"/></g><text x="98.0" y="58.0" font-size="9.5" font-weight="700" fill="#2563eb" letter-spacing="2.4" font-family="ui-monospace,SFMono-Regular,Menlo,Consolas,monospace">OPENWORLD · MODEL CARD</text><text x="98.0" y="84.0" font-size="29" font-weight="700" fill="#0f172a" font-family="'Iowan Old Style','Palatino Linotype',Palatino,Georgia,serif">triage</text><text x="58.0" y="104.0" font-size="14" font-weight="500" fill="#64748b">An ICU triage queue. Critical and moderate patients wait for treatment; untreated</text><text x="58.0" y="123.0" font-size="14" font-weight="500" fill="#64748b">critical patients deteriorate over time.</text><rect x="58.0" y="134.0" width="90.4" height="22" rx="11.0" fill="#eef2ff"/><text x="66.0" y="148.0" font-size="12" font-weight="600" fill="#3730a3">healthcare</text><rect x="156.4" y="134.0" width="53.2" height="22" rx="11.0" fill="#eef2ff"/><text x="164.4" y="148.0" font-size="12" font-weight="600" fill="#3730a3">queue</text><rect x="217.6" y="134.0" width="45.8" height="22" rx="11.0" fill="#eef2ff"/><text x="225.6" y="148.0" font-size="12" font-weight="600" fill="#3730a3">leaf</text><rect x="817.7" y="48.0" width="38.3" height="22" rx="11.0" fill="#eef2ff"/><text x="825.7" y="62.0" font-size="12" font-weight="600" fill="#059669">MIT</text><rect x="763.9" y="48.0" width="45.8" height="22" rx="11.0" fill="#eef2ff"/><text x="771.9" y="62.0" font-size="12" font-weight="600" fill="#3730a3">v1.0</text><line x1="58" y1="182.0" x2="842" y2="182.0" stroke="#e2e8f0" stroke-width="1"/><rect x="58" y="220.0" width="784" height="325.0" rx="16" fill="#eef2ff" fill-opacity="0.5" stroke="#e2e8f0" stroke-width="1"/><text x="58.0" y="208.0" font-size="11" font-weight="700" fill="#64748b" letter-spacing="1.6" font-family="ui-monospace,SFMono-Regular,Menlo,Consolas,monospace">STATE-TRANSITION GRAPH</text><path d="M 217.6 390.5 C 293.9 390.5, 293.9 293.5, 367.2 293.5" fill="none" stroke="#2563eb" stroke-width="1.7" stroke-opacity="0.85" marker-end="url(#arr)"/><rect x="246.9" y="334.0" width="94.0" height="15" rx="7.5" fill="#ffffff" stroke="#e2e8f0" stroke-width="0.8"/><text x="293.9" y="345.0" font-size="9.5" font-weight="600" fill="#2563eb" text-anchor="middle">treat_critical</text><path d="M 217.6 390.5 C 293.9 390.5, 293.9 390.5, 367.2 390.5" fill="none" stroke="#2563eb" stroke-width="1.7" stroke-opacity="0.85" marker-end="url(#arr)"/><rect x="246.9" y="382.5" width="94.0" height="15" rx="7.5" fill="#ffffff" stroke="#e2e8f0" stroke-width="0.8"/><text x="293.9" y="393.5" font-size="9.5" font-weight="600" fill="#2563eb" text-anchor="middle">treat_moderate</text><path d="M 217.6 390.5 C 293.9 390.5, 293.9 487.5, 367.2 487.5" fill="none" stroke="#2563eb" stroke-width="1.7" stroke-opacity="0.85" marker-end="url(#arr)"/><rect x="276.9" y="431.0" width="34.0" height="15" rx="7.5" fill="#ffffff" stroke="#e2e8f0" stroke-width="0.8"/><text x="293.9" y="442.0" font-size="9.5" font-weight="600" fill="#2563eb" text-anchor="middle">wait</text><path d="M 529.8 293.5 C 606.1 293.5, 606.1 342.0, 679.4 342.0" fill="none" stroke="#2563eb" stroke-width="1.7" stroke-opacity="0.85" marker-end="url(#arr)"/><rect x="559.1" y="309.8" width="94.0" height="15" rx="7.5" fill="#ffffff" stroke="#e2e8f0" stroke-width="0.8"/><text x="606.1" y="320.8" font-size="9.5" font-weight="600" fill="#2563eb" text-anchor="middle">treat_critical</text><path d="M 529.8 293.5 C 606.1 293.5, 606.1 439.0, 679.4 439.0" fill="none" stroke="#2563eb" stroke-width="1.7" stroke-opacity="0.85" marker-end="url(#arr)"/><rect x="559.1" y="358.2" width="94.0" height="15" rx="7.5" fill="#ffffff" stroke="#e2e8f0" stroke-width="0.8"/><text x="606.1" y="369.2" font-size="9.5" font-weight="600" fill="#2563eb" text-anchor="middle">treat_moderate</text><g filter="url(#sh)"><rect x="58.0" y="355.0" width="159.6" height="71.0" rx="13" fill="url(#gnode)" stroke="#2563eb" stroke-width="2.2"/></g><text x="60.0" y="348.0" font-size="10" font-weight="700" fill="#2563eb">▶ start</text><text x="137.8" y="380.0" font-size="13" font-weight="700" fill="#0f172a" text-anchor="middle">critical_waiting 4</text><text x="137.8" y="395.0" font-size="11" font-weight="500" fill="#64748b" text-anchor="middle">deteriorated 0</text><text x="137.8" y="410.0" font-size="11" font-weight="500" fill="#64748b" text-anchor="middle">moderate_waiting 8</text><g filter="url(#sh)"><rect x="370.2" y="258.0" width="159.6" height="71.0" rx="13" fill="url(#gnode)" stroke="#e2e8f0" stroke-width="1.2"/></g><text x="450.0" y="283.0" font-size="13" font-weight="700" fill="#0f172a" text-anchor="middle">critical_waiting 3</text><text x="450.0" y="298.0" font-size="11" font-weight="500" fill="#64748b" text-anchor="middle">deteriorated 0</text><text x="450.0" y="313.0" font-size="11" font-weight="500" fill="#64748b" text-anchor="middle">moderate_waiting 8</text><g filter="url(#sh)"><rect x="370.2" y="355.0" width="159.6" height="71.0" rx="13" fill="url(#gnode)" stroke="#e2e8f0" stroke-width="1.2"/></g><text x="450.0" y="380.0" font-size="13" font-weight="700" fill="#0f172a" text-anchor="middle">critical_waiting 4</text><text x="450.0" y="395.0" font-size="11" font-weight="500" fill="#64748b" text-anchor="middle">deteriorated 0</text><text x="450.0" y="410.0" font-size="11" font-weight="500" fill="#64748b" text-anchor="middle">moderate_waiting 7</text><g filter="url(#sh)"><rect x="370.2" y="452.0" width="159.6" height="71.0" rx="13" fill="url(#gnode)" stroke="#e2e8f0" stroke-width="1.2"/></g><text x="450.0" y="477.0" font-size="13" font-weight="700" fill="#0f172a" text-anchor="middle">critical_waiting 4</text><text x="450.0" y="492.0" font-size="11" font-weight="500" fill="#64748b" text-anchor="middle">deteriorated 0</text><text x="450.0" y="507.0" font-size="11" font-weight="500" fill="#64748b" text-anchor="middle">moderate_waiting 8</text><g filter="url(#sh)"><rect x="682.4" y="306.5" width="159.6" height="71.0" rx="13" fill="url(#gnode)" stroke="#e2e8f0" stroke-width="1.2"/></g><text x="762.2" y="331.5" font-size="13" font-weight="700" fill="#0f172a" text-anchor="middle">critical_waiting 1</text><text x="762.2" y="346.5" font-size="11" font-weight="500" fill="#64748b" text-anchor="middle">deteriorated 1</text><text x="762.2" y="361.5" font-size="11" font-weight="500" fill="#64748b" text-anchor="middle">moderate_waiting 8</text><g filter="url(#sh)"><rect x="682.4" y="403.5" width="159.6" height="71.0" rx="13" fill="url(#gnode)" stroke="#e2e8f0" stroke-width="1.2"/></g><text x="762.2" y="428.5" font-size="13" font-weight="700" fill="#0f172a" text-anchor="middle">critical_waiting 2</text><text x="762.2" y="443.5" font-size="11" font-weight="500" fill="#64748b" text-anchor="middle">deteriorated 1</text><text x="762.2" y="458.5" font-size="11" font-weight="500" fill="#64748b" text-anchor="middle">moderate_waiting 7</text><rect x="58.0" y="561.0" width="3" height="11" rx="1.5" fill="#2563eb"/><text x="67.0" y="570.0" font-size="10.5" font-weight="700" fill="#64748b" letter-spacing="1.8" font-family="ui-monospace,SFMono-Regular,Menlo,Consolas,monospace">STATE SCHEMA</text><rect x="54.0" y="584.0" width="258.0" height="24" rx="6" fill="#2563eb" fill-opacity="0.035"/><text x="62.0" y="600.0" font-size="12" font-weight="600" fill="#0f172a" font-family="ui-monospace,SFMono-Regular,Menlo,Consolas,monospace">tick</text><rect x="273.9" y="588.0" width="34.1" height="17" rx="5" fill="#eef2ff"/><text x="280.9" y="600.0" font-size="10.5" font-weight="700" fill="#2563eb" font-family="ui-monospace,SFMono-Regular,Menlo,Consolas,monospace">int</text><text x="62.0" y="626.0" font-size="12" font-weight="600" fill="#0f172a" font-family="ui-monospace,SFMono-Regular,Menlo,Consolas,monospace">critical_waiting</text><rect x="273.9" y="614.0" width="34.1" height="17" rx="5" fill="#eef2ff"/><text x="280.9" y="626.0" font-size="10.5" font-weight="700" fill="#2563eb" font-family="ui-monospace,SFMono-Regular,Menlo,Consolas,monospace">int</text><rect x="54.0" y="636.0" width="258.0" height="24" rx="6" fill="#2563eb" fill-opacity="0.035"/><text x="62.0" y="652.0" font-size="12" font-weight="600" fill="#0f172a" font-family="ui-monospace,SFMono-Regular,Menlo,Consolas,monospace">moderate_waiting</text><rect x="273.9" y="640.0" width="34.1" height="17" rx="5" fill="#eef2ff"/><text x="280.9" y="652.0" font-size="10.5" font-weight="700" fill="#2563eb" font-family="ui-monospace,SFMono-Regular,Menlo,Consolas,monospace">int</text><text x="62.0" y="678.0" font-size="12" font-weight="600" fill="#0f172a" font-family="ui-monospace,SFMono-Regular,Menlo,Consolas,monospace">treated</text><rect x="273.9" y="666.0" width="34.1" height="17" rx="5" fill="#eef2ff"/><text x="280.9" y="678.0" font-size="10.5" font-weight="700" fill="#2563eb" font-family="ui-monospace,SFMono-Regular,Menlo,Consolas,monospace">int</text><rect x="54.0" y="688.0" width="258.0" height="24" rx="6" fill="#2563eb" fill-opacity="0.035"/><text x="62.0" y="704.0" font-size="12" font-weight="600" fill="#0f172a" font-family="ui-monospace,SFMono-Regular,Menlo,Consolas,monospace">deteriorated</text><rect x="273.9" y="692.0" width="34.1" height="17" rx="5" fill="#eef2ff"/><text x="280.9" y="704.0" font-size="10.5" font-weight="700" fill="#2563eb" font-family="ui-monospace,SFMono-Regular,Menlo,Consolas,monospace">int</text><text x="62.0" y="730.0" font-size="12" font-weight="600" fill="#0f172a" font-family="ui-monospace,SFMono-Regular,Menlo,Consolas,monospace">outcomes</text><rect x="273.9" y="718.0" width="34.1" height="17" rx="5" fill="#eef2ff"/><text x="280.9" y="730.0" font-size="10.5" font-weight="700" fill="#2563eb" font-family="ui-monospace,SFMono-Regular,Menlo,Consolas,monospace">int</text><text x="62.0" y="754.0" font-size="11" font-weight="500" fill="#64748b" font-family="ui-monospace,SFMono-Regular,Menlo,Consolas,monospace">+ 1 more fields</text><rect x="328.0" y="561.0" width="3" height="11" rx="1.5" fill="#2563eb"/><text x="337.0" y="570.0" font-size="10.5" font-weight="700" fill="#64748b" letter-spacing="1.8" font-family="ui-monospace,SFMono-Regular,Menlo,Consolas,monospace">ACTIONS</text><rect x="328.0" y="585.0" width="109.0" height="20" rx="6" fill="#eef2ff" stroke="#2563eb" stroke-width="1" stroke-opacity="0.16"/><text x="337.0" y="599.0" font-size="10.5" font-weight="600" fill="#3730a3" font-family="ui-monospace,SFMono-Regular,Menlo,Consolas,monospace">treat_critical</text><rect x="328.0" y="611.0" width="109.0" height="20" rx="6" fill="#eef2ff" stroke="#2563eb" stroke-width="1" stroke-opacity="0.16"/><text x="337.0" y="625.0" font-size="10.5" font-weight="600" fill="#3730a3" font-family="ui-monospace,SFMono-Regular,Menlo,Consolas,monospace">treat_moderate</text><rect x="444.0" y="611.0" width="44.0" height="20" rx="6" fill="#eef2ff" stroke="#2563eb" stroke-width="1" stroke-opacity="0.16"/><text x="453.0" y="625.0" font-size="10.5" font-weight="600" fill="#3730a3" font-family="ui-monospace,SFMono-Regular,Menlo,Consolas,monospace">wait</text><rect x="328.0" y="653.0" width="3" height="11" rx="1.5" fill="#2563eb"/><text x="337.0" y="662.0" font-size="10.5" font-weight="700" fill="#64748b" letter-spacing="1.8" font-family="ui-monospace,SFMono-Regular,Menlo,Consolas,monospace">DYNAMICS</text><circle cx="337.0" cy="683.0" r="8" fill="#059669"/><path d="M333.4,683.0 l2.4,2.4 l4-4.4" fill="none" stroke="#fff" stroke-width="1.8" stroke-linecap="round" stroke-linejoin="round"/><text x="352.0" y="687.0" font-size="12.5" font-weight="700" fill="#0f172a">code (from function)</text><rect x="328.0" y="707.0" width="3" height="11" rx="1.5" fill="#2563eb"/><text x="337.0" y="716.0" font-size="10.5" font-weight="700" fill="#64748b" letter-spacing="1.8" font-family="ui-monospace,SFMono-Regular,Menlo,Consolas,monospace">DETAILS</text><circle cx="332.0" cy="727.0" r="2.4" fill="#2563eb"/><text x="341.0" y="731.0" font-size="11.5" font-weight="600" fill="#0f172a" font-family="ui-monospace,SFMono-Regular,Menlo,Consolas,monospace">5 rules</text><rect x="570.0" y="561.0" width="3" height="11" rx="1.5" fill="#2563eb"/><text x="579.0" y="570.0" font-size="10.5" font-weight="700" fill="#64748b" letter-spacing="1.8" font-family="ui-monospace,SFMono-Regular,Menlo,Consolas,monospace">SAMPLE ROLLOUT</text><rect x="570.0" y="583.0" width="272.0" height="124" rx="12" fill="#eef2ff" stroke="#e2e8f0" stroke-width="1"/><line x1="586.0" y1="622.0" x2="826.0" y2="622.0" stroke="#e2e8f0" stroke-width="0.8" stroke-dasharray="1 5" opacity="0.7"/><line x1="586.0" y1="645.0" x2="826.0" y2="645.0" stroke="#e2e8f0" stroke-width="0.8" stroke-dasharray="1 5" opacity="0.7"/><line x1="586.0" y1="668.0" x2="826.0" y2="668.0" stroke="#e2e8f0" stroke-width="0.8" stroke-dasharray="1 5" opacity="0.7"/><path class="series" d="M 586.0 691.0 L 586.0 691.0 L 606.0 683.3 L 626.0 675.7 L 646.0 668.0 L 666.0 660.3 L 686.0 652.7 L 706.0 645.0 L 726.0 637.3 L 746.0 629.7 L 766.0 622.0 L 786.0 614.3 L 806.0 606.7 L 826.0 599.0 L 826.0 691.0 Z" fill="url(#garea)"/><polyline class="series" points="586.0,691.0 606.0,683.3 626.0,675.7 646.0,668.0 666.0,660.3 686.0,652.7 706.0,645.0 726.0,637.3 746.0,629.7 766.0,622.0 786.0,614.3 806.0,606.7 826.0,599.0" fill="none" stroke="#2563eb" stroke-width="2.4" stroke-linejoin="round"/><circle cx="826.0" cy="599.0" r="3.4" fill="#2563eb"/><text x="822.0" y="591.0" font-size="9.5" font-weight="700" fill="#2563eb" text-anchor="end" font-family="ui-monospace,SFMono-Regular,Menlo,Consolas,monospace">12</text><polyline class="series" points="586.0,691.0 606.0,660.3 626.0,629.7 646.0,599.0 666.0,599.0 686.0,599.0 706.0,599.0 726.0,599.0 746.0,599.0 766.0,599.0 786.0,599.0 806.0,599.0 826.0,599.0" fill="none" stroke="#0f9d8f" stroke-width="1.8" stroke-opacity="0.9" stroke-linejoin="round"/><polyline class="series" points="586.0,691.0 606.0,651.6 626.0,638.4 646.0,599.0 666.0,599.0 686.0,599.0 706.0,599.0 726.0,599.0 746.0,599.0 766.0,599.0 786.0,599.0 806.0,599.0 826.0,599.0" fill="none" stroke="#d97706" stroke-width="1.8" stroke-opacity="0.9" stroke-linejoin="round"/><polyline class="series" points="586.0,599.0 606.0,622.0 626.0,668.0 646.0,691.0 666.0,691.0 686.0,691.0 706.0,691.0 726.0,691.0 746.0,691.0 766.0,691.0 786.0,691.0 806.0,691.0 826.0,691.0" fill="none" stroke="#db2777" stroke-width="1.8" stroke-opacity="0.9" stroke-linejoin="round"/><rect x="572.0" y="714.0" width="9" height="9" rx="2" fill="#2563eb"/><text x="586.0" y="723.0" font-size="10.5" font-weight="600" fill="#64748b" font-family="ui-monospace,SFMono-Regular,Menlo,Consolas,monospace">tick ↑</text><rect x="637.8" y="714.0" width="9" height="9" rx="2" fill="#0f9d8f"/><text x="651.8" y="723.0" font-size="10.5" font-weight="600" fill="#64748b" font-family="ui-monospace,SFMono-Regular,Menlo,Consolas,monospace">spend ↑</text><rect x="709.9" y="714.0" width="9" height="9" rx="2" fill="#d97706"/><text x="723.9" y="723.0" font-size="10.5" font-weight="600" fill="#64748b" font-family="ui-monospace,SFMono-Regular,Menlo,Consolas,monospace">outcomes ↑</text><rect x="800.9" y="714.0" width="9" height="9" rx="2" fill="#db2777"/><text x="814.9" y="723.0" font-size="10.5" font-weight="600" fill="#64748b" font-family="ui-monospace,SFMono-Regular,Menlo,Consolas,monospace">critical_waiting ↓</text><line x1="58" y1="777.0" x2="842" y2="777.0" stroke="#e2e8f0" stroke-width="1"/><text x="58.0" y="797.0" font-size="11" font-weight="500" fill="#64748b">openworld_spec_version 1.0  ·  lineage: E08/E26 triage world</text><a href="https://play.reactflow.dev" target="_blank"><text x="450.0" y="797.0" font-size="10.5" font-weight="700" fill="#2563eb" text-anchor="middle" font-family="ui-monospace,SFMono-Regular,Menlo,Consolas,monospace">▸ open in React Flow</text></a><text x="842.0" y="797.0" font-size="12" font-weight="800" fill="#2563eb" text-anchor="end">OpenWorld</text></svg>