<?xml version="1.0" encoding="UTF-8"?>
<svg xmlns="http://www.w3.org/2000/svg" viewBox="0 0 900 817" width="900" height="817" font-family="-apple-system,BlinkMacSystemFont,Segoe UI,Roboto,Helvetica,Arial,sans-serif"><defs><linearGradient id="gbg" x1="0" y1="0" x2="0" y2="1"><stop offset="0" stop-color="#ffffff"/><stop offset="1" stop-color="#eef2f8"/></linearGradient><linearGradient id="gnode" x1="0" y1="0" x2="0" y2="1"><stop offset="0" stop-color="#ffffff"/><stop offset="1" stop-color="#eef2ff"/></linearGradient><linearGradient id="gacc" x1="0" y1="0" x2="1" y2="0"><stop offset="0" stop-color="#2563eb"/><stop offset="1" stop-color="#7c3aed"/></linearGradient><linearGradient id="garea" x1="0" y1="0" x2="0" y2="1"><stop offset="0" stop-color="#2563eb" stop-opacity="0.34"/><stop offset="1" stop-color="#2563eb" stop-opacity="0"/></linearGradient><filter id="sh" x="-30%" y="-30%" width="160%" height="160%"><feDropShadow dx="0" dy="5" stdDeviation="9" flood-color="#0f172a" flood-opacity="0.16"/></filter><filter id="shsoft" x="-40%" y="-40%" width="180%" height="180%"><feDropShadow dx="0" dy="10" stdDeviation="22" flood-color="#0f172a" flood-opacity="0.16"/></filter><marker id="arr" markerWidth="9" markerHeight="9" refX="6.5" refY="3" orient="auto"><path d="M0,0 L6.5,3 L0,6 Z" fill="#2563eb"/></marker></defs><rect x="0" y="0" width="900" height="817" fill="url(#gbg)"/><g filter="url(#shsoft)"><rect x="26" y="26" width="848" height="765" rx="24" fill="url(#gbg)" stroke="#e2e8f0" stroke-width="1"/></g><rect x="26" y="26" width="848" height="6" rx="3" fill="url(#gacc)"/><g transform="translate(72.0,72.0)"><circle r="15" fill="url(#gacc)"/><circle r="15" fill="none" stroke="#ffffff" stroke-opacity="0.55" stroke-width="1.1"/><ellipse rx="6.8" ry="15" fill="none" stroke="#ffffff" stroke-opacity="0.55" stroke-width="1"/><line x1="-15" y1="0" x2="15" y2="0" stroke="#ffffff" stroke-opacity="0.55" stroke-width="1"/><line x1="-12.9" y1="-7.5" x2="12.9" y2="-7.5" stroke="#ffffff" stroke-opacity="0.4" stroke-width="0.9"/><line x1="-12.9" y1="7.5" x2="12.9" y2="7.5" stroke="#ffffff" stroke-opacity="0.4" stroke-width="0.9"/></g><text x="96.0" y="78.0" font-size="30" font-weight="800" fill="#0f172a">triage</text><text x="58.0" y="104.0" font-size="14" font-weight="500" fill="#64748b">An ICU triage queue. Critical and moderate patients wait for treatment; untreated</text><text x="58.0" y="123.0" font-size="14" font-weight="500" fill="#64748b">critical patients deteriorate over time.</text><rect x="58.0" y="134.0" width="90.4" height="22" rx="11.0" fill="#eef2ff"/><text x="66.0" y="148.0" font-size="12" font-weight="600" fill="#3730a3">healthcare</text><rect x="156.4" y="134.0" width="53.2" height="22" rx="11.0" fill="#eef2ff"/><text x="164.4" y="148.0" font-size="12" font-weight="600" fill="#3730a3">queue</text><rect x="217.6" y="134.0" width="45.8" height="22" rx="11.0" fill="#eef2ff"/><text x="225.6" y="148.0" font-size="12" font-weight="600" fill="#3730a3">leaf</text><rect x="817.7" y="48.0" width="38.3" height="22" rx="11.0" fill="#eef2ff"/><text x="825.7" y="62.0" font-size="12" font-weight="600" fill="#059669">MIT</text><rect x="763.9" y="48.0" width="45.8" height="22" rx="11.0" fill="#eef2ff"/><text x="771.9" y="62.0" font-size="12" font-weight="600" fill="#3730a3">v1.0</text><line x1="58" y1="182.0" x2="842" y2="182.0" stroke="#e2e8f0" stroke-width="1"/><rect x="58" y="220.0" width="784" height="323.0" rx="16" fill="#eef2ff" fill-opacity="0.5" stroke="#e2e8f0" stroke-width="1"/><text x="58.0" y="208.0" font-size="11" font-weight="700" fill="#64748b" letter-spacing="1.6">STATE-TRANSITION GRAPH</text><path d="M 217.6 388.5 C 293.9 388.5, 293.9 291.5, 367.2 291.5" fill="none" stroke="#2563eb" stroke-width="1.7" stroke-opacity="0.85" marker-end="url(#arr)"/><rect x="246.9" y="332.0" width="94.0" height="15" rx="7.5" fill="#ffffff" stroke="#e2e8f0" stroke-width="0.8"/><text x="293.9" y="343.0" font-size="9.5" font-weight="600" fill="#2563eb" text-anchor="middle">treat_critical</text><path d="M 217.6 388.5 C 293.9 388.5, 293.9 388.5, 367.2 388.5" fill="none" stroke="#2563eb" stroke-width="1.7" stroke-opacity="0.85" marker-end="url(#arr)"/><rect x="246.9" y="380.5" width="94.0" height="15" rx="7.5" fill="#ffffff" stroke="#e2e8f0" stroke-width="0.8"/><text x="293.9" y="391.5" font-size="9.5" font-weight="600" fill="#2563eb" text-anchor="middle">treat_moderate</text><path d="M 217.6 388.5 C 293.9 388.5, 293.9 485.5, 367.2 485.5" fill="none" stroke="#2563eb" stroke-width="1.7" stroke-opacity="0.85" marker-end="url(#arr)"/><rect x="276.9" y="429.0" width="34.0" height="15" rx="7.5" fill="#ffffff" stroke="#e2e8f0" stroke-width="0.8"/><text x="293.9" y="440.0" font-size="9.5" font-weight="600" fill="#2563eb" text-anchor="middle">wait</text><path d="M 529.8 291.5 C 606.1 291.5, 606.1 340.0, 679.4 340.0" fill="none" stroke="#2563eb" stroke-width="1.7" stroke-opacity="0.85" marker-end="url(#arr)"/><rect x="559.1" y="307.8" width="94.0" height="15" rx="7.5" fill="#ffffff" stroke="#e2e8f0" stroke-width="0.8"/><text x="606.1" y="318.8" font-size="9.5" font-weight="600" fill="#2563eb" text-anchor="middle">treat_critical</text><path d="M 529.8 291.5 C 606.1 291.5, 606.1 437.0, 679.4 437.0" fill="none" stroke="#2563eb" stroke-width="1.7" stroke-opacity="0.85" marker-end="url(#arr)"/><rect x="559.1" y="356.2" width="94.0" height="15" rx="7.5" fill="#ffffff" stroke="#e2e8f0" stroke-width="0.8"/><text x="606.1" y="367.2" font-size="9.5" font-weight="600" fill="#2563eb" text-anchor="middle">treat_moderate</text><g filter="url(#sh)"><rect x="58.0" y="353.0" width="159.6" height="71.0" rx="13" fill="url(#gnode)" stroke="#2563eb" stroke-width="2.2"/></g><text x="60.0" y="346.0" font-size="10" font-weight="700" fill="#2563eb">▶ start</text><text x="137.8" y="378.0" font-size="13" font-weight="700" fill="#0f172a" text-anchor="middle">critical_waiting 4</text><text x="137.8" y="393.0" font-size="11" font-weight="500" fill="#64748b" text-anchor="middle">deteriorated 0</text><text x="137.8" y="408.0" font-size="11" font-weight="500" fill="#64748b" text-anchor="middle">moderate_waiting 8</text><g filter="url(#sh)"><rect x="370.2" y="256.0" width="159.6" height="71.0" rx="13" fill="url(#gnode)" stroke="#e2e8f0" stroke-width="1.2"/></g><text x="450.0" y="281.0" font-size="13" font-weight="700" fill="#0f172a" text-anchor="middle">critical_waiting 3</text><text x="450.0" y="296.0" font-size="11" font-weight="500" fill="#64748b" text-anchor="middle">deteriorated 0</text><text x="450.0" y="311.0" font-size="11" font-weight="500" fill="#64748b" text-anchor="middle">moderate_waiting 8</text><g filter="url(#sh)"><rect x="370.2" y="353.0" width="159.6" height="71.0" rx="13" fill="url(#gnode)" stroke="#e2e8f0" stroke-width="1.2"/></g><text x="450.0" y="378.0" font-size="13" font-weight="700" fill="#0f172a" text-anchor="middle">critical_waiting 4</text><text x="450.0" y="393.0" font-size="11" font-weight="500" fill="#64748b" text-anchor="middle">deteriorated 0</text><text x="450.0" y="408.0" font-size="11" font-weight="500" fill="#64748b" text-anchor="middle">moderate_waiting 7</text><g filter="url(#sh)"><rect x="370.2" y="450.0" width="159.6" height="71.0" rx="13" fill="url(#gnode)" stroke="#e2e8f0" stroke-width="1.2"/></g><text x="450.0" y="475.0" font-size="13" font-weight="700" fill="#0f172a" text-anchor="middle">critical_waiting 4</text><text x="450.0" y="490.0" font-size="11" font-weight="500" fill="#64748b" text-anchor="middle">deteriorated 0</text><text x="450.0" y="505.0" font-size="11" font-weight="500" fill="#64748b" text-anchor="middle">moderate_waiting 8</text><g filter="url(#sh)"><rect x="682.4" y="304.5" width="159.6" height="71.0" rx="13" fill="url(#gnode)" stroke="#e2e8f0" stroke-width="1.2"/></g><text x="762.2" y="329.5" font-size="13" font-weight="700" fill="#0f172a" text-anchor="middle">critical_waiting 1</text><text x="762.2" y="344.5" font-size="11" font-weight="500" fill="#64748b" text-anchor="middle">deteriorated 1</text><text x="762.2" y="359.5" font-size="11" font-weight="500" fill="#64748b" text-anchor="middle">moderate_waiting 8</text><g filter="url(#sh)"><rect x="682.4" y="401.5" width="159.6" height="71.0" rx="13" fill="url(#gnode)" stroke="#e2e8f0" stroke-width="1.2"/></g><text x="762.2" y="426.5" font-size="13" font-weight="700" fill="#0f172a" text-anchor="middle">critical_waiting 2</text><text x="762.2" y="441.5" font-size="11" font-weight="500" fill="#64748b" text-anchor="middle">deteriorated 1</text><text x="762.2" y="456.5" font-size="11" font-weight="500" fill="#64748b" text-anchor="middle">moderate_waiting 7</text><text x="58.0" y="561.0" font-size="11" font-weight="700" fill="#64748b" letter-spacing="1.6">STATE SCHEMA</text><text x="58.0" y="592.0" font-size="13" font-weight="600" fill="#0f172a">tick</text><rect x="269.7" y="580.0" width="36.5" height="21" rx="10.5" fill="#eef2ff"/><text x="277.7" y="593.0" font-size="11" font-weight="600" fill="#3730a3">int</text><line x1="58.0" y1="601.0" x2="308.0" y2="601.0" stroke="#e2e8f0" stroke-width="1" stroke-dasharray="2 4"/><text x="58.0" y="619.0" font-size="13" font-weight="600" fill="#0f172a">critical_waiting</text><rect x="269.7" y="607.0" width="36.5" height="21" rx="10.5" fill="#eef2ff"/><text x="277.7" y="620.0" font-size="11" font-weight="600" fill="#3730a3">int</text><line x1="58.0" y1="628.0" x2="308.0" y2="628.0" stroke="#e2e8f0" stroke-width="1" stroke-dasharray="2 4"/><text x="58.0" y="646.0" font-size="13" font-weight="600" fill="#0f172a">moderate_waiting</text><rect x="269.7" y="634.0" width="36.5" height="21" rx="10.5" fill="#eef2ff"/><text x="277.7" y="647.0" font-size="11" font-weight="600" fill="#3730a3">int</text><line x1="58.0" y1="655.0" x2="308.0" y2="655.0" stroke="#e2e8f0" stroke-width="1" stroke-dasharray="2 4"/><text x="58.0" y="673.0" font-size="13" font-weight="600" fill="#0f172a">treated</text><rect x="269.7" y="661.0" width="36.5" height="21" rx="10.5" fill="#eef2ff"/><text x="277.7" y="674.0" font-size="11" font-weight="600" fill="#3730a3">int</text><line x1="58.0" y1="682.0" x2="308.0" y2="682.0" stroke="#e2e8f0" stroke-width="1" stroke-dasharray="2 4"/><text x="58.0" y="700.0" font-size="13" font-weight="600" fill="#0f172a">deteriorated</text><rect x="269.7" y="688.0" width="36.5" height="21" rx="10.5" fill="#eef2ff"/><text x="277.7" y="701.0" font-size="11" font-weight="600" fill="#3730a3">int</text><line x1="58.0" y1="709.0" x2="308.0" y2="709.0" stroke="#e2e8f0" stroke-width="1" stroke-dasharray="2 4"/><text x="58.0" y="727.0" font-size="13" font-weight="600" fill="#0f172a">outcomes</text><rect x="269.7" y="715.0" width="36.5" height="21" rx="10.5" fill="#eef2ff"/><text x="277.7" y="728.0" font-size="11" font-weight="600" fill="#3730a3">int</text><line x1="58.0" y1="736.0" x2="308.0" y2="736.0" stroke="#e2e8f0" stroke-width="1" stroke-dasharray="2 4"/><text x="58.0" y="753.0" font-size="11.5" font-weight="500" fill="#64748b">+1 more</text><text x="328.0" y="561.0" font-size="11" font-weight="700" fill="#64748b" letter-spacing="1.6">ACTIONS</text><rect x="328.0" y="575.0" width="120.2" height="22" rx="11.0" fill="#eef2ff"/><text x="336.0" y="589.0" font-size="12" font-weight="600" fill="#3730a3">treat_critical</text><rect x="328.0" y="605.0" width="120.2" height="22" rx="11.0" fill="#eef2ff"/><text x="336.0" y="619.0" font-size="12" font-weight="600" fill="#3730a3">treat_moderate</text><rect x="456.2" y="605.0" width="45.8" height="22" rx="11.0" fill="#eef2ff"/><text x="464.2" y="619.0" font-size="12" font-weight="600" fill="#3730a3">wait</text><text x="328.0" y="657.0" font-size="11" font-weight="700" fill="#64748b" letter-spacing="1.6">DYNAMICS</text><circle cx="337.0" cy="682.0" r="8" fill="#059669"/><path d="M333.4,682.0 l2.4,2.4 l4-4.4" fill="none" stroke="#fff" stroke-width="1.8" stroke-linecap="round"/><text x="352.0" y="686.0" font-size="13" font-weight="700" fill="#0f172a">code (from function)</text><text x="328.0" y="715.0" font-size="11" font-weight="700" fill="#64748b" letter-spacing="1.6">DETAILS</text><circle cx="332.0" cy="729.0" r="2.6" fill="#2563eb"/><text x="342.0" y="733.0" font-size="12" font-weight="600" fill="#0f172a">5 rules</text><text x="570.0" y="561.0" font-size="11" font-weight="700" fill="#64748b" letter-spacing="1.6">SAMPLE ROLLOUT</text><rect x="570.0" y="575.0" width="272.0" height="132" rx="14" fill="#eef2ff" stroke="#e2e8f0" stroke-width="1"/><path class="series" d="M 584.0 693.0 L 584.0 693.0 L 604.3 684.3 L 624.7 675.7 L 645.0 667.0 L 665.3 658.3 L 685.7 649.7 L 706.0 641.0 L 726.3 632.3 L 746.7 623.7 L 767.0 615.0 L 787.3 606.3 L 807.7 597.7 L 828.0 589.0 L 828.0 693.0 Z" fill="url(#garea)"/><polyline class="series" points="584.0,693.0 604.3,684.3 624.7,675.7 645.0,667.0 665.3,658.3 685.7,649.7 706.0,641.0 726.3,632.3 746.7,623.7 767.0,615.0 787.3,606.3 807.7,597.7 828.0,589.0" fill="none" stroke="#2563eb" stroke-width="2.4" stroke-linejoin="round"/><circle cx="828.0" cy="589.0" r="3.2" fill="#2563eb"/><polyline class="series" points="584.0,693.0 604.3,658.3 624.7,623.7 645.0,589.0 665.3,589.0 685.7,589.0 706.0,589.0 726.3,589.0 746.7,589.0 767.0,589.0 787.3,589.0 807.7,589.0 828.0,589.0" fill="none" stroke="#0f9d8f" stroke-width="1.8" stroke-opacity="0.9" stroke-linejoin="round"/><polyline class="series" points="584.0,693.0 604.3,648.4 624.7,633.6 645.0,589.0 665.3,589.0 685.7,589.0 706.0,589.0 726.3,589.0 746.7,589.0 767.0,589.0 787.3,589.0 807.7,589.0 828.0,589.0" fill="none" stroke="#d97706" stroke-width="1.8" stroke-opacity="0.9" stroke-linejoin="round"/><polyline class="series" points="584.0,589.0 604.3,615.0 624.7,667.0 645.0,693.0 665.3,693.0 685.7,693.0 706.0,693.0 726.3,693.0 746.7,693.0 767.0,693.0 787.3,693.0 807.7,693.0 828.0,693.0" fill="none" stroke="#db2777" stroke-width="1.8" stroke-opacity="0.9" stroke-linejoin="round"/><rect x="570.0" y="714.0" width="10" height="10" rx="2.5" fill="#2563eb"/><text x="585.0" y="723.0" font-size="11" font-weight="600" fill="#64748b">tick ↑</text><rect x="638.6" y="714.0" width="10" height="10" rx="2.5" fill="#0f9d8f"/><text x="653.6" y="723.0" font-size="11" font-weight="600" fill="#64748b">spend ↑</text><rect x="713.8" y="714.0" width="10" height="10" rx="2.5" fill="#d97706"/><text x="728.8" y="723.0" font-size="11" font-weight="600" fill="#64748b">outcomes ↑</text><rect x="808.8" y="714.0" width="10" height="10" rx="2.5" fill="#db2777"/><text x="823.8" y="723.0" font-size="11" font-weight="600" fill="#64748b">critical_waiting ↓</text><line x1="58" y1="779.0" x2="842" y2="779.0" stroke="#e2e8f0" stroke-width="1"/><text x="58.0" y="799.0" font-size="11" font-weight="500" fill="#64748b">openworld_spec_version 1.0  ·  lineage: E08/E26 triage world</text><text x="842.0" y="799.0" font-size="12" font-weight="800" fill="#2563eb" text-anchor="end">OpenWorld</text></svg>