<svg xmlns="http://www.w3.org/2000/svg" width="1000" height="480" font-family="monospace" font-size="11">
<rect width="1000" height="480" fill="#f9f9f9"/>
<text x="500" y="18" text-anchor="middle" font-size="13" font-weight="bold" fill="#222">Axis 2: Gap Fraction vs Slate Size K (N=100 personas, 100 trials/cell)</text>
<rect x="60" y="45" width="440" height="365" fill="white" stroke="#ccc" stroke-width="1"/>
<text x="280" y="39" text-anchor="middle" fill="#333" font-size="12" font-weight="bold">Archetype-seeded slates</text>
<line x1="60" y1="410.0" x2="500" y2="410.0" stroke="#ddd" stroke-dasharray="4,3"/>
<text x="56" y="414.0" text-anchor="end" fill="#555">0.00</text>
<line x1="60" y1="318.8" x2="500" y2="318.8" stroke="#ddd" stroke-dasharray="4,3"/>
<text x="56" y="322.8" text-anchor="end" fill="#555">0.25</text>
<line x1="60" y1="227.5" x2="500" y2="227.5" stroke="#ddd" stroke-dasharray="4,3"/>
<text x="56" y="231.5" text-anchor="end" fill="#555">0.50</text>
<line x1="60" y1="136.2" x2="500" y2="136.2" stroke="#ddd" stroke-dasharray="4,3"/>
<text x="56" y="140.2" text-anchor="end" fill="#555">0.75</text>
<line x1="60" y1="45.0" x2="500" y2="45.0" stroke="#ddd" stroke-dasharray="4,3"/>
<text x="56" y="49.0" text-anchor="end" fill="#555">1.00</text>
<line x1="60.0" y1="45" x2="60.0" y2="410" stroke="#eee"/>
<text x="60.0" y="426" text-anchor="middle" fill="#555">K=5</text>
<line x1="206.7" y1="45" x2="206.7" y2="410" stroke="#eee"/>
<text x="206.7" y="426" text-anchor="middle" fill="#555">K=7</text>
<line x1="353.3" y1="45" x2="353.3" y2="410" stroke="#eee"/>
<text x="353.3" y="426" text-anchor="middle" fill="#555">K=15</text>
<line x1="500.0" y1="45" x2="500.0" y2="410" stroke="#eee"/>
<text x="500.0" y="426" text-anchor="middle" fill="#555">K=30</text>
<path d="M 60.0,326.8 L 206.7,326.8 L 353.3,402.3 L 500.0,403.3" fill="none" stroke="#999" stroke-width="2" stroke-dasharray=""/>
<circle cx="60.0" cy="326.8" r="4" fill="#999" fill-opacity="0.8"/>
<circle cx="206.7" cy="326.8" r="4" fill="#999" fill-opacity="0.8"/>
<circle cx="353.3" cy="402.3" r="4" fill="#999" fill-opacity="0.8"/>
<circle cx="500.0" cy="403.3" r="4" fill="#999" fill-opacity="0.8"/>
<path d="M 60.0,289.1 L 206.7,323.2 L 353.3,385.8 L 500.0,399.9" fill="none" stroke="#999" stroke-width="2" stroke-dasharray="6,3"/>
<circle cx="60.0" cy="289.1" r="4" fill="#999" fill-opacity="0.8"/>
<circle cx="206.7" cy="323.2" r="4" fill="#999" fill-opacity="0.8"/>
<circle cx="353.3" cy="385.8" r="4" fill="#999" fill-opacity="0.8"/>
<circle cx="500.0" cy="399.9" r="4" fill="#999" fill-opacity="0.8"/>
<path d="M 60.0,308.4 L 206.7,308.4 L 353.3,308.4 L 500.0,308.4" fill="none" stroke="#4C72B0" stroke-width="2" stroke-dasharray=""/>
<circle cx="60.0" cy="308.4" r="4" fill="#4C72B0" fill-opacity="0.8"/>
<circle cx="206.7" cy="308.4" r="4" fill="#4C72B0" fill-opacity="0.8"/>
<circle cx="353.3" cy="308.4" r="4" fill="#4C72B0" fill-opacity="0.8"/>
<circle cx="500.0" cy="308.4" r="4" fill="#4C72B0" fill-opacity="0.8"/>
<path d="M 60.0,262.3 L 206.7,262.3 L 353.3,262.3 L 500.0,262.3" fill="none" stroke="#4C72B0" stroke-width="2" stroke-dasharray="6,3"/>
<circle cx="60.0" cy="262.3" r="4" fill="#4C72B0" fill-opacity="0.8"/>
<circle cx="206.7" cy="262.3" r="4" fill="#4C72B0" fill-opacity="0.8"/>
<circle cx="353.3" cy="262.3" r="4" fill="#4C72B0" fill-opacity="0.8"/>
<circle cx="500.0" cy="262.3" r="4" fill="#4C72B0" fill-opacity="0.8"/>
<path d="M 60.0,137.6 L 206.7,137.6 L 353.3,137.6 L 500.0,137.6" fill="none" stroke="#DD8452" stroke-width="2" stroke-dasharray=""/>
<circle cx="60.0" cy="137.6" r="4" fill="#DD8452" fill-opacity="0.8"/>
<circle cx="206.7" cy="137.6" r="4" fill="#DD8452" fill-opacity="0.8"/>
<circle cx="353.3" cy="137.6" r="4" fill="#DD8452" fill-opacity="0.8"/>
<circle cx="500.0" cy="137.6" r="4" fill="#DD8452" fill-opacity="0.8"/>
<path d="M 60.0,130.2 L 206.7,130.2 L 353.3,130.2 L 500.0,130.2" fill="none" stroke="#DD8452" stroke-width="2" stroke-dasharray="6,3"/>
<circle cx="60.0" cy="130.2" r="4" fill="#DD8452" fill-opacity="0.8"/>
<circle cx="206.7" cy="130.2" r="4" fill="#DD8452" fill-opacity="0.8"/>
<circle cx="353.3" cy="130.2" r="4" fill="#DD8452" fill-opacity="0.8"/>
<circle cx="500.0" cy="130.2" r="4" fill="#DD8452" fill-opacity="0.8"/>
<path d="M 60.0,137.6 L 206.7,137.6 L 353.3,137.6 L 500.0,137.6" fill="none" stroke="#55A868" stroke-width="2" stroke-dasharray=""/>
<circle cx="60.0" cy="137.6" r="4" fill="#55A868" fill-opacity="0.8"/>
<circle cx="206.7" cy="137.6" r="4" fill="#55A868" fill-opacity="0.8"/>
<circle cx="353.3" cy="137.6" r="4" fill="#55A868" fill-opacity="0.8"/>
<circle cx="500.0" cy="137.6" r="4" fill="#55A868" fill-opacity="0.8"/>
<path d="M 60.0,130.2 L 206.7,130.2 L 353.3,130.2 L 500.0,130.2" fill="none" stroke="#55A868" stroke-width="2" stroke-dasharray="6,3"/>
<circle cx="60.0" cy="130.2" r="4" fill="#55A868" fill-opacity="0.8"/>
<circle cx="206.7" cy="130.2" r="4" fill="#55A868" fill-opacity="0.8"/>
<circle cx="353.3" cy="130.2" r="4" fill="#55A868" fill-opacity="0.8"/>
<circle cx="500.0" cy="130.2" r="4" fill="#55A868" fill-opacity="0.8"/>
<path d="M 60.0,45.0 L 206.7,45.0 L 353.3,45.0 L 500.0,45.0" fill="none" stroke="#C44E52" stroke-width="2" stroke-dasharray=""/>
<circle cx="60.0" cy="45.0" r="4" fill="#C44E52" fill-opacity="0.8"/>
<circle cx="206.7" cy="45.0" r="4" fill="#C44E52" fill-opacity="0.8"/>
<circle cx="353.3" cy="45.0" r="4" fill="#C44E52" fill-opacity="0.8"/>
<circle cx="500.0" cy="45.0" r="4" fill="#C44E52" fill-opacity="0.8"/>
<path d="M 60.0,45.0 L 206.7,45.0 L 353.3,45.0 L 500.0,45.0" fill="none" stroke="#C44E52" stroke-width="2" stroke-dasharray="6,3"/>
<circle cx="60.0" cy="45.0" r="4" fill="#C44E52" fill-opacity="0.8"/>
<circle cx="206.7" cy="45.0" r="4" fill="#C44E52" fill-opacity="0.8"/>
<circle cx="353.3" cy="45.0" r="4" fill="#C44E52" fill-opacity="0.8"/>
<circle cx="500.0" cy="45.0" r="4" fill="#C44E52" fill-opacity="0.8"/>
<rect x="540" y="45" width="440" height="365" fill="white" stroke="#ccc" stroke-width="1"/>
<text x="760" y="39" text-anchor="middle" fill="#333" font-size="12" font-weight="bold">Fully-random slates</text>
<line x1="540" y1="410.0" x2="980" y2="410.0" stroke="#ddd" stroke-dasharray="4,3"/>
<line x1="540" y1="318.8" x2="980" y2="318.8" stroke="#ddd" stroke-dasharray="4,3"/>
<line x1="540" y1="227.5" x2="980" y2="227.5" stroke="#ddd" stroke-dasharray="4,3"/>
<line x1="540" y1="136.2" x2="980" y2="136.2" stroke="#ddd" stroke-dasharray="4,3"/>
<line x1="540" y1="45.0" x2="980" y2="45.0" stroke="#ddd" stroke-dasharray="4,3"/>
<line x1="540.0" y1="45" x2="540.0" y2="410" stroke="#eee"/>
<text x="540.0" y="426" text-anchor="middle" fill="#555">K=5</text>
<line x1="686.7" y1="45" x2="686.7" y2="410" stroke="#eee"/>
<text x="686.7" y="426" text-anchor="middle" fill="#555">K=7</text>
<line x1="833.3" y1="45" x2="833.3" y2="410" stroke="#eee"/>
<text x="833.3" y="426" text-anchor="middle" fill="#555">K=15</text>
<line x1="980.0" y1="45" x2="980.0" y2="410" stroke="#eee"/>
<text x="980.0" y="426" text-anchor="middle" fill="#555">K=30</text>
<path d="M 540.0,410.0 L 686.7,410.0 L 833.3,401.9 L 980.0,404.3" fill="none" stroke="#999" stroke-width="2" stroke-dasharray=""/>
<circle cx="540.0" cy="410.0" r="4" fill="#999" fill-opacity="0.8"/>
<circle cx="686.7" cy="410.0" r="4" fill="#999" fill-opacity="0.8"/>
<circle cx="833.3" cy="401.9" r="4" fill="#999" fill-opacity="0.8"/>
<circle cx="980.0" cy="404.3" r="4" fill="#999" fill-opacity="0.8"/>
<path d="M 540.0,410.0 L 686.7,410.0 L 833.3,401.1 L 980.0,395.2" fill="none" stroke="#999" stroke-width="2" stroke-dasharray="6,3"/>
<circle cx="540.0" cy="410.0" r="4" fill="#999" fill-opacity="0.8"/>
<circle cx="686.7" cy="410.0" r="4" fill="#999" fill-opacity="0.8"/>
<circle cx="833.3" cy="401.1" r="4" fill="#999" fill-opacity="0.8"/>
<circle cx="980.0" cy="395.2" r="4" fill="#999" fill-opacity="0.8"/>
<path d="M 540.0,346.6 L 686.7,341.2 L 833.3,316.2 L 980.0,314.0" fill="none" stroke="#4C72B0" stroke-width="2" stroke-dasharray=""/>
<circle cx="540.0" cy="346.6" r="4" fill="#4C72B0" fill-opacity="0.8"/>
<circle cx="686.7" cy="341.2" r="4" fill="#4C72B0" fill-opacity="0.8"/>
<circle cx="833.3" cy="316.2" r="4" fill="#4C72B0" fill-opacity="0.8"/>
<circle cx="980.0" cy="314.0" r="4" fill="#4C72B0" fill-opacity="0.8"/>
<path d="M 540.0,325.8 L 686.7,314.8 L 833.3,291.1 L 980.0,273.6" fill="none" stroke="#4C72B0" stroke-width="2" stroke-dasharray="6,3"/>
<circle cx="540.0" cy="325.8" r="4" fill="#4C72B0" fill-opacity="0.8"/>
<circle cx="686.7" cy="314.8" r="4" fill="#4C72B0" fill-opacity="0.8"/>
<circle cx="833.3" cy="291.1" r="4" fill="#4C72B0" fill-opacity="0.8"/>
<circle cx="980.0" cy="273.6" r="4" fill="#4C72B0" fill-opacity="0.8"/>
<path d="M 540.0,339.9 L 686.7,332.1 L 833.3,314.8 L 980.0,296.9" fill="none" stroke="#DD8452" stroke-width="2" stroke-dasharray=""/>
<circle cx="540.0" cy="339.9" r="4" fill="#DD8452" fill-opacity="0.8"/>
<circle cx="686.7" cy="332.1" r="4" fill="#DD8452" fill-opacity="0.8"/>
<circle cx="833.3" cy="314.8" r="4" fill="#DD8452" fill-opacity="0.8"/>
<circle cx="980.0" cy="296.9" r="4" fill="#DD8452" fill-opacity="0.8"/>
<path d="M 540.0,308.8 L 686.7,300.5 L 833.3,272.6 L 980.0,251.2" fill="none" stroke="#DD8452" stroke-width="2" stroke-dasharray="6,3"/>
<circle cx="540.0" cy="308.8" r="4" fill="#DD8452" fill-opacity="0.8"/>
<circle cx="686.7" cy="300.5" r="4" fill="#DD8452" fill-opacity="0.8"/>
<circle cx="833.3" cy="272.6" r="4" fill="#DD8452" fill-opacity="0.8"/>
<circle cx="980.0" cy="251.2" r="4" fill="#DD8452" fill-opacity="0.8"/>
<path d="M 540.0,339.7 L 686.7,334.3 L 833.3,314.8 L 980.0,303.2" fill="none" stroke="#55A868" stroke-width="2" stroke-dasharray=""/>
<circle cx="540.0" cy="339.7" r="4" fill="#55A868" fill-opacity="0.8"/>
<circle cx="686.7" cy="334.3" r="4" fill="#55A868" fill-opacity="0.8"/>
<circle cx="833.3" cy="314.8" r="4" fill="#55A868" fill-opacity="0.8"/>
<circle cx="980.0" cy="303.2" r="4" fill="#55A868" fill-opacity="0.8"/>
<path d="M 540.0,317.0 L 686.7,300.5 L 833.3,272.6 L 980.0,253.1" fill="none" stroke="#55A868" stroke-width="2" stroke-dasharray="6,3"/>
<circle cx="540.0" cy="317.0" r="4" fill="#55A868" fill-opacity="0.8"/>
<circle cx="686.7" cy="300.5" r="4" fill="#55A868" fill-opacity="0.8"/>
<circle cx="833.3" cy="272.6" r="4" fill="#55A868" fill-opacity="0.8"/>
<circle cx="980.0" cy="253.1" r="4" fill="#55A868" fill-opacity="0.8"/>
<path d="M 540.0,45.0 L 686.7,45.0 L 833.3,45.0 L 980.0,45.0" fill="none" stroke="#C44E52" stroke-width="2" stroke-dasharray=""/>
<circle cx="540.0" cy="45.0" r="4" fill="#C44E52" fill-opacity="0.8"/>
<circle cx="686.7" cy="45.0" r="4" fill="#C44E52" fill-opacity="0.8"/>
<circle cx="833.3" cy="45.0" r="4" fill="#C44E52" fill-opacity="0.8"/>
<circle cx="980.0" cy="45.0" r="4" fill="#C44E52" fill-opacity="0.8"/>
<path d="M 540.0,45.0 L 686.7,45.0 L 833.3,45.0 L 980.0,45.0" fill="none" stroke="#C44E52" stroke-width="2" stroke-dasharray="6,3"/>
<circle cx="540.0" cy="45.0" r="4" fill="#C44E52" fill-opacity="0.8"/>
<circle cx="686.7" cy="45.0" r="4" fill="#C44E52" fill-opacity="0.8"/>
<circle cx="833.3" cy="45.0" r="4" fill="#C44E52" fill-opacity="0.8"/>
<circle cx="980.0" cy="45.0" r="4" fill="#C44E52" fill-opacity="0.8"/>
<line x1="60" y1="455" x2="80" y2="455" stroke="#999" stroke-width="2.5"/>
<text x="84" y="459" fill="#333">Z</text>
<line x1="130" y1="455" x2="150" y2="455" stroke="#4C72B0" stroke-width="2.5"/>
<text x="154" y="459" fill="#333">A</text>
<line x1="200" y1="455" x2="220" y2="455" stroke="#DD8452" stroke-width="2.5"/>
<text x="224" y="459" fill="#333">C_CN</text>
<line x1="270" y1="455" x2="290" y2="455" stroke="#55A868" stroke-width="2.5"/>
<text x="294" y="459" fill="#333">C_PP</text>
<line x1="340" y1="455" x2="360" y2="455" stroke="#C44E52" stroke-width="2.5"/>
<text x="364" y="459" fill="#333">D</text>
<line x1="430" y1="455" x2="450" y2="455" stroke="#888" stroke-width="2" stroke-dasharray=""/>
<text x="454" y="459" fill="#333">centrist</text>
<line x1="520" y1="455" x2="540" y2="455" stroke="#888" stroke-width="2" stroke-dasharray="6,3"/>
<text x="544" y="459" fill="#333">off_axis</text>
</svg>