<svg xmlns="http://www.w3.org/2000/svg" width="900" height="480" font-family="monospace" font-size="11">
<rect width="900" height="480" fill="#f9f9f9"/>
<text x="450" y="18" text-anchor="middle" font-size="13" font-weight="bold" fill="#222">Axis 1: Gap Fraction by Population Distribution (N=100, 100 trials/cell)</text>
<rect x="65" y="50" width="815" height="340" fill="white" stroke="#ccc" stroke-width="1"/>
<line x1="65" y1="390.0" x2="880" y2="390.0" stroke="#ddd" stroke-dasharray="4,3"/>
<text x="61" y="394.0" text-anchor="end" fill="#555">0.00</text>
<line x1="65" y1="305.0" x2="880" y2="305.0" stroke="#ddd" stroke-dasharray="4,3"/>
<text x="61" y="309.0" text-anchor="end" fill="#555">0.25</text>
<line x1="65" y1="220.0" x2="880" y2="220.0" stroke="#ddd" stroke-dasharray="4,3"/>
<text x="61" y="224.0" text-anchor="end" fill="#555">0.50</text>
<line x1="65" y1="135.0" x2="880" y2="135.0" stroke="#ddd" stroke-dasharray="4,3"/>
<text x="61" y="139.0" text-anchor="end" fill="#555">0.75</text>
<line x1="65" y1="50.0" x2="880" y2="50.0" stroke="#ddd" stroke-dasharray="4,3"/>
<text x="61" y="54.0" text-anchor="end" fill="#555">1.00</text>
<text x="146.5" y="406" text-anchor="middle" fill="#333">P1</text>
<text x="146.5" y="420" text-anchor="middle" fill="#666" font-size="9">unimodal</text>
<rect x="65.0" y="133.7" width="23.3" height="256.3" fill="#4C72B0ff" stroke="none"/>
<rect x="88.3" y="132.6" width="23.3" height="257.4" fill="#4C72B099" stroke="none"/>
<rect x="111.6" y="133.7" width="23.3" height="256.3" fill="#DD8452ff" stroke="none"/>
<rect x="134.9" y="132.6" width="23.3" height="257.4" fill="#DD845299" stroke="none"/>
<rect x="158.1" y="50.0" width="23.3" height="340.0" fill="#C44E52ff" stroke="none"/>
<rect x="181.4" y="50.0" width="23.3" height="340.0" fill="#C44E5299" stroke="none"/>
<text x="309.5" y="406" text-anchor="middle" fill="#333">P2</text>
<text x="309.5" y="420" text-anchor="middle" fill="#666" font-size="9">bimodal_sym</text>
<rect x="228.0" y="295.4" width="23.3" height="94.6" fill="#4C72B0ff" stroke="none"/>
<rect x="251.3" y="252.4" width="23.3" height="137.6" fill="#4C72B099" stroke="none"/>
<rect x="274.6" y="136.2" width="23.3" height="253.8" fill="#DD8452ff" stroke="none"/>
<rect x="297.9" y="129.4" width="23.3" height="260.6" fill="#DD845299" stroke="none"/>
<rect x="321.1" y="50.0" width="23.3" height="340.0" fill="#C44E52ff" stroke="none"/>
<rect x="344.4" y="50.0" width="23.3" height="340.0" fill="#C44E5299" stroke="none"/>
<text x="472.5" y="406" text-anchor="middle" fill="#333">P3</text>
<text x="472.5" y="420" text-anchor="middle" fill="#666" font-size="9">bimodal_asym</text>
<rect x="391.0" y="264.5" width="23.3" height="125.5" fill="#4C72B0ff" stroke="none"/>
<rect x="414.3" y="203.9" width="23.3" height="186.1" fill="#4C72B099" stroke="none"/>
<rect x="437.6" y="144.4" width="23.3" height="245.6" fill="#DD8452ff" stroke="none"/>
<rect x="460.9" y="132.9" width="23.3" height="257.1" fill="#DD845299" stroke="none"/>
<rect x="484.1" y="50.0" width="23.3" height="340.0" fill="#C44E52ff" stroke="none"/>
<rect x="507.4" y="50.0" width="23.3" height="340.0" fill="#C44E5299" stroke="none"/>
<text x="635.5" y="406" text-anchor="middle" fill="#333">P4</text>
<text x="635.5" y="420" text-anchor="middle" fill="#666" font-size="9">trimodal</text>
<rect x="554.0" y="135.8" width="23.3" height="254.2" fill="#4C72B0ff" stroke="none"/>
<rect x="577.3" y="118.5" width="23.3" height="271.5" fill="#4C72B099" stroke="none"/>
<rect x="600.6" y="135.8" width="23.3" height="254.2" fill="#DD8452ff" stroke="none"/>
<rect x="623.9" y="118.5" width="23.3" height="271.5" fill="#DD845299" stroke="none"/>
<rect x="647.1" y="50.0" width="23.3" height="340.0" fill="#C44E52ff" stroke="none"/>
<rect x="670.4" y="50.0" width="23.3" height="340.0" fill="#C44E5299" stroke="none"/>
<text x="798.5" y="406" text-anchor="middle" fill="#333">P5</text>
<text x="798.5" y="420" text-anchor="middle" fill="#666" font-size="9">heavy_polar</text>
<rect x="717.0" y="390.0" width="23.3" height="0.0" fill="#4C72B0ff" stroke="none"/>
<rect x="740.3" y="390.0" width="23.3" height="0.0" fill="#4C72B099" stroke="none"/>
<rect x="763.6" y="143.9" width="23.3" height="246.1" fill="#DD8452ff" stroke="none"/>
<rect x="786.9" y="139.8" width="23.3" height="250.2" fill="#DD845299" stroke="none"/>
<rect x="810.1" y="50.0" width="23.3" height="340.0" fill="#C44E52ff" stroke="none"/>
<rect x="833.4" y="50.0" width="23.3" height="340.0" fill="#C44E5299" stroke="none"/>
<rect x="65" y="445" width="12" height="12" fill="#4C72B0ff"/>
<text x="80" y="455" fill="#333">A</text>
<rect x="135" y="445" width="12" height="12" fill="#DD8452ff"/>
<text x="150" y="455" fill="#333">C_CN</text>
<rect x="205" y="445" width="12" height="12" fill="#C44E52ff"/>
<text x="220" y="455" fill="#333">D</text>
<rect x="290" y="445" width="12" height="12" fill="#666ff"/>
<text x="305" y="455" fill="#333">centrist</text>
<rect x="390" y="445" width="12" height="12" fill="#66699"/>
<text x="405" y="455" fill="#333">off_axis</text>
</svg>