<svg xmlns="http://www.w3.org/2000/svg" width="900" height="500" font-family="monospace" font-size="11">
<rect width="900" height="500" fill="#f9f9f9"/>
<line x1="70" y1="410.0" x2="870" y2="410.0" stroke="#ddd" stroke-dasharray="4,3"/>
<text x="64" y="414.0" text-anchor="end" fill="#555">0.00</text>
<line x1="70" y1="317.5" x2="870" y2="317.5" stroke="#ddd" stroke-dasharray="4,3"/>
<text x="64" y="321.5" text-anchor="end" fill="#555">0.25</text>
<line x1="70" y1="225.0" x2="870" y2="225.0" stroke="#ddd" stroke-dasharray="4,3"/>
<text x="64" y="229.0" text-anchor="end" fill="#555">0.50</text>
<line x1="70" y1="132.5" x2="870" y2="132.5" stroke="#ddd" stroke-dasharray="4,3"/>
<text x="64" y="136.5" text-anchor="end" fill="#555">0.75</text>
<line x1="70" y1="40.0" x2="870" y2="40.0" stroke="#ddd" stroke-dasharray="4,3"/>
<text x="64" y="44.0" text-anchor="end" fill="#555">1.00</text>
<text x="14" y="225" text-anchor="middle" transform="rotate(-90,14,225)" fill="#333" font-size="12">Gap fraction</text>
<rect x="80" y="8" width="14" height="10" fill="#4C72B0"/>
<text x="98" y="18" fill="#333">centrist</text>
<rect x="240" y="8" width="14" height="10" fill="#DD8452"/>
<text x="258" y="18" fill="#333">off_axis</text>
<line x1="129.3" y1="280.0" x2="129.3" y2="296.6" stroke="#4C72B0" stroke-width="1.5"/>
<line x1="129.3" y1="410.0" x2="129.3" y2="410.0" stroke="#4C72B0" stroke-width="1.5"/>
<line x1="114.4" y1="280.0" x2="144.3" y2="280.0" stroke="#4C72B0" stroke-width="1.5"/>
<line x1="114.4" y1="410.0" x2="144.3" y2="410.0" stroke="#4C72B0" stroke-width="1.5"/>
<rect x="110.7" y="296.6" width="37.3" height="113.4" fill="#4C72B0" fill-opacity="0.3" stroke="#4C72B0" stroke-width="1.5"/>
<line x1="110.7" y1="336.4" x2="148.0" y2="336.4" stroke="#4C72B0" stroke-width="2.5"/>
<circle cx="129.3" cy="332.9" r="3" fill="#4C72B0" fill-opacity="0.7"/>
<circle cx="129.3" cy="116.6" r="2.5" fill="none" stroke="#4C72B0" stroke-width="1"/>
<circle cx="129.3" cy="116.6" r="2.5" fill="none" stroke="#4C72B0" stroke-width="1"/>
<circle cx="129.3" cy="116.6" r="2.5" fill="none" stroke="#4C72B0" stroke-width="1"/>
<circle cx="129.3" cy="116.6" r="2.5" fill="none" stroke="#4C72B0" stroke-width="1"/>
<circle cx="129.3" cy="116.6" r="2.5" fill="none" stroke="#4C72B0" stroke-width="1"/>
<circle cx="129.3" cy="116.6" r="2.5" fill="none" stroke="#4C72B0" stroke-width="1"/>
<line x1="170.7" y1="75.4" x2="170.7" y2="226.9" stroke="#DD8452" stroke-width="1.5"/>
<line x1="170.7" y1="410.0" x2="170.7" y2="410.0" stroke="#DD8452" stroke-width="1.5"/>
<line x1="155.7" y1="75.4" x2="185.6" y2="75.4" stroke="#DD8452" stroke-width="1.5"/>
<line x1="155.7" y1="410.0" x2="185.6" y2="410.0" stroke="#DD8452" stroke-width="1.5"/>
<rect x="152.0" y="226.9" width="37.3" height="183.1" fill="#DD8452" fill-opacity="0.3" stroke="#DD8452" stroke-width="1.5"/>
<line x1="152.0" y1="319.8" x2="189.3" y2="319.8" stroke="#DD8452" stroke-width="2.5"/>
<circle cx="170.7" cy="307.2" r="3" fill="#DD8452" fill-opacity="0.7"/>
<text x="150.0" y="428" text-anchor="middle" fill="#333">Z</text>
<text x="150.0" y="442" text-anchor="middle" fill="#333">(random)</text>
<line x1="289.3" y1="296.6" x2="289.3" y2="296.6" stroke="#4C72B0" stroke-width="1.5"/>
<line x1="289.3" y1="296.6" x2="289.3" y2="296.6" stroke="#4C72B0" stroke-width="1.5"/>
<line x1="274.4" y1="296.6" x2="304.3" y2="296.6" stroke="#4C72B0" stroke-width="1.5"/>
<line x1="274.4" y1="296.6" x2="304.3" y2="296.6" stroke="#4C72B0" stroke-width="1.5"/>
<rect x="270.7" y="296.6" width="37.3" height="0.0" fill="#4C72B0" fill-opacity="0.3" stroke="#4C72B0" stroke-width="1.5"/>
<line x1="270.7" y1="296.6" x2="308.0" y2="296.6" stroke="#4C72B0" stroke-width="2.5"/>
<circle cx="289.3" cy="296.6" r="3" fill="#4C72B0" fill-opacity="0.7"/>
<line x1="330.7" y1="226.9" x2="330.7" y2="226.9" stroke="#DD8452" stroke-width="1.5"/>
<line x1="330.7" y1="226.9" x2="330.7" y2="226.9" stroke="#DD8452" stroke-width="1.5"/>
<line x1="315.7" y1="226.9" x2="345.6" y2="226.9" stroke="#DD8452" stroke-width="1.5"/>
<line x1="315.7" y1="226.9" x2="345.6" y2="226.9" stroke="#DD8452" stroke-width="1.5"/>
<rect x="312.0" y="226.9" width="37.3" height="0.0" fill="#DD8452" fill-opacity="0.3" stroke="#DD8452" stroke-width="1.5"/>
<line x1="312.0" y1="226.9" x2="349.3" y2="226.9" stroke="#DD8452" stroke-width="2.5"/>
<circle cx="330.7" cy="226.9" r="3" fill="#DD8452" fill-opacity="0.7"/>
<text x="310.0" y="428" text-anchor="middle" fill="#333">A</text>
<text x="310.0" y="442" text-anchor="middle" fill="#333">(majority)</text>
<line x1="449.3" y1="116.6" x2="449.3" y2="116.6" stroke="#4C72B0" stroke-width="1.5"/>
<line x1="449.3" y1="116.6" x2="449.3" y2="116.6" stroke="#4C72B0" stroke-width="1.5"/>
<line x1="434.4" y1="116.6" x2="464.3" y2="116.6" stroke="#4C72B0" stroke-width="1.5"/>
<line x1="434.4" y1="116.6" x2="464.3" y2="116.6" stroke="#4C72B0" stroke-width="1.5"/>
<rect x="430.7" y="116.6" width="37.3" height="0.0" fill="#4C72B0" fill-opacity="0.3" stroke="#4C72B0" stroke-width="1.5"/>
<line x1="430.7" y1="116.6" x2="468.0" y2="116.6" stroke="#4C72B0" stroke-width="2.5"/>
<circle cx="449.3" cy="116.6" r="3" fill="#4C72B0" fill-opacity="0.7"/>
<line x1="490.7" y1="75.4" x2="490.7" y2="75.4" stroke="#DD8452" stroke-width="1.5"/>
<line x1="490.7" y1="75.4" x2="490.7" y2="75.4" stroke="#DD8452" stroke-width="1.5"/>
<line x1="475.7" y1="75.4" x2="505.6" y2="75.4" stroke="#DD8452" stroke-width="1.5"/>
<line x1="475.7" y1="75.4" x2="505.6" y2="75.4" stroke="#DD8452" stroke-width="1.5"/>
<rect x="472.0" y="75.4" width="37.3" height="0.0" fill="#DD8452" fill-opacity="0.3" stroke="#DD8452" stroke-width="1.5"/>
<line x1="472.0" y1="75.4" x2="509.3" y2="75.4" stroke="#DD8452" stroke-width="2.5"/>
<circle cx="490.7" cy="75.4" r="3" fill="#DD8452" fill-opacity="0.7"/>
<text x="470.0" y="428" text-anchor="middle" fill="#333">C_CN</text>
<text x="470.0" y="442" text-anchor="middle" fill="#333">(Comm.Notes)</text>
<line x1="609.3" y1="116.6" x2="609.3" y2="116.6" stroke="#4C72B0" stroke-width="1.5"/>
<line x1="609.3" y1="116.6" x2="609.3" y2="116.6" stroke="#4C72B0" stroke-width="1.5"/>
<line x1="594.4" y1="116.6" x2="624.3" y2="116.6" stroke="#4C72B0" stroke-width="1.5"/>
<line x1="594.4" y1="116.6" x2="624.3" y2="116.6" stroke="#4C72B0" stroke-width="1.5"/>
<rect x="590.7" y="116.6" width="37.3" height="0.0" fill="#4C72B0" fill-opacity="0.3" stroke="#4C72B0" stroke-width="1.5"/>
<line x1="590.7" y1="116.6" x2="628.0" y2="116.6" stroke="#4C72B0" stroke-width="2.5"/>
<circle cx="609.3" cy="116.6" r="3" fill="#4C72B0" fill-opacity="0.7"/>
<line x1="650.7" y1="75.4" x2="650.7" y2="75.4" stroke="#DD8452" stroke-width="1.5"/>
<line x1="650.7" y1="75.4" x2="650.7" y2="75.4" stroke="#DD8452" stroke-width="1.5"/>
<line x1="635.7" y1="75.4" x2="665.6" y2="75.4" stroke="#DD8452" stroke-width="1.5"/>
<line x1="635.7" y1="75.4" x2="665.6" y2="75.4" stroke="#DD8452" stroke-width="1.5"/>
<rect x="632.0" y="75.4" width="37.3" height="0.0" fill="#DD8452" fill-opacity="0.3" stroke="#DD8452" stroke-width="1.5"/>
<line x1="632.0" y1="75.4" x2="669.3" y2="75.4" stroke="#DD8452" stroke-width="2.5"/>
<circle cx="650.7" cy="75.4" r="3" fill="#DD8452" fill-opacity="0.7"/>
<text x="630.0" y="428" text-anchor="middle" fill="#333">C_PP</text>
<text x="630.0" y="442" text-anchor="middle" fill="#333">(polarity)</text>
<line x1="769.3" y1="40.0" x2="769.3" y2="40.0" stroke="#4C72B0" stroke-width="1.5"/>
<line x1="769.3" y1="40.0" x2="769.3" y2="40.0" stroke="#4C72B0" stroke-width="1.5"/>
<line x1="754.4" y1="40.0" x2="784.3" y2="40.0" stroke="#4C72B0" stroke-width="1.5"/>
<line x1="754.4" y1="40.0" x2="784.3" y2="40.0" stroke="#4C72B0" stroke-width="1.5"/>
<rect x="750.7" y="40.0" width="37.3" height="0.0" fill="#4C72B0" fill-opacity="0.3" stroke="#4C72B0" stroke-width="1.5"/>
<line x1="750.7" y1="40.0" x2="788.0" y2="40.0" stroke="#4C72B0" stroke-width="2.5"/>
<circle cx="769.3" cy="40.0" r="3" fill="#4C72B0" fill-opacity="0.7"/>
<line x1="810.7" y1="40.0" x2="810.7" y2="40.0" stroke="#DD8452" stroke-width="1.5"/>
<line x1="810.7" y1="40.0" x2="810.7" y2="40.0" stroke="#DD8452" stroke-width="1.5"/>
<line x1="795.7" y1="40.0" x2="825.6" y2="40.0" stroke="#DD8452" stroke-width="1.5"/>
<line x1="795.7" y1="40.0" x2="825.6" y2="40.0" stroke="#DD8452" stroke-width="1.5"/>
<rect x="792.0" y="40.0" width="37.3" height="0.0" fill="#DD8452" fill-opacity="0.3" stroke="#DD8452" stroke-width="1.5"/>
<line x1="792.0" y1="40.0" x2="829.3" y2="40.0" stroke="#DD8452" stroke-width="2.5"/>
<circle cx="810.7" cy="40.0" r="3" fill="#DD8452" fill-opacity="0.7"/>
<text x="790.0" y="428" text-anchor="middle" fill="#333">D</text>
<text x="790.0" y="442" text-anchor="middle" fill="#333">(oracle)</text>
<line x1="70" y1="40" x2="70" y2="410" stroke="#333" stroke-width="1.5"/>
<line x1="70" y1="410" x2="870" y2="410" stroke="#333" stroke-width="1.5"/>
<text x="450" y="16" text-anchor="middle" fill="#222" font-size="13" font-weight="bold">World 1 Bridging: Gap Fraction by Condition (N=20 personas, 50 trials)</text>
</svg>