<svg xmlns="http://www.w3.org/2000/svg" viewBox="0 0 1200 636" width="1200" height="636" font-family="'Iowan Old Style','Palatino Linotype',Palatino,Georgia,serif">
<defs>
    <linearGradient id="bg" x1="0" y1="0" x2="0" y2="1"><stop offset="0" stop-color="#fcfbf8"/><stop offset="1" stop-color="#eef0ec"/></linearGradient>
    <linearGradient id="acc" x1="0" y1="0" x2="1" y2="0"><stop offset="0" stop-color="#1d4ed8"/><stop offset="1" stop-color="#0891b2"/></linearGradient>
    <linearGradient id="gBuild" x1="0" y1="0" x2="1" y2="0"><stop offset="0" stop-color="#1d4ed8"/><stop offset="1" stop-color="#3b82f6"/></linearGradient>
    <linearGradient id="gOpt" x1="0" y1="0" x2="1" y2="0"><stop offset="0" stop-color="#b45309"/><stop offset="1" stop-color="#d97706"/></linearGradient>
    <linearGradient id="gDep" x1="0" y1="0" x2="1" y2="0"><stop offset="0" stop-color="#0f766e"/><stop offset="1" stop-color="#0891b2"/></linearGradient>
    <pattern id="grid" width="26" height="26" patternUnits="userSpaceOnUse"><path d="M26 0 H0 V26" fill="none" stroke="#8aa0c2" stroke-width="0.6" opacity="0.20"/></pattern>
    <filter id="sh" x="-40%" y="-40%" width="180%" height="180%"><feDropShadow dx="0" dy="6" stdDeviation="11" flood-color="#16202e" flood-opacity="0.15"/></filter>
    <marker id="arr" markerWidth="10" markerHeight="10" refX="6.5" refY="3" orient="auto"><path d="M0,0 L7,3 L0,6 Z" fill="#1d4ed8"/></marker>
    <clipPath id="clip0"><rect x="452" y="60" width="688" height="156" rx="17"/></clipPath><clipPath id="clip1"><rect x="452" y="240" width="688" height="156" rx="17"/></clipPath><clipPath id="clip2"><rect x="452" y="420" width="688" height="156" rx="17"/></clipPath>
  </defs>
<rect width="1200" height="636" fill="url(#bg)"/><rect width="1200" height="636" fill="url(#grid)"/><rect x="0" y="0" width="1200" height="6" fill="url(#acc)"/>
<g stroke="#1d4ed8" stroke-width="1.5" opacity="0.45" fill="none"><path d="M28 44 L28 28 L44 28"/><path d="M1172 44 L1172 28 L1156 28"/><path d="M28 604 L28 618 L44 618"/><path d="M1172 604 L1172 618 L1156 618"/></g>
<g filter="url(#sh)"><rect x="44" y="216" width="330" height="204" rx="18" fill="#f4f6fb"/></g>
<rect x="44" y="216" width="330" height="204" rx="18" fill="none" stroke="#c7d2ea" stroke-width="1.6"/>
<g transform="translate(140,300)">
    <rect x="-40" y="-40" width="80" height="80" rx="14" fill="#ffffff" stroke="#1d4ed8" stroke-width="4.4"/>
    <rect x="-24" y="-24" width="48" height="48" rx="9" fill="none" stroke="#b45309" stroke-width="3.8"/>
    <rect x="-10" y="-10" width="20" height="20" rx="5" fill="#0f766e"/></g>
<text x="140" y="372" text-anchor="middle" font-size="19" font-weight="800" letter-spacing="1.5" fill="#16202e">ONE VERIFIED</text>
<text x="140" y="396" text-anchor="middle" font-size="19" font-weight="800" letter-spacing="1.5" fill="#16202e">WORLD</text>
<text x="209" y="248" font-size="13.5" fill="#5b6675">a reusable artifact —</text>
<text x="209" y="268" font-size="13.5" fill="#5b6675">spend it any of 3 ways,</text>
<text x="209" y="288" font-size="13.5" fill="#5b6675">fine-tune or not.</text>
<g filter="url(#sh)"><rect x="452" y="60" width="688" height="156" rx="17" fill="#ffffff"/></g>
  <g clip-path="url(#clip0)"><rect x="452" y="60" width="688" height="7" fill="url(#gBuild)"/></g>
  <rect x="452" y="60" width="688" height="156" rx="17" fill="none" stroke="#dde2ea" stroke-width="1.5"/>
  <circle cx="490" cy="102" r="15" fill="#eaeef6"/>
  <text x="490" y="108" text-anchor="middle" font-size="17" font-weight="800" fill="#1d4ed8" font-family="ui-monospace,Menlo,monospace">1</text>
  <text x="518" y="109" font-size="21" font-weight="800" letter-spacing="2" fill="#1d4ed8" font-family="ui-monospace,SFMono-Regular,Menlo,monospace">USE IT AS A TOOL</text>
  <rect x="1029" y="90" width="91" height="24" rx="12" fill="#eaeef6"/>
  <text x="1074" y="106" text-anchor="middle" font-size="12.5" font-weight="700" letter-spacing="0.5" fill="#1e3a8a" font-family="ui-monospace,Menlo,monospace">no training</text>
  <text x="482" y="144" font-size="15.5" fill="#16202e">Serve the world and call it — plan, query exact next-states, or verify.</text>
  <rect x="482" y="164" width="67" height="24" rx="12" fill="#f4f6fb" stroke="#dde2ea" stroke-width="1"/>
  <path d="M494,177 l3.2,4 l7,-9" fill="none" stroke="#0f766e" stroke-width="2.3" stroke-linecap="round" stroke-linejoin="round"/>
  <text x="510" y="180.5" font-size="12.5" fill="#0f766e" font-family="ui-monospace,Menlo,monospace">exact</text>
  <rect x="559" y="164" width="131" height="24" rx="12" fill="#f4f6fb" stroke="#dde2ea" stroke-width="1"/>
  <text x="573" y="180.5" font-size="12.5" fill="#16202e" font-family="ui-monospace,Menlo,monospace">tool at inference</text>
  <rect x="700" y="164" width="78" height="24" rx="12" fill="#f4f6fb" stroke="#dde2ea" stroke-width="1"/>
  <text x="714" y="180.5" font-size="12.5" fill="#16202e" font-family="ui-monospace,Menlo,monospace">any world</text>
  <text x="1120" y="200" text-anchor="end" font-size="12.5" fill="#1e3a8a" font-family="ui-monospace,SFMono-Regular,Menlo,monospace">openworld serve specs/*.json --allow-code</text>
  <path d="M372 318 C 410 318, 414 138, 444 138" fill="none" stroke="#1d4ed8" stroke-width="2.2" opacity="0.8" marker-end="url(#arr)"/>
<g filter="url(#sh)"><rect x="452" y="240" width="688" height="156" rx="17" fill="#ffffff"/></g>
  <g clip-path="url(#clip1)"><rect x="452" y="240" width="688" height="7" fill="url(#gOpt)"/></g>
  <rect x="452" y="240" width="688" height="156" rx="17" fill="none" stroke="#dde2ea" stroke-width="1.5"/>
  <circle cx="490" cy="282" r="15" fill="#f6eee2"/>
  <text x="490" y="288" text-anchor="middle" font-size="17" font-weight="800" fill="#b45309" font-family="ui-monospace,Menlo,monospace">2</text>
  <text x="518" y="289" font-size="21" font-weight="800" letter-spacing="2" fill="#b45309" font-family="ui-monospace,SFMono-Regular,Menlo,monospace">DISTILL ONE WORLD</text>
  <rect x="982" y="270" width="138" height="24" rx="12" fill="#f6eee2"/>
  <text x="1051" y="286" text-anchor="middle" font-size="12.5" font-weight="700" letter-spacing="0.5" fill="#9a4408" font-family="ui-monospace,Menlo,monospace">test-time training</text>
  <text x="482" y="324" font-size="15.5" fill="#16202e">Generate exact trajectories from one world; QLoRA-tune its skill into weights.</text>
  <rect x="482" y="344" width="107" height="24" rx="12" fill="#f4f6fb" stroke="#dde2ea" stroke-width="1"/>
  <path d="M493,355.5 q3,-3 6,0 q3,3 6,0 M493,360 q3,-3 6,0 q3,3 6,0" fill="none" stroke="#5b6675" stroke-width="1.6"/>
  <text x="510" y="360.5" font-size="12.5" fill="#5b6675" font-family="ui-monospace,Menlo,monospace">approximate</text>
  <rect x="599" y="344" width="152" height="24" rx="12" fill="#f4f6fb" stroke="#dde2ea" stroke-width="1"/>
  <text x="613" y="360.5" font-size="12.5" fill="#16202e" font-family="ui-monospace,Menlo,monospace">no tool at inference</text>
  <rect x="761" y="344" width="125" height="24" rx="12" fill="#f4f6fb" stroke="#dde2ea" stroke-width="1"/>
  <text x="775" y="360.5" font-size="12.5" fill="#16202e" font-family="ui-monospace,Menlo,monospace">within the world</text>
  <text x="1120" y="380" text-anchor="end" font-size="12.5" fill="#9a4408" font-family="ui-monospace,SFMono-Regular,Menlo,monospace">experiments/e80_*_ttt.py</text>
  <path d="M372 318 C 410 318, 414 318, 444 318" fill="none" stroke="#1d4ed8" stroke-width="2.2" opacity="0.8" marker-end="url(#arr)"/>
<g filter="url(#sh)"><rect x="452" y="420" width="688" height="156" rx="17" fill="#ffffff"/></g>
  <g clip-path="url(#clip2)"><rect x="452" y="420" width="688" height="7" fill="url(#gDep)"/></g>
  <rect x="452" y="420" width="688" height="156" rx="17" fill="none" stroke="#dde2ea" stroke-width="1.5"/>
  <circle cx="490" cy="462" r="15" fill="#e3f1ee"/>
  <text x="490" y="468" text-anchor="middle" font-size="17" font-weight="800" fill="#0f766e" font-family="ui-monospace,Menlo,monospace">3</text>
  <text x="518" y="469" font-size="21" font-weight="800" letter-spacing="2" fill="#0f766e" font-family="ui-monospace,SFMono-Regular,Menlo,monospace">TRAIN ACROSS MANY</text>
  <rect x="982" y="450" width="138" height="24" rx="12" fill="#e3f1ee"/>
  <text x="1051" y="466" text-anchor="middle" font-size="12.5" font-weight="700" letter-spacing="0.5" fill="#0b5c56" font-family="ui-monospace,Menlo,monospace">world-time compute</text>
  <text x="482" y="504" font-size="15.5" fill="#16202e">Traverse a family of worlds and generalize to held-out worlds you never trained on.</text>
  <rect x="482" y="524" width="107" height="24" rx="12" fill="#f4f6fb" stroke="#dde2ea" stroke-width="1"/>
  <path d="M493,535.5 q3,-3 6,0 q3,3 6,0 M493,540 q3,-3 6,0 q3,3 6,0" fill="none" stroke="#5b6675" stroke-width="1.6"/>
  <text x="510" y="540.5" font-size="12.5" fill="#5b6675" font-family="ui-monospace,Menlo,monospace">approximate</text>
  <rect x="599" y="524" width="152" height="24" rx="12" fill="#f4f6fb" stroke="#dde2ea" stroke-width="1"/>
  <text x="613" y="540.5" font-size="12.5" fill="#16202e" font-family="ui-monospace,Menlo,monospace">no tool at inference</text>
  <rect x="761" y="524" width="147" height="24" rx="12" fill="#f4f6fb" stroke="#dde2ea" stroke-width="1"/>
  <path d="M773,537 l3.2,4 l7,-9" fill="none" stroke="#0f766e" stroke-width="2.3" stroke-linecap="round" stroke-linejoin="round"/>
  <text x="789" y="540.5" font-size="12.5" fill="#0f766e" font-family="ui-monospace,Menlo,monospace">across the family</text>
  <text x="1120" y="560" text-anchor="end" font-size="12.5" fill="#0b5c56" font-family="ui-monospace,SFMono-Regular,Menlo,monospace">experiments/e74_scaling.py · e76_world_count.py</text>
  <path d="M372 318 C 410 318, 414 498, 444 498" fill="none" stroke="#1d4ed8" stroke-width="2.2" opacity="0.8" marker-end="url(#arr)"/>
<g filter="url(#sh)"><rect x="452" y="586" width="688" height="40" rx="20" fill="#16202e"/></g>
<text y="612" font-size="14.5" text-anchor="middle"><tspan x="522" font-weight="800" letter-spacing="1.5" fill="#f0d9b8">HYBRID</tspan><tspan x="836" font-weight="600" fill="#eef1f6">tool makes exact data  ·  training amortizes it  ·  tool stays the exact oracle</tspan></text>
<text x="438" y="612" text-anchor="end" font-size="12.5" fill="#5b6675">the powerful one:</text>
</svg>