<?xml version="1.0" encoding="UTF-8"?>
<svg xmlns="http://www.w3.org/2000/svg" viewBox="0 0 900 999" width="900" height="999" font-family="-apple-system,BlinkMacSystemFont,Segoe UI,Roboto,Helvetica,Arial,sans-serif"><defs><linearGradient id="gbg" x1="0" y1="0" x2="0" y2="1"><stop offset="0" stop-color="#fcfbf8"/><stop offset="1" stop-color="#eef0ec"/></linearGradient><linearGradient id="gnode" x1="0" y1="0" x2="0" y2="1"><stop offset="0" stop-color="#ffffff"/><stop offset="1" stop-color="#eef1f6"/></linearGradient><linearGradient id="gacc" x1="0" y1="0" x2="1" y2="0"><stop offset="0" stop-color="#1d4ed8"/><stop offset="1" stop-color="#0891b2"/></linearGradient><linearGradient id="garea" x1="0" y1="0" x2="0" y2="1"><stop offset="0" stop-color="#1d4ed8" stop-opacity="0.34"/><stop offset="1" stop-color="#1d4ed8" stop-opacity="0"/></linearGradient><filter id="sh" x="-30%" y="-30%" width="160%" height="160%"><feDropShadow dx="0" dy="5" stdDeviation="9" flood-color="#16202e" flood-opacity="0.14"/></filter><filter id="shsoft" x="-40%" y="-40%" width="180%" height="180%"><feDropShadow dx="0" dy="10" stdDeviation="22" flood-color="#16202e" flood-opacity="0.14"/></filter><marker id="arr" markerWidth="9" markerHeight="9" refX="6.5" refY="3" orient="auto"><path d="M0,0 L6.5,3 L0,6 Z" fill="#1d4ed8"/></marker><marker id="arrUp" markerWidth="9" markerHeight="9" refX="3" refY="6.2" orient="auto"><path d="M0,6.2 L3,0 L6,6.2 Z" fill="#0f766e"/></marker><pattern id="grid" width="24" height="24" patternUnits="userSpaceOnUse"><path d="M24 0 H0 V24" fill="none" stroke="#8aa0c2" stroke-width="0.6" opacity="0.35"/></pattern><pattern id="gridFine" width="22" height="22" patternUnits="userSpaceOnUse"><path d="M22 0 H0 V22" fill="none" stroke="#8aa0c2" stroke-width="0.5" opacity="0.28"/></pattern><filter id="glow" x="-60%" y="-60%" width="220%" height="220%"><feGaussianBlur stdDeviation="2.4" result="b"/><feMerge><feMergeNode in="b"/><feMergeNode in="SourceGraphic"/></feMerge></filter></defs><rect x="0" y="0" width="900" height="999" fill="url(#gbg)"/><g filter="url(#shsoft)"><rect x="26" y="26" width="848" height="947" rx="24" fill="url(#gbg)" stroke="#dde2ea" stroke-width="1"/></g><clipPath id="pc"><rect x="26" y="26" width="848" height="947" rx="24"/></clipPath><rect x="26" y="26" width="848" height="947" fill="url(#gridFine)" clip-path="url(#pc)"/><rect x="26" y="26" width="848" height="6" rx="3" fill="url(#gacc)"/><path d="M 39 51 L 39 39 L 51 39" fill="none" stroke="#1d4ed8" stroke-width="1.4" opacity="0.55"/><path d="M 861 51 L 861 39 L 849 39" fill="none" stroke="#1d4ed8" stroke-width="1.4" opacity="0.55"/><path d="M 39 948 L 39 960 L 51 960" fill="none" stroke="#1d4ed8" stroke-width="1.4" opacity="0.55"/><path d="M 861 948 L 861 960 L 849 960" fill="none" stroke="#1d4ed8" stroke-width="1.4" opacity="0.55"/><g transform="translate(73.0,76.0)"><rect x="-15.0" y="-15.0" width="30.0" height="30.0" rx="5.1" fill="none" stroke="#1d4ed8" stroke-width="2.1"/><rect x="-9.0" y="-9.0" width="18.0" height="18.0" rx="3.6" fill="none" stroke="#b45309" stroke-width="1.9"/><rect x="-3.6" y="-3.6" width="7.2" height="7.2" rx="1.8" fill="#0f766e"/></g><text x="98.0" y="58.0" font-size="9.5" font-weight="700" fill="#1d4ed8" letter-spacing="2.4" font-family="ui-monospace,SFMono-Regular,Menlo,Consolas,monospace">OPENWORLD · MODEL CARD</text><text x="98.0" y="84.0" font-size="29" font-weight="700" fill="#16202e" font-family="'Iowan Old Style','Palatino Linotype',Palatino,Georgia,serif">goal_as_procedure</text><text x="58.0" y="104.0" font-size="14" font-weight="500" fill="#5b6675">A hidden-order button panel: the win is an ordered PROCEDURE (press the four buttons</text><text x="58.0" y="123.0" font-size="14" font-weight="500" fill="#5b6675">in the right sequence), not a state to maximize. Distills the ARC-AGI-3 paper&#x27;s…</text><rect x="810.2" y="48.0" width="45.8" height="22" rx="11.0" fill="#eaeef6"/><text x="818.2" y="62.0" font-size="12" font-weight="600" fill="#1e3a8a">v0.1</text><line x1="58" y1="154.0" x2="842" y2="154.0" stroke="#dde2ea" stroke-width="1"/><rect x="58" y="192.0" width="784" height="325.0" rx="16" fill="#eef1f6" fill-opacity="0.5" stroke="#dde2ea" stroke-width="1"/><text x="58.0" y="180.0" font-size="11" font-weight="700" fill="#5b6675" letter-spacing="1.6" font-family="ui-monospace,SFMono-Regular,Menlo,Consolas,monospace">STATE-TRANSITION GRAPH</text><path d="M 180.0 362.5 C 284.5 362.5, 284.5 265.5, 386.0 265.5" fill="none" stroke="#1d4ed8" stroke-width="1.7" stroke-opacity="0.85" marker-end="url(#arr)"/><rect x="258.5" y="306.0" width="52.0" height="15" rx="7.5" fill="#fcfbf8" stroke="#dde2ea" stroke-width="0.8"/><text x="284.5" y="317.0" font-size="9.5" font-weight="600" fill="#1d4ed8" text-anchor="middle">press_0</text><path d="M 180.0 362.5 C 284.5 362.5, 284.5 362.5, 386.0 362.5" fill="none" stroke="#1d4ed8" stroke-width="1.7" stroke-opacity="0.85" marker-end="url(#arr)"/><rect x="258.5" y="354.5" width="52.0" height="15" rx="7.5" fill="#fcfbf8" stroke="#dde2ea" stroke-width="0.8"/><text x="284.5" y="365.5" font-size="9.5" font-weight="600" fill="#1d4ed8" text-anchor="middle">press_1</text><path d="M 180.0 362.5 C 284.5 362.5, 284.5 459.5, 386.0 459.5" fill="none" stroke="#1d4ed8" stroke-width="1.7" stroke-opacity="0.85" marker-end="url(#arr)"/><rect x="258.5" y="403.0" width="52.0" height="15" rx="7.5" fill="#fcfbf8" stroke="#dde2ea" stroke-width="0.8"/><text x="284.5" y="414.0" font-size="9.5" font-weight="600" fill="#1d4ed8" text-anchor="middle">press_2</text><path d="M 180.0 362.5 C 284.5 362.5, 284.5 265.5, 386.0 265.5" fill="none" stroke="#1d4ed8" stroke-width="1.7" stroke-opacity="0.85" marker-end="url(#arr)"/><rect x="258.5" y="306.0" width="52.0" height="15" rx="7.5" fill="#fcfbf8" stroke="#dde2ea" stroke-width="0.8"/><text x="284.5" y="317.0" font-size="9.5" font-weight="600" fill="#1d4ed8" text-anchor="middle">press_3</text><path d="M 511.0 265.5 C 615.5 265.5, 615.5 314.0, 717.0 314.0" fill="none" stroke="#1d4ed8" stroke-width="1.7" stroke-opacity="0.85" marker-end="url(#arr)"/><rect x="589.5" y="281.8" width="52.0" height="15" rx="7.5" fill="#fcfbf8" stroke="#dde2ea" stroke-width="0.8"/><text x="615.5" y="292.8" font-size="9.5" font-weight="600" fill="#1d4ed8" text-anchor="middle">press_0</text><path d="M 511.0 265.5 C 615.5 265.5, 615.5 411.0, 717.0 411.0" fill="none" stroke="#1d4ed8" stroke-width="1.7" stroke-opacity="0.85" marker-end="url(#arr)"/><rect x="589.5" y="330.2" width="52.0" height="15" rx="7.5" fill="#fcfbf8" stroke="#dde2ea" stroke-width="0.8"/><text x="615.5" y="341.2" font-size="9.5" font-weight="600" fill="#1d4ed8" text-anchor="middle">press_1</text><path d="M 511.0 265.5 C 615.5 265.5, 615.5 314.0, 717.0 314.0" fill="none" stroke="#1d4ed8" stroke-width="1.7" stroke-opacity="0.85" marker-end="url(#arr)"/><rect x="589.5" y="281.8" width="52.0" height="15" rx="7.5" fill="#fcfbf8" stroke="#dde2ea" stroke-width="0.8"/><text x="615.5" y="292.8" font-size="9.5" font-weight="600" fill="#1d4ed8" text-anchor="middle">press_3</text><g filter="url(#sh)"><rect x="58.0" y="327.0" width="122.0" height="71.0" rx="13" fill="url(#gnode)" stroke="#1d4ed8" stroke-width="2.2"/></g><text x="60.0" y="320.0" font-size="10" font-weight="700" fill="#1d4ed8">▶ start</text><text x="119.0" y="352.0" font-size="13" font-weight="700" fill="#16202e" text-anchor="middle">broke 0</text><text x="119.0" y="367.0" font-size="11" font-weight="500" fill="#5b6675" text-anchor="middle">lit 0</text><text x="119.0" y="382.0" font-size="11" font-weight="500" fill="#5b6675" text-anchor="middle">presses 0</text><g filter="url(#sh)"><rect x="389.0" y="230.0" width="122.0" height="71.0" rx="13" fill="url(#gnode)" stroke="#dde2ea" stroke-width="1.2"/></g><text x="450.0" y="255.0" font-size="13" font-weight="700" fill="#16202e" text-anchor="middle">broke 1</text><text x="450.0" y="270.0" font-size="11" font-weight="500" fill="#5b6675" text-anchor="middle">lit 0</text><text x="450.0" y="285.0" font-size="11" font-weight="500" fill="#5b6675" text-anchor="middle">presses 1</text><g filter="url(#sh)"><rect x="389.0" y="327.0" width="122.0" height="71.0" rx="13" fill="url(#gnode)" stroke="#dde2ea" stroke-width="1.2"/></g><text x="450.0" y="352.0" font-size="13" font-weight="700" fill="#16202e" text-anchor="middle">broke 1</text><text x="450.0" y="367.0" font-size="11" font-weight="500" fill="#5b6675" text-anchor="middle">lit 1</text><text x="450.0" y="382.0" font-size="11" font-weight="500" fill="#5b6675" text-anchor="middle">presses 1</text><g filter="url(#sh)"><rect x="389.0" y="424.0" width="122.0" height="71.0" rx="13" fill="url(#gnode)" stroke="#dde2ea" stroke-width="1.2"/></g><text x="450.0" y="449.0" font-size="13" font-weight="700" fill="#16202e" text-anchor="middle">broke 0</text><text x="450.0" y="464.0" font-size="11" font-weight="500" fill="#5b6675" text-anchor="middle">lit 0</text><text x="450.0" y="479.0" font-size="11" font-weight="500" fill="#5b6675" text-anchor="middle">presses 1</text><g filter="url(#sh)"><rect x="720.0" y="278.5" width="122.0" height="71.0" rx="13" fill="url(#gnode)" stroke="#dde2ea" stroke-width="1.2"/></g><text x="781.0" y="303.5" font-size="13" font-weight="700" fill="#16202e" text-anchor="middle">broke 2</text><text x="781.0" y="318.5" font-size="11" font-weight="500" fill="#5b6675" text-anchor="middle">lit 0</text><text x="781.0" y="333.5" font-size="11" font-weight="500" fill="#5b6675" text-anchor="middle">presses 2</text><g filter="url(#sh)"><rect x="720.0" y="375.5" width="122.0" height="71.0" rx="13" fill="url(#gnode)" stroke="#dde2ea" stroke-width="1.2"/></g><text x="781.0" y="400.5" font-size="13" font-weight="700" fill="#16202e" text-anchor="middle">broke 2</text><text x="781.0" y="415.5" font-size="11" font-weight="500" fill="#5b6675" text-anchor="middle">lit 1</text><text x="781.0" y="430.5" font-size="11" font-weight="500" fill="#5b6675" text-anchor="middle">presses 2</text><rect x="58.0" y="533.0" width="3" height="11" rx="1.5" fill="#1d4ed8"/><text x="67.0" y="542.0" font-size="10.5" font-weight="700" fill="#5b6675" letter-spacing="1.8" font-family="ui-monospace,SFMono-Regular,Menlo,Consolas,monospace">STATE SCHEMA</text><rect x="54.0" y="556.0" width="258.0" height="24" rx="6" fill="#1d4ed8" fill-opacity="0.035"/><text x="62.0" y="572.0" font-size="12" font-weight="600" fill="#16202e" font-family="ui-monospace,SFMono-Regular,Menlo,Consolas,monospace">progress</text><rect x="273.9" y="560.0" width="34.1" height="17" rx="5" fill="#eaeef6"/><text x="280.9" y="572.0" font-size="10.5" font-weight="700" fill="#1d4ed8" font-family="ui-monospace,SFMono-Regular,Menlo,Consolas,monospace">int</text><text x="265.9" y="572.0" font-size="10.5" font-weight="600" fill="#5b6675" text-anchor="end" font-family="ui-monospace,SFMono-Regular,Menlo,Consolas,monospace">0</text><text x="62.0" y="598.0" font-size="12" font-weight="600" fill="#16202e" font-family="ui-monospace,SFMono-Regular,Menlo,Consolas,monospace">unlocked</text><rect x="267.2" y="586.0" width="40.8" height="17" rx="5" fill="#eaeef6"/><text x="274.2" y="598.0" font-size="10.5" font-weight="700" fill="#1d4ed8" font-family="ui-monospace,SFMono-Regular,Menlo,Consolas,monospace">bool</text><text x="259.2" y="598.0" font-size="10.5" font-weight="600" fill="#5b6675" text-anchor="end" font-family="ui-monospace,SFMono-Regular,Menlo,Consolas,monospace">false</text><rect x="54.0" y="608.0" width="258.0" height="24" rx="6" fill="#1d4ed8" fill-opacity="0.035"/><text x="62.0" y="624.0" font-size="12" font-weight="600" fill="#16202e" font-family="ui-monospace,SFMono-Regular,Menlo,Consolas,monospace">presses</text><rect x="273.9" y="612.0" width="34.1" height="17" rx="5" fill="#eaeef6"/><text x="280.9" y="624.0" font-size="10.5" font-weight="700" fill="#1d4ed8" font-family="ui-monospace,SFMono-Regular,Menlo,Consolas,monospace">int</text><text x="265.9" y="624.0" font-size="10.5" font-weight="600" fill="#5b6675" text-anchor="end" font-family="ui-monospace,SFMono-Regular,Menlo,Consolas,monospace">0</text><text x="62.0" y="650.0" font-size="12" font-weight="600" fill="#16202e" font-family="ui-monospace,SFMono-Regular,Menlo,Consolas,monospace">lit</text><rect x="273.9" y="638.0" width="34.1" height="17" rx="5" fill="#eaeef6"/><text x="280.9" y="650.0" font-size="10.5" font-weight="700" fill="#1d4ed8" font-family="ui-monospace,SFMono-Regular,Menlo,Consolas,monospace">int</text><text x="265.9" y="650.0" font-size="10.5" font-weight="600" fill="#5b6675" text-anchor="end" font-family="ui-monospace,SFMono-Regular,Menlo,Consolas,monospace">0</text><rect x="54.0" y="660.0" width="258.0" height="24" rx="6" fill="#1d4ed8" fill-opacity="0.035"/><text x="62.0" y="676.0" font-size="12" font-weight="600" fill="#16202e" font-family="ui-monospace,SFMono-Regular,Menlo,Consolas,monospace">broke</text><rect x="273.9" y="664.0" width="34.1" height="17" rx="5" fill="#eaeef6"/><text x="280.9" y="676.0" font-size="10.5" font-weight="700" fill="#1d4ed8" font-family="ui-monospace,SFMono-Regular,Menlo,Consolas,monospace">int</text><text x="265.9" y="676.0" font-size="10.5" font-weight="600" fill="#5b6675" text-anchor="end" font-family="ui-monospace,SFMono-Regular,Menlo,Consolas,monospace">0</text><rect x="328.0" y="533.0" width="3" height="11" rx="1.5" fill="#1d4ed8"/><text x="337.0" y="542.0" font-size="10.5" font-weight="700" fill="#5b6675" letter-spacing="1.8" font-family="ui-monospace,SFMono-Regular,Menlo,Consolas,monospace">ACTIONS</text><rect x="328.0" y="557.0" width="63.5" height="20" rx="6" fill="#eaeef6" stroke="#1d4ed8" stroke-width="1" stroke-opacity="0.16"/><text x="337.0" y="571.0" font-size="10.5" font-weight="600" fill="#1e3a8a" font-family="ui-monospace,SFMono-Regular,Menlo,Consolas,monospace">press_0</text><rect x="398.5" y="557.0" width="63.5" height="20" rx="6" fill="#eaeef6" stroke="#1d4ed8" stroke-width="1" stroke-opacity="0.16"/><text x="407.5" y="571.0" font-size="10.5" font-weight="600" fill="#1e3a8a" font-family="ui-monospace,SFMono-Regular,Menlo,Consolas,monospace">press_1</text><rect x="469.0" y="557.0" width="63.5" height="20" rx="6" fill="#eaeef6" stroke="#1d4ed8" stroke-width="1" stroke-opacity="0.16"/><text x="478.0" y="571.0" font-size="10.5" font-weight="600" fill="#1e3a8a" font-family="ui-monospace,SFMono-Regular,Menlo,Consolas,monospace">press_2</text><rect x="328.0" y="583.0" width="63.5" height="20" rx="6" fill="#eaeef6" stroke="#1d4ed8" stroke-width="1" stroke-opacity="0.16"/><text x="337.0" y="597.0" font-size="10.5" font-weight="600" fill="#1e3a8a" font-family="ui-monospace,SFMono-Regular,Menlo,Consolas,monospace">press_3</text><rect x="328.0" y="627.0" width="3" height="11" rx="1.5" fill="#1d4ed8"/><text x="337.0" y="636.0" font-size="10.5" font-weight="700" fill="#5b6675" letter-spacing="1.8" font-family="ui-monospace,SFMono-Regular,Menlo,Consolas,monospace">DYNAMICS</text><circle cx="337.0" cy="657.0" r="8" fill="#0f766e"/><path d="M333.4,657.0 l2.4,2.4 l4-4.4" fill="none" stroke="#fff" stroke-width="1.8" stroke-linecap="round" stroke-linejoin="round"/><text x="352.0" y="661.0" font-size="12.5" font-weight="700" fill="#16202e">verified code</text><rect x="328.0" y="687.0" width="3" height="11" rx="1.5" fill="#1d4ed8"/><text x="337.0" y="696.0" font-size="10.5" font-weight="700" fill="#5b6675" letter-spacing="1.8" font-family="ui-monospace,SFMono-Regular,Menlo,Consolas,monospace">OBJECTIVES</text><circle cx="332.0" cy="715.0" r="2.4" fill="#1d4ed8"/><text x="341.0" y="719.0" font-size="11.5" font-weight="600" fill="#16202e" font-family="ui-monospace,SFMono-Regular,Menlo,Consolas,monospace">unlock (ordered procedure) · …</text><circle cx="332.0" cy="734.0" r="2.4" fill="#1d4ed8"/><text x="341.0" y="738.0" font-size="11.5" font-weight="600" fill="#16202e" font-family="ui-monospace,SFMono-Regular,Menlo,Consolas,monospace">do not chase the decoy · note…</text><circle cx="332.0" cy="753.0" r="2.4" fill="#1d4ed8"/><text x="341.0" y="757.0" font-size="11.5" font-weight="600" fill="#16202e" font-family="ui-monospace,SFMono-Regular,Menlo,Consolas,monospace">efficiency · minimize presses</text><rect x="570.0" y="533.0" width="3" height="11" rx="1.5" fill="#1d4ed8"/><text x="579.0" y="542.0" font-size="10.5" font-weight="700" fill="#5b6675" letter-spacing="1.8" font-family="ui-monospace,SFMono-Regular,Menlo,Consolas,monospace">SAMPLE ROLLOUT</text><text x="842.0" y="542.0" font-size="9.5" font-weight="600" fill="#5b6675" text-anchor="end" font-family="ui-monospace,SFMono-Regular,Menlo,Consolas,monospace">12 steps · press_1</text><rect x="570.0" y="555.0" width="272.0" height="130" rx="12" fill="#eef1f6" stroke="#dde2ea" stroke-width="1"/><text x="578.0" y="569.0" font-size="9" font-weight="600" fill="#5b6675" font-family="ui-monospace,SFMono-Regular,Menlo,Consolas,monospace">12</text><text x="578.0" y="677.0" font-size="9" font-weight="600" fill="#5b6675" font-family="ui-monospace,SFMono-Regular,Menlo,Consolas,monospace">0</text><line x1="586.0" y1="595.5" x2="826.0" y2="595.5" stroke="#dde2ea" stroke-width="0.8" stroke-dasharray="1 5" opacity="0.7"/><line x1="586.0" y1="620.0" x2="826.0" y2="620.0" stroke="#dde2ea" stroke-width="0.8" stroke-dasharray="1 5" opacity="0.7"/><line x1="586.0" y1="644.5" x2="826.0" y2="644.5" stroke="#dde2ea" stroke-width="0.8" stroke-dasharray="1 5" opacity="0.7"/><path class="series" d="M 586.0 669.0 L 586.0 669.0 L 606.0 660.8 L 626.0 652.7 L 646.0 644.5 L 666.0 636.3 L 686.0 628.2 L 706.0 620.0 L 726.0 611.8 L 746.0 603.7 L 766.0 595.5 L 786.0 587.3 L 806.0 579.2 L 826.0 571.0 L 826.0 669.0 Z" fill="url(#garea)"/><polyline class="series" points="586.0,669.0 606.0,660.8 626.0,652.7 646.0,644.5 666.0,636.3 686.0,628.2 706.0,620.0 726.0,611.8 746.0,603.7 766.0,595.5 786.0,587.3 806.0,579.2 826.0,571.0" fill="none" stroke="#1d4ed8" stroke-width="2.4" stroke-linejoin="round"/><circle cx="826.0" cy="571.0" r="3.4" fill="#1d4ed8"/><text x="822.0" y="563.0" font-size="9.5" font-weight="700" fill="#1d4ed8" text-anchor="end" font-family="ui-monospace,SFMono-Regular,Menlo,Consolas,monospace">12</text><polyline class="series" points="586.0,669.0 606.0,660.8 626.0,652.7 646.0,644.5 666.0,636.3 686.0,628.2 706.0,620.0 726.0,611.8 746.0,603.7 766.0,595.5 786.0,587.3 806.0,579.2 826.0,571.0" fill="none" stroke="#0f766e" stroke-width="1.8" stroke-opacity="0.9" stroke-linejoin="round"/><polyline class="series" points="586.0,669.0 606.0,660.8 626.0,652.7 646.0,644.5 666.0,636.3 686.0,628.2 706.0,620.0 726.0,611.8 746.0,603.7 766.0,595.5 786.0,587.3 806.0,579.2 826.0,571.0" fill="none" stroke="#b45309" stroke-width="1.8" stroke-opacity="0.9" stroke-linejoin="round"/><rect x="572.0" y="692.0" width="9" height="9" rx="2" fill="#1d4ed8"/><text x="586.0" y="701.0" font-size="10.5" font-weight="600" fill="#5b6675" font-family="ui-monospace,SFMono-Regular,Menlo,Consolas,monospace">presses ↑</text><rect x="656.7" y="692.0" width="9" height="9" rx="2" fill="#0f766e"/><text x="670.7" y="701.0" font-size="10.5" font-weight="600" fill="#5b6675" font-family="ui-monospace,SFMono-Regular,Menlo,Consolas,monospace">lit ↑</text><rect x="716.2" y="692.0" width="9" height="9" rx="2" fill="#b45309"/><text x="730.2" y="701.0" font-size="10.5" font-weight="600" fill="#5b6675" font-family="ui-monospace,SFMono-Regular,Menlo,Consolas,monospace">broke ↑</text><line x1="58" y1="784.0" x2="842" y2="784.0" stroke="#dde2ea" stroke-width="1"/><rect x="58.0" y="794.0" width="3" height="11" rx="1.5" fill="#1d4ed8"/><text x="67.0" y="803.0" font-size="10.5" font-weight="700" fill="#5b6675" letter-spacing="1.8" font-family="ui-monospace,SFMono-Regular,Menlo,Consolas,monospace">RULES — declared contract</text><text x="62.0" y="831.0" font-size="11" font-weight="800" fill="#1d4ed8" font-family="ui-monospace,SFMono-Regular,Menlo,Consolas,monospace">1</text><text x="80.0" y="831.0" font-size="11" font-weight="500" fill="#16202e">The win is an ordered PROCEDURE: press the buttons in a fixed hidden sequence.</text><text x="62.0" y="855.0" font-size="11" font-weight="800" fill="#1d4ed8" font-family="ui-monospace,SFMono-Regular,Menlo,Consolas,monospace">2</text><text x="80.0" y="855.0" font-size="11" font-weight="500" fill="#16202e">A correct next press advances progress; any wrong press resets progress to 0.</text><text x="62.0" y="879.0" font-size="11" font-weight="800" fill="#1d4ed8" font-family="ui-monospace,SFMono-Regular,Menlo,Consolas,monospace">3</text><text x="80.0" y="879.0" font-size="11" font-weight="500" fill="#16202e">Button 1 always lights the `lit` lamp --- a decoy that looks like progress.</text><text x="62.0" y="903.0" font-size="11" font-weight="800" fill="#1d4ed8" font-family="ui-monospace,SFMono-Regular,Menlo,Consolas,monospace">4</text><text x="80.0" y="903.0" font-size="11" font-weight="500" fill="#16202e">GOAL-AS-PROCEDURE (the ARC-AGI-3 lesson): maximizing the visible state `lit` presses button 1 forever and never</text><text x="80.0" y="918.0" font-size="11" font-weight="500" fill="#16202e">unlocks; only the ordered sequence [2,0,3,1] wins. A reward over a single frame cannot rank a procedure --- reason th…</text><text x="80.0" y="939.0" font-size="10.5" font-weight="500" fill="#5b6675" font-family="ui-monospace,SFMono-Regular,Menlo,Consolas,monospace">+ 1 more rules</text><line x1="58" y1="961.0" x2="842" y2="961.0" stroke="#dde2ea" stroke-width="1"/><text x="58.0" y="981.0" font-size="11" font-weight="500" fill="#5b6675">openworld_spec_version 1.0</text><a href="https://play.reactflow.dev" target="_blank"><text x="450.0" y="981.0" font-size="10.5" font-weight="700" fill="#1d4ed8" text-anchor="middle" font-family="ui-monospace,SFMono-Regular,Menlo,Consolas,monospace">▸ open in React Flow</text></a><text x="842.0" y="981.0" font-size="12" font-weight="800" fill="#1d4ed8" text-anchor="end">OpenWorld</text></svg>